<?xml version="1.0" encoding="utf-8" standalone="no"?>
<!DOCTYPE svg PUBLIC "-//W3C//DTD SVG 1.1//EN"
  "http://www.w3.org/Graphics/SVG/1.1/DTD/svg11.dtd">
<!-- Created with matplotlib (http://matplotlib.org/) -->
<svg height="432pt" version="1.1" viewBox="0 0 1512 432" width="1512pt" xmlns="http://www.w3.org/2000/svg" xmlns:xlink="http://www.w3.org/1999/xlink">
 <defs>
  <style type="text/css">
*{stroke-linecap:butt;stroke-linejoin:round;}
  </style>
 </defs>
 <g id="figure_1">
  <g id="patch_1">
   <path d="M 0 432 
L 1512 432 
L 1512 0 
L 0 0 
z
" style="fill:none;"/>
  </g>
  <g id="axes_1">
   <g id="patch_2">
    <path d="M 74.375599 372.340456 
L 494.02 372.340456 
L 494.02 37.8933 
L 74.375599 37.8933 
z
" style="fill:none;"/>
   </g>
   <g id="matplotlib.axis_1">
    <g id="xtick_1">
     <g id="line2d_1">
      <defs>
       <path d="M 0 0 
L 0 3.5 
" id="me895c7e9de" style="stroke:#000000;stroke-width:0.8;"/>
      </defs>
      <g>
       <use style="stroke:#000000;stroke-width:0.8;" x="93.450344" xlink:href="#me895c7e9de" y="372.340456"/>
      </g>
     </g>
     <g id="line2d_2">
      <defs>
       <path d="M 0 0 
L 0 -3.5 
" id="m44d2efbb0a" style="stroke:#000000;stroke-width:0.8;"/>
      </defs>
      <g>
       <use style="stroke:#000000;stroke-width:0.8;" x="93.450344" xlink:href="#m44d2efbb0a" y="37.8933"/>
      </g>
     </g>
     <g id="text_1">
      <!-- $0.0$ -->
      <defs>
       <path d="M 42 31.640625 
C 42 37.75 41.90625 48.125 37.703125 56.109375 
C 34 63.109375 28.09375 65.59375 22.90625 65.59375 
C 18.09375 65.59375 12 63.40625 8.203125 56.203125 
C 4.203125 48.71875 3.796875 39.4375 3.796875 31.640625 
C 3.796875 25.953125 3.90625 17.28125 7 9.671875 
C 11.296875 -0.609375 19 -2 22.90625 -2 
C 27.5 -2 34.5 -0.109375 38.59375 9.375 
C 41.59375 16.28125 42 24.359375 42 31.640625 
z
M 22.90625 -0.40625 
C 16.5 -0.40625 12.703125 5.078125 11.296875 12.6875 
C 10.203125 18.5625 10.203125 27.15625 10.203125 32.75 
C 10.203125 40.4375 10.203125 46.828125 11.5 52.921875 
C 13.40625 61.390625 19 64 22.90625 64 
C 27 64 32.296875 61.296875 34.203125 53.125 
C 35.5 47.4375 35.59375 40.734375 35.59375 32.75 
C 35.59375 26.25 35.59375 18.265625 34.40625 12.375 
C 32.296875 1.484375 26.40625 -0.40625 22.90625 -0.40625 
z
" id="CMR17-48"/>
       <path d="M 18.40625 4.796875 
C 18.40625 7.6875 16 9.671875 13.59375 9.671875 
C 10.703125 9.671875 8.703125 7.28125 8.703125 4.890625 
C 8.703125 2 11.09375 0 13.5 0 
C 16.40625 0 18.40625 2.390625 18.40625 4.796875 
z
" id="CMMI12-58"/>
      </defs>
      <g transform="translate(84.105565 389.714046)scale(0.14994 -0.14994)">
       <use transform="scale(0.996264)" xlink:href="#CMR17-48"/>
       <use transform="translate(45.690477 0)scale(0.996264)" xlink:href="#CMMI12-58"/>
       <use transform="translate(72.787654 0)scale(0.996264)" xlink:href="#CMR17-48"/>
      </g>
     </g>
    </g>
    <g id="xtick_2">
     <g id="line2d_3">
      <g>
       <use style="stroke:#000000;stroke-width:0.8;" x="169.749326" xlink:href="#me895c7e9de" y="372.340456"/>
      </g>
     </g>
     <g id="line2d_4">
      <g>
       <use style="stroke:#000000;stroke-width:0.8;" x="169.749326" xlink:href="#m44d2efbb0a" y="37.8933"/>
      </g>
     </g>
     <g id="text_2">
      <!-- $0.2$ -->
      <defs>
       <path d="M 41.703125 15.453125 
L 39.90625 15.453125 
C 38.90625 8.375 38.09375 7.171875 37.703125 6.5625 
C 37.203125 5.765625 30 5.765625 28.59375 5.765625 
L 9.40625 5.765625 
C 13 9.671875 20 16.75 28.5 24.953125 
C 34.59375 30.734375 41.703125 37.53125 41.703125 47.421875 
C 41.703125 59.21875 32.296875 66 21.796875 66 
C 10.796875 66 4.09375 56.3125 4.09375 47.34375 
C 4.09375 43.4375 7 42.9375 8.203125 42.9375 
C 9.203125 42.9375 12.203125 43.546875 12.203125 47.03125 
C 12.203125 50.109375 9.59375 51 8.203125 51 
C 7.59375 51 7 50.90625 6.59375 50.703125 
C 8.5 59.21875 14.296875 63.40625 20.40625 63.40625 
C 29.09375 63.40625 34.796875 56.515625 34.796875 47.421875 
C 34.796875 38.734375 29.703125 31.25 24 24.75 
L 4.09375 2.28125 
L 4.09375 0 
L 39.296875 0 
z
" id="CMR17-50"/>
      </defs>
      <g transform="translate(160.404547 389.714046)scale(0.14994 -0.14994)">
       <use transform="scale(0.996264)" xlink:href="#CMR17-48"/>
       <use transform="translate(45.690477 0)scale(0.996264)" xlink:href="#CMMI12-58"/>
       <use transform="translate(72.787654 0)scale(0.996264)" xlink:href="#CMR17-50"/>
      </g>
     </g>
    </g>
    <g id="xtick_3">
     <g id="line2d_5">
      <g>
       <use style="stroke:#000000;stroke-width:0.8;" x="246.048308" xlink:href="#me895c7e9de" y="372.340456"/>
      </g>
     </g>
     <g id="line2d_6">
      <g>
       <use style="stroke:#000000;stroke-width:0.8;" x="246.048308" xlink:href="#m44d2efbb0a" y="37.8933"/>
      </g>
     </g>
     <g id="text_3">
      <!-- $0.4$ -->
      <defs>
       <path d="M 33.59375 64.40625 
C 33.59375 66.5 33.5 66.5 31.703125 66.5 
L 2 19.59375 
L 2 17 
L 27.796875 17 
L 27.796875 7.140625 
C 27.796875 3.5 27.59375 2.5 20.59375 2.5 
L 18.703125 2.5 
L 18.703125 0 
C 21.90625 0 27.296875 0 30.703125 0 
C 34.09375 0 39.5 0 42.703125 0 
L 42.703125 2.5 
L 40.796875 2.5 
C 33.796875 2.5 33.59375 3.5 33.59375 7.140625 
L 33.59375 17 
L 43.796875 17 
L 43.796875 19.59375 
L 33.59375 19.59375 
z
M 28.09375 57.859375 
L 28.09375 19.59375 
L 4 19.59375 
z
" id="CMR17-52"/>
      </defs>
      <g transform="translate(236.703529 389.714046)scale(0.14994 -0.14994)">
       <use transform="scale(0.996264)" xlink:href="#CMR17-48"/>
       <use transform="translate(45.690477 0)scale(0.996264)" xlink:href="#CMMI12-58"/>
       <use transform="translate(72.787654 0)scale(0.996264)" xlink:href="#CMR17-52"/>
      </g>
     </g>
    </g>
    <g id="xtick_4">
     <g id="line2d_7">
      <g>
       <use style="stroke:#000000;stroke-width:0.8;" x="322.34729" xlink:href="#me895c7e9de" y="372.340456"/>
      </g>
     </g>
     <g id="line2d_8">
      <g>
       <use style="stroke:#000000;stroke-width:0.8;" x="322.34729" xlink:href="#m44d2efbb0a" y="37.8933"/>
      </g>
     </g>
     <g id="text_4">
      <!-- $0.6$ -->
      <defs>
       <path d="M 10.59375 34 
C 10.59375 57.65625 21.796875 63 28.296875 63 
C 30.40625 63 35.5 62.640625 37.5 59 
C 35.90625 59 32.90625 59 32.90625 55.515625 
C 32.90625 52.828125 35.09375 51.921875 36.5 51.921875 
C 37.40625 51.921875 40.09375 52.3125 40.09375 55.625 
C 40.09375 61.78125 35.09375 65.296875 28.203125 65.296875 
C 16.296875 65.296875 3.796875 52.96875 3.796875 31 
C 3.796875 3.953125 15.09375 -2 23.09375 -2 
C 32.796875 -2 42 6.671875 42 20.046875 
C 42 32.515625 33.90625 41.59375 23.703125 41.59375 
C 17.59375 41.59375 13.09375 37.609375 10.59375 30.625 
z
M 23.09375 0.390625 
C 10.796875 0.390625 10.796875 18.75 10.796875 22.4375 
C 10.796875 29.625 14.203125 40 23.5 40 
C 25.203125 40 30.09375 40 33.40625 33.125 
C 35.203125 29.21875 35.203125 25.140625 35.203125 20.140625 
C 35.203125 14.75 35.203125 10.78125 33.09375 6.78125 
C 30.90625 2.671875 27.703125 0.390625 23.09375 0.390625 
z
" id="CMR17-54"/>
      </defs>
      <g transform="translate(313.002511 389.714046)scale(0.14994 -0.14994)">
       <use transform="scale(0.996264)" xlink:href="#CMR17-48"/>
       <use transform="translate(45.690477 0)scale(0.996264)" xlink:href="#CMMI12-58"/>
       <use transform="translate(72.787654 0)scale(0.996264)" xlink:href="#CMR17-54"/>
      </g>
     </g>
    </g>
    <g id="xtick_5">
     <g id="line2d_9">
      <g>
       <use style="stroke:#000000;stroke-width:0.8;" x="398.646272" xlink:href="#me895c7e9de" y="372.340456"/>
      </g>
     </g>
     <g id="line2d_10">
      <g>
       <use style="stroke:#000000;stroke-width:0.8;" x="398.646272" xlink:href="#m44d2efbb0a" y="37.8933"/>
      </g>
     </g>
     <g id="text_5">
      <!-- $0.8$ -->
      <defs>
       <path d="M 27.203125 35.375 
C 33.5 38.546875 39.90625 43.328125 39.90625 50.984375 
C 39.90625 60.015625 31.09375 65.296875 23 65.296875 
C 13.90625 65.296875 5.90625 58.734375 5.90625 49.6875 
C 5.90625 47.203125 6.5 42.921875 10.40625 39.140625 
C 11.40625 38.15625 15.59375 35.171875 18.296875 33.28125 
C 13.796875 30.984375 3.296875 25.53125 3.296875 14.59375 
C 3.296875 4.359375 13.09375 -2 22.796875 -2 
C 33.5 -2 42.5 5.65625 42.5 15.78125 
C 42.5 24.84375 36.40625 29.015625 32.40625 31.703125 
z
M 14.09375 44.09375 
C 13.296875 44.59375 9.296875 47.671875 9.296875 52.359375 
C 9.296875 58.421875 15.59375 63 22.796875 63 
C 30.703125 63 36.5 57.4375 36.5 50.96875 
C 36.5 41.703125 26.09375 36.421875 25.59375 36.421875 
C 25.5 36.421875 25.40625 36.421875 24.59375 37.03125 
z
M 32.5 23.734375 
C 34 22.640625 38.796875 19.375 38.796875 13.296875 
C 38.796875 5.953125 31.40625 0.390625 23 0.390625 
C 13.90625 0.390625 7 6.84375 7 14.6875 
C 7 22.546875 13.09375 29.09375 20 32.1875 
z
" id="CMR17-56"/>
      </defs>
      <g transform="translate(389.301494 389.714046)scale(0.14994 -0.14994)">
       <use transform="scale(0.996264)" xlink:href="#CMR17-48"/>
       <use transform="translate(45.690477 0)scale(0.996264)" xlink:href="#CMMI12-58"/>
       <use transform="translate(72.787654 0)scale(0.996264)" xlink:href="#CMR17-56"/>
      </g>
     </g>
    </g>
    <g id="xtick_6">
     <g id="line2d_11">
      <g>
       <use style="stroke:#000000;stroke-width:0.8;" x="474.945254" xlink:href="#me895c7e9de" y="372.340456"/>
      </g>
     </g>
     <g id="line2d_12">
      <g>
       <use style="stroke:#000000;stroke-width:0.8;" x="474.945254" xlink:href="#m44d2efbb0a" y="37.8933"/>
      </g>
     </g>
     <g id="text_6">
      <!-- $1.0$ -->
      <defs>
       <path d="M 26.59375 63.40625 
C 26.59375 65.5 26.5 65.5 25.09375 65.5 
C 21.203125 61.1875 15.296875 59.796875 9.703125 59.796875 
C 9.40625 59.796875 8.90625 59.796875 8.796875 59.5 
C 8.703125 59.296875 8.703125 59.09375 8.703125 57 
C 11.796875 57 17 57.59375 21 59.984375 
L 21 7.203125 
C 21 3.6875 20.796875 2.5 12.203125 2.5 
L 9.203125 2.5 
L 9.203125 0 
C 14 0 19 0 23.796875 0 
C 28.59375 0 33.59375 0 38.40625 0 
L 38.40625 2.5 
L 35.40625 2.5 
C 26.796875 2.5 26.59375 3.59375 26.59375 7.15625 
z
" id="CMR17-49"/>
      </defs>
      <g transform="translate(465.600476 389.714046)scale(0.14994 -0.14994)">
       <use transform="scale(0.996264)" xlink:href="#CMR17-49"/>
       <use transform="translate(45.690477 0)scale(0.996264)" xlink:href="#CMMI12-58"/>
       <use transform="translate(72.787654 0)scale(0.996264)" xlink:href="#CMR17-48"/>
      </g>
     </g>
    </g>
    <g id="text_7">
     <!-- $\gamma$ -->
     <defs>
      <path d="M 37.796875 11.875 
C 37.59375 16.734375 37.40625 24.390625 33.59375 33.328125 
C 31.59375 38.3125 28.203125 43.5625 20.90625 43.5625 
C 8.59375 43.5625 1.90625 27.96875 1.90625 25.390625 
C 1.90625 24.484375 2.59375 24.484375 2.90625 24.484375 
C 3.796875 24.484375 3.796875 24.6875 4.296875 25.984375 
C 6.40625 32.140625 12.796875 37 19.703125 37 
C 33.59375 37 35.59375 21.609375 35.59375 11.78125 
C 35.59375 5.5 34.90625 3.4375 34.296875 1.4375 
C 32.40625 -4.71875 29.09375 -17.03125 29.09375 -19.8125 
C 29.09375 -20.609375 29.40625 -21.5 30.203125 -21.5 
C 31.703125 -21.5 32.59375 -18.21875 33.703125 -14.25 
C 36.09375 -5.515625 36.703125 -1.140625 37.203125 2.828125 
C 37.5 5.21875 43.203125 21.625 51.09375 37.21875 
C 51.796875 38.796875 53.203125 41.484375 53.203125 41.78125 
C 53.203125 41.875 53.09375 42.578125 52.203125 42.578125 
C 52 42.578125 51.5 42.578125 51.296875 42.171875 
C 51.09375 41.984375 47.59375 35.21875 44.59375 28.46875 
C 43.09375 25.09375 41.09375 20.625 37.796875 11.875 
z
" id="CMMI12-13"/>
     </defs>
     <g transform="translate(279.643877 409.071936)scale(0.18 -0.18)">
      <use transform="scale(0.996264)" xlink:href="#CMMI12-13"/>
     </g>
    </g>
   </g>
   <g id="matplotlib.axis_2">
    <g id="ytick_1">
     <g id="line2d_13">
      <defs>
       <path d="M 0 0 
L -3.5 0 
" id="md3d09f9c0e" style="stroke:#000000;stroke-width:0.8;"/>
      </defs>
      <g>
       <use style="stroke:#000000;stroke-width:0.8;" x="74.375599" xlink:href="#md3d09f9c0e" y="346.613752"/>
      </g>
     </g>
     <g id="line2d_14">
      <defs>
       <path d="M 0 0 
L 3.5 0 
" id="mbdb84ade81" style="stroke:#000000;stroke-width:0.8;"/>
      </defs>
      <g>
       <use style="stroke:#000000;stroke-width:0.8;" x="494.02" xlink:href="#mbdb84ade81" y="346.613752"/>
      </g>
     </g>
     <g id="text_8">
      <!-- $0.00$ -->
      <g transform="translate(41.372737 351.800547)scale(0.14994 -0.14994)">
       <use transform="scale(0.996264)" xlink:href="#CMR17-48"/>
       <use transform="translate(45.690477 0)scale(0.996264)" xlink:href="#CMMI12-58"/>
       <use transform="translate(72.787654 0)scale(0.996264)" xlink:href="#CMR17-48"/>
       <use transform="translate(118.478131 0)scale(0.996264)" xlink:href="#CMR17-48"/>
      </g>
     </g>
    </g>
    <g id="ytick_2">
     <g id="line2d_15">
      <g>
       <use style="stroke:#000000;stroke-width:0.8;" x="74.375599" xlink:href="#md3d09f9c0e" y="295.160343"/>
      </g>
     </g>
     <g id="line2d_16">
      <g>
       <use style="stroke:#000000;stroke-width:0.8;" x="494.02" xlink:href="#mbdb84ade81" y="295.160343"/>
      </g>
     </g>
     <g id="text_9">
      <!-- $0.02$ -->
      <g transform="translate(41.372737 300.347138)scale(0.14994 -0.14994)">
       <use transform="scale(0.996264)" xlink:href="#CMR17-48"/>
       <use transform="translate(45.690477 0)scale(0.996264)" xlink:href="#CMMI12-58"/>
       <use transform="translate(72.787654 0)scale(0.996264)" xlink:href="#CMR17-48"/>
       <use transform="translate(118.478131 0)scale(0.996264)" xlink:href="#CMR17-50"/>
      </g>
     </g>
    </g>
    <g id="ytick_3">
     <g id="line2d_17">
      <g>
       <use style="stroke:#000000;stroke-width:0.8;" x="74.375599" xlink:href="#md3d09f9c0e" y="243.706935"/>
      </g>
     </g>
     <g id="line2d_18">
      <g>
       <use style="stroke:#000000;stroke-width:0.8;" x="494.02" xlink:href="#mbdb84ade81" y="243.706935"/>
      </g>
     </g>
     <g id="text_10">
      <!-- $0.04$ -->
      <g transform="translate(41.372737 248.89373)scale(0.14994 -0.14994)">
       <use transform="scale(0.996264)" xlink:href="#CMR17-48"/>
       <use transform="translate(45.690477 0)scale(0.996264)" xlink:href="#CMMI12-58"/>
       <use transform="translate(72.787654 0)scale(0.996264)" xlink:href="#CMR17-48"/>
       <use transform="translate(118.478131 0)scale(0.996264)" xlink:href="#CMR17-52"/>
      </g>
     </g>
    </g>
    <g id="ytick_4">
     <g id="line2d_19">
      <g>
       <use style="stroke:#000000;stroke-width:0.8;" x="74.375599" xlink:href="#md3d09f9c0e" y="192.253526"/>
      </g>
     </g>
     <g id="line2d_20">
      <g>
       <use style="stroke:#000000;stroke-width:0.8;" x="494.02" xlink:href="#mbdb84ade81" y="192.253526"/>
      </g>
     </g>
     <g id="text_11">
      <!-- $0.06$ -->
      <g transform="translate(41.372737 197.440321)scale(0.14994 -0.14994)">
       <use transform="scale(0.996264)" xlink:href="#CMR17-48"/>
       <use transform="translate(45.690477 0)scale(0.996264)" xlink:href="#CMMI12-58"/>
       <use transform="translate(72.787654 0)scale(0.996264)" xlink:href="#CMR17-48"/>
       <use transform="translate(118.478131 0)scale(0.996264)" xlink:href="#CMR17-54"/>
      </g>
     </g>
    </g>
    <g id="ytick_5">
     <g id="line2d_21">
      <g>
       <use style="stroke:#000000;stroke-width:0.8;" x="74.375599" xlink:href="#md3d09f9c0e" y="140.800117"/>
      </g>
     </g>
     <g id="line2d_22">
      <g>
       <use style="stroke:#000000;stroke-width:0.8;" x="494.02" xlink:href="#mbdb84ade81" y="140.800117"/>
      </g>
     </g>
     <g id="text_12">
      <!-- $0.08$ -->
      <g transform="translate(41.372737 145.986912)scale(0.14994 -0.14994)">
       <use transform="scale(0.996264)" xlink:href="#CMR17-48"/>
       <use transform="translate(45.690477 0)scale(0.996264)" xlink:href="#CMMI12-58"/>
       <use transform="translate(72.787654 0)scale(0.996264)" xlink:href="#CMR17-48"/>
       <use transform="translate(118.478131 0)scale(0.996264)" xlink:href="#CMR17-56"/>
      </g>
     </g>
    </g>
    <g id="ytick_6">
     <g id="line2d_23">
      <g>
       <use style="stroke:#000000;stroke-width:0.8;" x="74.375599" xlink:href="#md3d09f9c0e" y="89.346709"/>
      </g>
     </g>
     <g id="line2d_24">
      <g>
       <use style="stroke:#000000;stroke-width:0.8;" x="494.02" xlink:href="#mbdb84ade81" y="89.346709"/>
      </g>
     </g>
     <g id="text_13">
      <!-- $0.10$ -->
      <g transform="translate(41.372737 94.533504)scale(0.14994 -0.14994)">
       <use transform="scale(0.996264)" xlink:href="#CMR17-48"/>
       <use transform="translate(45.690477 0)scale(0.996264)" xlink:href="#CMMI12-58"/>
       <use transform="translate(72.787654 0)scale(0.996264)" xlink:href="#CMR17-49"/>
       <use transform="translate(118.478131 0)scale(0.996264)" xlink:href="#CMR17-48"/>
      </g>
     </g>
    </g>
    <g id="text_14">
     <!-- $\tau \sqrt{3}$ -->
     <defs>
      <path d="M 28.703125 37.625 
L 45.296875 37.625 
C 46.59375 37.625 49.90625 37.625 49.90625 40.8125 
C 49.90625 43 48 43 46.203125 43 
L 18.703125 43 
C 16.40625 43 13 43 8.40625 38.125 
C 5.796875 35.234375 2.59375 29.953125 2.59375 29.359375 
C 2.59375 28.765625 3.09375 28.5625 3.703125 28.5625 
C 4.40625 28.5625 4.5 28.859375 5 29.453125 
C 10.203125 37.625 15.40625 37.625 17.90625 37.625 
L 26.203125 37.625 
L 15.796875 3.484375 
C 15.296875 1.984375 15.296875 1.78125 15.296875 1.484375 
C 15.296875 0.390625 16 -1 18 -1 
C 21.09375 -1 21.59375 1.6875 21.90625 3.171875 
z
" id="CMMI12-28"/>
      <path d="M 38.90625 -85.5 
L 21.296875 -46.59375 
C 20.59375 -45 20.09375 -45 19.796875 -45 
C 19.703125 -45 19.203125 -45 18.09375 -45.796875 
L 8.59375 -53 
C 7.296875 -54 7.296875 -54.296875 7.296875 -54.59375 
C 7.296875 -55.09375 7.59375 -55.703125 8.296875 -55.703125 
C 8.90625 -55.703125 10.59375 -54.296875 11.703125 -53.5 
C 12.296875 -53.015625 13.796875 -51.921875 14.90625 -51.109375 
L 34.59375 -94.40625 
C 35.296875 -96 35.796875 -96 36.703125 -96 
C 38.203125 -96 38.5 -95.40625 39.203125 -94 
L 84.59375 0 
C 85.296875 1.40625 85.296875 1.796875 85.296875 2 
C 85.296875 3 84.5 4 83.296875 4 
C 82.5 4 81.796875 3.5 81 1.90625 
z
" id="CMSY10-112"/>
      <path d="M 22.09375 33.703125 
C 31 33.703125 34.90625 25.96875 34.90625 17.03125 
C 34.90625 5 28.5 0.390625 22.703125 0.390625 
C 17.40625 0.390625 8.796875 3.03125 6.09375 10.828125 
C 6.59375 10.625 7.09375 10.625 7.59375 10.625 
C 10 10.625 11.796875 12.21875 11.796875 14.8125 
C 11.796875 17.703125 9.59375 19 7.59375 19 
C 5.90625 19 3.296875 18.203125 3.296875 14.46875 
C 3.296875 5.234375 12.296875 -2 22.90625 -2 
C 34 -2 42.5 6.71875 42.5 16.953125 
C 42.5 26.671875 34.5 33.703125 25 34.796875 
C 32.59375 36.375 39.90625 43.0625 39.90625 52.015625 
C 39.90625 59.6875 32 65.296875 23 65.296875 
C 13.90625 65.296875 5.90625 59.828125 5.90625 52.015625 
C 5.90625 48.59375 8.5 48 9.796875 48 
C 11.90625 48 13.703125 49.296875 13.703125 51.890625 
C 13.703125 54.46875 11.90625 55.765625 9.796875 55.765625 
C 9.40625 55.765625 8.90625 55.765625 8.5 55.578125 
C 11.40625 61.859375 19.296875 63 22.796875 63 
C 26.296875 63 32.90625 61.328125 32.90625 51.875 
C 32.90625 49.109375 32.5 44.1875 29.09375 39.84375 
C 26.09375 36 22.703125 36 19.40625 35.6875 
C 18.90625 35.6875 16.59375 35.453125 16.203125 35.453125 
C 15.5 35.359375 15.09375 35.265625 15.09375 34.5 
C 15.09375 33.796875 15.203125 33.703125 17.203125 33.703125 
z
" id="CMR17-51"/>
     </defs>
     <g transform="translate(33.884673 221.515223)rotate(-90)scale(0.18 -0.18)">
      <use transform="scale(0.996264)" xlink:href="#CMMI12-28"/>
      <use transform="translate(53.491165 82.421465)scale(0.996264)" xlink:href="#CMSY10-112"/>
      <use transform="translate(136.51342 0)scale(0.996264)" xlink:href="#CMR17-51"/>
      <path d="M 136.51342 82.421465 
L 182.203897 82.421465 
L 182.203897 86.406414 
L 136.51342 86.406414 
L 136.51342 82.421465 
z
"/>
     </g>
    </g>
   </g>
   <g id="line2d_25">
    <path clip-path="url(#p047d4be7b2)" d="M 93.450344 346.613752 
L 114.814059 155.529986 
L 117.484523 133.64048 
L 119.391998 119.855175 
L 120.917978 110.52481 
L 122.062462 104.704156 
L 123.206947 99.928885 
L 124.351432 96.145892 
L 125.495917 93.241127 
L 126.640401 91.068541 
L 127.784886 89.478325 
L 128.929371 88.332633 
L 130.073855 87.517157 
L 131.21834 86.941842 
L 132.74432 86.433219 
L 134.651794 86.061303 
L 137.322259 85.806792 
L 141.518703 85.668222 
L 152.20056 85.621599 
L 395.212818 85.620078 
L 474.56376 85.620078 
L 474.56376 85.620078 
" style="fill:none;stroke:#000000;stroke-linecap:square;stroke-width:2;"/>
   </g>
   <g id="patch_3">
    <path d="M 74.375599 372.340456 
L 74.375599 37.8933 
" style="fill:none;stroke:#000000;stroke-linecap:square;stroke-linejoin:miter;stroke-width:0.8;"/>
   </g>
   <g id="patch_4">
    <path d="M 494.02 372.340456 
L 494.02 37.8933 
" style="fill:none;stroke:#000000;stroke-linecap:square;stroke-linejoin:miter;stroke-width:0.8;"/>
   </g>
   <g id="patch_5">
    <path d="M 74.375599 372.340456 
L 494.02 372.340456 
" style="fill:none;stroke:#000000;stroke-linecap:square;stroke-linejoin:miter;stroke-width:0.8;"/>
   </g>
   <g id="patch_6">
    <path d="M 74.375599 37.8933 
L 494.02 37.8933 
" style="fill:none;stroke:#000000;stroke-linecap:square;stroke-linejoin:miter;stroke-width:0.8;"/>
   </g>
   <g id="text_15">
    <!-- $m = 0.1$ -->
    <defs>
     <path d="M 20.59375 29.234375 
C 20.796875 29.84375 23.296875 34.828125 27 38.015625 
C 29.59375 40.40625 33 42.015625 36.90625 42.015625 
C 40.90625 42.015625 42.296875 39.015625 42.296875 35.03125 
C 42.296875 34.421875 42.296875 32.4375 41.09375 27.734375 
L 38.59375 17.46875 
C 37.796875 14.46875 35.90625 7.078125 35.703125 5.984375 
C 35.296875 4.484375 34.703125 1.890625 34.703125 1.5 
C 34.703125 0.09375 35.796875 -1 37.296875 -1 
C 40.296875 -1 40.796875 1.296875 41.703125 4.890625 
L 47.703125 28.734375 
C 47.90625 29.53125 53.09375 42.015625 64.09375 42.015625 
C 68.09375 42.015625 69.5 39.015625 69.5 35.03125 
C 69.5 29.4375 65.59375 18.5625 63.40625 12.578125 
C 62.5 10.171875 62 8.875 62 7.078125 
C 62 2.59375 65.09375 -1 69.90625 -1 
C 79.203125 -1 82.703125 13.671875 82.703125 14.265625 
C 82.703125 14.765625 82.296875 15.171875 81.703125 15.171875 
C 80.796875 15.171875 80.703125 14.875 80.203125 13.171875 
C 77.90625 5.1875 74.203125 1 70.203125 1 
C 69.203125 1 67.59375 1 67.59375 4.203125 
C 67.59375 6.8125 68.796875 10 69.203125 11.09375 
C 71 15.90625 75.5 27.703125 75.5 33.515625 
C 75.5 39.5 72 44 64.40625 44 
C 57.703125 44 52.296875 40.21875 48.296875 34.328125 
C 48 39.71875 44.703125 44 37.203125 44 
C 28.296875 44 23.59375 37.734375 21.796875 35.234375 
C 21.5 40.90625 17.40625 44 13 44 
C 10.09375 44 7.796875 42.609375 5.90625 38.8125 
C 4.09375 35.21875 2.703125 29.140625 2.703125 28.734375 
C 2.703125 28.34375 3.09375 27.84375 3.796875 27.84375 
C 4.59375 27.84375 4.703125 27.9375 5.296875 30.234375 
C 6.796875 36.125 8.703125 42.015625 12.703125 42.015625 
C 15 42.015625 15.796875 40.40625 15.796875 37.421875 
C 15.796875 35.21875 14.796875 31.328125 14.09375 28.234375 
L 11.296875 17.46875 
C 10.90625 15.5625 9.796875 11.078125 9.296875 9.28125 
C 8.59375 6.6875 7.5 2 7.5 1.5 
C 7.5 0.09375 8.59375 -1 10.09375 -1 
C 11.296875 -1 12.703125 -0.40625 13.5 1.09375 
C 13.703125 1.59375 14.59375 5.09375 15.09375 7.078125 
L 17.296875 16.0625 
z
" id="CMMI12-109"/>
     <path d="M 64.296875 31.515625 
C 65.796875 31.515625 67.296875 31.515625 67.296875 33.203125 
C 67.296875 35 65.59375 35 63.90625 35 
L 8 35 
C 6.296875 35 4.59375 35 4.59375 33.203125 
C 4.59375 31.515625 6.09375 31.515625 7.59375 31.515625 
z
M 63.90625 14 
C 65.59375 14 67.296875 14 67.296875 15.796875 
C 67.296875 17.484375 65.796875 17.484375 64.296875 17.484375 
L 7.59375 17.484375 
C 6.09375 17.484375 4.59375 17.484375 4.59375 15.796875 
C 4.59375 14 6.296875 14 8 14 
z
" id="CMR17-61"/>
    </defs>
    <g transform="translate(254.419674 31.8933)scale(0.18 -0.18)">
     <use transform="scale(0.996264)" xlink:href="#CMMI12-109"/>
     <use transform="translate(113.001233 0)scale(0.996264)" xlink:href="#CMR17-61"/>
     <use transform="translate(212.39003 0)scale(0.996264)" xlink:href="#CMR17-48"/>
     <use transform="translate(258.080507 0)scale(0.996264)" xlink:href="#CMMI12-58"/>
     <use transform="translate(285.177685 0)scale(0.996264)" xlink:href="#CMR17-49"/>
    </g>
   </g>
  </g>
  <g id="axes_2">
   <g id="patch_7">
    <path d="M 571.895599 372.340456 
L 991.54 372.340456 
L 991.54 37.8933 
L 571.895599 37.8933 
z
" style="fill:none;"/>
   </g>
   <g id="matplotlib.axis_3">
    <g id="xtick_7">
     <g id="line2d_26">
      <g>
       <use style="stroke:#000000;stroke-width:0.8;" x="590.970344" xlink:href="#me895c7e9de" y="372.340456"/>
      </g>
     </g>
     <g id="line2d_27">
      <g>
       <use style="stroke:#000000;stroke-width:0.8;" x="590.970344" xlink:href="#m44d2efbb0a" y="37.8933"/>
      </g>
     </g>
     <g id="text_16">
      <!-- $0.0$ -->
      <g transform="translate(581.625565 389.714046)scale(0.14994 -0.14994)">
       <use transform="scale(0.996264)" xlink:href="#CMR17-48"/>
       <use transform="translate(45.690477 0)scale(0.996264)" xlink:href="#CMMI12-58"/>
       <use transform="translate(72.787654 0)scale(0.996264)" xlink:href="#CMR17-48"/>
      </g>
     </g>
    </g>
    <g id="xtick_8">
     <g id="line2d_28">
      <g>
       <use style="stroke:#000000;stroke-width:0.8;" x="667.269326" xlink:href="#me895c7e9de" y="372.340456"/>
      </g>
     </g>
     <g id="line2d_29">
      <g>
       <use style="stroke:#000000;stroke-width:0.8;" x="667.269326" xlink:href="#m44d2efbb0a" y="37.8933"/>
      </g>
     </g>
     <g id="text_17">
      <!-- $0.2$ -->
      <g transform="translate(657.924547 389.714046)scale(0.14994 -0.14994)">
       <use transform="scale(0.996264)" xlink:href="#CMR17-48"/>
       <use transform="translate(45.690477 0)scale(0.996264)" xlink:href="#CMMI12-58"/>
       <use transform="translate(72.787654 0)scale(0.996264)" xlink:href="#CMR17-50"/>
      </g>
     </g>
    </g>
    <g id="xtick_9">
     <g id="line2d_30">
      <g>
       <use style="stroke:#000000;stroke-width:0.8;" x="743.568308" xlink:href="#me895c7e9de" y="372.340456"/>
      </g>
     </g>
     <g id="line2d_31">
      <g>
       <use style="stroke:#000000;stroke-width:0.8;" x="743.568308" xlink:href="#m44d2efbb0a" y="37.8933"/>
      </g>
     </g>
     <g id="text_18">
      <!-- $0.4$ -->
      <g transform="translate(734.223529 389.714046)scale(0.14994 -0.14994)">
       <use transform="scale(0.996264)" xlink:href="#CMR17-48"/>
       <use transform="translate(45.690477 0)scale(0.996264)" xlink:href="#CMMI12-58"/>
       <use transform="translate(72.787654 0)scale(0.996264)" xlink:href="#CMR17-52"/>
      </g>
     </g>
    </g>
    <g id="xtick_10">
     <g id="line2d_32">
      <g>
       <use style="stroke:#000000;stroke-width:0.8;" x="819.86729" xlink:href="#me895c7e9de" y="372.340456"/>
      </g>
     </g>
     <g id="line2d_33">
      <g>
       <use style="stroke:#000000;stroke-width:0.8;" x="819.86729" xlink:href="#m44d2efbb0a" y="37.8933"/>
      </g>
     </g>
     <g id="text_19">
      <!-- $0.6$ -->
      <g transform="translate(810.522511 389.714046)scale(0.14994 -0.14994)">
       <use transform="scale(0.996264)" xlink:href="#CMR17-48"/>
       <use transform="translate(45.690477 0)scale(0.996264)" xlink:href="#CMMI12-58"/>
       <use transform="translate(72.787654 0)scale(0.996264)" xlink:href="#CMR17-54"/>
      </g>
     </g>
    </g>
    <g id="xtick_11">
     <g id="line2d_34">
      <g>
       <use style="stroke:#000000;stroke-width:0.8;" x="896.166272" xlink:href="#me895c7e9de" y="372.340456"/>
      </g>
     </g>
     <g id="line2d_35">
      <g>
       <use style="stroke:#000000;stroke-width:0.8;" x="896.166272" xlink:href="#m44d2efbb0a" y="37.8933"/>
      </g>
     </g>
     <g id="text_20">
      <!-- $0.8$ -->
      <g transform="translate(886.821494 389.714046)scale(0.14994 -0.14994)">
       <use transform="scale(0.996264)" xlink:href="#CMR17-48"/>
       <use transform="translate(45.690477 0)scale(0.996264)" xlink:href="#CMMI12-58"/>
       <use transform="translate(72.787654 0)scale(0.996264)" xlink:href="#CMR17-56"/>
      </g>
     </g>
    </g>
    <g id="xtick_12">
     <g id="line2d_36">
      <g>
       <use style="stroke:#000000;stroke-width:0.8;" x="972.465254" xlink:href="#me895c7e9de" y="372.340456"/>
      </g>
     </g>
     <g id="line2d_37">
      <g>
       <use style="stroke:#000000;stroke-width:0.8;" x="972.465254" xlink:href="#m44d2efbb0a" y="37.8933"/>
      </g>
     </g>
     <g id="text_21">
      <!-- $1.0$ -->
      <g transform="translate(963.120476 389.714046)scale(0.14994 -0.14994)">
       <use transform="scale(0.996264)" xlink:href="#CMR17-49"/>
       <use transform="translate(45.690477 0)scale(0.996264)" xlink:href="#CMMI12-58"/>
       <use transform="translate(72.787654 0)scale(0.996264)" xlink:href="#CMR17-48"/>
      </g>
     </g>
    </g>
    <g id="text_22">
     <!-- $\gamma$ -->
     <g transform="translate(777.163877 409.071936)scale(0.18 -0.18)">
      <use transform="scale(0.996264)" xlink:href="#CMMI12-13"/>
     </g>
    </g>
   </g>
   <g id="matplotlib.axis_4">
    <g id="ytick_7">
     <g id="line2d_38">
      <g>
       <use style="stroke:#000000;stroke-width:0.8;" x="571.895599" xlink:href="#md3d09f9c0e" y="346.613752"/>
      </g>
     </g>
     <g id="line2d_39">
      <g>
       <use style="stroke:#000000;stroke-width:0.8;" x="991.54" xlink:href="#mbdb84ade81" y="346.613752"/>
      </g>
     </g>
     <g id="text_23">
      <!-- $0.00$ -->
      <g transform="translate(538.892737 351.800547)scale(0.14994 -0.14994)">
       <use transform="scale(0.996264)" xlink:href="#CMR17-48"/>
       <use transform="translate(45.690477 0)scale(0.996264)" xlink:href="#CMMI12-58"/>
       <use transform="translate(72.787654 0)scale(0.996264)" xlink:href="#CMR17-48"/>
       <use transform="translate(118.478131 0)scale(0.996264)" xlink:href="#CMR17-48"/>
      </g>
     </g>
    </g>
    <g id="ytick_8">
     <g id="line2d_40">
      <g>
       <use style="stroke:#000000;stroke-width:0.8;" x="571.895599" xlink:href="#md3d09f9c0e" y="295.160343"/>
      </g>
     </g>
     <g id="line2d_41">
      <g>
       <use style="stroke:#000000;stroke-width:0.8;" x="991.54" xlink:href="#mbdb84ade81" y="295.160343"/>
      </g>
     </g>
     <g id="text_24">
      <!-- $0.02$ -->
      <g transform="translate(538.892737 300.347138)scale(0.14994 -0.14994)">
       <use transform="scale(0.996264)" xlink:href="#CMR17-48"/>
       <use transform="translate(45.690477 0)scale(0.996264)" xlink:href="#CMMI12-58"/>
       <use transform="translate(72.787654 0)scale(0.996264)" xlink:href="#CMR17-48"/>
       <use transform="translate(118.478131 0)scale(0.996264)" xlink:href="#CMR17-50"/>
      </g>
     </g>
    </g>
    <g id="ytick_9">
     <g id="line2d_42">
      <g>
       <use style="stroke:#000000;stroke-width:0.8;" x="571.895599" xlink:href="#md3d09f9c0e" y="243.706935"/>
      </g>
     </g>
     <g id="line2d_43">
      <g>
       <use style="stroke:#000000;stroke-width:0.8;" x="991.54" xlink:href="#mbdb84ade81" y="243.706935"/>
      </g>
     </g>
     <g id="text_25">
      <!-- $0.04$ -->
      <g transform="translate(538.892737 248.89373)scale(0.14994 -0.14994)">
       <use transform="scale(0.996264)" xlink:href="#CMR17-48"/>
       <use transform="translate(45.690477 0)scale(0.996264)" xlink:href="#CMMI12-58"/>
       <use transform="translate(72.787654 0)scale(0.996264)" xlink:href="#CMR17-48"/>
       <use transform="translate(118.478131 0)scale(0.996264)" xlink:href="#CMR17-52"/>
      </g>
     </g>
    </g>
    <g id="ytick_10">
     <g id="line2d_44">
      <g>
       <use style="stroke:#000000;stroke-width:0.8;" x="571.895599" xlink:href="#md3d09f9c0e" y="192.253526"/>
      </g>
     </g>
     <g id="line2d_45">
      <g>
       <use style="stroke:#000000;stroke-width:0.8;" x="991.54" xlink:href="#mbdb84ade81" y="192.253526"/>
      </g>
     </g>
     <g id="text_26">
      <!-- $0.06$ -->
      <g transform="translate(538.892737 197.440321)scale(0.14994 -0.14994)">
       <use transform="scale(0.996264)" xlink:href="#CMR17-48"/>
       <use transform="translate(45.690477 0)scale(0.996264)" xlink:href="#CMMI12-58"/>
       <use transform="translate(72.787654 0)scale(0.996264)" xlink:href="#CMR17-48"/>
       <use transform="translate(118.478131 0)scale(0.996264)" xlink:href="#CMR17-54"/>
      </g>
     </g>
    </g>
    <g id="ytick_11">
     <g id="line2d_46">
      <g>
       <use style="stroke:#000000;stroke-width:0.8;" x="571.895599" xlink:href="#md3d09f9c0e" y="140.800117"/>
      </g>
     </g>
     <g id="line2d_47">
      <g>
       <use style="stroke:#000000;stroke-width:0.8;" x="991.54" xlink:href="#mbdb84ade81" y="140.800117"/>
      </g>
     </g>
     <g id="text_27">
      <!-- $0.08$ -->
      <g transform="translate(538.892737 145.986912)scale(0.14994 -0.14994)">
       <use transform="scale(0.996264)" xlink:href="#CMR17-48"/>
       <use transform="translate(45.690477 0)scale(0.996264)" xlink:href="#CMMI12-58"/>
       <use transform="translate(72.787654 0)scale(0.996264)" xlink:href="#CMR17-48"/>
       <use transform="translate(118.478131 0)scale(0.996264)" xlink:href="#CMR17-56"/>
      </g>
     </g>
    </g>
    <g id="ytick_12">
     <g id="line2d_48">
      <g>
       <use style="stroke:#000000;stroke-width:0.8;" x="571.895599" xlink:href="#md3d09f9c0e" y="89.346709"/>
      </g>
     </g>
     <g id="line2d_49">
      <g>
       <use style="stroke:#000000;stroke-width:0.8;" x="991.54" xlink:href="#mbdb84ade81" y="89.346709"/>
      </g>
     </g>
     <g id="text_28">
      <!-- $0.10$ -->
      <g transform="translate(538.892737 94.533504)scale(0.14994 -0.14994)">
       <use transform="scale(0.996264)" xlink:href="#CMR17-48"/>
       <use transform="translate(45.690477 0)scale(0.996264)" xlink:href="#CMMI12-58"/>
       <use transform="translate(72.787654 0)scale(0.996264)" xlink:href="#CMR17-49"/>
       <use transform="translate(118.478131 0)scale(0.996264)" xlink:href="#CMR17-48"/>
      </g>
     </g>
    </g>
    <g id="text_29">
     <!-- $\tau \sqrt{3}$ -->
     <g transform="translate(531.404673 221.515223)rotate(-90)scale(0.18 -0.18)">
      <use transform="scale(0.996264)" xlink:href="#CMMI12-28"/>
      <use transform="translate(53.491165 82.421465)scale(0.996264)" xlink:href="#CMSY10-112"/>
      <use transform="translate(136.51342 0)scale(0.996264)" xlink:href="#CMR17-51"/>
      <path d="M 136.51342 82.421465 
L 182.203897 82.421465 
L 182.203897 86.406414 
L 136.51342 86.406414 
L 136.51342 82.421465 
z
"/>
     </g>
    </g>
   </g>
   <g id="line2d_50">
    <path clip-path="url(#pe369ade1bd)" d="M 590.970344 346.613752 
L 593.640808 323.69008 
L 596.311273 302.535356 
L 598.981737 283.013074 
L 601.652202 264.997265 
L 604.322666 248.371679 
L 606.99313 233.029036 
L 609.663595 218.870337 
L 612.334059 205.804219 
L 615.004523 193.746373 
L 617.674988 182.618992 
L 620.345452 172.350276 
L 623.015917 162.873964 
L 625.686381 154.128909 
L 628.356845 146.058683 
L 631.02731 138.61121 
L 633.697774 131.738435 
L 636.749733 124.530816 
L 639.801693 117.955258 
L 642.853652 111.956334 
L 645.905611 106.483476 
L 648.95757 101.490552 
L 652.00953 96.935474 
L 655.061489 92.779847 
L 658.113448 88.988642 
L 661.165408 85.5299 
L 664.217367 82.374467 
L 667.650821 79.154128 
L 671.084275 76.249704 
L 674.517729 73.630205 
L 678.332679 71.019918 
L 682.147628 68.692554 
L 685.962577 66.617448 
L 690.159021 64.593647 
L 694.355465 62.809785 
L 698.933404 61.104068 
L 703.892838 59.502856 
L 709.233766 58.02567 
L 714.95619 56.685306 
L 721.060109 55.488296 
L 727.927017 54.379857 
L 735.556915 53.389061 
L 743.949803 52.532129 
L 753.487176 51.787889 
L 764.550528 51.153787 
L 777.90285 50.622529 
L 794.307131 50.203858 
L 815.670846 49.892677 
L 846.571934 49.683706 
L 900.362716 49.574406 
L 972.08376 49.550488 
L 972.08376 49.550488 
" style="fill:none;stroke:#000000;stroke-linecap:square;stroke-width:2;"/>
   </g>
   <g id="patch_8">
    <path d="M 571.895599 372.340456 
L 571.895599 37.8933 
" style="fill:none;stroke:#000000;stroke-linecap:square;stroke-linejoin:miter;stroke-width:0.8;"/>
   </g>
   <g id="patch_9">
    <path d="M 991.54 372.340456 
L 991.54 37.8933 
" style="fill:none;stroke:#000000;stroke-linecap:square;stroke-linejoin:miter;stroke-width:0.8;"/>
   </g>
   <g id="patch_10">
    <path d="M 571.895599 372.340456 
L 991.54 372.340456 
" style="fill:none;stroke:#000000;stroke-linecap:square;stroke-linejoin:miter;stroke-width:0.8;"/>
   </g>
   <g id="patch_11">
    <path d="M 571.895599 37.8933 
L 991.54 37.8933 
" style="fill:none;stroke:#000000;stroke-linecap:square;stroke-linejoin:miter;stroke-width:0.8;"/>
   </g>
   <g id="text_30">
    <!-- $m = 1$ -->
    <g transform="translate(758.490563 31.8933)scale(0.18 -0.18)">
     <use transform="scale(0.996264)" xlink:href="#CMMI12-109"/>
     <use transform="translate(113.001233 0)scale(0.996264)" xlink:href="#CMR17-61"/>
     <use transform="translate(212.39003 0)scale(0.996264)" xlink:href="#CMR17-49"/>
    </g>
   </g>
  </g>
  <g id="axes_3">
   <g id="patch_12">
    <path d="M 1069.415599 372.340456 
L 1489.06 372.340456 
L 1489.06 37.8933 
L 1069.415599 37.8933 
z
" style="fill:none;"/>
   </g>
   <g id="matplotlib.axis_5">
    <g id="xtick_13">
     <g id="line2d_51">
      <g>
       <use style="stroke:#000000;stroke-width:0.8;" x="1088.490344" xlink:href="#me895c7e9de" y="372.340456"/>
      </g>
     </g>
     <g id="line2d_52">
      <g>
       <use style="stroke:#000000;stroke-width:0.8;" x="1088.490344" xlink:href="#m44d2efbb0a" y="37.8933"/>
      </g>
     </g>
     <g id="text_31">
      <!-- $0.0$ -->
      <g transform="translate(1079.145565 389.714046)scale(0.14994 -0.14994)">
       <use transform="scale(0.996264)" xlink:href="#CMR17-48"/>
       <use transform="translate(45.690477 0)scale(0.996264)" xlink:href="#CMMI12-58"/>
       <use transform="translate(72.787654 0)scale(0.996264)" xlink:href="#CMR17-48"/>
      </g>
     </g>
    </g>
    <g id="xtick_14">
     <g id="line2d_53">
      <g>
       <use style="stroke:#000000;stroke-width:0.8;" x="1164.789326" xlink:href="#me895c7e9de" y="372.340456"/>
      </g>
     </g>
     <g id="line2d_54">
      <g>
       <use style="stroke:#000000;stroke-width:0.8;" x="1164.789326" xlink:href="#m44d2efbb0a" y="37.8933"/>
      </g>
     </g>
     <g id="text_32">
      <!-- $0.2$ -->
      <g transform="translate(1155.444547 389.714046)scale(0.14994 -0.14994)">
       <use transform="scale(0.996264)" xlink:href="#CMR17-48"/>
       <use transform="translate(45.690477 0)scale(0.996264)" xlink:href="#CMMI12-58"/>
       <use transform="translate(72.787654 0)scale(0.996264)" xlink:href="#CMR17-50"/>
      </g>
     </g>
    </g>
    <g id="xtick_15">
     <g id="line2d_55">
      <g>
       <use style="stroke:#000000;stroke-width:0.8;" x="1241.088308" xlink:href="#me895c7e9de" y="372.340456"/>
      </g>
     </g>
     <g id="line2d_56">
      <g>
       <use style="stroke:#000000;stroke-width:0.8;" x="1241.088308" xlink:href="#m44d2efbb0a" y="37.8933"/>
      </g>
     </g>
     <g id="text_33">
      <!-- $0.4$ -->
      <g transform="translate(1231.743529 389.714046)scale(0.14994 -0.14994)">
       <use transform="scale(0.996264)" xlink:href="#CMR17-48"/>
       <use transform="translate(45.690477 0)scale(0.996264)" xlink:href="#CMMI12-58"/>
       <use transform="translate(72.787654 0)scale(0.996264)" xlink:href="#CMR17-52"/>
      </g>
     </g>
    </g>
    <g id="xtick_16">
     <g id="line2d_57">
      <g>
       <use style="stroke:#000000;stroke-width:0.8;" x="1317.38729" xlink:href="#me895c7e9de" y="372.340456"/>
      </g>
     </g>
     <g id="line2d_58">
      <g>
       <use style="stroke:#000000;stroke-width:0.8;" x="1317.38729" xlink:href="#m44d2efbb0a" y="37.8933"/>
      </g>
     </g>
     <g id="text_34">
      <!-- $0.6$ -->
      <g transform="translate(1308.042511 389.714046)scale(0.14994 -0.14994)">
       <use transform="scale(0.996264)" xlink:href="#CMR17-48"/>
       <use transform="translate(45.690477 0)scale(0.996264)" xlink:href="#CMMI12-58"/>
       <use transform="translate(72.787654 0)scale(0.996264)" xlink:href="#CMR17-54"/>
      </g>
     </g>
    </g>
    <g id="xtick_17">
     <g id="line2d_59">
      <g>
       <use style="stroke:#000000;stroke-width:0.8;" x="1393.686272" xlink:href="#me895c7e9de" y="372.340456"/>
      </g>
     </g>
     <g id="line2d_60">
      <g>
       <use style="stroke:#000000;stroke-width:0.8;" x="1393.686272" xlink:href="#m44d2efbb0a" y="37.8933"/>
      </g>
     </g>
     <g id="text_35">
      <!-- $0.8$ -->
      <g transform="translate(1384.341494 389.714046)scale(0.14994 -0.14994)">
       <use transform="scale(0.996264)" xlink:href="#CMR17-48"/>
       <use transform="translate(45.690477 0)scale(0.996264)" xlink:href="#CMMI12-58"/>
       <use transform="translate(72.787654 0)scale(0.996264)" xlink:href="#CMR17-56"/>
      </g>
     </g>
    </g>
    <g id="xtick_18">
     <g id="line2d_61">
      <g>
       <use style="stroke:#000000;stroke-width:0.8;" x="1469.985254" xlink:href="#me895c7e9de" y="372.340456"/>
      </g>
     </g>
     <g id="line2d_62">
      <g>
       <use style="stroke:#000000;stroke-width:0.8;" x="1469.985254" xlink:href="#m44d2efbb0a" y="37.8933"/>
      </g>
     </g>
     <g id="text_36">
      <!-- $1.0$ -->
      <g transform="translate(1460.640476 389.714046)scale(0.14994 -0.14994)">
       <use transform="scale(0.996264)" xlink:href="#CMR17-49"/>
       <use transform="translate(45.690477 0)scale(0.996264)" xlink:href="#CMMI12-58"/>
       <use transform="translate(72.787654 0)scale(0.996264)" xlink:href="#CMR17-48"/>
      </g>
     </g>
    </g>
    <g id="text_37">
     <!-- $\gamma$ -->
     <g transform="translate(1274.683877 409.071936)scale(0.18 -0.18)">
      <use transform="scale(0.996264)" xlink:href="#CMMI12-13"/>
     </g>
    </g>
   </g>
   <g id="matplotlib.axis_6">
    <g id="ytick_13">
     <g id="line2d_63">
      <g>
       <use style="stroke:#000000;stroke-width:0.8;" x="1069.415599" xlink:href="#md3d09f9c0e" y="346.613752"/>
      </g>
     </g>
     <g id="line2d_64">
      <g>
       <use style="stroke:#000000;stroke-width:0.8;" x="1489.06" xlink:href="#mbdb84ade81" y="346.613752"/>
      </g>
     </g>
     <g id="text_38">
      <!-- $0.00$ -->
      <g transform="translate(1036.412737 351.800547)scale(0.14994 -0.14994)">
       <use transform="scale(0.996264)" xlink:href="#CMR17-48"/>
       <use transform="translate(45.690477 0)scale(0.996264)" xlink:href="#CMMI12-58"/>
       <use transform="translate(72.787654 0)scale(0.996264)" xlink:href="#CMR17-48"/>
       <use transform="translate(118.478131 0)scale(0.996264)" xlink:href="#CMR17-48"/>
      </g>
     </g>
    </g>
    <g id="ytick_14">
     <g id="line2d_65">
      <g>
       <use style="stroke:#000000;stroke-width:0.8;" x="1069.415599" xlink:href="#md3d09f9c0e" y="295.160343"/>
      </g>
     </g>
     <g id="line2d_66">
      <g>
       <use style="stroke:#000000;stroke-width:0.8;" x="1489.06" xlink:href="#mbdb84ade81" y="295.160343"/>
      </g>
     </g>
     <g id="text_39">
      <!-- $0.02$ -->
      <g transform="translate(1036.412737 300.347138)scale(0.14994 -0.14994)">
       <use transform="scale(0.996264)" xlink:href="#CMR17-48"/>
       <use transform="translate(45.690477 0)scale(0.996264)" xlink:href="#CMMI12-58"/>
       <use transform="translate(72.787654 0)scale(0.996264)" xlink:href="#CMR17-48"/>
       <use transform="translate(118.478131 0)scale(0.996264)" xlink:href="#CMR17-50"/>
      </g>
     </g>
    </g>
    <g id="ytick_15">
     <g id="line2d_67">
      <g>
       <use style="stroke:#000000;stroke-width:0.8;" x="1069.415599" xlink:href="#md3d09f9c0e" y="243.706935"/>
      </g>
     </g>
     <g id="line2d_68">
      <g>
       <use style="stroke:#000000;stroke-width:0.8;" x="1489.06" xlink:href="#mbdb84ade81" y="243.706935"/>
      </g>
     </g>
     <g id="text_40">
      <!-- $0.04$ -->
      <g transform="translate(1036.412737 248.89373)scale(0.14994 -0.14994)">
       <use transform="scale(0.996264)" xlink:href="#CMR17-48"/>
       <use transform="translate(45.690477 0)scale(0.996264)" xlink:href="#CMMI12-58"/>
       <use transform="translate(72.787654 0)scale(0.996264)" xlink:href="#CMR17-48"/>
       <use transform="translate(118.478131 0)scale(0.996264)" xlink:href="#CMR17-52"/>
      </g>
     </g>
    </g>
    <g id="ytick_16">
     <g id="line2d_69">
      <g>
       <use style="stroke:#000000;stroke-width:0.8;" x="1069.415599" xlink:href="#md3d09f9c0e" y="192.253526"/>
      </g>
     </g>
     <g id="line2d_70">
      <g>
       <use style="stroke:#000000;stroke-width:0.8;" x="1489.06" xlink:href="#mbdb84ade81" y="192.253526"/>
      </g>
     </g>
     <g id="text_41">
      <!-- $0.06$ -->
      <g transform="translate(1036.412737 197.440321)scale(0.14994 -0.14994)">
       <use transform="scale(0.996264)" xlink:href="#CMR17-48"/>
       <use transform="translate(45.690477 0)scale(0.996264)" xlink:href="#CMMI12-58"/>
       <use transform="translate(72.787654 0)scale(0.996264)" xlink:href="#CMR17-48"/>
       <use transform="translate(118.478131 0)scale(0.996264)" xlink:href="#CMR17-54"/>
      </g>
     </g>
    </g>
    <g id="ytick_17">
     <g id="line2d_71">
      <g>
       <use style="stroke:#000000;stroke-width:0.8;" x="1069.415599" xlink:href="#md3d09f9c0e" y="140.800117"/>
      </g>
     </g>
     <g id="line2d_72">
      <g>
       <use style="stroke:#000000;stroke-width:0.8;" x="1489.06" xlink:href="#mbdb84ade81" y="140.800117"/>
      </g>
     </g>
     <g id="text_42">
      <!-- $0.08$ -->
      <g transform="translate(1036.412737 145.986912)scale(0.14994 -0.14994)">
       <use transform="scale(0.996264)" xlink:href="#CMR17-48"/>
       <use transform="translate(45.690477 0)scale(0.996264)" xlink:href="#CMMI12-58"/>
       <use transform="translate(72.787654 0)scale(0.996264)" xlink:href="#CMR17-48"/>
       <use transform="translate(118.478131 0)scale(0.996264)" xlink:href="#CMR17-56"/>
      </g>
     </g>
    </g>
    <g id="ytick_18">
     <g id="line2d_73">
      <g>
       <use style="stroke:#000000;stroke-width:0.8;" x="1069.415599" xlink:href="#md3d09f9c0e" y="89.346709"/>
      </g>
     </g>
     <g id="line2d_74">
      <g>
       <use style="stroke:#000000;stroke-width:0.8;" x="1489.06" xlink:href="#mbdb84ade81" y="89.346709"/>
      </g>
     </g>
     <g id="text_43">
      <!-- $0.10$ -->
      <g transform="translate(1036.412737 94.533504)scale(0.14994 -0.14994)">
       <use transform="scale(0.996264)" xlink:href="#CMR17-48"/>
       <use transform="translate(45.690477 0)scale(0.996264)" xlink:href="#CMMI12-58"/>
       <use transform="translate(72.787654 0)scale(0.996264)" xlink:href="#CMR17-49"/>
       <use transform="translate(118.478131 0)scale(0.996264)" xlink:href="#CMR17-48"/>
      </g>
     </g>
    </g>
    <g id="text_44">
     <!-- $\tau \sqrt{3}$ -->
     <g transform="translate(1028.924673 221.515223)rotate(-90)scale(0.18 -0.18)">
      <use transform="scale(0.996264)" xlink:href="#CMMI12-28"/>
      <use transform="translate(53.491165 82.421465)scale(0.996264)" xlink:href="#CMSY10-112"/>
      <use transform="translate(136.51342 0)scale(0.996264)" xlink:href="#CMR17-51"/>
      <path d="M 136.51342 82.421465 
L 182.203897 82.421465 
L 182.203897 86.406414 
L 136.51342 86.406414 
L 136.51342 82.421465 
z
"/>
     </g>
    </g>
   </g>
   <g id="line2d_75">
    <path clip-path="url(#p244da0a89f)" d="M 1088.490344 346.613752 
L 1089.634829 342.017289 
L 1091.542303 335.424603 
L 1094.212768 327.153473 
L 1097.264727 318.48636 
L 1100.698181 309.402236 
L 1104.51313 299.91259 
L 1108.709574 290.039554 
L 1113.287513 279.808873 
L 1118.246947 269.247142 
L 1123.587876 258.380619 
L 1129.310299 247.234689 
L 1135.414218 235.833641 
L 1141.899632 224.200579 
L 1148.76654 212.357424 
L 1155.633448 200.947097 
L 1162.881852 189.323031 
L 1170.51175 177.507297 
L 1178.523143 165.520554 
L 1186.534536 153.925163 
L 1194.927424 142.161454 
L 1203.701807 130.248707 
L 1212.857685 118.205034 
L 1222.013563 106.526554 
L 1231.550935 94.721402 
L 1241.469803 82.806196 
L 1251.388671 71.235047 
L 1261.689033 59.559036 
L 1272.370891 47.79332 
L 1283.052748 36.354921 
L 1294.116101 24.832249 
L 1305.560948 13.239042 
L 1317.005795 1.959134 
L 1320.059639 -1 
L 1320.059639 -1 
" style="fill:none;stroke:#000000;stroke-linecap:square;stroke-width:2;"/>
   </g>
   <g id="patch_13">
    <path d="M 1069.415599 372.340456 
L 1069.415599 37.8933 
" style="fill:none;stroke:#000000;stroke-linecap:square;stroke-linejoin:miter;stroke-width:0.8;"/>
   </g>
   <g id="patch_14">
    <path d="M 1489.06 372.340456 
L 1489.06 37.8933 
" style="fill:none;stroke:#000000;stroke-linecap:square;stroke-linejoin:miter;stroke-width:0.8;"/>
   </g>
   <g id="patch_15">
    <path d="M 1069.415599 372.340456 
L 1489.06 372.340456 
" style="fill:none;stroke:#000000;stroke-linecap:square;stroke-linejoin:miter;stroke-width:0.8;"/>
   </g>
   <g id="patch_16">
    <path d="M 1069.415599 37.8933 
L 1489.06 37.8933 
" style="fill:none;stroke:#000000;stroke-linecap:square;stroke-linejoin:miter;stroke-width:0.8;"/>
   </g>
   <g id="text_45">
    <!-- $m = 10$ -->
    <g transform="translate(1251.89842 31.8933)scale(0.18 -0.18)">
     <use transform="scale(0.996264)" xlink:href="#CMMI12-109"/>
     <use transform="translate(113.001233 0)scale(0.996264)" xlink:href="#CMR17-61"/>
     <use transform="translate(212.39003 0)scale(0.996264)" xlink:href="#CMR17-49"/>
     <use transform="translate(258.080507 0)scale(0.996264)" xlink:href="#CMR17-48"/>
    </g>
   </g>
  </g>
 </g>
 <defs>
  <clipPath id="p047d4be7b2">
   <rect height="334.447156" width="419.644401" x="74.375599" y="37.8933"/>
  </clipPath>
  <clipPath id="pe369ade1bd">
   <rect height="334.447156" width="419.644401" x="571.895599" y="37.8933"/>
  </clipPath>
  <clipPath id="p244da0a89f">
   <rect height="334.447156" width="419.644401" x="1069.415599" y="37.8933"/>
  </clipPath>
 </defs>
</svg>
