<?xml version="1.0" encoding="utf-8" standalone="no"?>
<!DOCTYPE svg PUBLIC "-//W3C//DTD SVG 1.1//EN"
  "http://www.w3.org/Graphics/SVG/1.1/DTD/svg11.dtd">
<!-- Created with matplotlib (http://matplotlib.org/) -->
<svg height="432pt" version="1.1" viewBox="0 0 576 432" width="576pt" xmlns="http://www.w3.org/2000/svg" xmlns:xlink="http://www.w3.org/1999/xlink">
 <defs>
  <style type="text/css">
*{stroke-linecap:butt;stroke-linejoin:round;}
  </style>
 </defs>
 <g id="figure_1">
  <g id="patch_1">
   <path d="M 0 432 
L 576 432 
L 576 0 
L 0 0 
z
" style="fill:none;"/>
  </g>
  <g id="axes_1">
   <g id="patch_2">
    <path d="M 67.062295 372.340456 
L 551.456597 372.340456 
L 551.456597 22.94 
L 67.062295 22.94 
z
" style="fill:none;"/>
   </g>
   <g id="matplotlib.axis_1">
    <g id="xtick_1">
     <g id="line2d_1">
      <defs>
       <path d="M 0 0 
L 0 3.5 
" id="mc311062219" style="stroke:#000000;stroke-width:0.8;"/>
      </defs>
      <g>
       <use style="stroke:#000000;stroke-width:0.8;" x="69.460286" xlink:href="#mc311062219" y="372.340456"/>
      </g>
     </g>
     <g id="line2d_2">
      <defs>
       <path d="M 0 0 
L 0 -3.5 
" id="m86446e144a" style="stroke:#000000;stroke-width:0.8;"/>
      </defs>
      <g>
       <use style="stroke:#000000;stroke-width:0.8;" x="69.460286" xlink:href="#m86446e144a" y="22.94"/>
      </g>
     </g>
     <g id="text_1">
      <!-- $0$ -->
      <defs>
       <path d="M 42 31.640625 
C 42 37.75 41.90625 48.125 37.703125 56.109375 
C 34 63.109375 28.09375 65.59375 22.90625 65.59375 
C 18.09375 65.59375 12 63.40625 8.203125 56.203125 
C 4.203125 48.71875 3.796875 39.4375 3.796875 31.640625 
C 3.796875 25.953125 3.90625 17.28125 7 9.671875 
C 11.296875 -0.609375 19 -2 22.90625 -2 
C 27.5 -2 34.5 -0.109375 38.59375 9.375 
C 41.59375 16.28125 42 24.359375 42 31.640625 
z
M 22.90625 -0.40625 
C 16.5 -0.40625 12.703125 5.078125 11.296875 12.6875 
C 10.203125 18.5625 10.203125 27.15625 10.203125 32.75 
C 10.203125 40.4375 10.203125 46.828125 11.5 52.921875 
C 13.40625 61.390625 19 64 22.90625 64 
C 27 64 32.296875 61.296875 34.203125 53.125 
C 35.5 47.4375 35.59375 40.734375 35.59375 32.75 
C 35.59375 26.25 35.59375 18.265625 34.40625 12.375 
C 32.296875 1.484375 26.40625 -0.40625 22.90625 -0.40625 
z
" id="CMR17-48"/>
      </defs>
      <g transform="translate(65.803634 389.714046)scale(0.14994 -0.14994)">
       <use transform="scale(0.996264)" xlink:href="#CMR17-48"/>
      </g>
     </g>
    </g>
    <g id="xtick_2">
     <g id="line2d_3">
      <g>
       <use style="stroke:#000000;stroke-width:0.8;" x="165.37995" xlink:href="#mc311062219" y="372.340456"/>
      </g>
     </g>
     <g id="line2d_4">
      <g>
       <use style="stroke:#000000;stroke-width:0.8;" x="165.37995" xlink:href="#m86446e144a" y="22.94"/>
      </g>
     </g>
     <g id="text_2">
      <!-- $2$ -->
      <defs>
       <path d="M 41.703125 15.453125 
L 39.90625 15.453125 
C 38.90625 8.375 38.09375 7.171875 37.703125 6.5625 
C 37.203125 5.765625 30 5.765625 28.59375 5.765625 
L 9.40625 5.765625 
C 13 9.671875 20 16.75 28.5 24.953125 
C 34.59375 30.734375 41.703125 37.53125 41.703125 47.421875 
C 41.703125 59.21875 32.296875 66 21.796875 66 
C 10.796875 66 4.09375 56.3125 4.09375 47.34375 
C 4.09375 43.4375 7 42.9375 8.203125 42.9375 
C 9.203125 42.9375 12.203125 43.546875 12.203125 47.03125 
C 12.203125 50.109375 9.59375 51 8.203125 51 
C 7.59375 51 7 50.90625 6.59375 50.703125 
C 8.5 59.21875 14.296875 63.40625 20.40625 63.40625 
C 29.09375 63.40625 34.796875 56.515625 34.796875 47.421875 
C 34.796875 38.734375 29.703125 31.25 24 24.75 
L 4.09375 2.28125 
L 4.09375 0 
L 39.296875 0 
z
" id="CMR17-50"/>
      </defs>
      <g transform="translate(161.723298 389.714046)scale(0.14994 -0.14994)">
       <use transform="scale(0.996264)" xlink:href="#CMR17-50"/>
      </g>
     </g>
    </g>
    <g id="xtick_3">
     <g id="line2d_5">
      <g>
       <use style="stroke:#000000;stroke-width:0.8;" x="261.299614" xlink:href="#mc311062219" y="372.340456"/>
      </g>
     </g>
     <g id="line2d_6">
      <g>
       <use style="stroke:#000000;stroke-width:0.8;" x="261.299614" xlink:href="#m86446e144a" y="22.94"/>
      </g>
     </g>
     <g id="text_3">
      <!-- $4$ -->
      <defs>
       <path d="M 33.59375 64.40625 
C 33.59375 66.5 33.5 66.5 31.703125 66.5 
L 2 19.59375 
L 2 17 
L 27.796875 17 
L 27.796875 7.140625 
C 27.796875 3.5 27.59375 2.5 20.59375 2.5 
L 18.703125 2.5 
L 18.703125 0 
C 21.90625 0 27.296875 0 30.703125 0 
C 34.09375 0 39.5 0 42.703125 0 
L 42.703125 2.5 
L 40.796875 2.5 
C 33.796875 2.5 33.59375 3.5 33.59375 7.140625 
L 33.59375 17 
L 43.796875 17 
L 43.796875 19.59375 
L 33.59375 19.59375 
z
M 28.09375 57.859375 
L 28.09375 19.59375 
L 4 19.59375 
z
" id="CMR17-52"/>
      </defs>
      <g transform="translate(257.642962 389.714046)scale(0.14994 -0.14994)">
       <use transform="scale(0.996264)" xlink:href="#CMR17-52"/>
      </g>
     </g>
    </g>
    <g id="xtick_4">
     <g id="line2d_7">
      <g>
       <use style="stroke:#000000;stroke-width:0.8;" x="357.219278" xlink:href="#mc311062219" y="372.340456"/>
      </g>
     </g>
     <g id="line2d_8">
      <g>
       <use style="stroke:#000000;stroke-width:0.8;" x="357.219278" xlink:href="#m86446e144a" y="22.94"/>
      </g>
     </g>
     <g id="text_4">
      <!-- $6$ -->
      <defs>
       <path d="M 10.59375 34 
C 10.59375 57.65625 21.796875 63 28.296875 63 
C 30.40625 63 35.5 62.640625 37.5 59 
C 35.90625 59 32.90625 59 32.90625 55.515625 
C 32.90625 52.828125 35.09375 51.921875 36.5 51.921875 
C 37.40625 51.921875 40.09375 52.3125 40.09375 55.625 
C 40.09375 61.78125 35.09375 65.296875 28.203125 65.296875 
C 16.296875 65.296875 3.796875 52.96875 3.796875 31 
C 3.796875 3.953125 15.09375 -2 23.09375 -2 
C 32.796875 -2 42 6.671875 42 20.046875 
C 42 32.515625 33.90625 41.59375 23.703125 41.59375 
C 17.59375 41.59375 13.09375 37.609375 10.59375 30.625 
z
M 23.09375 0.390625 
C 10.796875 0.390625 10.796875 18.75 10.796875 22.4375 
C 10.796875 29.625 14.203125 40 23.5 40 
C 25.203125 40 30.09375 40 33.40625 33.125 
C 35.203125 29.21875 35.203125 25.140625 35.203125 20.140625 
C 35.203125 14.75 35.203125 10.78125 33.09375 6.78125 
C 30.90625 2.671875 27.703125 0.390625 23.09375 0.390625 
z
" id="CMR17-54"/>
      </defs>
      <g transform="translate(353.562626 389.714046)scale(0.14994 -0.14994)">
       <use transform="scale(0.996264)" xlink:href="#CMR17-54"/>
      </g>
     </g>
    </g>
    <g id="xtick_5">
     <g id="line2d_9">
      <g>
       <use style="stroke:#000000;stroke-width:0.8;" x="453.138942" xlink:href="#mc311062219" y="372.340456"/>
      </g>
     </g>
     <g id="line2d_10">
      <g>
       <use style="stroke:#000000;stroke-width:0.8;" x="453.138942" xlink:href="#m86446e144a" y="22.94"/>
      </g>
     </g>
     <g id="text_5">
      <!-- $8$ -->
      <defs>
       <path d="M 27.203125 35.375 
C 33.5 38.546875 39.90625 43.328125 39.90625 50.984375 
C 39.90625 60.015625 31.09375 65.296875 23 65.296875 
C 13.90625 65.296875 5.90625 58.734375 5.90625 49.6875 
C 5.90625 47.203125 6.5 42.921875 10.40625 39.140625 
C 11.40625 38.15625 15.59375 35.171875 18.296875 33.28125 
C 13.796875 30.984375 3.296875 25.53125 3.296875 14.59375 
C 3.296875 4.359375 13.09375 -2 22.796875 -2 
C 33.5 -2 42.5 5.65625 42.5 15.78125 
C 42.5 24.84375 36.40625 29.015625 32.40625 31.703125 
z
M 14.09375 44.09375 
C 13.296875 44.59375 9.296875 47.671875 9.296875 52.359375 
C 9.296875 58.421875 15.59375 63 22.796875 63 
C 30.703125 63 36.5 57.4375 36.5 50.96875 
C 36.5 41.703125 26.09375 36.421875 25.59375 36.421875 
C 25.5 36.421875 25.40625 36.421875 24.59375 37.03125 
z
M 32.5 23.734375 
C 34 22.640625 38.796875 19.375 38.796875 13.296875 
C 38.796875 5.953125 31.40625 0.390625 23 0.390625 
C 13.90625 0.390625 7 6.84375 7 14.6875 
C 7 22.546875 13.09375 29.09375 20 32.1875 
z
" id="CMR17-56"/>
      </defs>
      <g transform="translate(449.48229 389.714046)scale(0.14994 -0.14994)">
       <use transform="scale(0.996264)" xlink:href="#CMR17-56"/>
      </g>
     </g>
    </g>
    <g id="xtick_6">
     <g id="line2d_11">
      <g>
       <use style="stroke:#000000;stroke-width:0.8;" x="549.058606" xlink:href="#mc311062219" y="372.340456"/>
      </g>
     </g>
     <g id="line2d_12">
      <g>
       <use style="stroke:#000000;stroke-width:0.8;" x="549.058606" xlink:href="#m86446e144a" y="22.94"/>
      </g>
     </g>
     <g id="text_6">
      <!-- $10$ -->
      <defs>
       <path d="M 26.59375 63.40625 
C 26.59375 65.5 26.5 65.5 25.09375 65.5 
C 21.203125 61.1875 15.296875 59.796875 9.703125 59.796875 
C 9.40625 59.796875 8.90625 59.796875 8.796875 59.5 
C 8.703125 59.296875 8.703125 59.09375 8.703125 57 
C 11.796875 57 17 57.59375 21 59.984375 
L 21 7.203125 
C 21 3.6875 20.796875 2.5 12.203125 2.5 
L 9.203125 2.5 
L 9.203125 0 
C 14 0 19 0 23.796875 0 
C 28.59375 0 33.59375 0 38.40625 0 
L 38.40625 2.5 
L 35.40625 2.5 
C 26.796875 2.5 26.59375 3.59375 26.59375 7.15625 
z
" id="CMR17-49"/>
      </defs>
      <g transform="translate(541.745302 389.714046)scale(0.14994 -0.14994)">
       <use transform="scale(0.996264)" xlink:href="#CMR17-49"/>
       <use transform="translate(45.690477 0)scale(0.996264)" xlink:href="#CMR17-48"/>
      </g>
     </g>
    </g>
    <g id="text_7">
     <!-- $\gamma$ -->
     <defs>
      <path d="M 37.796875 11.875 
C 37.59375 16.734375 37.40625 24.390625 33.59375 33.328125 
C 31.59375 38.3125 28.203125 43.5625 20.90625 43.5625 
C 8.59375 43.5625 1.90625 27.96875 1.90625 25.390625 
C 1.90625 24.484375 2.59375 24.484375 2.90625 24.484375 
C 3.796875 24.484375 3.796875 24.6875 4.296875 25.984375 
C 6.40625 32.140625 12.796875 37 19.703125 37 
C 33.59375 37 35.59375 21.609375 35.59375 11.78125 
C 35.59375 5.5 34.90625 3.4375 34.296875 1.4375 
C 32.40625 -4.71875 29.09375 -17.03125 29.09375 -19.8125 
C 29.09375 -20.609375 29.40625 -21.5 30.203125 -21.5 
C 31.703125 -21.5 32.59375 -18.21875 33.703125 -14.25 
C 36.09375 -5.515625 36.703125 -1.140625 37.203125 2.828125 
C 37.5 5.21875 43.203125 21.625 51.09375 37.21875 
C 51.796875 38.796875 53.203125 41.484375 53.203125 41.78125 
C 53.203125 41.875 53.09375 42.578125 52.203125 42.578125 
C 52 42.578125 51.5 42.578125 51.296875 42.171875 
C 51.09375 41.984375 47.59375 35.21875 44.59375 28.46875 
C 43.09375 25.09375 41.09375 20.625 37.796875 11.875 
z
" id="CMMI12-13"/>
     </defs>
     <g transform="translate(304.705524 409.071936)scale(0.18 -0.18)">
      <use transform="scale(0.996264)" xlink:href="#CMMI12-13"/>
     </g>
    </g>
   </g>
   <g id="matplotlib.axis_2">
    <g id="ytick_1">
     <g id="line2d_13">
      <defs>
       <path d="M 0 0 
L -3.5 0 
" id="m1a953f9bb1" style="stroke:#000000;stroke-width:0.8;"/>
      </defs>
      <g>
       <use style="stroke:#000000;stroke-width:0.8;" x="67.062295" xlink:href="#m1a953f9bb1" y="361.752564"/>
      </g>
     </g>
     <g id="line2d_14">
      <defs>
       <path d="M 0 0 
L 3.5 0 
" id="mfe16427da2" style="stroke:#000000;stroke-width:0.8;"/>
      </defs>
      <g>
       <use style="stroke:#000000;stroke-width:0.8;" x="551.456597" xlink:href="#mfe16427da2" y="361.752564"/>
      </g>
     </g>
     <g id="text_8">
      <!-- $0.0$ -->
      <defs>
       <path d="M 18.40625 4.796875 
C 18.40625 7.6875 16 9.671875 13.59375 9.671875 
C 10.703125 9.671875 8.703125 7.28125 8.703125 4.890625 
C 8.703125 2 11.09375 0 13.5 0 
C 16.40625 0 18.40625 2.390625 18.40625 4.796875 
z
" id="CMMI12-58"/>
      </defs>
      <g transform="translate(41.372737 366.939359)scale(0.14994 -0.14994)">
       <use transform="scale(0.996264)" xlink:href="#CMR17-48"/>
       <use transform="translate(45.690477 0)scale(0.996264)" xlink:href="#CMMI12-58"/>
       <use transform="translate(72.787654 0)scale(0.996264)" xlink:href="#CMR17-48"/>
      </g>
     </g>
    </g>
    <g id="ytick_2">
     <g id="line2d_15">
      <g>
       <use style="stroke:#000000;stroke-width:0.8;" x="67.062295" xlink:href="#m1a953f9bb1" y="255.873638"/>
      </g>
     </g>
     <g id="line2d_16">
      <g>
       <use style="stroke:#000000;stroke-width:0.8;" x="551.456597" xlink:href="#mfe16427da2" y="255.873638"/>
      </g>
     </g>
     <g id="text_9">
      <!-- $0.1$ -->
      <g transform="translate(41.372737 261.060433)scale(0.14994 -0.14994)">
       <use transform="scale(0.996264)" xlink:href="#CMR17-48"/>
       <use transform="translate(45.690477 0)scale(0.996264)" xlink:href="#CMMI12-58"/>
       <use transform="translate(72.787654 0)scale(0.996264)" xlink:href="#CMR17-49"/>
      </g>
     </g>
    </g>
    <g id="ytick_3">
     <g id="line2d_17">
      <g>
       <use style="stroke:#000000;stroke-width:0.8;" x="67.062295" xlink:href="#m1a953f9bb1" y="149.994711"/>
      </g>
     </g>
     <g id="line2d_18">
      <g>
       <use style="stroke:#000000;stroke-width:0.8;" x="551.456597" xlink:href="#mfe16427da2" y="149.994711"/>
      </g>
     </g>
     <g id="text_10">
      <!-- $0.2$ -->
      <g transform="translate(41.372737 155.181506)scale(0.14994 -0.14994)">
       <use transform="scale(0.996264)" xlink:href="#CMR17-48"/>
       <use transform="translate(45.690477 0)scale(0.996264)" xlink:href="#CMMI12-58"/>
       <use transform="translate(72.787654 0)scale(0.996264)" xlink:href="#CMR17-50"/>
      </g>
     </g>
    </g>
    <g id="ytick_4">
     <g id="line2d_19">
      <g>
       <use style="stroke:#000000;stroke-width:0.8;" x="67.062295" xlink:href="#m1a953f9bb1" y="44.115785"/>
      </g>
     </g>
     <g id="line2d_20">
      <g>
       <use style="stroke:#000000;stroke-width:0.8;" x="551.456597" xlink:href="#mfe16427da2" y="44.115785"/>
      </g>
     </g>
     <g id="text_11">
      <!-- $0.3$ -->
      <defs>
       <path d="M 22.09375 33.703125 
C 31 33.703125 34.90625 25.96875 34.90625 17.03125 
C 34.90625 5 28.5 0.390625 22.703125 0.390625 
C 17.40625 0.390625 8.796875 3.03125 6.09375 10.828125 
C 6.59375 10.625 7.09375 10.625 7.59375 10.625 
C 10 10.625 11.796875 12.21875 11.796875 14.8125 
C 11.796875 17.703125 9.59375 19 7.59375 19 
C 5.90625 19 3.296875 18.203125 3.296875 14.46875 
C 3.296875 5.234375 12.296875 -2 22.90625 -2 
C 34 -2 42.5 6.71875 42.5 16.953125 
C 42.5 26.671875 34.5 33.703125 25 34.796875 
C 32.59375 36.375 39.90625 43.0625 39.90625 52.015625 
C 39.90625 59.6875 32 65.296875 23 65.296875 
C 13.90625 65.296875 5.90625 59.828125 5.90625 52.015625 
C 5.90625 48.59375 8.5 48 9.796875 48 
C 11.90625 48 13.703125 49.296875 13.703125 51.890625 
C 13.703125 54.46875 11.90625 55.765625 9.796875 55.765625 
C 9.40625 55.765625 8.90625 55.765625 8.5 55.578125 
C 11.40625 61.859375 19.296875 63 22.796875 63 
C 26.296875 63 32.90625 61.328125 32.90625 51.875 
C 32.90625 49.109375 32.5 44.1875 29.09375 39.84375 
C 26.09375 36 22.703125 36 19.40625 35.6875 
C 18.90625 35.6875 16.59375 35.453125 16.203125 35.453125 
C 15.5 35.359375 15.09375 35.265625 15.09375 34.5 
C 15.09375 33.796875 15.203125 33.703125 17.203125 33.703125 
z
" id="CMR17-51"/>
      </defs>
      <g transform="translate(41.372737 49.30258)scale(0.14994 -0.14994)">
       <use transform="scale(0.996264)" xlink:href="#CMR17-48"/>
       <use transform="translate(45.690477 0)scale(0.996264)" xlink:href="#CMMI12-58"/>
       <use transform="translate(72.787654 0)scale(0.996264)" xlink:href="#CMR17-51"/>
      </g>
     </g>
    </g>
    <g id="text_12">
     <!-- $\tau \sqrt{3}$ -->
     <defs>
      <path d="M 28.703125 37.625 
L 45.296875 37.625 
C 46.59375 37.625 49.90625 37.625 49.90625 40.8125 
C 49.90625 43 48 43 46.203125 43 
L 18.703125 43 
C 16.40625 43 13 43 8.40625 38.125 
C 5.796875 35.234375 2.59375 29.953125 2.59375 29.359375 
C 2.59375 28.765625 3.09375 28.5625 3.703125 28.5625 
C 4.40625 28.5625 4.5 28.859375 5 29.453125 
C 10.203125 37.625 15.40625 37.625 17.90625 37.625 
L 26.203125 37.625 
L 15.796875 3.484375 
C 15.296875 1.984375 15.296875 1.78125 15.296875 1.484375 
C 15.296875 0.390625 16 -1 18 -1 
C 21.09375 -1 21.59375 1.6875 21.90625 3.171875 
z
" id="CMMI12-28"/>
      <path d="M 38.90625 -85.5 
L 21.296875 -46.59375 
C 20.59375 -45 20.09375 -45 19.796875 -45 
C 19.703125 -45 19.203125 -45 18.09375 -45.796875 
L 8.59375 -53 
C 7.296875 -54 7.296875 -54.296875 7.296875 -54.59375 
C 7.296875 -55.09375 7.59375 -55.703125 8.296875 -55.703125 
C 8.90625 -55.703125 10.59375 -54.296875 11.703125 -53.5 
C 12.296875 -53.015625 13.796875 -51.921875 14.90625 -51.109375 
L 34.59375 -94.40625 
C 35.296875 -96 35.796875 -96 36.703125 -96 
C 38.203125 -96 38.5 -95.40625 39.203125 -94 
L 84.59375 0 
C 85.296875 1.40625 85.296875 1.796875 85.296875 2 
C 85.296875 3 84.5 4 83.296875 4 
C 82.5 4 81.796875 3.5 81 1.90625 
z
" id="CMSY10-112"/>
     </defs>
     <g transform="translate(33.884673 214.038573)rotate(-90)scale(0.18 -0.18)">
      <use transform="scale(0.996264)" xlink:href="#CMMI12-28"/>
      <use transform="translate(53.491165 82.421465)scale(0.996264)" xlink:href="#CMSY10-112"/>
      <use transform="translate(136.51342 0)scale(0.996264)" xlink:href="#CMR17-51"/>
      <path d="M 136.51342 82.421465 
L 182.203897 82.421465 
L 182.203897 86.406414 
L 136.51342 86.406414 
L 136.51342 82.421465 
z
"/>
     </g>
    </g>
   </g>
   <g id="line2d_21">
    <path clip-path="url(#p05a3a6c6e3)" d="M 69.460286 361.569176 
L 76.237011 102.442385 
L 76.251398 105.748756 
L 76.754977 195.161561 
L 77.258555 248.123422 
L 77.762133 279.494306 
L 78.265711 298.076212 
L 78.76929 309.082827 
L 79.272868 315.602372 
L 79.776446 319.464093 
L 80.28482 321.768039 
L 80.797991 323.135643 
L 81.330345 323.96014 
L 81.915455 324.468331 
L 82.62526 324.78503 
L 83.637213 324.973787 
L 85.52683 325.06084 
L 85.828977 325.064665 
L 86.615518 294.989086 
L 86.67307 296.736919 
L 87.176648 308.289524 
L 87.680226 315.132475 
L 88.183805 319.185759 
L 88.692179 321.603994 
L 89.205349 323.039438 
L 89.737703 323.904835 
L 90.318017 324.435052 
L 91.013435 324.764511 
L 91.987019 324.962211 
L 93.751941 325.057028 
L 96.212281 325.073635 
L 98.317717 244.566443 
L 98.351289 247.328723 
L 98.854867 279.023581 
L 99.358446 297.797388 
L 99.862024 308.917671 
L 100.365602 315.504546 
L 100.86918 319.406147 
L 101.377554 321.733887 
L 101.890725 323.115614 
L 102.423079 323.948626 
L 103.008189 324.462066 
L 103.717994 324.782035 
L 104.725151 324.97223 
L 106.595584 325.060331 
L 107.91448 325.071299 
L 111.621775 183.312623 
L 111.640958 186.112782 
L 112.144537 242.763561 
L 112.648115 276.319501 
L 113.151693 296.195681 
L 113.655271 307.968933 
L 114.15885 314.942579 
L 114.662428 319.073278 
L 115.166006 321.520013 
L 115.679176 322.990187 
L 116.206734 323.87053 
L 116.782252 324.412996 
L 117.468078 324.75059 
L 118.422479 324.954778 
L 120.115461 325.054352 
L 121.218537 325.068462 
L 126.268707 131.961236 
L 126.283095 134.829215 
L 126.786673 212.386781 
L 127.290252 258.326431 
L 127.79383 285.537851 
L 128.297408 301.655984 
L 128.800986 311.203232 
L 129.304565 316.858351 
L 129.808143 320.208046 
L 130.316517 322.206513 
L 130.834483 323.401155 
L 131.376429 324.122325 
L 131.985519 324.569357 
L 132.752876 324.847362 
L 133.908708 325.006593 
L 135.86547 325.066084 
L 140.220222 158.550071 
L 140.239406 161.839352 
L 140.742984 228.385687 
L 141.246563 267.803059 
L 141.750141 291.151139 
L 142.253719 304.980901 
L 142.757297 313.172679 
L 143.260876 318.024913 
L 143.764454 320.899036 
L 144.272828 322.61377 
L 144.79559 323.645948 
L 145.351924 324.273731 
L 145.994586 324.664313 
L 146.838679 324.904296 
L 148.205534 325.033819 
L 149.816985 325.067316 
L 158.344348 -1 
M 158.802109 -1 
L 159.303439 131.479723 
L 159.807018 210.402777 
L 160.310596 257.151247 
L 160.814174 284.841755 
L 161.317752 301.243665 
L 161.821331 310.959004 
L 162.324909 316.713687 
L 162.828487 320.122357 
L 163.336861 322.156009 
L 163.854827 323.371685 
L 164.396774 324.105552 
L 165.001067 324.557882 
L 165.763629 324.841031 
L 166.900277 325.003273 
L 168.35346 325.059196 
L 176.880611 -1 
M 178.868484 -1 
L 179.369833 131.483464 
L 179.873411 210.404993 
L 180.37699 257.15256 
L 180.880568 284.842532 
L 181.384146 301.244125 
L 181.887724 310.959276 
L 182.391303 316.713849 
L 182.894881 320.122453 
L 183.403255 322.156066 
L 183.921221 323.371717 
L 184.463167 324.10557 
L 185.067461 324.557892 
L 185.830022 324.841036 
L 186.96667 325.003274 
L 188.28077 325.056732 
L 196.807856 -1 
M 217.164947 -1 
L 217.665759 131.375299 
L 218.169337 210.340924 
L 218.672915 257.114609 
L 219.176494 284.820053 
L 219.680072 301.23081 
L 220.18365 310.951389 
L 220.687228 316.709177 
L 221.190807 320.119686 
L 221.699181 322.154435 
L 222.217147 323.370766 
L 222.759093 324.105029 
L 223.363387 324.557603 
L 224.125948 324.840905 
L 225.262596 325.003234 
L 225.627091 325.025884 
L 227.209765 264.50795 
L 227.248133 266.877019 
L 227.751712 290.602618 
L 228.25529 304.655996 
L 228.758868 312.980228 
L 229.262446 317.910919 
L 229.766024 320.831513 
L 230.274399 322.573973 
L 230.797161 323.622841 
L 231.353495 324.260775 
L 231.991361 324.655585 
L 232.830658 324.899796 
L 234.178329 325.031881 
L 236.806528 325.072223 
L 242.211601 118.394308 
L 242.225989 121.463773 
L 242.729567 204.470033 
L 243.233145 253.637106 
L 243.736724 282.760225 
L 244.240302 300.010713 
L 244.74388 310.228689 
L 245.247458 316.281101 
L 245.751036 319.866123 
L 246.259411 322.004989 
L 246.772581 323.274602 
L 247.309731 324.045172 
L 247.904433 324.520166 
L 248.643014 324.817626 
L 249.722111 324.991227 
L 251.808363 325.065456 
L 251.813159 324.882068 
L 251.923467 324.902981 
L 253.285526 325.033294 
L 256.79139 325.073939 
L 261.409922 325.075019 
L 265.16038 181.665854 
L 265.179564 184.49854 
L 265.683143 241.807398 
L 266.186721 275.753137 
L 266.690299 295.860207 
L 267.193877 307.770221 
L 267.697456 314.824877 
L 268.201034 319.003559 
L 268.704612 321.478716 
L 269.217782 322.965969 
L 269.74534 323.856538 
L 270.320858 324.405306 
L 271.006684 324.746821 
L 271.956289 324.952773 
L 273.634883 325.05369 
L 274.757143 325.068386 
L 282.056629 45.952338 
L 282.066221 48.722769 
L 282.569799 161.383375 
L 283.073378 228.115599 
L 283.576956 267.643077 
L 284.080534 291.056377 
L 284.584112 304.924771 
L 285.087691 313.139432 
L 285.591269 318.00522 
L 286.094847 320.887371 
L 286.603221 322.606895 
L 287.125983 323.641956 
L 287.682318 324.271493 
L 288.324979 324.663165 
L 289.169072 324.903819 
L 290.531132 325.033498 
L 291.653392 325.062101 
L 300.180619 -1 
M 305.256554 -1 
L 305.758378 131.578946 
L 306.261956 210.46155 
L 306.765535 257.18606 
L 307.269113 284.862375 
L 307.772691 301.255879 
L 308.276269 310.966238 
L 308.779848 316.717973 
L 309.283426 320.124896 
L 309.7918 322.157505 
L 310.309766 323.372558 
L 310.851712 324.106048 
L 311.456006 324.558147 
L 312.218568 324.841151 
L 313.355216 325.00331 
L 314.434312 325.051679 
L 322.064721 33.281881 
L 322.074313 36.178073 
L 322.577891 153.952779 
L 323.081469 223.714236 
L 323.585048 265.036019 
L 324.088626 289.51214 
L 324.592204 304.010073 
L 325.095782 312.597629 
L 325.599361 317.684294 
L 326.102939 320.697277 
L 326.611313 322.494857 
L 327.134075 323.576904 
L 327.685613 324.230817 
L 328.318683 324.637978 
L 329.138796 324.888762 
L 330.438508 325.026819 
L 331.661483 325.061514 
L 340.188695 -1 
M 353.073164 -1 
L 353.574331 131.446634 
L 354.077909 210.383178 
L 354.581487 257.139638 
L 355.085065 284.834878 
L 355.588644 301.239592 
L 356.092222 310.956591 
L 356.5958 316.712258 
L 357.099378 320.121511 
L 357.607752 322.15551 
L 358.125719 323.371393 
L 358.667665 324.105386 
L 359.271959 324.557793 
L 360.03452 324.840991 
L 361.171168 325.003261 
L 361.823422 325.038608 
L 363.760999 250.949985 
L 363.794571 253.493243 
L 364.298149 282.67501 
L 364.801727 299.960238 
L 365.305305 310.198792 
L 365.808884 316.263391 
L 366.312462 319.855634 
L 366.820836 321.998807 
L 367.334006 323.270976 
L 367.871156 324.043098 
L 368.465858 324.519049 
L 369.20444 324.817108 
L 370.283536 324.991059 
L 372.422545 325.065949 
L 373.357761 325.071595 
L 373.448885 321.587229 
L 373.549601 321.934055 
L 374.062771 323.233003 
L 374.599921 324.021377 
L 375.194623 324.507346 
L 375.923612 324.809039 
L 376.983525 324.986687 
L 379.050593 325.064734 
L 383.040851 325.074866 
L 388.225309 126.832784 
L 388.239697 129.776927 
L 388.743275 209.394161 
L 389.246854 256.553814 
L 389.750432 284.487877 
L 390.25401 301.034053 
L 390.757588 310.834844 
L 391.261167 316.640144 
L 391.764745 320.078796 
L 392.273119 322.130335 
L 392.791085 323.356703 
L 393.333031 324.097024 
L 393.937325 324.553333 
L 394.69509 324.837793 
L 395.826943 325.001916 
L 397.822072 325.065847 
L 400.896297 207.514344 
L 400.920277 210.409785 
L 401.423855 257.155398 
L 401.927433 284.844213 
L 402.431011 301.245121 
L 402.93459 310.959866 
L 403.438168 316.714198 
L 403.941746 320.12266 
L 404.45012 322.156188 
L 404.968086 323.371789 
L 405.510033 324.105611 
L 406.114326 324.557913 
L 406.876888 324.841046 
L 408.013536 325.003277 
L 410.392343 325.068982 
L 410.493059 325.069583 
L 412.656048 242.36174 
L 412.689619 245.199663 
L 413.193198 277.762476 
L 413.696776 297.050398 
L 414.200354 308.475207 
L 414.703932 315.242461 
L 415.207511 319.250906 
L 415.715885 321.642391 
L 416.229055 323.061956 
L 416.761409 323.91778 
L 417.341723 324.442131 
L 418.041937 324.769474 
L 419.025113 324.965116 
L 420.818811 325.058009 
L 422.25281 325.071197 
L 426.69389 155.254206 
L 426.713074 158.608588 
L 427.216653 226.47201 
L 427.720231 266.669531 
L 428.223809 290.479717 
L 428.727387 304.583197 
L 429.230965 312.937108 
L 429.734544 317.885377 
L 430.238122 320.816384 
L 430.746496 322.565057 
L 431.269258 323.617664 
L 431.825592 324.257872 
L 432.463458 324.654089 
L 433.297959 324.898292 
L 434.636039 325.031075 
L 436.290653 325.067163 
L 437.921287 262.715352 
L 437.959655 265.154538 
L 438.463233 289.582341 
L 438.966811 304.051655 
L 439.47039 312.62226 
L 439.973968 317.698883 
L 440.477546 320.705918 
L 440.98592 322.49995 
L 441.508682 323.579861 
L 442.060221 324.232484 
L 442.69329 324.638841 
L 443.513403 324.889129 
L 444.813115 325.026914 
L 447.518049 325.07214 
L 451.517899 172.126815 
L 451.537083 175.147921 
L 452.040662 236.268748 
L 452.54424 272.47243 
L 453.047818 293.916947 
L 453.551396 306.619171 
L 454.054974 314.143075 
L 454.558553 318.599708 
L 455.062131 321.239503 
L 455.575301 322.825682 
L 456.102859 323.775489 
L 456.668785 324.353598 
L 457.335427 324.714357 
L 458.237072 324.933809 
L 459.771786 325.046402 
L 461.114662 325.067944 
L 465.426251 160.20242 
L 465.445435 163.459063 
L 465.949013 229.34509 
L 466.452591 268.371342 
L 466.956169 291.48775 
L 467.459747 305.180285 
L 467.963326 313.290781 
L 468.466904 318.094868 
L 468.970482 320.940472 
L 469.478856 322.638192 
L 470.001619 323.660128 
L 470.557953 324.281682 
L 471.200614 324.668388 
L 472.049503 324.906831 
L 473.425951 325.034834 
L 475.023013 325.067392 
L 477.684784 223.28723 
L 477.71356 226.28813 
L 478.217138 266.560613 
L 478.720716 290.415202 
L 479.224294 304.544983 
L 479.727872 312.914473 
L 480.231451 317.87197 
L 480.735029 320.808443 
L 481.243403 322.560376 
L 481.766165 323.614946 
L 482.322499 324.256348 
L 482.960365 324.653304 
L 483.794866 324.897963 
L 485.132946 325.030993 
L 487.281546 325.070314 
L 490.993637 183.12825 
L 491.012821 185.93205 
L 491.516399 242.656509 
L 492.019977 276.25609 
L 492.523556 296.158121 
L 493.027134 307.946685 
L 493.530712 314.929401 
L 494.03429 319.065472 
L 494.537869 321.515389 
L 495.051039 322.987476 
L 495.578597 323.868964 
L 496.154115 324.412135 
L 496.839941 324.750168 
L 497.794341 324.954621 
L 499.487323 325.054325 
L 500.590399 325.068454 
L 508.992962 3.773239 
L 509.002554 6.962319 
L 509.506132 136.64742 
L 510.00971 213.463758 
L 510.513289 258.964357 
L 511.016867 285.915713 
L 511.520445 301.879802 
L 512.024023 311.335807 
L 512.527602 316.936879 
L 513.03118 320.254561 
L 513.539554 322.233927 
L 514.05752 323.417152 
L 514.599466 324.13143 
L 515.208556 324.57419 
L 515.980709 324.85066 
L 517.146133 325.008254 
L 518.589724 325.060147 
L 526.474321 23.570802 
L 526.483913 26.563381 
L 526.987491 148.257711 
L 527.491069 220.340878 
L 527.994647 263.037879 
L 528.498226 288.328582 
L 529.001804 303.309016 
L 529.505382 312.182373 
L 530.00896 317.438325 
L 530.512539 320.551582 
L 531.020913 322.408987 
L 531.538879 323.519305 
L 532.085621 324.193977 
L 532.709099 324.614333 
L 533.510028 324.874728 
L 534.752188 325.019989 
L 536.071083 325.061064 
L 536.848032 295.35226 
L 536.91038 297.218278 
L 537.413958 308.574647 
L 537.917537 315.301362 
L 538.421115 319.285795 
L 538.929489 321.662954 
L 539.442659 323.074015 
L 539.975013 323.924712 
L 540.555327 324.445922 
L 541.255541 324.771304 
L 542.243513 324.966318 
L 544.051599 325.058445 
L 546.444795 325.073651 
L 546.670206 316.45443 
L 546.756534 317.194628 
L 547.260112 320.407233 
L 547.768486 322.32391 
L 548.286452 323.46966 
L 548.833194 324.165861 
L 549.05381 324.35225 
L 549.05381 324.35225 
" style="fill:none;stroke:#000000;stroke-linecap:square;stroke-width:2;"/>
   </g>
   <g id="patch_3">
    <path d="M 67.062295 372.340456 
L 67.062295 22.94 
" style="fill:none;stroke:#000000;stroke-linecap:square;stroke-linejoin:miter;stroke-width:0.8;"/>
   </g>
   <g id="patch_4">
    <path d="M 551.456597 372.340456 
L 551.456597 22.94 
" style="fill:none;stroke:#000000;stroke-linecap:square;stroke-linejoin:miter;stroke-width:0.8;"/>
   </g>
   <g id="patch_5">
    <path d="M 67.062295 372.340456 
L 551.456597 372.340456 
" style="fill:none;stroke:#000000;stroke-linecap:square;stroke-linejoin:miter;stroke-width:0.8;"/>
   </g>
   <g id="patch_6">
    <path d="M 67.062295 22.94 
L 551.456597 22.94 
" style="fill:none;stroke:#000000;stroke-linecap:square;stroke-linejoin:miter;stroke-width:0.8;"/>
   </g>
  </g>
 </g>
 <defs>
  <clipPath id="p05a3a6c6e3">
   <rect height="349.400456" width="484.394302" x="67.062295" y="22.94"/>
  </clipPath>
 </defs>
</svg>
