<?xml version="1.0" encoding="utf-8" standalone="no"?>
<!DOCTYPE svg PUBLIC "-//W3C//DTD SVG 1.1//EN"
  "http://www.w3.org/Graphics/SVG/1.1/DTD/svg11.dtd">
<!-- Created with matplotlib (http://matplotlib.org/) -->
<svg height="432pt" version="1.1" viewBox="0 0 576 432" width="576pt" xmlns="http://www.w3.org/2000/svg" xmlns:xlink="http://www.w3.org/1999/xlink">
 <defs>
  <style type="text/css">
*{stroke-linecap:butt;stroke-linejoin:round;}
  </style>
 </defs>
 <g id="figure_1">
  <g id="patch_1">
   <path d="M 0 432 
L 576 432 
L 576 0 
L 0 0 
z
" style="fill:none;"/>
  </g>
  <g id="axes_1">
   <g id="patch_2">
    <path d="M 53.694668 372.340456 
L 553.06 372.340456 
L 553.06 22.94 
L 53.694668 22.94 
z
" style="fill:none;"/>
   </g>
   <g id="matplotlib.axis_1">
    <g id="xtick_1">
     <g id="line2d_1">
      <defs>
       <path d="M 0 0 
L 0 3.5 
" id="m1df98ebc45" style="stroke:#000000;stroke-width:0.8;"/>
      </defs>
      <g>
       <use style="stroke:#000000;stroke-width:0.8;" x="76.393092" xlink:href="#m1df98ebc45" y="372.340456"/>
      </g>
     </g>
     <g id="text_1">
      <!-- $0$ -->
      <defs>
       <path d="M 42 31.640625 
C 42 37.75 41.90625 48.125 37.703125 56.109375 
C 34 63.109375 28.09375 65.59375 22.90625 65.59375 
C 18.09375 65.59375 12 63.40625 8.203125 56.203125 
C 4.203125 48.71875 3.796875 39.4375 3.796875 31.640625 
C 3.796875 25.953125 3.90625 17.28125 7 9.671875 
C 11.296875 -0.609375 19 -2 22.90625 -2 
C 27.5 -2 34.5 -0.109375 38.59375 9.375 
C 41.59375 16.28125 42 24.359375 42 31.640625 
z
M 22.90625 -0.40625 
C 16.5 -0.40625 12.703125 5.078125 11.296875 12.6875 
C 10.203125 18.5625 10.203125 27.15625 10.203125 32.75 
C 10.203125 40.4375 10.203125 46.828125 11.5 52.921875 
C 13.40625 61.390625 19 64 22.90625 64 
C 27 64 32.296875 61.296875 34.203125 53.125 
C 35.5 47.4375 35.59375 40.734375 35.59375 32.75 
C 35.59375 26.25 35.59375 18.265625 34.40625 12.375 
C 32.296875 1.484375 26.40625 -0.40625 22.90625 -0.40625 
z
" id="CMR17-48"/>
      </defs>
      <g transform="translate(72.73644 389.714046)scale(0.14994 -0.14994)">
       <use transform="scale(0.996264)" xlink:href="#CMR17-48"/>
      </g>
     </g>
    </g>
    <g id="text_2">
     <!-- $\varepsilon_\mathrm{eq}$ -->
     <defs>
      <path d="M 13.90625 22.296875 
C 17.09375 21.015625 20.5 21.015625 22.40625 21.015625 
C 25 21.015625 30.203125 21.015625 30.203125 24.21875 
C 30.203125 26.21875 28.296875 27 23.203125 27 
C 20.703125 27 17.703125 26.703125 14.203125 25.203125 
C 11.09375 26.6875 9.90625 28.9375 9.90625 31.09375 
C 9.90625 37.171875 19.703125 40.71875 28.59375 40.71875 
C 30.296875 40.71875 33.90625 40.71875 38.09375 37.671875 
C 38.703125 37.296875 39 36.984375 39.703125 36.984375 
C 40.90625 36.984375 42.203125 38.265625 42.203125 39.46875 
C 42.203125 41.234375 36.40625 45 29.5 45 
C 18.296875 45 7.703125 38.265625 7.703125 30.8125 
C 7.703125 27.09375 10.09375 24.78125 11.796875 23.578125 
C 6 20.328125 2.59375 15.015625 2.59375 10.1875 
C 2.59375 3.421875 8.796875 -2 18.40625 -2 
C 31.59375 -2 36.90625 6.625 36.90625 8 
C 36.90625 8.484375 36.5 8.875 36 8.875 
C 35.5 8.875 35.296875 8.578125 34.90625 8 
C 33.796875 6.171875 31.203125 2.28125 19.296875 2.28125 
C 13.09375 2.28125 4.90625 3.828125 4.90625 10.71875 
C 4.90625 14.03125 7.40625 18.96875 13.90625 22.296875 
z
M 17 23.71875 
C 19.703125 25 22.296875 25 23 25 
C 25.796875 25 26.296875 24.734375 27.90625 24.140625 
C 26.203125 23 26 23 22.40625 23 
C 20.59375 23 19 23 17 23.71875 
z
" id="CMMI12-34"/>
      <path d="M 38.09375 23 
C 38.5 23.40625 38.5 23.609375 38.5 24.625 
C 38.5 34.96875 33.09375 44 21.703125 44 
C 11.09375 44 2.703125 33.890625 2.703125 21.609375 
C 2.703125 8.609375 12.203125 -1 22.796875 -1 
C 34 -1 38.40625 9.484375 38.40625 11.5625 
C 38.40625 12.25 37.796875 12.25 37.59375 12.25 
C 36.90625 12.25 36.796875 12.046875 36.40625 10.875 
C 34.203125 4.140625 28.703125 0.796875 23.5 0.796875 
C 19.203125 0.796875 14.90625 3.171875 12.203125 7.5 
C 9.09375 12.546875 9.09375 18.375 9.09375 23 
z
M 9.203125 24.5 
C 9.90625 39.140625 17.59375 42.40625 21.59375 42.40625 
C 28.40625 42.40625 33 35.890625 33.09375 24.5 
z
" id="CMR17-101"/>
      <path d="M 41.09375 43.78125 
L 39.5 43.78125 
L 36.5 33.9375 
C 34.203125 39.203125 30 43.78125 23.296875 43.78125 
C 13.09375 43.78125 3.296875 34.734375 3.296875 21.609375 
C 3.296875 8.5625 12.5 -0.59375 22.5 -0.59375 
C 30.203125 -0.59375 34.5 5.28125 35.796875 7.46875 
L 35.796875 -12.328125 
C 35.796875 -16.109375 35.40625 -16.609375 29 -16.609375 
L 29 -19.1875 
C 31.40625 -19 35.796875 -19 38.40625 -19 
C 41 -19 45.5 -19 47.90625 -19.1875 
L 47.90625 -16.609375 
C 41.5 -16.609375 41.09375 -16.203125 41.09375 -12.328125 
z
M 36 13.84375 
C 36 9.5625 32.40625 5.578125 32.09375 5.28125 
C 29 1.796875 25.40625 1 23 1 
C 15.5 1 9.703125 10.453125 9.703125 21.484375 
C 9.703125 33.140625 16.296875 42 24 42 
C 32 42 36 32.9375 36 27.765625 
z
" id="CMR17-113"/>
     </defs>
     <g transform="translate(293.293923 409.071936)scale(0.18 -0.18)">
      <use transform="translate(0 14.943915)scale(0.996264)" xlink:href="#CMMI12-34"/>
      <use transform="translate(45.650192 0)scale(0.697382)" xlink:href="#CMR17-101"/>
      <use transform="translate(73.990024 0)scale(0.697382)" xlink:href="#CMR17-113"/>
     </g>
    </g>
   </g>
   <g id="matplotlib.axis_2">
    <g id="ytick_1">
     <g id="line2d_2">
      <defs>
       <path d="M 0 0 
L -3.5 0 
" id="m9bf5bf7ddb" style="stroke:#000000;stroke-width:0.8;"/>
      </defs>
      <g>
       <use style="stroke:#000000;stroke-width:0.8;" x="53.694668" xlink:href="#m9bf5bf7ddb" y="356.458618"/>
      </g>
     </g>
     <g id="text_3">
      <!-- $0$ -->
      <g transform="translate(39.381364 361.645412)scale(0.14994 -0.14994)">
       <use transform="scale(0.996264)" xlink:href="#CMR17-48"/>
      </g>
     </g>
    </g>
    <g id="text_4">
     <!-- $\sigma_\mathrm{eq}$ -->
     <defs>
      <path d="M 50.796875 37.625 
C 52.09375 37.625 55.40625 37.625 55.40625 40.8125 
C 55.40625 43 53.5 43 51.703125 43 
L 29.59375 43 
C 14.59375 43 3.796875 26.34375 3.796875 14.5625 
C 3.796875 6.09375 9.296875 -1 18.296875 -1 
C 30.09375 -1 43 11.671875 43 26.640625 
C 43 30.53125 42.09375 34.3125 39.703125 37.625 
z
M 18.40625 1 
C 13.296875 1 9.59375 4.890625 9.59375 11.78125 
C 9.59375 17.765625 13.203125 37.625 27.90625 37.625 
C 32.203125 37.625 37 35.53125 37 27.828125 
C 37 24.34375 35.40625 15.953125 31.90625 10.1875 
C 28.296875 4.296875 22.90625 1 18.40625 1 
z
" id="CMMI12-27"/>
     </defs>
     <g transform="translate(31.8933 208.605213)rotate(-90)scale(0.18 -0.18)">
      <use transform="translate(0 14.943915)scale(0.996264)" xlink:href="#CMMI12-27"/>
      <use transform="translate(55.445461 0)scale(0.697382)" xlink:href="#CMR17-101"/>
      <use transform="translate(83.785292 0)scale(0.697382)" xlink:href="#CMR17-113"/>
     </g>
    </g>
   </g>
   <g id="line2d_3">
    <path clip-path="url(#p0ce006c9cf)" d="M 76.393092 356.458618 
L 81.391744 303.922268 
L 84.118282 277.513644 
L 86.390396 257.610054 
L 88.208088 243.42151 
L 90.02578 231.019195 
L 91.389048 223.008718 
L 92.752317 216.185123 
L 94.115586 210.609098 
L 95.024431 207.609803 
L 95.933277 205.199122 
L 96.842123 203.386588 
L 97.750969 202.17937 
L 98.205392 201.80434 
L 98.659815 201.58224 
L 99.114238 201.513291 
L 99.568661 201.597561 
L 100.023083 201.834966 
L 100.477506 202.225271 
L 101.386352 203.462889 
L 102.295198 205.30552 
L 103.204044 207.745877 
L 104.11289 210.774311 
L 105.476158 216.392784 
L 106.839427 223.256979 
L 108.202696 231.305848 
L 110.020387 243.755332 
L 111.838079 257.98577 
L 114.110194 277.933309 
L 116.836731 304.380926 
L 120.472114 342.347571 
L 121.835383 355.971367 
L 123.653075 337.354762 
L 124.56192 329.567598 
L 125.470766 323.473462 
L 126.379612 319.456034 
L 126.834035 318.310731 
L 127.288458 317.768246 
L 127.742881 317.837153 
L 128.197304 318.516361 
L 128.651727 319.795138 
L 129.106149 321.653277 
L 130.014995 326.981498 
L 130.923841 334.165566 
L 132.28711 347.406906 
L 133.195956 355.849564 
L 135.013647 337.248886 
L 135.922493 329.480051 
L 136.831339 323.409756 
L 137.740185 319.42018 
L 138.194608 318.289766 
L 138.649031 317.762502 
L 139.103453 317.84672 
L 139.557876 318.541088 
L 140.012299 319.834635 
L 140.466722 321.706919 
L 141.375568 327.060677 
L 142.284414 334.265296 
L 143.647682 347.525394 
L 144.102105 352.324769 
L 144.556528 355.727728 
L 148.646334 312.959794 
L 150.918449 291.485391 
L 152.736141 276.313232 
L 154.099409 266.38913 
L 155.462678 257.888318 
L 156.825947 250.945129 
L 157.734793 247.236931 
L 158.643638 244.296379 
L 159.552484 242.144138 
L 160.46133 240.795337 
L 160.915753 240.425412 
L 161.370176 240.259455 
L 161.824599 240.29776 
L 162.279022 240.540258 
L 162.733445 240.986524 
L 163.187867 241.635773 
L 164.096713 243.5383 
L 165.005559 246.234467 
L 165.914405 249.705325 
L 166.823251 253.92648 
L 168.186519 261.598729 
L 169.549788 270.769967 
L 170.913057 281.29527 
L 172.730748 297.145101 
L 175.002863 319.241422 
L 178.638246 355.362292 
L 182.728052 312.62113 
L 185.000167 291.182722 
L 186.817859 276.048998 
L 188.181127 266.158655 
L 189.544396 257.695246 
L 190.907665 250.792509 
L 191.816511 247.112661 
L 192.725356 244.201331 
L 193.634202 242.078982 
L 194.543048 240.76053 
L 194.997471 240.405884 
L 195.451894 240.255241 
L 195.906317 240.308867 
L 196.36074 240.566668 
L 196.815163 241.028189 
L 197.269585 241.69262 
L 198.178431 243.625185 
L 199.087277 246.350779 
L 199.996123 249.850247 
L 200.904969 254.098993 
L 202.268237 261.810297 
L 203.631506 271.017248 
L 204.994775 281.574355 
L 206.812466 297.459655 
L 209.084581 319.587805 
L 212.265541 353.048267 
L 212.719964 354.996838 
L 219.081885 287.819107 
L 222.717268 251.714281 
L 225.443806 226.512165 
L 228.170343 203.363482 
L 230.442458 185.906524 
L 232.714572 170.32191 
L 234.532264 159.318019 
L 236.349955 149.699695 
L 237.713224 143.436277 
L 239.076493 138.015245 
L 240.439762 133.458035 
L 241.80303 129.782668 
L 242.711876 127.829659 
L 243.620722 126.278547 
L 244.529568 125.132057 
L 245.438414 124.392206 
L 246.347259 124.060293 
L 247.256105 124.136902 
L 248.164951 124.621899 
L 249.073797 125.514431 
L 249.982643 126.812928 
L 250.891488 128.515109 
L 251.800334 130.617982 
L 253.163603 134.515309 
L 254.526872 139.290299 
L 255.89014 144.92407 
L 257.253409 151.394342 
L 259.071101 161.277909 
L 260.888792 172.53327 
L 262.706484 185.081317 
L 264.978598 202.449046 
L 267.250713 221.507514 
L 269.97725 246.313685 
L 273.158211 277.424937 
L 277.248017 319.823689 
L 280.428977 353.778731 
L 280.8834 354.265967 
L 287.245321 287.121154 
L 290.880704 251.062338 
L 293.607242 225.906827 
L 296.333779 202.814314 
L 298.605894 185.410836 
L 300.878008 169.885143 
L 302.6957 158.931874 
L 304.513391 149.366887 
L 305.87666 143.145027 
L 307.239929 137.766705 
L 308.603198 133.253187 
L 309.966466 129.622324 
L 310.875312 127.699347 
L 311.784158 126.178495 
L 312.693004 125.062443 
L 313.601849 124.35315 
L 314.510695 124.051865 
L 315.419541 124.159117 
L 316.328387 124.674718 
L 317.237233 125.59776 
L 318.146079 126.926622 
L 319.054924 128.658968 
L 319.96377 130.791751 
L 321.327039 134.733357 
L 322.690308 139.551763 
L 324.053576 145.227916 
L 325.416845 151.739368 
L 327.234537 161.675693 
L 329.052228 172.981016 
L 330.86992 185.575878 
L 333.142034 202.997202 
L 335.414149 222.103246 
L 338.140686 246.957836 
L 341.321647 278.112665 
L 345.411453 320.545626 
L 348.592413 354.509589 
L 349.046836 353.535081 
L 356.772026 271.73841 
L 361.316255 225.956093 
L 364.951638 191.487639 
L 368.132598 163.346451 
L 370.859136 140.984408 
L 373.585673 120.446479 
L 375.857788 104.850894 
L 378.129902 90.7348 
L 380.402017 78.1812 
L 382.219708 69.313242 
L 384.0374 61.526087 
L 385.855092 54.849045 
L 387.21836 50.585054 
L 388.581629 46.968756 
L 389.944898 44.007808 
L 391.308166 41.70848 
L 392.217012 40.545623 
L 393.125858 39.680107 
L 394.034704 39.112747 
L 394.94355 38.844076 
L 395.852396 38.874347 
L 396.761241 39.203532 
L 397.670087 39.831321 
L 398.578933 40.757123 
L 399.487779 41.980067 
L 400.396625 43.499002 
L 401.759893 46.329183 
L 403.123162 49.816068 
L 404.486431 53.952274 
L 405.849699 58.729043 
L 407.667391 66.076823 
L 409.485083 74.517587 
L 411.302774 84.019566 
L 413.574889 97.334517 
L 415.847003 112.173155 
L 418.119118 128.448227 
L 420.845655 149.7391 
L 423.572193 172.779975 
L 426.753153 201.611831 
L 430.388536 236.72641 
L 434.932765 283.087655 
L 441.294686 350.636151 
L 441.749109 355.508456 
L 442.203532 352.53625 
L 449.928721 270.776127 
L 454.47295 225.046051 
L 458.108334 190.634854 
L 461.289294 162.554323 
L 464.015831 140.251564 
L 466.742369 119.779124 
L 469.014483 104.242453 
L 471.286598 90.18885 
L 473.558713 77.700952 
L 475.376404 68.887607 
L 477.194096 61.156668 
L 479.011787 54.537233 
L 480.375056 50.317229 
L 481.738325 46.745485 
L 483.101594 43.829564 
L 484.464862 41.57564 
L 485.373708 40.443215 
L 486.282554 39.608227 
L 487.1914 39.071463 
L 488.100246 38.833426 
L 489.009091 38.894343 
L 489.917937 39.254154 
L 490.826783 39.912521 
L 491.735629 40.868825 
L 492.644475 42.122165 
L 493.55332 43.671363 
L 494.916589 46.546625 
L 496.279858 50.078132 
L 497.643127 54.258404 
L 499.006395 59.07859 
L 500.824087 66.483093 
L 502.641779 74.979052 
L 504.45947 84.534488 
L 506.731585 97.913512 
L 509.003699 112.812819 
L 511.275814 129.144798 
L 514.002351 150.498525 
L 516.728889 173.595825 
L 519.909849 202.484752 
L 523.545232 237.652207 
L 528.089461 284.059892 
L 530.361576 307.971357 
L 530.361576 307.971357 
" style="fill:none;stroke:#000000;stroke-linecap:square;stroke-width:2;"/>
   </g>
   <g id="patch_3">
    <path d="M 53.694668 372.340456 
L 53.694668 22.94 
" style="fill:none;stroke:#000000;stroke-linecap:square;stroke-linejoin:miter;stroke-width:0.8;"/>
   </g>
   <g id="patch_4">
    <path d="M 53.694668 372.340456 
L 553.06 372.340456 
" style="fill:none;stroke:#000000;stroke-linecap:square;stroke-linejoin:miter;stroke-width:0.8;"/>
   </g>
  </g>
 </g>
 <defs>
  <clipPath id="p0ce006c9cf">
   <rect height="349.400456" width="499.365332" x="53.694668" y="22.94"/>
  </clipPath>
 </defs>
</svg>
