<?xml version="1.0" encoding="utf-8" standalone="no"?>
<!DOCTYPE svg PUBLIC "-//W3C//DTD SVG 1.1//EN"
  "http://www.w3.org/Graphics/SVG/1.1/DTD/svg11.dtd">
<!-- Created with matplotlib (http://matplotlib.org/) -->
<svg height="432pt" version="1.1" viewBox="0 0 576 432" width="576pt" xmlns="http://www.w3.org/2000/svg" xmlns:xlink="http://www.w3.org/1999/xlink">
 <defs>
  <style type="text/css">
*{stroke-linecap:butt;stroke-linejoin:round;}
  </style>
 </defs>
 <g id="figure_1">
  <g id="patch_1">
   <path d="M 0 432 
L 576 432 
L 576 0 
L 0 0 
z
" style="fill:none;"/>
  </g>
  <g id="axes_1">
   <g id="patch_2">
    <path d="M 42.004128 372.340456 
L 553.06 372.340456 
L 553.06 22.94 
L 42.004128 22.94 
z
" style="fill:none;"/>
   </g>
   <g id="matplotlib.axis_1">
    <g id="xtick_1">
     <g id="line2d_1">
      <defs>
       <path d="M 0 0 
L 0 3.5 
" id="mcb60833288" style="stroke:#000000;stroke-width:0.8;"/>
      </defs>
      <g>
       <use style="stroke:#000000;stroke-width:0.8;" x="65.23394" xlink:href="#mcb60833288" y="372.340456"/>
      </g>
     </g>
     <g id="text_1">
      <!-- $0$ -->
      <defs>
       <path d="M 42 31.640625 
C 42 37.75 41.90625 48.125 37.703125 56.109375 
C 34 63.109375 28.09375 65.59375 22.90625 65.59375 
C 18.09375 65.59375 12 63.40625 8.203125 56.203125 
C 4.203125 48.71875 3.796875 39.4375 3.796875 31.640625 
C 3.796875 25.953125 3.90625 17.28125 7 9.671875 
C 11.296875 -0.609375 19 -2 22.90625 -2 
C 27.5 -2 34.5 -0.109375 38.59375 9.375 
C 41.59375 16.28125 42 24.359375 42 31.640625 
z
M 22.90625 -0.40625 
C 16.5 -0.40625 12.703125 5.078125 11.296875 12.6875 
C 10.203125 18.5625 10.203125 27.15625 10.203125 32.75 
C 10.203125 40.4375 10.203125 46.828125 11.5 52.921875 
C 13.40625 61.390625 19 64 22.90625 64 
C 27 64 32.296875 61.296875 34.203125 53.125 
C 35.5 47.4375 35.59375 40.734375 35.59375 32.75 
C 35.59375 26.25 35.59375 18.265625 34.40625 12.375 
C 32.296875 1.484375 26.40625 -0.40625 22.90625 -0.40625 
z
" id="CMR17-48"/>
      </defs>
      <g transform="translate(61.577288 389.714046)scale(0.14994 -0.14994)">
       <use transform="scale(0.996264)" xlink:href="#CMR17-48"/>
      </g>
     </g>
    </g>
    <g id="text_2">
     <!-- $\varepsilon_\mathrm{eq}$ -->
     <defs>
      <path d="M 13.90625 22.296875 
C 17.09375 21.015625 20.5 21.015625 22.40625 21.015625 
C 25 21.015625 30.203125 21.015625 30.203125 24.21875 
C 30.203125 26.21875 28.296875 27 23.203125 27 
C 20.703125 27 17.703125 26.703125 14.203125 25.203125 
C 11.09375 26.6875 9.90625 28.9375 9.90625 31.09375 
C 9.90625 37.171875 19.703125 40.71875 28.59375 40.71875 
C 30.296875 40.71875 33.90625 40.71875 38.09375 37.671875 
C 38.703125 37.296875 39 36.984375 39.703125 36.984375 
C 40.90625 36.984375 42.203125 38.265625 42.203125 39.46875 
C 42.203125 41.234375 36.40625 45 29.5 45 
C 18.296875 45 7.703125 38.265625 7.703125 30.8125 
C 7.703125 27.09375 10.09375 24.78125 11.796875 23.578125 
C 6 20.328125 2.59375 15.015625 2.59375 10.1875 
C 2.59375 3.421875 8.796875 -2 18.40625 -2 
C 31.59375 -2 36.90625 6.625 36.90625 8 
C 36.90625 8.484375 36.5 8.875 36 8.875 
C 35.5 8.875 35.296875 8.578125 34.90625 8 
C 33.796875 6.171875 31.203125 2.28125 19.296875 2.28125 
C 13.09375 2.28125 4.90625 3.828125 4.90625 10.71875 
C 4.90625 14.03125 7.40625 18.96875 13.90625 22.296875 
z
M 17 23.71875 
C 19.703125 25 22.296875 25 23 25 
C 25.796875 25 26.296875 24.734375 27.90625 24.140625 
C 26.203125 23 26 23 22.40625 23 
C 20.59375 23 19 23 17 23.71875 
z
" id="CMMI12-34"/>
      <path d="M 38.09375 23 
C 38.5 23.40625 38.5 23.609375 38.5 24.625 
C 38.5 34.96875 33.09375 44 21.703125 44 
C 11.09375 44 2.703125 33.890625 2.703125 21.609375 
C 2.703125 8.609375 12.203125 -1 22.796875 -1 
C 34 -1 38.40625 9.484375 38.40625 11.5625 
C 38.40625 12.25 37.796875 12.25 37.59375 12.25 
C 36.90625 12.25 36.796875 12.046875 36.40625 10.875 
C 34.203125 4.140625 28.703125 0.796875 23.5 0.796875 
C 19.203125 0.796875 14.90625 3.171875 12.203125 7.5 
C 9.09375 12.546875 9.09375 18.375 9.09375 23 
z
M 9.203125 24.5 
C 9.90625 39.140625 17.59375 42.40625 21.59375 42.40625 
C 28.40625 42.40625 33 35.890625 33.09375 24.5 
z
" id="CMR17-101"/>
      <path d="M 41.09375 43.78125 
L 39.5 43.78125 
L 36.5 33.9375 
C 34.203125 39.203125 30 43.78125 23.296875 43.78125 
C 13.09375 43.78125 3.296875 34.734375 3.296875 21.609375 
C 3.296875 8.5625 12.5 -0.59375 22.5 -0.59375 
C 30.203125 -0.59375 34.5 5.28125 35.796875 7.46875 
L 35.796875 -12.328125 
C 35.796875 -16.109375 35.40625 -16.609375 29 -16.609375 
L 29 -19.1875 
C 31.40625 -19 35.796875 -19 38.40625 -19 
C 41 -19 45.5 -19 47.90625 -19.1875 
L 47.90625 -16.609375 
C 41.5 -16.609375 41.09375 -16.203125 41.09375 -12.328125 
z
M 36 13.84375 
C 36 9.5625 32.40625 5.578125 32.09375 5.28125 
C 29 1.796875 25.40625 1 23 1 
C 15.5 1 9.703125 10.453125 9.703125 21.484375 
C 9.703125 33.140625 16.296875 42 24 42 
C 32 42 36 32.9375 36 27.765625 
z
" id="CMR17-113"/>
     </defs>
     <g transform="translate(287.448653 409.071936)scale(0.18 -0.18)">
      <use transform="translate(0 14.943915)scale(0.996264)" xlink:href="#CMMI12-34"/>
      <use transform="translate(45.650192 0)scale(0.697382)" xlink:href="#CMR17-101"/>
      <use transform="translate(73.990024 0)scale(0.697382)" xlink:href="#CMR17-113"/>
     </g>
    </g>
   </g>
   <g id="matplotlib.axis_2">
    <g id="text_3">
     <!-- $V ( \varepsilon_\mathrm{eq} ) $ -->
     <defs>
      <path d="M 61.90625 56.875 
C 65.296875 62.25 68.40625 64.625 73.5 65.03125 
C 74.5 65.125 75.296875 65.125 75.296875 66.90625 
C 75.296875 67.3125 75.09375 67.90625 74.203125 67.90625 
C 72.40625 67.90625 68.09375 67.90625 66.296875 67.90625 
C 63.40625 67.90625 60.40625 67.90625 57.59375 67.90625 
C 56.796875 67.90625 55.796875 67.90625 55.796875 66.03125 
C 55.796875 65.125 56.703125 65.03125 57.09375 65.03125 
C 60.796875 64.734375 61.203125 62.953125 61.203125 61.75 
C 61.203125 60.265625 59.796875 57.96875 59.703125 57.875 
L 28.296875 8.4375 
L 21.296875 62.015625 
C 21.296875 65 26.5 65 27.59375 65 
C 29.09375 65 30 65 30 66.90625 
C 30 67.90625 28.90625 67.90625 28.59375 67.90625 
C 26.90625 67.90625 24.90625 67.90625 23.203125 67.90625 
L 17.59375 67.90625 
C 10.296875 67.90625 7.296875 67.90625 7.203125 67.90625 
C 6.59375 67.90625 5.40625 67.90625 5.40625 66.09375 
C 5.40625 65 6.09375 65 7.703125 65 
C 12.796875 65 13.09375 64.09375 13.40625 61.625 
L 21.40625 0.375 
C 21.703125 -1.703125 21.703125 -2 23.09375 -2 
C 24.296875 -2 24.796875 -1.703125 25.796875 -0.125 
z
" id="CMMI12-86"/>
      <path d="M 30.59375 -24.390625 
C 30.59375 -24.296875 30.59375 -24.09375 30.296875 -23.796875 
C 25.703125 -19.125 13.40625 -6.359375 13.40625 24.703125 
C 13.40625 55.765625 25.5 68.421875 30.40625 73.390625 
C 30.40625 73.5 30.59375 73.703125 30.59375 74 
C 30.59375 74.296875 30.296875 74.5 29.90625 74.5 
C 28.796875 74.5 20.296875 67.125 15.40625 56.15625 
C 10.40625 45.109375 9 34.359375 9 24.8125 
C 9 17.625 9.703125 5.484375 15.703125 -7.359375 
C 20.5 -17.734375 28.703125 -25 29.90625 -25 
C 30.40625 -25 30.59375 -24.796875 30.59375 -24.390625 
z
" id="CMR17-40"/>
      <path d="M 26.296875 24.703125 
C 26.296875 31.875 25.59375 44.015625 19.59375 56.859375 
C 14.796875 67.234375 6.59375 74.5 5.40625 74.5 
C 5.09375 74.5 4.703125 74.390625 4.703125 73.890625 
C 4.703125 73.703125 4.796875 73.59375 4.90625 73.390625 
C 9.703125 68.40625 21.90625 55.75 21.90625 24.75 
C 21.90625 -6.359375 9.796875 -19.015625 4.90625 -24.015625 
C 4.796875 -24.203125 4.703125 -24.3125 4.703125 -24.5 
C 4.703125 -25 5.09375 -25 5.40625 -25 
C 6.5 -25 15 -17.625 19.90625 -6.65625 
C 24.90625 4.390625 26.296875 15.140625 26.296875 24.703125 
z
" id="CMR17-41"/>
     </defs>
     <g transform="translate(34.516064 221.392489)rotate(-90)scale(0.18 -0.18)">
      <use transform="translate(0 14.943915)scale(0.996264)" xlink:href="#CMMI12-86"/>
      <use transform="translate(78.547321 14.943915)scale(0.996264)" xlink:href="#CMR17-40"/>
      <use transform="translate(113.828089 14.943915)scale(0.996264)" xlink:href="#CMMI12-34"/>
      <use transform="translate(159.478281 0)scale(0.697382)" xlink:href="#CMR17-101"/>
      <use transform="translate(187.818112 0)scale(0.697382)" xlink:href="#CMR17-113"/>
      <use transform="translate(222.121132 14.943915)scale(0.996264)" xlink:href="#CMR17-41"/>
     </g>
    </g>
   </g>
   <g id="line2d_2">
    <path clip-path="url(#p94810ba2ca)" d="M 65.23394 114.40468 
L 66.164063 114.329958 
L 67.559247 113.938474 
L 68.954431 113.215025 
L 70.349615 112.166045 
L 71.744799 110.800863 
L 73.139982 109.131622 
L 74.535166 107.173166 
L 76.395412 104.142461 
L 78.255657 100.676735 
L 80.580963 95.816845 
L 83.371331 89.370966 
L 87.091822 80.114049 
L 94.067741 62.632699 
L 96.858109 56.295273 
L 99.183416 51.556178 
L 101.043661 48.2049 
L 102.903906 45.302532 
L 104.29909 43.448232 
L 105.694274 41.888896 
L 107.089458 40.638392 
L 108.484642 39.707842 
L 109.879826 39.105521 
L 111.27501 38.836787 
L 112.205132 38.844227 
L 113.600316 39.128875 
L 114.9955 39.702677 
L 116.855745 40.77347 
L 120.111175 42.716044 
L 121.506359 43.27051 
L 122.901542 43.531299 
L 123.831665 43.52198 
L 125.226849 43.234695 
L 126.622033 42.658773 
L 128.482278 41.586456 
L 131.737707 39.645554 
L 133.132891 39.093265 
L 134.528075 38.83514 
L 135.458198 38.84636 
L 136.853382 39.142673 
L 138.248566 39.76983 
L 139.64375 40.717922 
L 141.038934 41.971966 
L 142.434117 43.512146 
L 144.294363 45.96815 
L 146.154608 48.82017 
L 148.479914 52.819279 
L 151.735344 58.910095 
L 156.851018 68.478669 
L 159.176325 72.358862 
L 161.03657 75.083262 
L 162.896815 77.386594 
L 164.291999 78.798385 
L 165.687183 79.914376 
L 167.082367 80.716931 
L 168.477551 81.193368 
L 169.872735 81.336159 
L 170.802857 81.244662 
L 172.198041 80.828984 
L 173.593225 80.085417 
L 174.988409 79.025713 
L 176.383593 77.666616 
L 177.778777 76.029602 
L 179.639022 73.459897 
L 181.499267 70.514682 
L 183.824574 66.431841 
L 188.010126 58.509834 
L 191.730616 51.61872 
L 194.055923 47.745387 
L 195.916168 45.028213 
L 197.776413 42.733433 
L 199.171597 41.328784 
L 200.566781 40.220435 
L 201.961965 39.425899 
L 203.357149 38.957733 
L 204.752333 38.823334 
L 205.682455 38.920486 
L 207.077639 39.346022 
L 208.472823 40.105735 
L 209.868007 41.19662 
L 211.263191 42.614364 
L 212.658375 44.35336 
L 214.053559 46.406731 
L 215.913804 49.619377 
L 217.774049 53.353758 
L 219.634295 57.583628 
L 221.959601 63.52214 
L 224.284908 70.122968 
L 227.075276 78.815722 
L 230.330705 89.84646 
L 234.051195 103.333616 
L 240.096992 126.303385 
L 246.142789 149.09223 
L 249.86328 162.292886 
L 253.118709 172.970492 
L 255.909077 181.290392 
L 258.234383 187.535466 
L 260.55969 193.081421 
L 262.419935 196.97363 
L 264.28018 200.351919 
L 266.140426 203.192547 
L 267.535609 204.958021 
L 268.930793 206.402767 
L 270.325977 207.521073 
L 271.721161 208.308517 
L 273.116345 208.761984 
L 274.511529 208.879681 
L 275.441652 208.771323 
L 276.836836 208.329027 
L 278.23202 207.552673 
L 279.627204 206.445331 
L 281.022387 205.011381 
L 282.417571 203.256493 
L 283.812755 201.187606 
L 285.673001 197.954964 
L 287.533246 194.201506 
L 289.393491 189.953613 
L 291.718798 183.994244 
L 294.044104 177.374632 
L 296.834472 168.66236 
L 300.089901 157.613406 
L 303.810392 144.111903 
L 309.856189 121.134457 
L 315.901986 98.357665 
L 319.622476 85.173907 
L 322.412844 75.979249 
L 325.203212 67.541092 
L 327.528518 61.183785 
L 329.853825 55.514464 
L 331.71407 51.516453 
L 333.574315 48.026844 
L 335.434561 45.070163 
L 336.829744 43.215031 
L 338.224928 41.678777 
L 339.620112 40.467474 
L 341.015296 39.585912 
L 342.41048 39.037579 
L 343.805664 38.824642 
L 344.735787 38.869488 
L 346.130971 39.216899 
L 347.526155 39.899775 
L 348.921339 40.91667 
L 350.316522 42.26543 
L 351.711706 43.943199 
L 353.10689 45.946425 
L 354.502074 48.270866 
L 356.362319 51.861183 
L 358.222565 56.000208 
L 360.08281 60.672361 
L 362.408116 67.235287 
L 364.733423 74.565015 
L 367.05873 82.618444 
L 369.849097 93.170886 
L 372.639465 104.607725 
L 375.894894 118.938935 
L 379.615385 136.417482 
L 383.800937 157.167946 
L 389.846734 188.393835 
L 400.078082 241.413382 
L 404.728696 264.227082 
L 408.449186 281.376649 
L 411.704615 295.357684 
L 414.494983 306.451251 
L 417.285351 316.623671 
L 419.610657 324.334655 
L 421.935964 331.300658 
L 424.261271 337.480721 
L 426.121516 341.834311 
L 427.981761 345.645163 
L 429.842006 348.898931 
L 431.23719 350.966223 
L 432.632374 352.708846 
L 434.027558 354.123109 
L 435.422742 355.206017 
L 436.817926 355.955277 
L 438.21311 356.369304 
L 439.608294 356.447219 
L 440.538416 356.312323 
L 441.9336 355.830039 
L 443.328784 355.012785 
L 444.723968 353.862293 
L 446.119152 352.380998 
L 447.514336 350.572038 
L 448.90952 348.439243 
L 450.769765 345.099675 
L 452.63001 341.205078 
L 454.490256 336.770109 
L 456.350501 331.811463 
L 458.675807 324.905348 
L 461.001114 317.250898 
L 463.32642 308.89312 
L 466.116788 298.004866 
L 468.907156 286.26697 
L 472.162585 271.631831 
L 475.883076 253.872554 
L 480.533689 230.516593 
L 487.97467 191.776407 
L 495.415651 153.387717 
L 500.066264 130.600801 
L 503.786754 113.480361 
L 507.042183 99.530063 
L 509.832551 88.466461 
L 512.622919 78.327081 
L 514.948226 70.645779 
L 517.273532 63.711224 
L 519.598839 57.564194 
L 521.459084 53.238037 
L 523.319329 49.455405 
L 525.179575 46.230536 
L 526.574758 44.185297 
L 527.969942 42.465003 
L 529.365126 41.073295 
L 529.830188 40.682942 
L 529.830188 40.682942 
" style="fill:none;stroke:#000000;stroke-linecap:square;stroke-width:2;"/>
   </g>
   <g id="patch_3">
    <path d="M 42.004128 372.340456 
L 42.004128 22.94 
" style="fill:none;stroke:#000000;stroke-linecap:square;stroke-linejoin:miter;stroke-width:0.8;"/>
   </g>
   <g id="patch_4">
    <path d="M 42.004128 372.340456 
L 553.06 372.340456 
" style="fill:none;stroke:#000000;stroke-linecap:square;stroke-linejoin:miter;stroke-width:0.8;"/>
   </g>
  </g>
 </g>
 <defs>
  <clipPath id="p94810ba2ca">
   <rect height="349.400456" width="511.055872" x="42.004128" y="22.94"/>
  </clipPath>
 </defs>
</svg>
