<?xml version="1.0" encoding="utf-8" standalone="no"?>
<!DOCTYPE svg PUBLIC "-//W3C//DTD SVG 1.1//EN"
  "http://www.w3.org/Graphics/SVG/1.1/DTD/svg11.dtd">
<!-- Created with matplotlib (http://matplotlib.org/) -->
<svg height="432pt" version="1.1" viewBox="0 0 576 432" width="576pt" xmlns="http://www.w3.org/2000/svg" xmlns:xlink="http://www.w3.org/1999/xlink">
 <defs>
  <style type="text/css">
*{stroke-linecap:butt;stroke-linejoin:round;}
  </style>
 </defs>
 <g id="figure_1">
  <g id="patch_1">
   <path d="M 0 432 
L 576 432 
L 576 0 
L 0 0 
z
" style="fill:none;"/>
  </g>
  <g id="axes_1">
   <g id="patch_2">
    <path d="M 42.004128 372.340456 
L 553.06 372.340456 
L 553.06 22.94 
L 42.004128 22.94 
z
" style="fill:none;"/>
   </g>
   <g id="matplotlib.axis_1">
    <g id="xtick_1">
     <g id="line2d_1">
      <defs>
       <path d="M 0 0 
L 0 3.5 
" id="m34fa9d90cb" style="stroke:#000000;stroke-width:0.8;"/>
      </defs>
      <g>
       <use style="stroke:#000000;stroke-width:0.8;" x="65.23394" xlink:href="#m34fa9d90cb" y="372.340456"/>
      </g>
     </g>
     <g id="text_1">
      <!-- $0$ -->
      <defs>
       <path d="M 42 31.640625 
C 42 37.75 41.90625 48.125 37.703125 56.109375 
C 34 63.109375 28.09375 65.59375 22.90625 65.59375 
C 18.09375 65.59375 12 63.40625 8.203125 56.203125 
C 4.203125 48.71875 3.796875 39.4375 3.796875 31.640625 
C 3.796875 25.953125 3.90625 17.28125 7 9.671875 
C 11.296875 -0.609375 19 -2 22.90625 -2 
C 27.5 -2 34.5 -0.109375 38.59375 9.375 
C 41.59375 16.28125 42 24.359375 42 31.640625 
z
M 22.90625 -0.40625 
C 16.5 -0.40625 12.703125 5.078125 11.296875 12.6875 
C 10.203125 18.5625 10.203125 27.15625 10.203125 32.75 
C 10.203125 40.4375 10.203125 46.828125 11.5 52.921875 
C 13.40625 61.390625 19 64 22.90625 64 
C 27 64 32.296875 61.296875 34.203125 53.125 
C 35.5 47.4375 35.59375 40.734375 35.59375 32.75 
C 35.59375 26.25 35.59375 18.265625 34.40625 12.375 
C 32.296875 1.484375 26.40625 -0.40625 22.90625 -0.40625 
z
" id="CMR17-48"/>
      </defs>
      <g transform="translate(61.577288 389.714046)scale(0.14994 -0.14994)">
       <use transform="scale(0.996264)" xlink:href="#CMR17-48"/>
      </g>
     </g>
    </g>
    <g id="text_2">
     <!-- $\varepsilon_\mathrm{eq}$ -->
     <defs>
      <path d="M 13.90625 22.296875 
C 17.09375 21.015625 20.5 21.015625 22.40625 21.015625 
C 25 21.015625 30.203125 21.015625 30.203125 24.21875 
C 30.203125 26.21875 28.296875 27 23.203125 27 
C 20.703125 27 17.703125 26.703125 14.203125 25.203125 
C 11.09375 26.6875 9.90625 28.9375 9.90625 31.09375 
C 9.90625 37.171875 19.703125 40.71875 28.59375 40.71875 
C 30.296875 40.71875 33.90625 40.71875 38.09375 37.671875 
C 38.703125 37.296875 39 36.984375 39.703125 36.984375 
C 40.90625 36.984375 42.203125 38.265625 42.203125 39.46875 
C 42.203125 41.234375 36.40625 45 29.5 45 
C 18.296875 45 7.703125 38.265625 7.703125 30.8125 
C 7.703125 27.09375 10.09375 24.78125 11.796875 23.578125 
C 6 20.328125 2.59375 15.015625 2.59375 10.1875 
C 2.59375 3.421875 8.796875 -2 18.40625 -2 
C 31.59375 -2 36.90625 6.625 36.90625 8 
C 36.90625 8.484375 36.5 8.875 36 8.875 
C 35.5 8.875 35.296875 8.578125 34.90625 8 
C 33.796875 6.171875 31.203125 2.28125 19.296875 2.28125 
C 13.09375 2.28125 4.90625 3.828125 4.90625 10.71875 
C 4.90625 14.03125 7.40625 18.96875 13.90625 22.296875 
z
M 17 23.71875 
C 19.703125 25 22.296875 25 23 25 
C 25.796875 25 26.296875 24.734375 27.90625 24.140625 
C 26.203125 23 26 23 22.40625 23 
C 20.59375 23 19 23 17 23.71875 
z
" id="CMMI12-34"/>
      <path d="M 38.09375 23 
C 38.5 23.40625 38.5 23.609375 38.5 24.625 
C 38.5 34.96875 33.09375 44 21.703125 44 
C 11.09375 44 2.703125 33.890625 2.703125 21.609375 
C 2.703125 8.609375 12.203125 -1 22.796875 -1 
C 34 -1 38.40625 9.484375 38.40625 11.5625 
C 38.40625 12.25 37.796875 12.25 37.59375 12.25 
C 36.90625 12.25 36.796875 12.046875 36.40625 10.875 
C 34.203125 4.140625 28.703125 0.796875 23.5 0.796875 
C 19.203125 0.796875 14.90625 3.171875 12.203125 7.5 
C 9.09375 12.546875 9.09375 18.375 9.09375 23 
z
M 9.203125 24.5 
C 9.90625 39.140625 17.59375 42.40625 21.59375 42.40625 
C 28.40625 42.40625 33 35.890625 33.09375 24.5 
z
" id="CMR17-101"/>
      <path d="M 41.09375 43.78125 
L 39.5 43.78125 
L 36.5 33.9375 
C 34.203125 39.203125 30 43.78125 23.296875 43.78125 
C 13.09375 43.78125 3.296875 34.734375 3.296875 21.609375 
C 3.296875 8.5625 12.5 -0.59375 22.5 -0.59375 
C 30.203125 -0.59375 34.5 5.28125 35.796875 7.46875 
L 35.796875 -12.328125 
C 35.796875 -16.109375 35.40625 -16.609375 29 -16.609375 
L 29 -19.1875 
C 31.40625 -19 35.796875 -19 38.40625 -19 
C 41 -19 45.5 -19 47.90625 -19.1875 
L 47.90625 -16.609375 
C 41.5 -16.609375 41.09375 -16.203125 41.09375 -12.328125 
z
M 36 13.84375 
C 36 9.5625 32.40625 5.578125 32.09375 5.28125 
C 29 1.796875 25.40625 1 23 1 
C 15.5 1 9.703125 10.453125 9.703125 21.484375 
C 9.703125 33.140625 16.296875 42 24 42 
C 32 42 36 32.9375 36 27.765625 
z
" id="CMR17-113"/>
     </defs>
     <g transform="translate(287.448653 409.071936)scale(0.18 -0.18)">
      <use transform="translate(0 14.943915)scale(0.996264)" xlink:href="#CMMI12-34"/>
      <use transform="translate(45.650192 0)scale(0.697382)" xlink:href="#CMR17-101"/>
      <use transform="translate(73.990024 0)scale(0.697382)" xlink:href="#CMR17-113"/>
     </g>
    </g>
   </g>
   <g id="matplotlib.axis_2">
    <g id="text_3">
     <!-- $V ( \varepsilon_\mathrm{eq} ) $ -->
     <defs>
      <path d="M 61.90625 56.875 
C 65.296875 62.25 68.40625 64.625 73.5 65.03125 
C 74.5 65.125 75.296875 65.125 75.296875 66.90625 
C 75.296875 67.3125 75.09375 67.90625 74.203125 67.90625 
C 72.40625 67.90625 68.09375 67.90625 66.296875 67.90625 
C 63.40625 67.90625 60.40625 67.90625 57.59375 67.90625 
C 56.796875 67.90625 55.796875 67.90625 55.796875 66.03125 
C 55.796875 65.125 56.703125 65.03125 57.09375 65.03125 
C 60.796875 64.734375 61.203125 62.953125 61.203125 61.75 
C 61.203125 60.265625 59.796875 57.96875 59.703125 57.875 
L 28.296875 8.4375 
L 21.296875 62.015625 
C 21.296875 65 26.5 65 27.59375 65 
C 29.09375 65 30 65 30 66.90625 
C 30 67.90625 28.90625 67.90625 28.59375 67.90625 
C 26.90625 67.90625 24.90625 67.90625 23.203125 67.90625 
L 17.59375 67.90625 
C 10.296875 67.90625 7.296875 67.90625 7.203125 67.90625 
C 6.59375 67.90625 5.40625 67.90625 5.40625 66.09375 
C 5.40625 65 6.09375 65 7.703125 65 
C 12.796875 65 13.09375 64.09375 13.40625 61.625 
L 21.40625 0.375 
C 21.703125 -1.703125 21.703125 -2 23.09375 -2 
C 24.296875 -2 24.796875 -1.703125 25.796875 -0.125 
z
" id="CMMI12-86"/>
      <path d="M 30.59375 -24.390625 
C 30.59375 -24.296875 30.59375 -24.09375 30.296875 -23.796875 
C 25.703125 -19.125 13.40625 -6.359375 13.40625 24.703125 
C 13.40625 55.765625 25.5 68.421875 30.40625 73.390625 
C 30.40625 73.5 30.59375 73.703125 30.59375 74 
C 30.59375 74.296875 30.296875 74.5 29.90625 74.5 
C 28.796875 74.5 20.296875 67.125 15.40625 56.15625 
C 10.40625 45.109375 9 34.359375 9 24.8125 
C 9 17.625 9.703125 5.484375 15.703125 -7.359375 
C 20.5 -17.734375 28.703125 -25 29.90625 -25 
C 30.40625 -25 30.59375 -24.796875 30.59375 -24.390625 
z
" id="CMR17-40"/>
      <path d="M 26.296875 24.703125 
C 26.296875 31.875 25.59375 44.015625 19.59375 56.859375 
C 14.796875 67.234375 6.59375 74.5 5.40625 74.5 
C 5.09375 74.5 4.703125 74.390625 4.703125 73.890625 
C 4.703125 73.703125 4.796875 73.59375 4.90625 73.390625 
C 9.703125 68.40625 21.90625 55.75 21.90625 24.75 
C 21.90625 -6.359375 9.796875 -19.015625 4.90625 -24.015625 
C 4.796875 -24.203125 4.703125 -24.3125 4.703125 -24.5 
C 4.703125 -25 5.09375 -25 5.40625 -25 
C 6.5 -25 15 -17.625 19.90625 -6.65625 
C 24.90625 4.390625 26.296875 15.140625 26.296875 24.703125 
z
" id="CMR17-41"/>
     </defs>
     <g transform="translate(34.516064 221.392489)rotate(-90)scale(0.18 -0.18)">
      <use transform="translate(0 14.943915)scale(0.996264)" xlink:href="#CMMI12-86"/>
      <use transform="translate(78.547321 14.943915)scale(0.996264)" xlink:href="#CMR17-40"/>
      <use transform="translate(113.828089 14.943915)scale(0.996264)" xlink:href="#CMMI12-34"/>
      <use transform="translate(159.478281 0)scale(0.697382)" xlink:href="#CMR17-101"/>
      <use transform="translate(187.818112 0)scale(0.697382)" xlink:href="#CMR17-113"/>
      <use transform="translate(222.121132 14.943915)scale(0.996264)" xlink:href="#CMR17-41"/>
     </g>
    </g>
   </g>
   <g id="line2d_2">
    <path clip-path="url(#p71be81a7ed)" d="M 65.23394 114.375949 
L 67.094185 114.25476 
L 68.954431 113.891192 
L 70.814676 113.285246 
L 72.674921 112.436921 
L 74.535166 111.346218 
L 76.395412 110.013136 
L 78.255657 108.437676 
L 80.580963 106.127506 
L 82.90627 103.438619 
L 85.231576 100.371017 
L 87.556883 96.924697 
L 89.88219 93.099662 
L 92.207496 88.89591 
L 94.997864 83.351502 
L 97.788232 77.261742 
L 100.5786 70.626631 
L 103.368967 63.446168 
L 106.624397 54.379698 
L 109.879826 44.570943 
L 111.740071 38.821839 
L 113.600316 40.207941 
L 115.460562 41.351664 
L 117.320807 42.253009 
L 119.181052 42.911976 
L 121.041297 43.328564 
L 122.901542 43.502774 
L 124.761788 43.434605 
L 126.622033 43.124057 
L 128.482278 42.571131 
L 130.342523 41.775827 
L 132.202769 40.738144 
L 134.063014 39.458082 
L 134.528075 39.100195 
L 134.993136 38.954162 
L 137.783504 45.477931 
L 140.573872 51.456348 
L 143.36424 56.889413 
L 146.154608 61.777127 
L 148.479914 65.433634 
L 150.805221 68.711424 
L 153.130528 71.610498 
L 155.455834 74.130856 
L 157.781141 76.272497 
L 159.641386 77.713134 
L 161.501631 78.911393 
L 163.361876 79.867273 
L 165.222122 80.580775 
L 167.082367 81.051898 
L 168.942612 81.280643 
L 170.802857 81.267009 
L 172.663103 81.010997 
L 174.523348 80.512606 
L 176.383593 79.771837 
L 178.243838 78.788689 
L 180.104083 77.563163 
L 181.964329 76.095258 
L 183.824574 74.384975 
L 186.14988 71.906276 
L 188.475187 69.048861 
L 190.800494 65.812729 
L 193.1258 62.197881 
L 195.451107 58.204317 
L 198.241474 52.912134 
L 201.031842 47.074599 
L 203.82221 40.691713 
L 204.287271 39.574879 
L 204.752333 39.464407 
L 208.937885 59.24022 
L 212.658375 75.788611 
L 216.378866 91.367489 
L 220.099356 105.976852 
L 223.819846 119.616702 
L 227.075276 130.756266 
L 230.330705 141.153546 
L 233.586134 150.808542 
L 236.841563 159.721253 
L 239.631931 166.769923 
L 242.422299 173.273241 
L 245.212667 179.231207 
L 248.003035 184.643822 
L 250.793402 189.511085 
L 253.118709 193.150549 
L 255.444015 196.411297 
L 257.769322 199.293329 
L 260.094629 201.796644 
L 262.419935 203.921243 
L 264.28018 205.348247 
L 266.140426 206.532872 
L 268.000671 207.475118 
L 269.860916 208.174986 
L 271.721161 208.632475 
L 273.581407 208.847586 
L 275.441652 208.820319 
L 277.301897 208.550673 
L 279.162142 208.038648 
L 281.022387 207.284245 
L 282.882633 206.287463 
L 284.742878 205.048303 
L 286.603123 203.566765 
L 288.463368 201.842848 
L 290.788675 199.347107 
L 293.113981 196.472649 
L 295.439288 193.219476 
L 297.764595 189.587585 
L 300.089901 185.576979 
L 302.880269 180.264345 
L 305.670637 174.40636 
L 308.461005 168.003023 
L 311.251373 161.054335 
L 314.04174 153.560295 
L 317.29717 144.127984 
L 320.552599 133.95339 
L 323.808028 123.036511 
L 327.063457 111.377348 
L 330.783947 97.143671 
L 334.504438 81.94048 
L 338.224928 65.767775 
L 341.945419 48.625557 
L 343.805664 39.690879 
L 344.270725 40.642776 
L 348.921339 70.81814 
L 353.571952 99.47864 
L 357.757503 123.977879 
L 361.943055 147.250077 
L 366.128607 169.295234 
L 370.314159 190.11335 
L 374.499711 209.704425 
L 378.220201 226.088605 
L 381.940691 241.503271 
L 385.661182 255.948423 
L 389.381672 269.424061 
L 392.637102 280.41994 
L 395.892531 290.673535 
L 399.14796 300.184846 
L 402.403389 308.953872 
L 405.193757 315.879383 
L 407.984125 322.259543 
L 410.774493 328.09435 
L 413.56486 333.383806 
L 415.890167 337.375098 
L 418.215474 340.987674 
L 420.54078 344.221533 
L 422.866087 347.076676 
L 425.191393 349.553103 
L 427.5167 351.650813 
L 429.376945 353.056305 
L 431.23719 354.219419 
L 433.097435 355.140154 
L 434.957681 355.818511 
L 436.817926 356.254489 
L 438.678171 356.448089 
L 440.538416 356.399311 
L 442.398662 356.108153 
L 444.258907 355.574618 
L 446.119152 354.798704 
L 447.979397 353.780411 
L 449.839643 352.51974 
L 451.699888 351.01669 
L 453.560133 349.271262 
L 455.88544 346.748632 
L 458.210746 343.847286 
L 460.536053 340.567223 
L 462.861359 336.908444 
L 465.186666 332.870949 
L 467.977034 327.526048 
L 470.767401 321.635797 
L 473.557769 315.200193 
L 476.348137 308.219238 
L 479.138505 300.692932 
L 482.393934 291.222977 
L 485.649363 281.010738 
L 488.904792 270.056214 
L 492.160222 258.359407 
L 495.880712 244.082708 
L 499.601203 228.836495 
L 503.321693 212.620768 
L 507.042183 195.435527 
L 510.762674 177.280772 
L 514.948226 155.6978 
L 519.133778 132.887788 
L 523.319329 108.850734 
L 527.504881 83.586639 
L 529.830188 69.020828 
L 529.830188 69.020828 
" style="fill:none;stroke:#000000;stroke-linecap:square;stroke-width:2;"/>
   </g>
   <g id="patch_3">
    <path d="M 42.004128 372.340456 
L 42.004128 22.94 
" style="fill:none;stroke:#000000;stroke-linecap:square;stroke-linejoin:miter;stroke-width:0.8;"/>
   </g>
   <g id="patch_4">
    <path d="M 42.004128 372.340456 
L 553.06 372.340456 
" style="fill:none;stroke:#000000;stroke-linecap:square;stroke-linejoin:miter;stroke-width:0.8;"/>
   </g>
  </g>
 </g>
 <defs>
  <clipPath id="p71be81a7ed">
   <rect height="349.400456" width="511.055872" x="42.004128" y="22.94"/>
  </clipPath>
 </defs>
</svg>
