<?xml version="1.0" encoding="UTF-8" standalone="no"?>
<!-- Created with matplotlib (http://matplotlib.org/) -->

<svg
   xmlns:ns0="http://www.iki.fi/pav/software/textext/"
   xmlns:dc="http://purl.org/dc/elements/1.1/"
   xmlns:cc="http://creativecommons.org/ns#"
   xmlns:rdf="http://www.w3.org/1999/02/22-rdf-syntax-ns#"
   xmlns:svg="http://www.w3.org/2000/svg"
   xmlns="http://www.w3.org/2000/svg"
   xmlns:xlink="http://www.w3.org/1999/xlink"
   xmlns:sodipodi="http://sodipodi.sourceforge.net/DTD/sodipodi-0.dtd"
   xmlns:inkscape="http://www.inkscape.org/namespaces/inkscape"
   height="441pt"
   version="1.1"
   viewBox="0 0 576 441"
   width="576pt"
   id="svg2"
   inkscape:version="0.91 r13725"
   sodipodi:docname="potential_V-plas.svg">
  <metadata
     id="metadata85">
    <rdf:RDF>
      <cc:Work
         rdf:about="">
        <dc:format>image/svg+xml</dc:format>
        <dc:type
           rdf:resource="http://purl.org/dc/dcmitype/StillImage" />
        <dc:title></dc:title>
      </cc:Work>
    </rdf:RDF>
  </metadata>
  <sodipodi:namedview
     pagecolor="#ffffff"
     bordercolor="#666666"
     borderopacity="1"
     objecttolerance="10"
     gridtolerance="10"
     guidetolerance="10"
     inkscape:pageopacity="0"
     inkscape:pageshadow="2"
     inkscape:window-width="1962"
     inkscape:window-height="1033"
     id="namedview83"
     showgrid="false"
     inkscape:object-paths="true"
     inkscape:snap-intersection-paths="true"
     inkscape:snap-smooth-nodes="true"
     inkscape:object-nodes="true"
     inkscape:snap-midpoints="true"
     fit-margin-top="0"
     fit-margin-left="0"
     fit-margin-right="0"
     fit-margin-bottom="0"
     inkscape:zoom="1.5388889"
     inkscape:cx="360"
     inkscape:cy="270"
     inkscape:window-x="0"
     inkscape:window-y="0"
     inkscape:window-maximized="0"
     inkscape:current-layer="svg2" />
  <defs
     id="defs4"
     style="stroke-linecap:butt;stroke-linejoin:round">
    <style
       type="text/css"
       id="style6">
*{stroke-linecap:butt;stroke-linejoin:round;}
  </style>
  </defs>
  <g
     id="figure_1"
     style="stroke-linecap:butt;stroke-linejoin:round"
     transform="translate(0,9.0000144)">
    <g
       id="patch_1"
       style="stroke-linecap:butt;stroke-linejoin:round">
      <path
         d="M 0,432 576,432 576,0 0,0 Z"
         style="fill:none;stroke-linecap:butt;stroke-linejoin:round"
         id="path10"
         inkscape:connector-curvature="0" />
    </g>
    <g
       id="axes_1"
       style="stroke-linecap:butt;stroke-linejoin:round">
      <g
         id="patch_2"
         style="stroke-linecap:butt;stroke-linejoin:round">
        <path
           d="m 42.004128,372.34046 511.055872,0 0,-349.40046 -511.055872,0 z"
           style="fill:none;stroke-linecap:butt;stroke-linejoin:round"
           id="path14"
           inkscape:connector-curvature="0" />
      </g>
      <g
         id="matplotlib.axis_1"
         style="stroke-linecap:butt;stroke-linejoin:round">
        <g
           id="xtick_1"
           style="stroke-linecap:butt;stroke-linejoin:round">
          <g
             id="line2d_1"
             style="stroke-linecap:butt;stroke-linejoin:round">
            <defs
               id="defs19">
              <path
                 d="M 0,0 0,3.5"
                 id="m89283a7f70"
                 style="stroke:#000000;stroke-width:0.80000001;stroke-linecap:butt;stroke-linejoin:round"
                 inkscape:connector-curvature="0" />
            </defs>
            <g
               id="g22"
               style="stroke-linecap:butt;stroke-linejoin:round">
              <use
                 style="stroke:#000000;stroke-width:0.80000001;stroke-linecap:butt;stroke-linejoin:round"
                 x="65.23394"
                 xlink:href="#m89283a7f70"
                 y="372.34045"
                 id="use24"
                 width="100%"
                 height="100%" />
            </g>
          </g>
          <g
             id="text_1"
             style="stroke-linecap:butt;stroke-linejoin:round">
            <!-- $0$ -->
            <defs
               id="defs27">
              <path
                 d="M 42,31.640625 C 42,37.75 41.90625,48.125 37.703125,56.109375 34,63.109375 28.09375,65.59375 22.90625,65.59375 18.09375,65.59375 12,63.40625 8.203125,56.203125 4.203125,48.71875 3.796875,39.4375 3.796875,31.640625 3.796875,25.953125 3.90625,17.28125 7,9.671875 11.296875,-0.609375 19,-2 22.90625,-2 27.5,-2 34.5,-0.109375 38.59375,9.375 41.59375,16.28125 42,24.359375 42,31.640625 Z M 22.90625,-0.40625 c -6.40625,0 -10.203125,5.484375 -11.609375,13.09375 -1.09375,5.875 -1.09375,14.46875 -1.09375,20.0625 0,7.6875 0,14.078125 1.296875,20.171875 C 13.40625,61.390625 19,64 22.90625,64 27,64 32.296875,61.296875 34.203125,53.125 35.5,47.4375 35.59375,40.734375 35.59375,32.75 c 0,-6.5 0,-14.484375 -1.1875,-20.375 -2.109375,-10.890625 -8,-12.78125 -11.5,-12.78125 z"
                 id="CMR17-48"
                 inkscape:connector-curvature="0"
                 style="stroke-linecap:butt;stroke-linejoin:round" />
            </defs>
            <g
               transform="matrix(0.14994,0,0,-0.14994,61.577288,389.71405)"
               id="g30"
               style="stroke-linecap:butt;stroke-linejoin:round">
              <use
                 transform="scale(0.996264,0.996264)"
                 xlink:href="#CMR17-48"
                 id="use32"
                 style="stroke-linecap:butt;stroke-linejoin:round"
                 x="0"
                 y="0"
                 width="100%"
                 height="100%" />
            </g>
          </g>
        </g>
        <g
           id="text_2"
           style="stroke-linecap:butt;stroke-linejoin:round">
          <!-- $\varepsilon_\mathrm{eq}$ -->
          <defs
             id="defs35">
            <path
               d="m 13.90625,22.296875 c 3.1875,-1.28125 6.59375,-1.28125 8.5,-1.28125 2.59375,0 7.796875,0 7.796875,3.203125 0,2 -1.90625,2.78125 -7,2.78125 -2.5,0 -5.5,-0.296875 -9,-1.796875 C 11.09375,26.6875 9.90625,28.9375 9.90625,31.09375 c 0,6.078125 9.796875,9.625 18.6875,9.625 1.703125,0 5.3125,0 9.5,-3.046875 0.609375,-0.375 0.90625,-0.6875 1.609375,-0.6875 1.203125,0 2.5,1.28125 2.5,2.484375 C 42.203125,41.234375 36.40625,45 29.5,45 18.296875,45 7.703125,38.265625 7.703125,30.8125 c 0,-3.71875 2.390625,-6.03125 4.09375,-7.234375 C 6,20.328125 2.59375,15.015625 2.59375,10.1875 2.59375,3.421875 8.796875,-2 18.40625,-2 c 13.1875,0 18.5,8.625 18.5,10 C 36.90625,8.484375 36.5,8.875 36,8.875 35.5,8.875 35.296875,8.578125 34.90625,8 33.796875,6.171875 31.203125,2.28125 19.296875,2.28125 c -6.203125,0 -14.390625,1.546875 -14.390625,8.4375 0,3.3125 2.5,8.25 9,11.578125 z M 17,23.71875 C 19.703125,25 22.296875,25 23,25 25.796875,25 26.296875,24.734375 27.90625,24.140625 26.203125,23 26,23 22.40625,23 20.59375,23 19,23 17,23.71875 Z"
               id="CMMI12-34"
               inkscape:connector-curvature="0"
               style="stroke-linecap:butt;stroke-linejoin:round" />
            <path
               d="M 38.09375,23 C 38.5,23.40625 38.5,23.609375 38.5,24.625 38.5,34.96875 33.09375,44 21.703125,44 c -10.609375,0 -19,-10.109375 -19,-22.390625 0,-13 9.5,-22.609375 20.09375,-22.609375 C 34,-1 38.40625,9.484375 38.40625,11.5625 c 0,0.6875 -0.609375,0.6875 -0.8125,0.6875 -0.6875,0 -0.796875,-0.203125 -1.1875,-1.375 C 34.203125,4.140625 28.703125,0.796875 23.5,0.796875 19.203125,0.796875 14.90625,3.171875 12.203125,7.5 9.09375,12.546875 9.09375,18.375 9.09375,23 Z M 9.203125,24.5 c 0.703125,14.640625 8.390625,17.90625 12.390625,17.90625 6.8125,0 11.40625,-6.515625 11.5,-17.90625 z"
               id="CMR17-101"
               inkscape:connector-curvature="0"
               style="stroke-linecap:butt;stroke-linejoin:round" />
            <path
               d="m 41.09375,43.78125 -1.59375,0 -3,-9.84375 c -2.296875,5.265625 -6.5,9.84375 -13.203125,9.84375 -10.203125,0 -20,-9.046875 -20,-22.171875 C 3.296875,8.5625 12.5,-0.59375 22.5,-0.59375 c 7.703125,0 12,5.875 13.296875,8.0625 l 0,-19.796875 c 0,-3.78125 -0.390625,-4.28125 -6.796875,-4.28125 L 29,-19.1875 C 31.40625,-19 35.796875,-19 38.40625,-19 c 2.59375,0 7.09375,0 9.5,-0.1875 l 0,2.578125 c -6.40625,0 -6.8125,0.40625 -6.8125,4.28125 z M 36,13.84375 C 36,9.5625 32.40625,5.578125 32.09375,5.28125 29,1.796875 25.40625,1 23,1 15.5,1 9.703125,10.453125 9.703125,21.484375 9.703125,33.140625 16.296875,42 24,42 32,42 36,32.9375 36,27.765625 Z"
               id="CMR17-113"
               inkscape:connector-curvature="0"
               style="stroke-linecap:butt;stroke-linejoin:round" />
          </defs>
          <g
             transform="matrix(0.18,0,0,-0.18,287.44865,409.07194)"
             id="g40"
             style="stroke-linecap:butt;stroke-linejoin:round">
            <use
               transform="matrix(0.996264,0,0,0.996264,0,14.943915)"
               xlink:href="#CMMI12-34"
               id="use42"
               style="stroke-linecap:butt;stroke-linejoin:round"
               x="0"
               y="0"
               width="100%"
               height="100%" />
            <use
               transform="matrix(0.697382,0,0,0.697382,45.650192,0)"
               xlink:href="#CMR17-101"
               id="use44"
               style="stroke-linecap:butt;stroke-linejoin:round"
               x="0"
               y="0"
               width="100%"
               height="100%" />
            <use
               transform="matrix(0.697382,0,0,0.697382,73.990024,0)"
               xlink:href="#CMR17-113"
               id="use46"
               style="stroke-linecap:butt;stroke-linejoin:round"
               x="0"
               y="0"
               width="100%"
               height="100%" />
          </g>
        </g>
      </g>
      <g
         id="matplotlib.axis_2"
         style="stroke-linecap:butt;stroke-linejoin:round">
        <g
           id="text_3"
           style="stroke-linecap:butt;stroke-linejoin:round">
          <!-- $V ( \varepsilon_\mathrm{eq} ) $ -->
          <defs
             id="defs50">
            <path
               d="m 61.90625,56.875 c 3.390625,5.375 6.5,7.75 11.59375,8.15625 1,0.09375 1.796875,0.09375 1.796875,1.875 0,0.40625 -0.203125,1 -1.09375,1 -1.796875,0 -6.109375,0 -7.90625,0 -2.890625,0 -5.890625,0 -8.703125,0 -0.796875,0 -1.796875,0 -1.796875,-1.875 0,-0.90625 0.90625,-1 1.296875,-1 3.703125,-0.296875 4.109375,-2.078125 4.109375,-3.28125 0,-1.484375 -1.40625,-3.78125 -1.5,-3.875 l -31.40625,-49.4375 -7,53.578125 C 21.296875,65 26.5,65 27.59375,65 29.09375,65 30,65 30,66.90625 c 0,1 -1.09375,1 -1.40625,1 -1.6875,0 -3.6875,0 -5.390625,0 l -5.609375,0 c -7.296875,0 -10.296875,0 -10.390625,0 -0.609375,0 -1.796875,0 -1.796875,-1.8125 C 5.40625,65 6.09375,65 7.703125,65 c 5.09375,0 5.390625,-0.90625 5.703125,-3.375 l 8,-61.25 C 21.703125,-1.703125 21.703125,-2 23.09375,-2 c 1.203125,0 1.703125,0.296875 2.703125,1.875 z"
               id="CMMI12-86"
               inkscape:connector-curvature="0"
               style="stroke-linecap:butt;stroke-linejoin:round" />
            <path
               d="m 30.59375,-24.390625 c 0,0.09375 0,0.296875 -0.296875,0.59375 -4.59375,4.671875 -16.890625,17.4375 -16.890625,48.5 0,31.0625 12.09375,43.71875 17,48.6875 0,0.109375 0.1875,0.3125 0.1875,0.609375 0,0.296875 -0.296875,0.5 -0.6875,0.5 -1.109375,0 -9.609375,-7.375 -14.5,-18.34375 C 10.40625,45.109375 9,34.359375 9,24.8125 9,17.625 9.703125,5.484375 15.703125,-7.359375 20.5,-17.734375 28.703125,-25 29.90625,-25 c 0.5,0 0.6875,0.203125 0.6875,0.609375 z"
               id="CMR17-40"
               inkscape:connector-curvature="0"
               style="stroke-linecap:butt;stroke-linejoin:round" />
            <path
               d="m 26.296875,24.703125 c 0,7.171875 -0.703125,19.3125 -6.703125,32.15625 -4.796875,10.375 -13,17.640625 -14.1875,17.640625 -0.3125,0 -0.703125,-0.109375 -0.703125,-0.609375 0,-0.1875 0.09375,-0.296875 0.203125,-0.5 4.796875,-4.984375 17,-17.640625 17,-48.640625 0,-31.109375 -12.109375,-43.765625 -17,-48.765625 C 4.796875,-24.203125 4.703125,-24.3125 4.703125,-24.5 c 0,-0.5 0.390625,-0.5 0.703125,-0.5 1.09375,0 9.59375,7.375 14.5,18.34375 5,11.046875 6.390625,21.796875 6.390625,31.359375 z"
               id="CMR17-41"
               inkscape:connector-curvature="0"
               style="stroke-linecap:butt;stroke-linejoin:round" />
          </defs>
          <g
             transform="matrix(0,-0.18,-0.18,0,34.516064,221.39249)"
             id="g55"
             style="stroke-linecap:butt;stroke-linejoin:round">
            <use
               transform="matrix(0.996264,0,0,0.996264,0,14.943915)"
               xlink:href="#CMMI12-86"
               id="use57"
               style="stroke-linecap:butt;stroke-linejoin:round"
               x="0"
               y="0"
               width="100%"
               height="100%" />
            <use
               transform="matrix(0.996264,0,0,0.996264,78.547321,14.943915)"
               xlink:href="#CMR17-40"
               id="use59"
               style="stroke-linecap:butt;stroke-linejoin:round"
               x="0"
               y="0"
               width="100%"
               height="100%" />
            <use
               transform="matrix(0.996264,0,0,0.996264,113.82809,14.943915)"
               xlink:href="#CMMI12-34"
               id="use61"
               style="stroke-linecap:butt;stroke-linejoin:round"
               x="0"
               y="0"
               width="100%"
               height="100%" />
            <use
               transform="matrix(0.697382,0,0,0.697382,159.47828,0)"
               xlink:href="#CMR17-101"
               id="use63"
               style="stroke-linecap:butt;stroke-linejoin:round"
               x="0"
               y="0"
               width="100%"
               height="100%" />
            <use
               transform="matrix(0.697382,0,0,0.697382,187.81811,0)"
               xlink:href="#CMR17-113"
               id="use65"
               style="stroke-linecap:butt;stroke-linejoin:round"
               x="0"
               y="0"
               width="100%"
               height="100%" />
            <use
               transform="matrix(0.996264,0,0,0.996264,222.12113,14.943915)"
               xlink:href="#CMR17-41"
               id="use67"
               style="stroke-linecap:butt;stroke-linejoin:round"
               x="0"
               y="0"
               width="100%"
               height="100%" />
          </g>
        </g>
      </g>
      <g
         id="line2d_2"
         style="stroke-linecap:butt;stroke-linejoin:round">
        <path
           clip-path="url(#p0c2d0a7f66)"
           d="m 65.23394,114.37595 1.860245,-0.12119 1.860246,-0.36357 1.860245,-0.60594 1.860245,-0.84833 1.860245,-1.0907 1.860246,-1.33308 1.860245,-1.57546 2.325306,-2.31017 2.325307,-2.68889 2.325306,-3.0676 2.325307,-3.446323 2.325307,-3.825035 2.325306,-4.203752 2.790368,-5.544408 2.790368,-6.08976 2.790368,-6.635111 2.79037,-7.180463 3.25543,-9.06647 3.25543,-9.808755 1.86024,-5.749104 1.86025,1.386102 1.86024,1.143723 1.86025,0.901345 1.86024,0.658967 1.86025,0.416588 1.86024,0.17421 1.86025,-0.06817 1.86024,-0.310548 1.86025,-0.552926 1.86024,-0.795304 1.86025,-1.037683 1.86024,-1.280062 0.46506,-0.357887 0.46507,-0.146033 2.79036,6.523769 2.79037,5.978417 2.79037,5.433065 2.79037,4.887714 2.3253,3.656507 2.32531,3.27779 2.32531,2.899074 2.3253,2.520358 2.32531,2.141641 1.86025,1.440637 1.86024,1.198259 1.86025,0.95588 1.86024,0.713502 1.86025,0.471123 1.86024,0.228745 1.86025,-0.01363 1.86024,-0.256012 1.86025,-0.498391 1.86024,-0.740769 1.86025,-0.983148 1.86024,-1.225526 1.86025,-1.467905 1.86024,-1.710283 2.32531,-2.478699 2.32531,-2.857415 2.3253,-3.236132 2.32531,-3.614848 2.32531,-3.993564 2.79036,-5.292183 2.79037,-5.837535 2.79037,-6.382886 0.46506,-1.116834 0.46506,-0.110472 4.18555,19.775813 3.72049,16.548391 3.7205,15.578878 3.72049,14.609358 3.72049,13.63985 3.25543,11.13957 3.25542,10.39728 3.25543,9.65499 3.25543,8.91271 2.79037,7.04867 2.79037,6.50332 2.79037,5.95797 2.79036,5.41261 2.79037,4.86726 2.32531,3.63947 2.3253,3.26075 2.32531,2.88203 2.32531,2.50331 2.3253,2.1246 1.86025,1.42701 1.86025,1.18462 1.86024,0.94225 1.86025,0.69987 1.86024,0.45748 1.86025,0.21512 1.86024,-0.0273 1.86025,-0.26965 1.86024,-0.51202 1.86025,-0.75441 1.86024,-0.99678 1.86025,-1.23916 1.86024,-1.48154 1.86025,-1.72391 2.3253,-2.49574 2.32531,-2.87446 2.32531,-3.25317 2.3253,-3.6319 2.32531,-4.0106 2.79037,-5.31264 2.79037,-5.85798 2.79036,-6.40334 2.79037,-6.94869 2.79037,-7.49404 3.25543,-9.43231 3.25543,-10.17459 3.25543,-10.91688 3.25543,-11.65916 3.72049,-14.233676 3.72049,-15.203191 3.72049,-16.172705 3.72049,-17.142218 1.86024,-8.934678 0.46507,0.951897 4.65061,30.175364 4.65061,28.6605 4.18555,24.499237 4.18556,23.2722 4.18555,22.04515 4.18555,20.81812 4.18555,19.59107 3.72049,16.38418 3.72049,15.41467 3.72049,14.44515 3.72049,13.47564 3.25543,10.99588 3.25543,10.2536 3.25543,9.51131 3.25543,8.76902 2.79037,6.92551 2.79036,6.38016 2.79037,5.83481 2.79037,5.28946 2.32531,3.99129 2.3253,3.61257 2.32531,3.23386 2.32531,2.85515 2.3253,2.47642 2.32531,2.09771 1.86024,1.40549 1.86025,1.16312 1.86025,0.92073 1.86024,0.67836 1.86025,0.43598 1.86024,0.1936 1.86025,-0.0488 1.86024,-0.29116 1.86025,-0.53353 1.86024,-0.77592 1.86025,-1.01829 1.86024,-1.26067 1.86025,-1.50305 1.86024,-1.74543 2.32531,-2.52263 2.32531,-2.90134 2.3253,-3.28007 2.32531,-3.65878 2.32531,-4.03749 2.79036,-5.3449 2.79037,-5.89025 2.79037,-6.43561 2.79037,-6.98095 2.79036,-7.52631 3.25543,-9.46995 3.25543,-10.21224 3.25543,-10.95453 3.25543,-11.6968 3.72049,-14.2767 3.72049,-15.24621 3.72049,-16.21573 3.72049,-17.18524 3.72049,-18.15476 4.18556,-21.58297 4.18555,-22.81001 4.18555,-24.03706 4.18555,-25.264088 2.32531,-14.565811 0,0"
           style="fill:none;stroke:#000000;stroke-width:2;stroke-linecap:square;stroke-linejoin:round"
           id="path70"
           inkscape:connector-curvature="0" />
      </g>
      <g
         id="patch_3"
         style="stroke-linecap:butt;stroke-linejoin:round">
        <path
           d="m 42.004128,372.34046 0,-349.40046"
           style="fill:none;stroke:#000000;stroke-width:0.80000001;stroke-linecap:square;stroke-linejoin:miter"
           id="path73"
           inkscape:connector-curvature="0" />
      </g>
      <g
         id="patch_4"
         style="stroke-linecap:butt;stroke-linejoin:round">
        <path
           d="m 42.004128,372.34046 511.055872,0"
           style="fill:none;stroke:#000000;stroke-width:0.80000001;stroke-linecap:square;stroke-linejoin:miter"
           id="path76"
           inkscape:connector-curvature="0" />
      </g>
    </g>
  </g>
  <defs
     id="defs78">
    <clipPath
       id="p0c2d0a7f66"
       style="stroke-linecap:butt;stroke-linejoin:round">
      <rect
         height="349.40045"
         width="511.05588"
         x="42.004128"
         y="22.940001"
         id="rect81"
         style="stroke-linecap:butt;stroke-linejoin:round" />
    </clipPath>
  </defs>
  <path
     style="fill:none;fill-rule:evenodd;stroke:#000000;stroke-width:0.40000001;stroke-linecap:butt;stroke-linejoin:miter;stroke-miterlimit:4;stroke-dasharray:none;stroke-opacity:1"
     d="m 204.75233,48.689584 0,-24.299178"
     id="path4217"
     inkscape:connector-curvature="0" />
  <path
     style="fill:none;fill-rule:evenodd;stroke:#000000;stroke-width:0.40000001;stroke-linecap:butt;stroke-linejoin:miter;stroke-miterlimit:4;stroke-dasharray:none;stroke-opacity:1"
     d="m 343.80566,48.690893 0,-24.299178"
     id="path4217-4"
     inkscape:connector-curvature="0" />
  <path
     style="fill:none;fill-rule:evenodd;stroke:#000000;stroke-width:0.40000001;stroke-linecap:butt;stroke-linejoin:miter;stroke-miterlimit:4;stroke-dasharray:none;stroke-opacity:1"
     d="m 204.75233,32.80625 139.05333,0"
     id="path4234"
     inkscape:connector-curvature="0" />
  <g
     style="font-style:normal;font-variant:normal;font-weight:normal;font-stretch:normal;letter-spacing:normal;word-spacing:normal;text-anchor:start;fill:none;fill-opacity:1;fill-rule:evenodd;stroke:#000000;stroke-linecap:butt;stroke-linejoin:miter;stroke-miterlimit:10.43299961;stroke-dasharray:none;stroke-dashoffset:0;stroke-opacity:1"
     ns0:preamble="/data/settings/inkscape/textext_preamble.tex"
     ns0:text="$\\varepsilon_\\mathrm{y}^{(i)}$"
     word-spacing="normal"
     letter-spacing="normal"
     font-size-adjust="none"
     font-stretch="normal"
     font-weight="normal"
     font-variant="normal"
     font-style="normal"
     stroke-miterlimit="10.433"
     xml:space="preserve"
     transform="matrix(2,0,0,-2,-249.62767,1435.2458)"
     id="content-9"><path
       style="fill:#000000;stroke-width:0;stroke-linecap:butt;stroke-linejoin:round"
       inkscape:connector-curvature="0"
       id="path4280"
       d="m 224.84,708.94 0.03,-0.02 0.03,-0.01 0.03,-0.01 0.03,-0.01 0.03,-0.01 0.03,-0.01 0.03,-0.01 0.03,0 0.03,-0.01 0.02,-0.01 0.06,-0.01 0.06,-0.01 0.05,0 0.05,-0.01 0.06,0 0.05,-0.01 0.05,0 0.05,0 0.04,0 0.05,0 0.05,0 0,0.22 c -0.22,0 -0.34,0 -0.53,0.05 l 0,0 c 0.23,0.08 0.44,0.09 0.6,0.09 0.25,0 0.3,-0.01 0.47,-0.06 -0.14,-0.07 -0.17,-0.08 -0.54,-0.08 l 0,-0.22 c 0.26,0 0.8,0 0.8,0.31 0,0.23 -0.35,0.26 -0.73,0.26 -0.2,0 -0.55,-0.02 -0.92,-0.19 -0.23,0.12 -0.4,0.31 -0.4,0.58 0,0.61 0.98,0.96 1.87,0.96 0.16,0 0.52,0 0.92,-0.27 0.11,-0.08 0.13,-0.1 0.2,-0.1 0.13,0 0.27,0.13 0.27,0.27 0,0.18 -0.61,0.56 -1.29,0.56 -1.14,0 -2.22,-0.66 -2.22,-1.42 0,-0.43 0.36,-0.67 0.4,-0.7 -0.59,-0.33 -0.91,-0.89 -0.91,-1.34 0,-0.65 0.57,-1.26 1.63,-1.26 1.31,0 1.87,0.88 1.87,1.03 0,0.06 -0.05,0.1 -0.11,0.1 -0.05,0 -0.08,-0.04 -0.1,-0.07 -0.14,-0.23 -0.38,-0.6 -1.57,-0.6 -0.61,0 -1.46,0.15 -1.46,0.86 0,0.33 0.28,0.86 0.89,1.16 z" /><path
       style="fill:#000000;stroke-width:0;stroke-linecap:butt;stroke-linejoin:round"
       inkscape:connector-curvature="0"
       id="path4282"
       d="m 230.56,717.07 -0.12,-0.09 -0.12,-0.09 -0.11,-0.09 -0.1,-0.1 -0.1,-0.1 -0.1,-0.1 -0.09,-0.11 -0.08,-0.1 -0.08,-0.11 -0.08,-0.11 -0.07,-0.11 -0.06,-0.11 -0.07,-0.12 -0.05,-0.11 -0.06,-0.12 -0.05,-0.11 -0.04,-0.12 -0.04,-0.12 -0.04,-0.11 -0.04,-0.12 -0.03,-0.11 -0.03,-0.12 -0.02,-0.11 -0.02,-0.12 -0.02,-0.11 -0.02,-0.11 -0.01,-0.11 -0.01,-0.11 -0.01,-0.11 0,-0.1 -0.01,-0.11 0,-0.1 c 0,-0.98 0.3,-2.5 1.68,-3.47 0.06,0 0.14,0 0.14,0.08 0,0.04 -0.02,0.06 -0.07,0.1 -0.93,0.84 -1.27,2.02 -1.27,3.28 0,1.88 0.72,2.8 1.29,3.32 0.03,0.02 0.05,0.04 0.05,0.08 0,0.08 -0.08,0.08 -0.14,0.08 z" /><path
       style="fill:#000000;stroke-width:0;stroke-linecap:butt;stroke-linejoin:round"
       inkscape:connector-curvature="0"
       id="path4284"
       d="m 233.46,716.2 0,0.01 0,0.01 -0.01,0.02 0,0.01 0,0.01 0,0.01 -0.01,0.01 0,0.01 0,0.01 -0.01,0.01 0,0.01 -0.01,0.02 -0.01,0.01 0,0.01 -0.01,0.01 -0.01,0.01 -0.01,0.01 -0.01,0.01 -0.01,0 -0.01,0.01 -0.01,0.01 -0.01,0.01 -0.01,0.01 -0.02,0 -0.01,0.01 -0.01,0 -0.02,0.01 -0.02,0 -0.01,0 -0.02,0.01 -0.02,0 -0.01,0 c -0.19,0 -0.39,-0.18 -0.39,-0.38 0,-0.12 0.09,-0.27 0.28,-0.27 0.2,0 0.39,0.2 0.39,0.38 z" /><path
       style="fill:#000000;stroke-width:0;stroke-linecap:butt;stroke-linejoin:round"
       inkscape:connector-curvature="0"
       id="path4286"
       d="m 232.03,712.67 -0.01,-0.02 0,-0.01 -0.01,-0.04 -0.01,-0.01 0,-0.02 -0.01,-0.02 0,-0.01 -0.01,-0.02 0,-0.02 0,-0.02 -0.01,-0.02 0,-0.01 0,-0.01 0,-0.01 0,-0.01 0,-0.01 0,-0.01 0,-0.01 0,-0.01 c 0,-0.33 0.28,-0.59 0.66,-0.59 0.7,0 1.01,0.96 1.01,1.06 0,0.09 -0.09,0.09 -0.11,0.09 -0.1,0 -0.11,-0.04 -0.14,-0.12 -0.16,-0.55 -0.46,-0.84 -0.74,-0.84 -0.14,0 -0.17,0.09 -0.17,0.25 0,0.16 0.05,0.29 0.11,0.44 0.07,0.19 0.15,0.38 0.22,0.56 0.07,0.16 0.32,0.8 0.35,0.88 0.02,0.07 0.04,0.15 0.04,0.22 0,0.33 -0.28,0.59 -0.67,0.59 -0.69,0 -1.01,-0.94 -1.01,-1.06 0,-0.09 0.1,-0.09 0.12,-0.09 0.1,0 0.1,0.03 0.12,0.11 0.19,0.6 0.49,0.85 0.75,0.85 0.11,0 0.18,-0.06 0.18,-0.24 0,-0.16 -0.04,-0.27 -0.22,-0.7 z" /><path
       style="fill:#000000;stroke-width:0;stroke-linecap:butt;stroke-linejoin:round"
       inkscape:connector-curvature="0"
       id="path4288"
       d="m 234.64,717.07 -0.01,0 0,0 -0.01,0 0,0 -0.01,0 0,0 -0.01,0 0,0 -0.01,0 0,0 -0.01,0 0,0 -0.01,0 -0.01,0 0,-0.01 -0.01,0 0,0 -0.01,0 0,-0.01 0,0 -0.01,0 0,0 -0.01,-0.01 0,0 0,0 0,-0.01 0,0 0,0 -0.01,0 0,-0.01 0,0 0,0 0,0 0,-0.01 0,0 0,0 0,-0.01 0,0 0,0 0,-0.01 0,0 c 0,-0.04 0.02,-0.06 0.06,-0.1 0.6,-0.55 1.27,-1.49 1.27,-3.29 0,-1.45 -0.45,-2.55 -1.21,-3.23 -0.12,-0.12 -0.12,-0.13 -0.12,-0.16 0,-0.04 0.02,-0.08 0.09,-0.08 0.08,0 0.75,0.45 1.21,1.32 0.31,0.58 0.51,1.33 0.51,2.14 0,0.99 -0.3,2.51 -1.68,3.48 z" /><path
       style="fill:#000000;stroke-width:0;stroke-linecap:butt;stroke-linejoin:round"
       inkscape:connector-curvature="0"
       id="path4290"
       d="m 231.38,707.83 0.01,0.02 0.01,0.02 0.01,0.02 0.01,0.02 0.01,0.01 0.01,0.02 0.03,0.03 0.02,0.03 0.02,0.03 0.02,0.03 0.03,0.02 0.02,0.02 0.02,0.02 0.03,0.02 0.02,0.02 0.03,0.01 0.02,0.01 0.02,0.02 0.03,0.01 0.02,0.01 0.03,0.01 0.02,0 0.02,0.01 0.02,0 0.03,0.01 0.02,0 0.02,0.01 0.02,0 0.01,0 0.02,0 0.02,0 0.01,0 0.02,0 0.01,0 0.01,0 0,0.25 c -0.2,-0.01 -0.33,-0.02 -0.53,-0.02 -0.19,0 -0.45,0 -0.64,0.02 l 0,-0.25 c 0.23,-0.01 0.29,-0.15 0.29,-0.26 0,-0.08 -0.04,-0.15 -0.06,-0.22 l -0.78,-1.64 -0.86,1.83 c -0.02,0.04 -0.04,0.08 -0.04,0.13 0,0.16 0.23,0.16 0.35,0.16 l 0,0.25 c -0.1,0 -0.6,-0.02 -0.8,-0.02 -0.21,0 -0.48,0 -0.69,0.02 l 0,-0.25 c 0.4,0 0.47,-0.02 0.58,-0.24 l 1.17,-2.5 c -0.06,-0.14 -0.13,-0.27 -0.19,-0.41 -0.16,-0.34 -0.38,-0.82 -0.86,-0.82 -0.17,0 -0.23,0.04 -0.3,0.09 0.01,0 0.21,0.07 0.21,0.3 0,0.17 -0.13,0.29 -0.3,0.29 -0.19,0 -0.31,-0.12 -0.31,-0.3 0,-0.33 0.33,-0.57 0.7,-0.57 0.6,0 0.94,0.62 1.04,0.83 z" /></g>  <g
     style="font-style:normal;font-variant:normal;font-weight:normal;font-stretch:normal;letter-spacing:normal;word-spacing:normal;text-anchor:start;fill:none;fill-opacity:1;fill-rule:evenodd;stroke:#000000;stroke-linecap:butt;stroke-linejoin:miter;stroke-miterlimit:10.43299961;stroke-dasharray:none;stroke-dashoffset:0;stroke-opacity:1"
     ns0:preamble="/data/settings/inkscape/textext_preamble.tex"
     ns0:text="$\\varepsilon_\\mathrm{y}^{(i+1)}$"
     word-spacing="normal"
     letter-spacing="normal"
     font-size-adjust="none"
     font-stretch="normal"
     font-weight="normal"
     font-variant="normal"
     font-style="normal"
     stroke-miterlimit="10.433"
     xml:space="preserve"
     transform="matrix(2,0,0,-2,-110.57434,1435.2458)"
     id="content"><path
       style="fill:#000000;stroke-width:0;stroke-linecap:butt;stroke-linejoin:round"
       inkscape:connector-curvature="0"
       id="path4507"
       d="m 224.84,708.94 0.03,-0.02 0.03,-0.01 0.03,-0.01 0.03,-0.01 0.03,-0.01 0.03,-0.01 0.03,-0.01 0.03,0 0.03,-0.01 0.02,-0.01 0.06,-0.01 0.06,-0.01 0.05,0 0.05,-0.01 0.06,0 0.05,-0.01 0.05,0 0.05,0 0.04,0 0.05,0 0.05,0 0,0.22 c -0.22,0 -0.34,0 -0.53,0.05 l 0,0 c 0.23,0.08 0.44,0.09 0.6,0.09 0.25,0 0.3,-0.01 0.47,-0.06 -0.14,-0.07 -0.17,-0.08 -0.54,-0.08 l 0,-0.22 c 0.26,0 0.8,0 0.8,0.31 0,0.23 -0.35,0.26 -0.73,0.26 -0.2,0 -0.55,-0.02 -0.92,-0.19 -0.23,0.12 -0.4,0.31 -0.4,0.58 0,0.61 0.98,0.96 1.87,0.96 0.16,0 0.52,0 0.92,-0.27 0.11,-0.08 0.13,-0.1 0.2,-0.1 0.13,0 0.27,0.13 0.27,0.27 0,0.18 -0.61,0.56 -1.29,0.56 -1.14,0 -2.22,-0.66 -2.22,-1.42 0,-0.43 0.36,-0.67 0.4,-0.7 -0.59,-0.33 -0.91,-0.89 -0.91,-1.34 0,-0.65 0.57,-1.26 1.63,-1.26 1.31,0 1.87,0.88 1.87,1.03 0,0.06 -0.05,0.1 -0.11,0.1 -0.05,0 -0.08,-0.04 -0.1,-0.07 -0.14,-0.23 -0.38,-0.6 -1.57,-0.6 -0.61,0 -1.46,0.15 -1.46,0.86 0,0.33 0.28,0.86 0.89,1.16 z" /><path
       style="fill:#000000;stroke-width:0;stroke-linecap:butt;stroke-linejoin:round"
       inkscape:connector-curvature="0"
       id="path4509"
       d="m 230.56,717.07 -0.12,-0.09 -0.12,-0.09 -0.11,-0.09 -0.1,-0.1 -0.1,-0.1 -0.1,-0.1 -0.09,-0.11 -0.08,-0.1 -0.08,-0.11 -0.08,-0.11 -0.07,-0.11 -0.06,-0.11 -0.07,-0.12 -0.05,-0.11 -0.06,-0.12 -0.05,-0.11 -0.04,-0.12 -0.04,-0.12 -0.04,-0.11 -0.04,-0.12 -0.03,-0.11 -0.03,-0.12 -0.02,-0.11 -0.02,-0.12 -0.02,-0.11 -0.02,-0.11 -0.01,-0.11 -0.01,-0.11 -0.01,-0.11 0,-0.1 -0.01,-0.11 0,-0.1 c 0,-0.98 0.3,-2.5 1.68,-3.47 0.06,0 0.14,0 0.14,0.08 0,0.04 -0.02,0.06 -0.07,0.1 -0.93,0.84 -1.27,2.02 -1.27,3.28 0,1.88 0.72,2.8 1.29,3.32 0.03,0.02 0.05,0.04 0.05,0.08 0,0.08 -0.08,0.08 -0.14,0.08 z" /><path
       style="fill:#000000;stroke-width:0;stroke-linecap:butt;stroke-linejoin:round"
       inkscape:connector-curvature="0"
       id="path4511"
       d="m 233.46,716.2 0,0.01 0,0.01 -0.01,0.02 0,0.01 0,0.01 0,0.01 -0.01,0.01 0,0.01 0,0.01 -0.01,0.01 0,0.01 -0.01,0.02 -0.01,0.01 0,0.01 -0.01,0.01 -0.01,0.01 -0.01,0.01 -0.01,0.01 -0.01,0 -0.01,0.01 -0.01,0.01 -0.01,0.01 -0.01,0.01 -0.02,0 -0.01,0.01 -0.01,0 -0.02,0.01 -0.02,0 -0.01,0 -0.02,0.01 -0.02,0 -0.01,0 c -0.19,0 -0.39,-0.18 -0.39,-0.38 0,-0.12 0.09,-0.27 0.28,-0.27 0.2,0 0.39,0.2 0.39,0.38 z" /><path
       style="fill:#000000;stroke-width:0;stroke-linecap:butt;stroke-linejoin:round"
       inkscape:connector-curvature="0"
       id="path4513"
       d="m 232.03,712.67 -0.01,-0.02 0,-0.01 -0.01,-0.04 -0.01,-0.01 0,-0.02 -0.01,-0.02 0,-0.01 -0.01,-0.02 0,-0.02 0,-0.02 -0.01,-0.02 0,-0.01 0,-0.01 0,-0.01 0,-0.01 0,-0.01 0,-0.01 0,-0.01 0,-0.01 c 0,-0.33 0.28,-0.59 0.66,-0.59 0.7,0 1.01,0.96 1.01,1.06 0,0.09 -0.09,0.09 -0.11,0.09 -0.1,0 -0.11,-0.04 -0.14,-0.12 -0.16,-0.55 -0.46,-0.84 -0.74,-0.84 -0.14,0 -0.17,0.09 -0.17,0.25 0,0.16 0.05,0.29 0.11,0.44 0.07,0.19 0.15,0.38 0.22,0.56 0.07,0.16 0.32,0.8 0.35,0.88 0.02,0.07 0.04,0.15 0.04,0.22 0,0.33 -0.28,0.59 -0.67,0.59 -0.69,0 -1.01,-0.94 -1.01,-1.06 0,-0.09 0.1,-0.09 0.12,-0.09 0.1,0 0.1,0.03 0.12,0.11 0.19,0.6 0.49,0.85 0.75,0.85 0.11,0 0.18,-0.06 0.18,-0.24 0,-0.16 -0.04,-0.27 -0.22,-0.7 z" /><path
       style="fill:#000000;stroke-width:0;stroke-linecap:butt;stroke-linejoin:round"
       inkscape:connector-curvature="0"
       id="path4515"
       d="m 237.25,713.43 2.14,0 c 0.09,0 0.26,0 0.26,0.16 0,0.18 -0.16,0.18 -0.26,0.18 l -2.14,0 0,2.13 c 0,0.09 0,0.26 -0.17,0.26 -0.18,0 -0.18,-0.16 -0.18,-0.26 l 0,-2.13 -2.14,0 c -0.09,0 -0.26,0 -0.26,-0.17 0,-0.17 0.16,-0.17 0.26,-0.17 l 2.14,0 0,-2.14 c 0,-0.09 0,-0.25 0.17,-0.25 0.18,0 0.18,0.16 0.18,0.25 z" /><path
       style="fill:#000000;stroke-width:0;stroke-linecap:butt;stroke-linejoin:round"
       inkscape:connector-curvature="0"
       id="path4517"
       d="m 242.47,716.28 0,0.01 0,0.01 0,0.01 0,0 0,0.01 0,0.01 0,0.01 0,0 0,0.01 0,0.01 0,0 0,0.01 -0.01,0 0,0.01 0,0 0,0.01 0,0 0,0.01 0,0.01 0,0.01 -0.01,0 0,0.01 0,0.01 -0.01,0 0,0.01 -0.01,0 -0.01,0.01 0,0 -0.01,0 -0.01,0 -0.01,0.01 -0.01,0 0,0 -0.01,0 0,0 -0.01,0 0,0 -0.01,0 -0.01,0 0,0 -0.01,0 -0.01,0 0,0 -0.01,0 -0.01,0 -0.01,0 0,0 -0.01,0 -0.01,0 -0.01,0 c -0.45,-0.43 -1.08,-0.44 -1.37,-0.44 l 0,-0.25 c 0.17,0 0.63,0 1.01,0.19 l 0,-3.54 c 0,-0.23 0,-0.32 -0.7,-0.32 l -0.26,0 0,-0.25 c 0.12,0 0.98,0.03 1.24,0.03 0.22,0 1.1,-0.03 1.25,-0.03 l 0,0.25 -0.26,0 c -0.7,0 -0.7,0.09 -0.7,0.32 z" /><path
       style="fill:#000000;stroke-width:0;stroke-linecap:butt;stroke-linejoin:round"
       inkscape:connector-curvature="0"
       id="path4519"
       d="m 244.73,717.07 -0.01,0 0,0 -0.01,0 0,0 -0.01,0 0,0 -0.01,0 0,0 -0.01,0 -0.01,0 0,0 -0.01,0 0,0 -0.01,0 0,-0.01 -0.01,0 0,0 -0.01,0 0,-0.01 -0.01,0 0,0 -0.01,0 0,-0.01 0,0 0,0 0,-0.01 -0.01,0 0,0 0,0 0,-0.01 0,0 0,0 0,0 0,-0.01 0,0 0,0 -0.01,-0.01 0,0 0,0 0,-0.01 0,0 c 0,-0.04 0.03,-0.06 0.07,-0.1 0.6,-0.55 1.27,-1.49 1.27,-3.29 0,-1.45 -0.45,-2.55 -1.21,-3.23 -0.12,-0.12 -0.13,-0.13 -0.13,-0.16 0,-0.04 0.03,-0.08 0.09,-0.08 0.09,0 0.75,0.45 1.22,1.32 0.3,0.58 0.5,1.33 0.5,2.14 0,0.99 -0.29,2.51 -1.67,3.48 z" /><path
       style="fill:#000000;stroke-width:0;stroke-linecap:butt;stroke-linejoin:round"
       inkscape:connector-curvature="0"
       id="path4521"
       d="m 231.38,707.83 0.01,0.02 0.01,0.02 0.01,0.02 0.01,0.02 0.01,0.01 0.01,0.02 0.03,0.03 0.02,0.03 0.02,0.03 0.02,0.03 0.03,0.02 0.02,0.02 0.02,0.02 0.03,0.02 0.02,0.02 0.03,0.01 0.02,0.01 0.02,0.02 0.03,0.01 0.02,0.01 0.03,0.01 0.02,0 0.02,0.01 0.02,0 0.03,0.01 0.02,0 0.02,0.01 0.02,0 0.01,0 0.02,0 0.02,0 0.01,0 0.02,0 0.01,0 0.01,0 0,0.25 c -0.2,-0.01 -0.33,-0.02 -0.53,-0.02 -0.19,0 -0.45,0 -0.64,0.02 l 0,-0.25 c 0.23,-0.01 0.29,-0.15 0.29,-0.26 0,-0.08 -0.04,-0.15 -0.06,-0.22 l -0.78,-1.64 -0.86,1.83 c -0.02,0.04 -0.04,0.08 -0.04,0.13 0,0.16 0.23,0.16 0.35,0.16 l 0,0.25 c -0.1,0 -0.6,-0.02 -0.8,-0.02 -0.21,0 -0.48,0 -0.69,0.02 l 0,-0.25 c 0.4,0 0.47,-0.02 0.58,-0.24 l 1.17,-2.5 c -0.06,-0.14 -0.13,-0.27 -0.19,-0.41 -0.16,-0.34 -0.38,-0.82 -0.86,-0.82 -0.17,0 -0.23,0.04 -0.3,0.09 0.01,0 0.21,0.07 0.21,0.3 0,0.17 -0.13,0.29 -0.3,0.29 -0.19,0 -0.31,-0.12 -0.31,-0.3 0,-0.33 0.33,-0.57 0.7,-0.57 0.6,0 0.94,0.62 1.04,0.83 z" /></g></svg>
