<?xml version="1.0" encoding="utf-8" standalone="no"?>
<!DOCTYPE svg PUBLIC "-//W3C//DTD SVG 1.1//EN"
  "http://www.w3.org/Graphics/SVG/1.1/DTD/svg11.dtd">
<!-- Created with matplotlib (http://matplotlib.org/) -->
<svg height="432pt" version="1.1" viewBox="0 0 576 432" width="576pt" xmlns="http://www.w3.org/2000/svg" xmlns:xlink="http://www.w3.org/1999/xlink">
 <defs>
  <style type="text/css">
*{stroke-linecap:butt;stroke-linejoin:round;}
  </style>
 </defs>
 <g id="figure_1">
  <g id="patch_1">
   <path d="M 0 432 
L 576 432 
L 576 0 
L 0 0 
z
" style="fill:none;"/>
  </g>
  <g id="axes_1">
   <g id="patch_2">
    <path d="M 56.333576 372.340456 
L 553.06 372.340456 
L 553.06 22.94 
L 56.333576 22.94 
z
" style="fill:none;"/>
   </g>
   <g id="matplotlib.axis_1">
    <g id="xtick_1">
     <g id="line2d_1">
      <defs>
       <path d="M 0 0 
L 0 3.5 
" id="me8ea55f36f" style="stroke:#000000;stroke-width:0.8;"/>
      </defs>
      <g>
       <use style="stroke:#000000;stroke-width:0.8;" x="78.91205" xlink:href="#me8ea55f36f" y="372.340456"/>
      </g>
     </g>
     <g id="text_1">
      <!-- $0$ -->
      <defs>
       <path d="M 42 31.640625 
C 42 37.75 41.90625 48.125 37.703125 56.109375 
C 34 63.109375 28.09375 65.59375 22.90625 65.59375 
C 18.09375 65.59375 12 63.40625 8.203125 56.203125 
C 4.203125 48.71875 3.796875 39.4375 3.796875 31.640625 
C 3.796875 25.953125 3.90625 17.28125 7 9.671875 
C 11.296875 -0.609375 19 -2 22.90625 -2 
C 27.5 -2 34.5 -0.109375 38.59375 9.375 
C 41.59375 16.28125 42 24.359375 42 31.640625 
z
M 22.90625 -0.40625 
C 16.5 -0.40625 12.703125 5.078125 11.296875 12.6875 
C 10.203125 18.5625 10.203125 27.15625 10.203125 32.75 
C 10.203125 40.4375 10.203125 46.828125 11.5 52.921875 
C 13.40625 61.390625 19 64 22.90625 64 
C 27 64 32.296875 61.296875 34.203125 53.125 
C 35.5 47.4375 35.59375 40.734375 35.59375 32.75 
C 35.59375 26.25 35.59375 18.265625 34.40625 12.375 
C 32.296875 1.484375 26.40625 -0.40625 22.90625 -0.40625 
z
" id="CMR17-48"/>
      </defs>
      <g transform="translate(75.255398 389.714046)scale(0.14994 -0.14994)">
       <use transform="scale(0.996264)" xlink:href="#CMR17-48"/>
      </g>
     </g>
    </g>
    <g id="text_2">
     <!-- $\varepsilon_\mathrm{eq}$ -->
     <defs>
      <path d="M 13.90625 22.296875 
C 17.09375 21.015625 20.5 21.015625 22.40625 21.015625 
C 25 21.015625 30.203125 21.015625 30.203125 24.21875 
C 30.203125 26.21875 28.296875 27 23.203125 27 
C 20.703125 27 17.703125 26.703125 14.203125 25.203125 
C 11.09375 26.6875 9.90625 28.9375 9.90625 31.09375 
C 9.90625 37.171875 19.703125 40.71875 28.59375 40.71875 
C 30.296875 40.71875 33.90625 40.71875 38.09375 37.671875 
C 38.703125 37.296875 39 36.984375 39.703125 36.984375 
C 40.90625 36.984375 42.203125 38.265625 42.203125 39.46875 
C 42.203125 41.234375 36.40625 45 29.5 45 
C 18.296875 45 7.703125 38.265625 7.703125 30.8125 
C 7.703125 27.09375 10.09375 24.78125 11.796875 23.578125 
C 6 20.328125 2.59375 15.015625 2.59375 10.1875 
C 2.59375 3.421875 8.796875 -2 18.40625 -2 
C 31.59375 -2 36.90625 6.625 36.90625 8 
C 36.90625 8.484375 36.5 8.875 36 8.875 
C 35.5 8.875 35.296875 8.578125 34.90625 8 
C 33.796875 6.171875 31.203125 2.28125 19.296875 2.28125 
C 13.09375 2.28125 4.90625 3.828125 4.90625 10.71875 
C 4.90625 14.03125 7.40625 18.96875 13.90625 22.296875 
z
M 17 23.71875 
C 19.703125 25 22.296875 25 23 25 
C 25.796875 25 26.296875 24.734375 27.90625 24.140625 
C 26.203125 23 26 23 22.40625 23 
C 20.59375 23 19 23 17 23.71875 
z
" id="CMMI12-34"/>
      <path d="M 38.09375 23 
C 38.5 23.40625 38.5 23.609375 38.5 24.625 
C 38.5 34.96875 33.09375 44 21.703125 44 
C 11.09375 44 2.703125 33.890625 2.703125 21.609375 
C 2.703125 8.609375 12.203125 -1 22.796875 -1 
C 34 -1 38.40625 9.484375 38.40625 11.5625 
C 38.40625 12.25 37.796875 12.25 37.59375 12.25 
C 36.90625 12.25 36.796875 12.046875 36.40625 10.875 
C 34.203125 4.140625 28.703125 0.796875 23.5 0.796875 
C 19.203125 0.796875 14.90625 3.171875 12.203125 7.5 
C 9.09375 12.546875 9.09375 18.375 9.09375 23 
z
M 9.203125 24.5 
C 9.90625 39.140625 17.59375 42.40625 21.59375 42.40625 
C 28.40625 42.40625 33 35.890625 33.09375 24.5 
z
" id="CMR17-101"/>
      <path d="M 41.09375 43.78125 
L 39.5 43.78125 
L 36.5 33.9375 
C 34.203125 39.203125 30 43.78125 23.296875 43.78125 
C 13.09375 43.78125 3.296875 34.734375 3.296875 21.609375 
C 3.296875 8.5625 12.5 -0.59375 22.5 -0.59375 
C 30.203125 -0.59375 34.5 5.28125 35.796875 7.46875 
L 35.796875 -12.328125 
C 35.796875 -16.109375 35.40625 -16.609375 29 -16.609375 
L 29 -19.1875 
C 31.40625 -19 35.796875 -19 38.40625 -19 
C 41 -19 45.5 -19 47.90625 -19.1875 
L 47.90625 -16.609375 
C 41.5 -16.609375 41.09375 -16.203125 41.09375 -12.328125 
z
M 36 13.84375 
C 36 9.5625 32.40625 5.578125 32.09375 5.28125 
C 29 1.796875 25.40625 1 23 1 
C 15.5 1 9.703125 10.453125 9.703125 21.484375 
C 9.703125 33.140625 16.296875 42 24 42 
C 32 42 36 32.9375 36 27.765625 
z
" id="CMR17-113"/>
     </defs>
     <g transform="translate(294.613377 409.071936)scale(0.18 -0.18)">
      <use transform="translate(0 14.943915)scale(0.996264)" xlink:href="#CMMI12-34"/>
      <use transform="translate(45.650192 0)scale(0.697382)" xlink:href="#CMR17-101"/>
      <use transform="translate(73.990024 0)scale(0.697382)" xlink:href="#CMR17-113"/>
     </g>
    </g>
   </g>
   <g id="matplotlib.axis_2">
    <g id="ytick_1">
     <g id="line2d_2">
      <defs>
       <path d="M 0 0 
L -3.5 0 
" id="m6baeceb0fb" style="stroke:#000000;stroke-width:0.8;"/>
      </defs>
      <g>
       <use style="stroke:#000000;stroke-width:0.8;" x="56.333576" xlink:href="#m6baeceb0fb" y="193.902623"/>
      </g>
     </g>
     <g id="text_3">
      <!-- $0$ -->
      <g transform="translate(42.020272 199.089417)scale(0.14994 -0.14994)">
       <use transform="scale(0.996264)" xlink:href="#CMR17-48"/>
      </g>
     </g>
    </g>
    <g id="text_4">
     <!-- $\partial V / \partial \varepsilon_\mathrm{eq}$ -->
     <defs>
      <path d="M 45.40625 33.515625 
C 44.796875 39.125 41.296875 45.859375 32.296875 45.859375 
C 18.203125 45.859375 3.796875 31.515625 3.796875 15.5625 
C 3.796875 9.4375 8 -2.09375 21.59375 -2.09375 
C 45.203125 -2.09375 55.296875 32.296875 55.296875 46 
C 55.296875 60.40625 47.203125 71.5 34.40625 71.5 
C 19.90625 71.5 15.59375 58.796875 15.59375 56.09375 
C 15.59375 55.203125 16.203125 53 19 53 
C 22.5 53 24 56.203125 24 57.90625 
C 24 61 20.90625 61 19.59375 61 
C 23.703125 68.40625 31.296875 69.09375 34 69.09375 
C 42.796875 69.09375 48.40625 62.109375 48.40625 50.96875 
C 48.40625 44.578125 46.5 37.1875 45.5 33.515625 
z
M 21.90625 0.59375 
C 12.5 0.59375 10.90625 8.03125 10.90625 12.25 
C 10.90625 16.65625 13.703125 27 15.203125 30.703125 
C 16.5 33.71875 22.203125 43.859375 32.59375 43.859375 
C 41.703125 43.859375 43.796875 35.921875 43.796875 30.515625 
C 43.796875 23.078125 37.296875 0.59375 21.90625 0.59375 
z
" id="CMMI12-64"/>
      <path d="M 61.90625 56.875 
C 65.296875 62.25 68.40625 64.625 73.5 65.03125 
C 74.5 65.125 75.296875 65.125 75.296875 66.90625 
C 75.296875 67.3125 75.09375 67.90625 74.203125 67.90625 
C 72.40625 67.90625 68.09375 67.90625 66.296875 67.90625 
C 63.40625 67.90625 60.40625 67.90625 57.59375 67.90625 
C 56.796875 67.90625 55.796875 67.90625 55.796875 66.03125 
C 55.796875 65.125 56.703125 65.03125 57.09375 65.03125 
C 60.796875 64.734375 61.203125 62.953125 61.203125 61.75 
C 61.203125 60.265625 59.796875 57.96875 59.703125 57.875 
L 28.296875 8.4375 
L 21.296875 62.015625 
C 21.296875 65 26.5 65 27.59375 65 
C 29.09375 65 30 65 30 66.90625 
C 30 67.90625 28.90625 67.90625 28.59375 67.90625 
C 26.90625 67.90625 24.90625 67.90625 23.203125 67.90625 
L 17.59375 67.90625 
C 10.296875 67.90625 7.296875 67.90625 7.203125 67.90625 
C 6.59375 67.90625 5.40625 67.90625 5.40625 66.09375 
C 5.40625 65 6.09375 65 7.703125 65 
C 12.796875 65 13.09375 64.09375 13.40625 61.625 
L 21.40625 0.375 
C 21.703125 -1.703125 21.703125 -2 23.09375 -2 
C 24.296875 -2 24.796875 -1.703125 25.796875 -0.125 
z
" id="CMMI12-86"/>
      <path d="M 42.90625 71.28125 
C 42.90625 71.390625 43.5 72.90625 43.5 73.09375 
C 43.5 74.296875 42.5 75 41.703125 75 
C 41.203125 75 40.296875 75 39.5 72.796875 
L 6 -21.296875 
C 6 -21.40625 5.40625 -22.890625 5.40625 -23.09375 
C 5.40625 -24.296875 6.40625 -25 7.203125 -25 
C 7.796875 -25 8.703125 -24.890625 9.40625 -22.796875 
z
" id="CMMI12-61"/>
     </defs>
     <g transform="translate(34.532208 228.451938)rotate(-90)scale(0.18 -0.18)">
      <use transform="translate(0 14.943915)scale(0.996264)" xlink:href="#CMMI12-64"/>
      <use transform="translate(56.915564 14.943915)scale(0.996264)" xlink:href="#CMMI12-86"/>
      <use transform="translate(124.624014 14.943915)scale(0.996264)" xlink:href="#CMMI12-61"/>
      <use transform="translate(173.398933 14.943915)scale(0.996264)" xlink:href="#CMMI12-64"/>
      <use transform="translate(230.314498 14.943915)scale(0.996264)" xlink:href="#CMMI12-34"/>
      <use transform="translate(275.96469 0)scale(0.697382)" xlink:href="#CMR17-101"/>
      <use transform="translate(304.304521 0)scale(0.697382)" xlink:href="#CMR17-113"/>
     </g>
    </g>
   </g>
   <g id="line2d_3">
    <path clip-path="url(#pef229a9f1b)" d="M 78.91205 193.902623 
L 123.662178 115.090489 
L 124.1142 213.705166 
L 146.263253 174.697141 
L 146.715274 253.429665 
L 214.066478 134.813425 
L 214.518499 312.956708 
L 349.672927 74.928145 
L 350.124949 356.458618 
L 530.481526 38.821839 
L 530.481526 38.821839 
" style="fill:none;stroke:#000000;stroke-linecap:square;stroke-width:2;"/>
   </g>
   <g id="patch_3">
    <path d="M 56.333576 372.340456 
L 56.333576 22.94 
" style="fill:none;stroke:#000000;stroke-linecap:square;stroke-linejoin:miter;stroke-width:0.8;"/>
   </g>
   <g id="patch_4">
    <path d="M 56.333576 372.340456 
L 553.06 372.340456 
" style="fill:none;stroke:#000000;stroke-linecap:square;stroke-linejoin:miter;stroke-width:0.8;"/>
   </g>
  </g>
 </g>
 <defs>
  <clipPath id="pef229a9f1b">
   <rect height="349.400456" width="496.726424" x="56.333576" y="22.94"/>
  </clipPath>
 </defs>
</svg>
