<?xml version="1.0" encoding="utf-8" standalone="no"?>
<!DOCTYPE svg PUBLIC "-//W3C//DTD SVG 1.1//EN"
  "http://www.w3.org/Graphics/SVG/1.1/DTD/svg11.dtd">
<!-- Created with matplotlib (http://matplotlib.org/) -->
<svg height="432pt" version="1.1" viewBox="0 0 576 432" width="576pt" xmlns="http://www.w3.org/2000/svg" xmlns:xlink="http://www.w3.org/1999/xlink">
 <defs>
  <style type="text/css">
*{stroke-linecap:butt;stroke-linejoin:round;}
  </style>
 </defs>
 <g id="figure_1">
  <g id="patch_1">
   <path d="M 0 432 
L 576 432 
L 576 0 
L 0 0 
z
" style="fill:none;"/>
  </g>
  <g id="axes_1">
   <g id="patch_2">
    <path d="M 53.694668 372.340456 
L 553.06 372.340456 
L 553.06 22.94 
L 53.694668 22.94 
z
" style="fill:none;"/>
   </g>
   <g id="matplotlib.axis_1">
    <g id="xtick_1">
     <g id="line2d_1">
      <defs>
       <path d="M 0 0 
L 0 3.5 
" id="mbc8a7aadc4" style="stroke:#000000;stroke-width:0.8;"/>
      </defs>
      <g>
       <use style="stroke:#000000;stroke-width:0.8;" x="76.393092" xlink:href="#mbc8a7aadc4" y="372.340456"/>
      </g>
     </g>
     <g id="line2d_2">
      <defs>
       <path d="M 0 0 
L 0 -3.5 
" id="m3e441180df" style="stroke:#000000;stroke-width:0.8;"/>
      </defs>
      <g>
       <use style="stroke:#000000;stroke-width:0.8;" x="76.393092" xlink:href="#m3e441180df" y="22.94"/>
      </g>
     </g>
     <g id="text_1">
      <!-- $0$ -->
      <defs>
       <path d="M 42 31.640625 
C 42 37.75 41.90625 48.125 37.703125 56.109375 
C 34 63.109375 28.09375 65.59375 22.90625 65.59375 
C 18.09375 65.59375 12 63.40625 8.203125 56.203125 
C 4.203125 48.71875 3.796875 39.4375 3.796875 31.640625 
C 3.796875 25.953125 3.90625 17.28125 7 9.671875 
C 11.296875 -0.609375 19 -2 22.90625 -2 
C 27.5 -2 34.5 -0.109375 38.59375 9.375 
C 41.59375 16.28125 42 24.359375 42 31.640625 
z
M 22.90625 -0.40625 
C 16.5 -0.40625 12.703125 5.078125 11.296875 12.6875 
C 10.203125 18.5625 10.203125 27.15625 10.203125 32.75 
C 10.203125 40.4375 10.203125 46.828125 11.5 52.921875 
C 13.40625 61.390625 19 64 22.90625 64 
C 27 64 32.296875 61.296875 34.203125 53.125 
C 35.5 47.4375 35.59375 40.734375 35.59375 32.75 
C 35.59375 26.25 35.59375 18.265625 34.40625 12.375 
C 32.296875 1.484375 26.40625 -0.40625 22.90625 -0.40625 
z
" id="CMR17-48"/>
      </defs>
      <g transform="translate(72.73644 389.714046)scale(0.14994 -0.14994)">
       <use transform="scale(0.996264)" xlink:href="#CMR17-48"/>
      </g>
     </g>
    </g>
    <g id="text_2">
     <!-- $\varepsilon_\mathrm{eq}$ -->
     <defs>
      <path d="M 13.90625 22.296875 
C 17.09375 21.015625 20.5 21.015625 22.40625 21.015625 
C 25 21.015625 30.203125 21.015625 30.203125 24.21875 
C 30.203125 26.21875 28.296875 27 23.203125 27 
C 20.703125 27 17.703125 26.703125 14.203125 25.203125 
C 11.09375 26.6875 9.90625 28.9375 9.90625 31.09375 
C 9.90625 37.171875 19.703125 40.71875 28.59375 40.71875 
C 30.296875 40.71875 33.90625 40.71875 38.09375 37.671875 
C 38.703125 37.296875 39 36.984375 39.703125 36.984375 
C 40.90625 36.984375 42.203125 38.265625 42.203125 39.46875 
C 42.203125 41.234375 36.40625 45 29.5 45 
C 18.296875 45 7.703125 38.265625 7.703125 30.8125 
C 7.703125 27.09375 10.09375 24.78125 11.796875 23.578125 
C 6 20.328125 2.59375 15.015625 2.59375 10.1875 
C 2.59375 3.421875 8.796875 -2 18.40625 -2 
C 31.59375 -2 36.90625 6.625 36.90625 8 
C 36.90625 8.484375 36.5 8.875 36 8.875 
C 35.5 8.875 35.296875 8.578125 34.90625 8 
C 33.796875 6.171875 31.203125 2.28125 19.296875 2.28125 
C 13.09375 2.28125 4.90625 3.828125 4.90625 10.71875 
C 4.90625 14.03125 7.40625 18.96875 13.90625 22.296875 
z
M 17 23.71875 
C 19.703125 25 22.296875 25 23 25 
C 25.796875 25 26.296875 24.734375 27.90625 24.140625 
C 26.203125 23 26 23 22.40625 23 
C 20.59375 23 19 23 17 23.71875 
z
" id="CMMI12-34"/>
      <path d="M 38.09375 23 
C 38.5 23.40625 38.5 23.609375 38.5 24.625 
C 38.5 34.96875 33.09375 44 21.703125 44 
C 11.09375 44 2.703125 33.890625 2.703125 21.609375 
C 2.703125 8.609375 12.203125 -1 22.796875 -1 
C 34 -1 38.40625 9.484375 38.40625 11.5625 
C 38.40625 12.25 37.796875 12.25 37.59375 12.25 
C 36.90625 12.25 36.796875 12.046875 36.40625 10.875 
C 34.203125 4.140625 28.703125 0.796875 23.5 0.796875 
C 19.203125 0.796875 14.90625 3.171875 12.203125 7.5 
C 9.09375 12.546875 9.09375 18.375 9.09375 23 
z
M 9.203125 24.5 
C 9.90625 39.140625 17.59375 42.40625 21.59375 42.40625 
C 28.40625 42.40625 33 35.890625 33.09375 24.5 
z
" id="CMR17-101"/>
      <path d="M 41.09375 43.78125 
L 39.5 43.78125 
L 36.5 33.9375 
C 34.203125 39.203125 30 43.78125 23.296875 43.78125 
C 13.09375 43.78125 3.296875 34.734375 3.296875 21.609375 
C 3.296875 8.5625 12.5 -0.59375 22.5 -0.59375 
C 30.203125 -0.59375 34.5 5.28125 35.796875 7.46875 
L 35.796875 -12.328125 
C 35.796875 -16.109375 35.40625 -16.609375 29 -16.609375 
L 29 -19.1875 
C 31.40625 -19 35.796875 -19 38.40625 -19 
C 41 -19 45.5 -19 47.90625 -19.1875 
L 47.90625 -16.609375 
C 41.5 -16.609375 41.09375 -16.203125 41.09375 -12.328125 
z
M 36 13.84375 
C 36 9.5625 32.40625 5.578125 32.09375 5.28125 
C 29 1.796875 25.40625 1 23 1 
C 15.5 1 9.703125 10.453125 9.703125 21.484375 
C 9.703125 33.140625 16.296875 42 24 42 
C 32 42 36 32.9375 36 27.765625 
z
" id="CMR17-113"/>
     </defs>
     <g transform="translate(293.293923 409.071936)scale(0.18 -0.18)">
      <use transform="translate(0 14.943915)scale(0.996264)" xlink:href="#CMMI12-34"/>
      <use transform="translate(45.650192 0)scale(0.697382)" xlink:href="#CMR17-101"/>
      <use transform="translate(73.990024 0)scale(0.697382)" xlink:href="#CMR17-113"/>
     </g>
    </g>
   </g>
   <g id="matplotlib.axis_2">
    <g id="ytick_1">
     <g id="line2d_3">
      <defs>
       <path d="M 0 0 
L -3.5 0 
" id="ma9684396b8" style="stroke:#000000;stroke-width:0.8;"/>
      </defs>
      <g>
       <use style="stroke:#000000;stroke-width:0.8;" x="53.694668" xlink:href="#ma9684396b8" y="356.458618"/>
      </g>
     </g>
     <g id="line2d_4">
      <defs>
       <path d="M 0 0 
L 3.5 0 
" id="m19e27eb835" style="stroke:#000000;stroke-width:0.8;"/>
      </defs>
      <g>
       <use style="stroke:#000000;stroke-width:0.8;" x="553.06" xlink:href="#m19e27eb835" y="356.458618"/>
      </g>
     </g>
     <g id="text_3">
      <!-- $0$ -->
      <g transform="translate(39.381364 361.645412)scale(0.14994 -0.14994)">
       <use transform="scale(0.996264)" xlink:href="#CMR17-48"/>
      </g>
     </g>
    </g>
    <g id="text_4">
     <!-- $\sigma_\mathrm{eq}$ -->
     <defs>
      <path d="M 50.796875 37.625 
C 52.09375 37.625 55.40625 37.625 55.40625 40.8125 
C 55.40625 43 53.5 43 51.703125 43 
L 29.59375 43 
C 14.59375 43 3.796875 26.34375 3.796875 14.5625 
C 3.796875 6.09375 9.296875 -1 18.296875 -1 
C 30.09375 -1 43 11.671875 43 26.640625 
C 43 30.53125 42.09375 34.3125 39.703125 37.625 
z
M 18.40625 1 
C 13.296875 1 9.59375 4.890625 9.59375 11.78125 
C 9.59375 17.765625 13.203125 37.625 27.90625 37.625 
C 32.203125 37.625 37 35.53125 37 27.828125 
C 37 24.34375 35.40625 15.953125 31.90625 10.1875 
C 28.296875 4.296875 22.90625 1 18.40625 1 
z
" id="CMMI12-27"/>
     </defs>
     <g transform="translate(31.8933 208.605213)rotate(-90)scale(0.18 -0.18)">
      <use transform="translate(0 14.943915)scale(0.996264)" xlink:href="#CMMI12-27"/>
      <use transform="translate(55.445461 0)scale(0.697382)" xlink:href="#CMR17-101"/>
      <use transform="translate(83.785292 0)scale(0.697382)" xlink:href="#CMR17-113"/>
     </g>
    </g>
   </g>
   <g id="line2d_5">
    <path clip-path="url(#pcf45c2e30f)" d="M 76.393092 356.458618 
L 121.769511 201.560907 
L 121.883009 318.034454 
L 133.14199 356.448932 
L 133.187389 356.293956 
L 144.46907 317.78262 
L 144.49177 240.244654 
L 144.582568 240.554604 
L 178.541109 356.441183 
L 178.586508 356.286208 
L 212.567748 240.287272 
L 212.590447 124.03069 
L 212.681245 124.34064 
L 280.689125 356.423748 
L 280.734524 356.268773 
L 348.765103 124.038439 
L 348.787802 38.821839 
L 348.8786 39.131789 
L 441.833295 356.443507 
L 441.878694 356.318752 
L 530.361576 54.272091 
L 530.361576 54.272091 
" style="fill:none;stroke:#000000;stroke-linecap:square;stroke-width:2;"/>
   </g>
   <g id="patch_3">
    <path d="M 53.694668 372.340456 
L 53.694668 22.94 
" style="fill:none;stroke:#000000;stroke-linecap:square;stroke-linejoin:miter;stroke-width:0.8;"/>
   </g>
   <g id="patch_4">
    <path d="M 53.694668 372.340456 
L 553.06 372.340456 
" style="fill:none;stroke:#000000;stroke-linecap:square;stroke-linejoin:miter;stroke-width:0.8;"/>
   </g>
  </g>
 </g>
 <defs>
  <clipPath id="pcf45c2e30f">
   <rect height="349.400456" width="499.365332" x="53.694668" y="22.94"/>
  </clipPath>
 </defs>
</svg>
