<?xml version="1.0" encoding="utf-8" standalone="no"?>
<!DOCTYPE svg PUBLIC "-//W3C//DTD SVG 1.1//EN"
  "http://www.w3.org/Graphics/SVG/1.1/DTD/svg11.dtd">
<!-- Created with matplotlib (http://matplotlib.org/) -->
<svg height="432pt" version="1.1" viewBox="0 0 576 432" width="576pt" xmlns="http://www.w3.org/2000/svg" xmlns:xlink="http://www.w3.org/1999/xlink">
 <defs>
  <style type="text/css">
*{stroke-linecap:butt;stroke-linejoin:round;}
  </style>
 </defs>
 <g id="figure_1">
  <g id="patch_1">
   <path d="M 0 432 
L 576 432 
L 576 0 
L 0 0 
z
" style="fill:none;"/>
  </g>
  <g id="axes_1">
   <g id="patch_2">
    <path d="M 53.694668 372.340456 
L 553.06 372.340456 
L 553.06 22.94 
L 53.694668 22.94 
z
" style="fill:none;"/>
   </g>
   <g id="matplotlib.axis_1">
    <g id="xtick_1">
     <g id="line2d_1">
      <defs>
       <path d="M 0 0 
L 0 3.5 
" id="m44b86f20b6" style="stroke:#000000;stroke-width:0.8;"/>
      </defs>
      <g>
       <use style="stroke:#000000;stroke-width:0.8;" x="76.393092" xlink:href="#m44b86f20b6" y="372.340456"/>
      </g>
     </g>
     <g id="text_1">
      <!-- $0$ -->
      <defs>
       <path d="M 42 31.640625 
C 42 37.75 41.90625 48.125 37.703125 56.109375 
C 34 63.109375 28.09375 65.59375 22.90625 65.59375 
C 18.09375 65.59375 12 63.40625 8.203125 56.203125 
C 4.203125 48.71875 3.796875 39.4375 3.796875 31.640625 
C 3.796875 25.953125 3.90625 17.28125 7 9.671875 
C 11.296875 -0.609375 19 -2 22.90625 -2 
C 27.5 -2 34.5 -0.109375 38.59375 9.375 
C 41.59375 16.28125 42 24.359375 42 31.640625 
z
M 22.90625 -0.40625 
C 16.5 -0.40625 12.703125 5.078125 11.296875 12.6875 
C 10.203125 18.5625 10.203125 27.15625 10.203125 32.75 
C 10.203125 40.4375 10.203125 46.828125 11.5 52.921875 
C 13.40625 61.390625 19 64 22.90625 64 
C 27 64 32.296875 61.296875 34.203125 53.125 
C 35.5 47.4375 35.59375 40.734375 35.59375 32.75 
C 35.59375 26.25 35.59375 18.265625 34.40625 12.375 
C 32.296875 1.484375 26.40625 -0.40625 22.90625 -0.40625 
z
" id="CMR17-48"/>
      </defs>
      <g transform="translate(72.73644 389.714046)scale(0.14994 -0.14994)">
       <use transform="scale(0.996264)" xlink:href="#CMR17-48"/>
      </g>
     </g>
    </g>
    <g id="text_2">
     <!-- $\varepsilon_\mathrm{eq}$ -->
     <defs>
      <path d="M 13.90625 22.296875 
C 17.09375 21.015625 20.5 21.015625 22.40625 21.015625 
C 25 21.015625 30.203125 21.015625 30.203125 24.21875 
C 30.203125 26.21875 28.296875 27 23.203125 27 
C 20.703125 27 17.703125 26.703125 14.203125 25.203125 
C 11.09375 26.6875 9.90625 28.9375 9.90625 31.09375 
C 9.90625 37.171875 19.703125 40.71875 28.59375 40.71875 
C 30.296875 40.71875 33.90625 40.71875 38.09375 37.671875 
C 38.703125 37.296875 39 36.984375 39.703125 36.984375 
C 40.90625 36.984375 42.203125 38.265625 42.203125 39.46875 
C 42.203125 41.234375 36.40625 45 29.5 45 
C 18.296875 45 7.703125 38.265625 7.703125 30.8125 
C 7.703125 27.09375 10.09375 24.78125 11.796875 23.578125 
C 6 20.328125 2.59375 15.015625 2.59375 10.1875 
C 2.59375 3.421875 8.796875 -2 18.40625 -2 
C 31.59375 -2 36.90625 6.625 36.90625 8 
C 36.90625 8.484375 36.5 8.875 36 8.875 
C 35.5 8.875 35.296875 8.578125 34.90625 8 
C 33.796875 6.171875 31.203125 2.28125 19.296875 2.28125 
C 13.09375 2.28125 4.90625 3.828125 4.90625 10.71875 
C 4.90625 14.03125 7.40625 18.96875 13.90625 22.296875 
z
M 17 23.71875 
C 19.703125 25 22.296875 25 23 25 
C 25.796875 25 26.296875 24.734375 27.90625 24.140625 
C 26.203125 23 26 23 22.40625 23 
C 20.59375 23 19 23 17 23.71875 
z
" id="CMMI12-34"/>
      <path d="M 38.09375 23 
C 38.5 23.40625 38.5 23.609375 38.5 24.625 
C 38.5 34.96875 33.09375 44 21.703125 44 
C 11.09375 44 2.703125 33.890625 2.703125 21.609375 
C 2.703125 8.609375 12.203125 -1 22.796875 -1 
C 34 -1 38.40625 9.484375 38.40625 11.5625 
C 38.40625 12.25 37.796875 12.25 37.59375 12.25 
C 36.90625 12.25 36.796875 12.046875 36.40625 10.875 
C 34.203125 4.140625 28.703125 0.796875 23.5 0.796875 
C 19.203125 0.796875 14.90625 3.171875 12.203125 7.5 
C 9.09375 12.546875 9.09375 18.375 9.09375 23 
z
M 9.203125 24.5 
C 9.90625 39.140625 17.59375 42.40625 21.59375 42.40625 
C 28.40625 42.40625 33 35.890625 33.09375 24.5 
z
" id="CMR17-101"/>
      <path d="M 41.09375 43.78125 
L 39.5 43.78125 
L 36.5 33.9375 
C 34.203125 39.203125 30 43.78125 23.296875 43.78125 
C 13.09375 43.78125 3.296875 34.734375 3.296875 21.609375 
C 3.296875 8.5625 12.5 -0.59375 22.5 -0.59375 
C 30.203125 -0.59375 34.5 5.28125 35.796875 7.46875 
L 35.796875 -12.328125 
C 35.796875 -16.109375 35.40625 -16.609375 29 -16.609375 
L 29 -19.1875 
C 31.40625 -19 35.796875 -19 38.40625 -19 
C 41 -19 45.5 -19 47.90625 -19.1875 
L 47.90625 -16.609375 
C 41.5 -16.609375 41.09375 -16.203125 41.09375 -12.328125 
z
M 36 13.84375 
C 36 9.5625 32.40625 5.578125 32.09375 5.28125 
C 29 1.796875 25.40625 1 23 1 
C 15.5 1 9.703125 10.453125 9.703125 21.484375 
C 9.703125 33.140625 16.296875 42 24 42 
C 32 42 36 32.9375 36 27.765625 
z
" id="CMR17-113"/>
     </defs>
     <g transform="translate(293.293923 409.071936)scale(0.18 -0.18)">
      <use transform="translate(0 14.943915)scale(0.996264)" xlink:href="#CMMI12-34"/>
      <use transform="translate(45.650192 0)scale(0.697382)" xlink:href="#CMR17-101"/>
      <use transform="translate(73.990024 0)scale(0.697382)" xlink:href="#CMR17-113"/>
     </g>
    </g>
   </g>
   <g id="matplotlib.axis_2">
    <g id="ytick_1">
     <g id="line2d_2">
      <defs>
       <path d="M 0 0 
L -3.5 0 
" id="m20cf1005a8" style="stroke:#000000;stroke-width:0.8;"/>
      </defs>
      <g>
       <use style="stroke:#000000;stroke-width:0.8;" x="53.694668" xlink:href="#m20cf1005a8" y="356.458618"/>
      </g>
     </g>
     <g id="text_3">
      <!-- $0$ -->
      <g transform="translate(39.381364 361.645412)scale(0.14994 -0.14994)">
       <use transform="scale(0.996264)" xlink:href="#CMR17-48"/>
      </g>
     </g>
    </g>
    <g id="text_4">
     <!-- $\sigma_\mathrm{eq}$ -->
     <defs>
      <path d="M 50.796875 37.625 
C 52.09375 37.625 55.40625 37.625 55.40625 40.8125 
C 55.40625 43 53.5 43 51.703125 43 
L 29.59375 43 
C 14.59375 43 3.796875 26.34375 3.796875 14.5625 
C 3.796875 6.09375 9.296875 -1 18.296875 -1 
C 30.09375 -1 43 11.671875 43 26.640625 
C 43 30.53125 42.09375 34.3125 39.703125 37.625 
z
M 18.40625 1 
C 13.296875 1 9.59375 4.890625 9.59375 11.78125 
C 9.59375 17.765625 13.203125 37.625 27.90625 37.625 
C 32.203125 37.625 37 35.53125 37 27.828125 
C 37 24.34375 35.40625 15.953125 31.90625 10.1875 
C 28.296875 4.296875 22.90625 1 18.40625 1 
z
" id="CMMI12-27"/>
     </defs>
     <g transform="translate(31.8933 208.605213)rotate(-90)scale(0.18 -0.18)">
      <use transform="translate(0 14.943915)scale(0.996264)" xlink:href="#CMMI12-27"/>
      <use transform="translate(55.445461 0)scale(0.697382)" xlink:href="#CMR17-101"/>
      <use transform="translate(83.785292 0)scale(0.697382)" xlink:href="#CMR17-113"/>
     </g>
    </g>
   </g>
   <g id="line2d_3">
    <path clip-path="url(#pbfe98f4a82)" d="M 76.393092 356.458618 
L 81.591291 301.914673 
L 84.315238 275.704194 
L 86.517096 256.568162 
L 88.423859 241.852306 
L 90.103626 230.531624 
L 91.601797 221.864667 
L 92.963771 215.23779 
L 94.166847 210.425164 
L 95.256426 206.938798 
L 96.209807 204.584677 
L 97.049691 203.058069 
L 97.798777 202.133471 
L 98.434364 201.674043 
L 99.001853 201.51683 
L 99.546643 201.590693 
L 100.114132 201.901674 
L 100.72702 202.505214 
L 101.408007 203.500518 
L 102.179792 205.038964 
L 103.065074 207.335094 
L 104.041155 210.514872 
L 105.130734 214.84986 
L 106.35651 220.68722 
L 107.718484 228.316248 
L 109.216655 238.019097 
L 110.896422 250.405109 
L 112.803185 266.18964 
L 115.005042 286.35057 
L 117.70629 313.251675 
L 121.792211 356.434278 
L 121.883009 355.460793 
L 123.857871 335.476245 
L 124.90205 327.065619 
L 125.719234 322.155834 
L 126.354822 319.535718 
L 126.854212 318.27394 
L 127.240105 317.79716 
L 127.535199 317.729833 
L 127.807594 317.896941 
L 128.148087 318.413759 
L 128.556679 319.479117 
L 129.078769 321.525579 
L 129.714357 324.994606 
L 130.508841 330.681503 
L 131.530322 339.772326 
L 133.14199 356.428193 
L 133.232788 355.45471 
L 135.20765 335.471131 
L 136.25183 327.061656 
L 137.069014 322.153008 
L 137.704602 319.533878 
L 138.203992 318.272918 
L 138.589884 317.796782 
L 138.884979 317.729952 
L 139.157373 317.897519 
L 139.497867 318.414903 
L 139.906459 319.48093 
L 140.428549 321.528209 
L 141.064136 324.998156 
L 141.858621 330.686045 
L 142.880101 339.777817 
L 144.49177 356.422108 
L 144.582568 355.448525 
L 148.781986 311.614644 
L 151.006543 290.704694 
L 152.822508 275.645566 
L 154.366078 264.610211 
L 155.728052 256.411366 
L 156.908429 250.578078 
L 157.952608 246.461912 
L 158.860591 243.710867 
L 159.655075 241.951984 
L 160.336062 240.933655 
L 160.926251 240.419834 
L 161.425641 240.253745 
L 161.902332 240.325331 
L 162.401722 240.641259 
L 162.946511 241.266282 
L 163.582099 242.363134 
L 164.308485 244.096768 
L 165.125669 246.649742 
L 166.056351 250.316361 
L 167.12323 255.480011 
L 168.326307 262.472883 
L 169.68828 271.780458 
L 171.23185 283.934793 
L 173.047815 300.093948 
L 175.295072 322.222982 
L 178.541109 356.403853 
L 178.631907 355.430271 
L 182.831325 311.597803 
L 185.055882 290.689643 
L 186.871847 275.632449 
L 188.415417 264.599029 
L 189.77739 256.40208 
L 190.957767 250.570556 
L 192.001947 246.456025 
L 192.909929 243.706447 
L 193.704414 241.948872 
L 194.385401 240.931679 
L 194.975589 240.418849 
L 195.47498 240.2536 
L 195.95167 240.32599 
L 196.451061 240.642757 
L 196.99585 241.268692 
L 197.631438 242.366601 
L 198.357824 244.101427 
L 199.175008 246.655717 
L 200.10569 250.323794 
L 201.172569 255.489047 
L 202.375646 262.48362 
L 203.737619 271.792961 
L 205.281189 283.949057 
L 207.097154 300.109913 
L 209.34441 322.240427 
L 212.590447 356.385598 
L 212.681245 355.412006 
L 219.377615 284.796353 
L 222.941446 249.5746 
L 225.869689 222.751975 
L 228.43474 201.242588 
L 230.727395 183.846544 
L 232.793055 169.820082 
L 234.677118 158.500711 
L 236.402285 149.445012 
L 237.968554 142.357187 
L 239.398627 136.860788 
L 240.715201 132.644923 
L 241.895578 129.566602 
L 242.962457 127.362844 
L 243.938538 125.832615 
L 244.801122 124.869443 
L 245.572907 124.318469 
L 246.276593 124.072577 
L 246.95758 124.067798 
L 247.638567 124.292383 
L 248.342253 124.765178 
L 249.114038 125.564463 
L 249.953922 126.766811 
L 250.884604 128.501804 
L 251.928783 130.948385 
L 253.063761 134.20096 
L 254.312237 138.482086 
L 255.674211 143.976387 
L 257.172381 150.987829 
L 258.80675 159.754467 
L 260.577315 170.511375 
L 262.506778 183.642953 
L 264.640536 199.753794 
L 267.001291 219.339703 
L 269.657139 243.303823 
L 272.744279 273.266045 
L 276.625904 313.25256 
L 280.689125 356.349088 
L 280.757223 355.618893 
L 287.476293 284.761623 
L 291.040124 249.542181 
L 293.968367 222.722113 
L 296.533417 201.215415 
L 298.826072 183.822097 
L 300.891732 169.798326 
L 302.775796 158.481583 
L 304.500962 149.428418 
L 306.067232 142.342983 
L 307.497304 136.848833 
L 308.813878 132.635084 
L 309.994256 129.558691 
L 311.061135 127.356696 
L 312.037216 125.828094 
L 312.899799 124.866367 
L 313.671584 124.316689 
L 314.37527 124.071982 
L 315.056257 124.06835 
L 315.737244 124.294082 
L 316.44093 124.768059 
L 317.212715 125.568638 
L 318.052599 126.772388 
L 318.983281 128.508925 
L 320.027461 130.957223 
L 321.162439 134.211639 
L 322.410914 138.494758 
L 323.772888 143.991183 
L 325.271059 151.004895 
L 326.905427 159.773916 
L 328.675993 170.533281 
L 330.605455 183.667368 
L 332.739214 199.780759 
L 335.099968 219.369183 
L 337.755816 243.335715 
L 340.842956 273.300136 
L 344.724581 313.288434 
L 348.765103 356.361258 
L 348.833201 355.825781 
L 357.14124 267.929966 
L 361.544954 223.724902 
L 365.176884 189.429288 
L 368.354822 161.460953 
L 371.214967 138.197753 
L 373.825416 118.734899 
L 376.231569 102.425908 
L 378.456126 88.835784 
L 380.499086 77.682184 
L 382.405849 68.466985 
L 384.176415 60.977311 
L 385.810783 54.999854 
L 387.308954 50.326033 
L 388.693627 46.702193 
L 389.964802 43.97097 
L 391.12248 41.984066 
L 392.189359 40.578147 
L 393.142741 39.668376 
L 394.028024 39.117358 
L 394.845208 38.860258 
L 395.639692 38.841996 
L 396.434177 39.052184 
L 397.251361 39.506549 
L 398.113944 40.2478 
L 399.044626 41.348226 
L 400.066106 42.913962 
L 401.178385 45.04276 
L 402.381461 47.839441 
L 403.698036 51.483027 
L 405.128108 56.122892 
L 406.671678 61.915965 
L 408.328746 69.024416 
L 410.122011 77.729444 
L 412.051474 88.235033 
L 414.117133 100.741723 
L 416.36439 115.757343 
L 418.793243 133.540463 
L 421.426391 154.507364 
L 424.331935 179.486803 
L 427.555272 209.178028 
L 431.278 245.613494 
L 435.817912 292.353806 
L 441.833295 356.411155 
L 441.924093 355.532486 
L 450.209432 267.882048 
L 454.613147 223.679573 
L 458.245076 189.386849 
L 461.423015 161.421568 
L 464.283159 138.161504 
L 466.893608 118.701808 
L 469.299762 102.395957 
L 471.524319 88.808911 
L 473.567279 77.658273 
L 475.474042 68.44594 
L 477.244607 60.959007 
L 478.878976 54.984137 
L 480.377147 50.31273 
L 481.76182 46.691151 
L 483.032995 43.962026 
L 484.190673 41.977047 
L 485.257552 40.572911 
L 486.210933 39.664739 
L 487.096216 39.11521 
L 487.9134 38.859486 
L 488.707885 38.842562 
L 489.502369 39.054088 
L 490.319553 39.509827 
L 491.182137 40.252527 
L 492.112819 41.354511 
L 493.134299 42.921949 
L 494.246577 45.052591 
L 495.449654 47.85125 
L 496.766228 51.496978 
L 498.196301 56.139139 
L 499.739871 61.934646 
L 501.396938 69.045655 
L 503.190204 77.753376 
L 505.119666 88.261763 
L 507.185326 100.771325 
L 509.432582 115.789903 
L 511.861435 133.57601 
L 514.494584 154.54588 
L 517.400128 179.52824 
L 520.623465 209.222239 
L 524.346193 245.660256 
L 528.886104 292.402676 
L 530.361576 307.971591 
L 530.361576 307.971591 
" style="fill:none;stroke:#000000;stroke-linecap:square;stroke-width:2;"/>
   </g>
   <g id="patch_3">
    <path d="M 53.694668 372.340456 
L 53.694668 22.94 
" style="fill:none;stroke:#000000;stroke-linecap:square;stroke-linejoin:miter;stroke-width:0.8;"/>
   </g>
   <g id="patch_4">
    <path d="M 53.694668 372.340456 
L 553.06 372.340456 
" style="fill:none;stroke:#000000;stroke-linecap:square;stroke-linejoin:miter;stroke-width:0.8;"/>
   </g>
  </g>
 </g>
 <defs>
  <clipPath id="pbfe98f4a82">
   <rect height="349.400456" width="499.365332" x="53.694668" y="22.94"/>
  </clipPath>
 </defs>
</svg>
