<?xml version="1.0" encoding="utf-8" standalone="no"?>
<!DOCTYPE svg PUBLIC "-//W3C//DTD SVG 1.1//EN"
  "http://www.w3.org/Graphics/SVG/1.1/DTD/svg11.dtd">
<!-- Created with matplotlib (http://matplotlib.org/) -->
<svg height="432pt" version="1.1" viewBox="0 0 576 432" width="576pt" xmlns="http://www.w3.org/2000/svg" xmlns:xlink="http://www.w3.org/1999/xlink">
 <defs>
  <style type="text/css">
*{stroke-linecap:butt;stroke-linejoin:round;}
  </style>
 </defs>
 <g id="figure_1">
  <g id="patch_1">
   <path d="M 0 432 
L 576 432 
L 576 0 
L 0 0 
z
" style="fill:none;"/>
  </g>
  <g id="axes_1">
   <g id="patch_2">
    <path d="M 65.313132 370.680665 
L 553.06 370.680665 
L 553.06 22.94 
L 65.313132 22.94 
z
" style="fill:none;"/>
   </g>
   <g id="matplotlib.axis_1">
    <g id="xtick_1">
     <g id="line2d_1">
      <defs>
       <path d="M 0 0 
L 0 3.5 
" id="m8c5f365284" style="stroke:#000000;stroke-width:0.8;"/>
      </defs>
      <g>
       <use style="stroke:#000000;stroke-width:0.8;" x="87.483444" xlink:href="#m8c5f365284" y="370.680665"/>
      </g>
     </g>
     <g id="line2d_2">
      <defs>
       <path d="M 0 0 
L 0 -3.5 
" id="mf3d9b8ef74" style="stroke:#000000;stroke-width:0.8;"/>
      </defs>
      <g>
       <use style="stroke:#000000;stroke-width:0.8;" x="87.483444" xlink:href="#mf3d9b8ef74" y="22.94"/>
      </g>
     </g>
     <g id="text_1">
      <!-- $-\pi/2$ -->
      <defs>
       <path d="M 65.90625 23 
C 67.59375 23 69.40625 23 69.40625 25 
C 69.40625 27 67.59375 27 65.90625 27 
L 11.796875 27 
C 10.09375 27 8.296875 27 8.296875 25 
C 8.296875 23 10.09375 23 11.796875 23 
z
" id="CMSY10-0"/>
       <path d="M 25.90625 37.625 
L 37.203125 37.625 
C 34.5 26.4375 32.796875 19.15625 32.796875 11.1875 
C 32.796875 9.78125 32.796875 -1 36.90625 -1 
C 39 -1 40.796875 0.890625 40.796875 2.59375 
C 40.796875 3.078125 40.796875 3.28125 40.09375 4.78125 
C 37.40625 11.671875 37.40625 20.25 37.40625 20.953125 
C 37.40625 21.546875 37.40625 28.625 39.5 37.625 
L 50.703125 37.625 
C 52 37.625 55.296875 37.625 55.296875 40.8125 
C 55.296875 43 53.40625 43 51.59375 43 
L 18.703125 43 
C 16.40625 43 13 43 8.40625 38.125 
C 5.796875 35.21875 2.59375 29.9375 2.59375 29.34375 
C 2.59375 28.75 3.09375 28.546875 3.703125 28.546875 
C 4.40625 28.546875 4.5 28.84375 5 29.4375 
C 10.203125 37.625 15.40625 37.625 17.90625 37.625 
L 23.59375 37.625 
C 21.40625 30.140625 18.90625 21.453125 10.703125 4 
C 9.90625 2.40625 9.90625 2.1875 9.90625 1.59375 
C 9.90625 -0.5 11.703125 -1 12.59375 -1 
C 15.5 -1 16.296875 1.59375 17.5 5.78125 
C 19.09375 10.875 19.09375 11.078125 20.09375 15.0625 
z
" id="CMMI12-25"/>
       <path d="M 42.90625 71.28125 
C 42.90625 71.390625 43.5 72.90625 43.5 73.09375 
C 43.5 74.296875 42.5 75 41.703125 75 
C 41.203125 75 40.296875 75 39.5 72.796875 
L 6 -21.296875 
C 6 -21.40625 5.40625 -22.890625 5.40625 -23.09375 
C 5.40625 -24.296875 6.40625 -25 7.203125 -25 
C 7.796875 -25 8.703125 -24.890625 9.40625 -22.796875 
z
" id="CMMI12-61"/>
       <path d="M 41.703125 15.453125 
L 39.90625 15.453125 
C 38.90625 8.375 38.09375 7.171875 37.703125 6.5625 
C 37.203125 5.765625 30 5.765625 28.59375 5.765625 
L 9.40625 5.765625 
C 13 9.671875 20 16.75 28.5 24.953125 
C 34.59375 30.734375 41.703125 37.53125 41.703125 47.421875 
C 41.703125 59.21875 32.296875 66 21.796875 66 
C 10.796875 66 4.09375 56.3125 4.09375 47.34375 
C 4.09375 43.4375 7 42.9375 8.203125 42.9375 
C 9.203125 42.9375 12.203125 43.546875 12.203125 47.03125 
C 12.203125 50.109375 9.59375 51 8.203125 51 
C 7.59375 51 7 50.90625 6.59375 50.703125 
C 8.5 59.21875 14.296875 63.40625 20.40625 63.40625 
C 29.09375 63.40625 34.796875 56.515625 34.796875 47.421875 
C 34.796875 38.734375 29.703125 31.25 24 24.75 
L 4.09375 2.28125 
L 4.09375 0 
L 39.296875 0 
z
" id="CMR17-50"/>
      </defs>
      <g transform="translate(69.944388 388.884151)scale(0.14994 -0.14994)">
       <use transform="scale(0.996264)" xlink:href="#CMSY10-0"/>
       <use transform="translate(77.487468 0)scale(0.996264)" xlink:href="#CMMI12-25"/>
       <use transform="translate(136.398068 0)scale(0.996264)" xlink:href="#CMMI12-61"/>
       <use transform="translate(185.172987 0)scale(0.996264)" xlink:href="#CMR17-50"/>
      </g>
     </g>
    </g>
    <g id="xtick_2">
     <g id="line2d_3">
      <g>
       <use style="stroke:#000000;stroke-width:0.8;" x="198.335005" xlink:href="#m8c5f365284" y="370.680665"/>
      </g>
     </g>
     <g id="line2d_4">
      <g>
       <use style="stroke:#000000;stroke-width:0.8;" x="198.335005" xlink:href="#mf3d9b8ef74" y="22.94"/>
      </g>
     </g>
     <g id="text_2">
      <!-- $-\pi/4$ -->
      <defs>
       <path d="M 33.59375 64.40625 
C 33.59375 66.5 33.5 66.5 31.703125 66.5 
L 2 19.59375 
L 2 17 
L 27.796875 17 
L 27.796875 7.140625 
C 27.796875 3.5 27.59375 2.5 20.59375 2.5 
L 18.703125 2.5 
L 18.703125 0 
C 21.90625 0 27.296875 0 30.703125 0 
C 34.09375 0 39.5 0 42.703125 0 
L 42.703125 2.5 
L 40.796875 2.5 
C 33.796875 2.5 33.59375 3.5 33.59375 7.140625 
L 33.59375 17 
L 43.796875 17 
L 43.796875 19.59375 
L 33.59375 19.59375 
z
M 28.09375 57.859375 
L 28.09375 19.59375 
L 4 19.59375 
z
" id="CMR17-52"/>
      </defs>
      <g transform="translate(180.795949 388.884151)scale(0.14994 -0.14994)">
       <use transform="scale(0.996264)" xlink:href="#CMSY10-0"/>
       <use transform="translate(77.487468 0)scale(0.996264)" xlink:href="#CMMI12-25"/>
       <use transform="translate(136.398068 0)scale(0.996264)" xlink:href="#CMMI12-61"/>
       <use transform="translate(185.172987 0)scale(0.996264)" xlink:href="#CMR17-52"/>
      </g>
     </g>
    </g>
    <g id="xtick_3">
     <g id="line2d_5">
      <g>
       <use style="stroke:#000000;stroke-width:0.8;" x="309.186566" xlink:href="#m8c5f365284" y="370.680665"/>
      </g>
     </g>
     <g id="line2d_6">
      <g>
       <use style="stroke:#000000;stroke-width:0.8;" x="309.186566" xlink:href="#mf3d9b8ef74" y="22.94"/>
      </g>
     </g>
     <g id="text_3">
      <!-- $0$ -->
      <defs>
       <path d="M 42 31.640625 
C 42 37.75 41.90625 48.125 37.703125 56.109375 
C 34 63.109375 28.09375 65.59375 22.90625 65.59375 
C 18.09375 65.59375 12 63.40625 8.203125 56.203125 
C 4.203125 48.71875 3.796875 39.4375 3.796875 31.640625 
C 3.796875 25.953125 3.90625 17.28125 7 9.671875 
C 11.296875 -0.609375 19 -2 22.90625 -2 
C 27.5 -2 34.5 -0.109375 38.59375 9.375 
C 41.59375 16.28125 42 24.359375 42 31.640625 
z
M 22.90625 -0.40625 
C 16.5 -0.40625 12.703125 5.078125 11.296875 12.6875 
C 10.203125 18.5625 10.203125 27.15625 10.203125 32.75 
C 10.203125 40.4375 10.203125 46.828125 11.5 52.921875 
C 13.40625 61.390625 19 64 22.90625 64 
C 27 64 32.296875 61.296875 34.203125 53.125 
C 35.5 47.4375 35.59375 40.734375 35.59375 32.75 
C 35.59375 26.25 35.59375 18.265625 34.40625 12.375 
C 32.296875 1.484375 26.40625 -0.40625 22.90625 -0.40625 
z
" id="CMR17-48"/>
      </defs>
      <g transform="translate(305.529914 388.054255)scale(0.14994 -0.14994)">
       <use transform="scale(0.996264)" xlink:href="#CMR17-48"/>
      </g>
     </g>
    </g>
    <g id="xtick_4">
     <g id="line2d_7">
      <g>
       <use style="stroke:#000000;stroke-width:0.8;" x="420.038127" xlink:href="#m8c5f365284" y="370.680665"/>
      </g>
     </g>
     <g id="line2d_8">
      <g>
       <use style="stroke:#000000;stroke-width:0.8;" x="420.038127" xlink:href="#mf3d9b8ef74" y="22.94"/>
      </g>
     </g>
     <g id="text_4">
      <!-- $\pi/4$ -->
      <g transform="translate(408.308302 388.884151)scale(0.14994 -0.14994)">
       <use transform="scale(0.996264)" xlink:href="#CMMI12-25"/>
       <use transform="translate(58.910601 0)scale(0.996264)" xlink:href="#CMMI12-61"/>
       <use transform="translate(107.68552 0)scale(0.996264)" xlink:href="#CMR17-52"/>
      </g>
     </g>
    </g>
    <g id="xtick_5">
     <g id="line2d_9">
      <g>
       <use style="stroke:#000000;stroke-width:0.8;" x="530.889688" xlink:href="#m8c5f365284" y="370.680665"/>
      </g>
     </g>
     <g id="line2d_10">
      <g>
       <use style="stroke:#000000;stroke-width:0.8;" x="530.889688" xlink:href="#mf3d9b8ef74" y="22.94"/>
      </g>
     </g>
     <g id="text_5">
      <!-- $\pi/2$ -->
      <g transform="translate(519.159863 388.884151)scale(0.14994 -0.14994)">
       <use transform="scale(0.996264)" xlink:href="#CMMI12-25"/>
       <use transform="translate(58.910601 0)scale(0.996264)" xlink:href="#CMMI12-61"/>
       <use transform="translate(107.68552 0)scale(0.996264)" xlink:href="#CMR17-50"/>
      </g>
     </g>
    </g>
    <g id="text_6">
     <!-- $\theta$ -->
     <defs>
      <path d="M 44.296875 50 
C 44.296875 60.15625 41.09375 70 32.90625 70 
C 18.90625 70 4 40.859375 4 19 
C 4 14.421875 5 -1 15.5 -1 
C 29.09375 -1 44.296875 27.4375 44.296875 50 
z
M 14 36 
C 15.5 41.859375 17.59375 50.21875 21.59375 57.265625 
C 24.90625 63.234375 28.40625 68 32.796875 68 
C 36.09375 68 38.296875 65.21875 38.296875 55.6875 
C 38.296875 52.09375 38 47.140625 35.09375 36 
z
M 34.40625 33.015625 
C 31.90625 23.28125 29.796875 17 26.203125 10.734375 
C 23.296875 5.671875 19.796875 1 15.59375 1 
C 12.5 1 10 3.390625 10 13.21875 
C 10 19.6875 11.59375 26.453125 13.203125 33.015625 
z
" id="CMMI12-18"/>
     </defs>
     <g transform="translate(305.095189 409.071936)scale(0.18 -0.18)">
      <use transform="scale(0.996264)" xlink:href="#CMMI12-18"/>
     </g>
    </g>
   </g>
   <g id="matplotlib.axis_2">
    <g id="ytick_1">
     <g id="line2d_11">
      <defs>
       <path d="M 0 0 
L -3.5 0 
" id="m769970b4aa" style="stroke:#000000;stroke-width:0.8;"/>
      </defs>
      <g>
       <use style="stroke:#000000;stroke-width:0.8;" x="65.313132" xlink:href="#m769970b4aa" y="354.874271"/>
      </g>
     </g>
     <g id="line2d_12">
      <defs>
       <path d="M 0 0 
L 3.5 0 
" id="m09eb01fce2" style="stroke:#000000;stroke-width:0.8;"/>
      </defs>
      <g>
       <use style="stroke:#000000;stroke-width:0.8;" x="553.06" xlink:href="#m09eb01fce2" y="354.874271"/>
      </g>
     </g>
     <g id="text_7">
      <!-- $-1$ -->
      <defs>
       <path d="M 26.59375 63.40625 
C 26.59375 65.5 26.5 65.5 25.09375 65.5 
C 21.203125 61.1875 15.296875 59.796875 9.703125 59.796875 
C 9.40625 59.796875 8.90625 59.796875 8.796875 59.5 
C 8.703125 59.296875 8.703125 59.09375 8.703125 57 
C 11.796875 57 17 57.59375 21 59.984375 
L 21 7.203125 
C 21 3.6875 20.796875 2.5 12.203125 2.5 
L 9.203125 2.5 
L 9.203125 0 
C 14 0 19 0 23.796875 0 
C 28.59375 0 33.59375 0 38.40625 0 
L 38.40625 2.5 
L 35.40625 2.5 
C 26.796875 2.5 26.59375 3.59375 26.59375 7.15625 
z
" id="CMR17-49"/>
      </defs>
      <g transform="translate(39.381364 360.061066)scale(0.14994 -0.14994)">
       <use transform="scale(0.996264)" xlink:href="#CMSY10-0"/>
       <use transform="translate(77.487468 0)scale(0.996264)" xlink:href="#CMR17-49"/>
      </g>
     </g>
    </g>
    <g id="ytick_2">
     <g id="line2d_13">
      <g>
       <use style="stroke:#000000;stroke-width:0.8;" x="65.313132" xlink:href="#m769970b4aa" y="196.810333"/>
      </g>
     </g>
     <g id="line2d_14">
      <g>
       <use style="stroke:#000000;stroke-width:0.8;" x="553.06" xlink:href="#m09eb01fce2" y="196.810333"/>
      </g>
     </g>
     <g id="text_8">
      <!-- $0$ -->
      <g transform="translate(50.999828 201.997127)scale(0.14994 -0.14994)">
       <use transform="scale(0.996264)" xlink:href="#CMR17-48"/>
      </g>
     </g>
    </g>
    <g id="ytick_3">
     <g id="line2d_15">
      <g>
       <use style="stroke:#000000;stroke-width:0.8;" x="65.313132" xlink:href="#m769970b4aa" y="38.746394"/>
      </g>
     </g>
     <g id="line2d_16">
      <g>
       <use style="stroke:#000000;stroke-width:0.8;" x="553.06" xlink:href="#m09eb01fce2" y="38.746394"/>
      </g>
     </g>
     <g id="text_9">
      <!-- $1$ -->
      <g transform="translate(50.999828 43.933189)scale(0.14994 -0.14994)">
       <use transform="scale(0.996264)" xlink:href="#CMR17-49"/>
      </g>
     </g>
    </g>
    <g id="text_10">
     <!-- $\varepsilon$ -->
     <defs>
      <path d="M 13.90625 22.296875 
C 17.09375 21.015625 20.5 21.015625 22.40625 21.015625 
C 25 21.015625 30.203125 21.015625 30.203125 24.21875 
C 30.203125 26.21875 28.296875 27 23.203125 27 
C 20.703125 27 17.703125 26.703125 14.203125 25.203125 
C 11.09375 26.6875 9.90625 28.9375 9.90625 31.09375 
C 9.90625 37.171875 19.703125 40.71875 28.59375 40.71875 
C 30.296875 40.71875 33.90625 40.71875 38.09375 37.671875 
C 38.703125 37.296875 39 36.984375 39.703125 36.984375 
C 40.90625 36.984375 42.203125 38.265625 42.203125 39.46875 
C 42.203125 41.234375 36.40625 45 29.5 45 
C 18.296875 45 7.703125 38.265625 7.703125 30.8125 
C 7.703125 27.09375 10.09375 24.78125 11.796875 23.578125 
C 6 20.328125 2.59375 15.015625 2.59375 10.1875 
C 2.59375 3.421875 8.796875 -2 18.40625 -2 
C 31.59375 -2 36.90625 6.625 36.90625 8 
C 36.90625 8.484375 36.5 8.875 36 8.875 
C 35.5 8.875 35.296875 8.578125 34.90625 8 
C 33.796875 6.171875 31.203125 2.28125 19.296875 2.28125 
C 13.09375 2.28125 4.90625 3.828125 4.90625 10.71875 
C 4.90625 14.03125 7.40625 18.96875 13.90625 22.296875 
z
M 17 23.71875 
C 19.703125 25 22.296875 25 23 25 
C 25.796875 25 26.296875 24.734375 27.90625 24.140625 
C 26.203125 23 26 23 22.40625 23 
C 20.59375 23 19 23 17 23.71875 
z
" id="CMMI12-34"/>
     </defs>
     <g transform="translate(31.8933 200.91885)rotate(-90)scale(0.18 -0.18)">
      <use transform="scale(0.996264)" xlink:href="#CMMI12-34"/>
     </g>
    </g>
   </g>
   <g id="line2d_17">
    <path clip-path="url(#p50659b57aa)" d="M 87.483444 38.746394 
L 530.889688 38.746394 
L 530.889688 38.746394 
" style="fill:none;stroke:#000000;stroke-linecap:square;stroke-width:2;"/>
   </g>
   <g id="line2d_18">
    <path clip-path="url(#p50659b57aa)" d="M 87.483444 354.874271 
L 90.258202 354.752104 
L 93.032959 354.385793 
L 95.807717 353.775903 
L 98.582474 352.923378 
L 101.357232 351.829534 
L 104.131989 350.496064 
L 106.906746 348.925028 
L 109.681504 347.118855 
L 112.456261 345.080336 
L 115.78597 342.33188 
L 119.115679 339.25952 
L 122.445388 335.870096 
L 125.775097 332.171151 
L 129.104806 328.170918 
L 132.989467 323.135101 
L 136.874127 317.7166 
L 140.758788 311.931828 
L 145.1984 304.894695 
L 149.638012 297.429935 
L 154.632575 288.557766 
L 159.627138 279.226226 
L 165.176653 268.375977 
L 171.28112 255.932478 
L 177.940538 241.856834 
L 186.26481 223.713636 
L 199.028694 195.256626 
L 213.457433 163.197624 
L 221.781706 145.255084 
L 228.441124 131.405272 
L 234.54559 119.217957 
L 240.095105 108.639767 
L 245.089668 99.583544 
L 250.084232 91.014126 
L 254.523844 83.840288 
L 258.963456 77.113406 
L 262.848116 71.614998 
L 266.732777 66.495852 
L 270.617437 61.771478 
L 273.947146 58.047102 
L 277.276855 54.631586 
L 280.606564 51.532534 
L 283.936273 48.756842 
L 287.265982 46.310689 
L 290.040739 44.527909 
L 292.815497 42.980527 
L 295.590254 41.670932 
L 298.365012 40.601151 
L 301.139769 39.772836 
L 303.914527 39.187268 
L 306.689284 38.845351 
L 309.464042 38.747616 
L 312.238799 38.894212 
L 315.013557 39.284913 
L 317.788314 39.919115 
L 320.563072 40.795837 
L 323.337829 41.913726 
L 326.112587 43.271051 
L 328.887344 44.865717 
L 331.662102 46.695256 
L 334.436859 48.756842 
L 337.766568 51.532534 
L 341.096277 54.631586 
L 344.425986 58.047102 
L 347.755695 61.771478 
L 351.085404 65.796425 
L 354.970064 70.860097 
L 358.854725 76.305318 
L 362.739385 82.115594 
L 367.178997 89.180287 
L 371.618609 96.670811 
L 376.613173 105.569688 
L 381.607736 114.925399 
L 387.157251 125.799381 
L 393.261717 138.265023 
L 400.476087 153.554082 
L 408.800359 171.74613 
L 422.674147 202.713138 
L 435.438031 231.030058 
L 443.762303 248.952686 
L 450.421721 262.780676 
L 456.526188 274.943564 
L 462.075703 285.496032 
L 467.070266 294.526378 
L 471.509878 302.143972 
L 475.94949 309.344821 
L 480.389102 316.100436 
L 484.273762 321.625311 
L 488.158423 326.772074 
L 492.043083 331.525136 
L 495.372792 335.274885 
L 498.702501 338.716439 
L 502.03221 341.842137 
L 505.361919 344.645022 
L 508.691628 347.118855 
L 511.466386 348.925028 
L 514.241143 350.496064 
L 517.0159 351.829534 
L 519.790658 352.923378 
L 522.565415 353.775903 
L 525.340173 354.385793 
L 528.11493 354.752104 
L 530.889688 354.874271 
L 530.889688 354.874271 
" style="fill:none;stroke:#ff0000;stroke-linecap:square;stroke-width:2;"/>
   </g>
   <g id="line2d_19">
    <path clip-path="url(#p50659b57aa)" d="M 87.483444 196.810333 
L 102.467135 163.501327 
L 110.791407 145.548936 
L 117.450825 131.688293 
L 123.555291 119.488835 
L 129.104806 108.897846 
L 134.09937 99.828737 
L 139.093933 91.245206 
L 143.533545 84.057848 
L 147.973157 77.316587 
L 151.857817 71.804934 
L 155.742478 66.67197 
L 159.627138 61.933243 
L 162.956847 58.196173 
L 166.286556 54.767631 
L 169.616265 51.65525 
L 172.945974 48.865957 
L 176.275683 46.405959 
L 179.050441 44.611479 
L 181.825198 43.052267 
L 184.599956 41.730732 
L 187.374713 40.648917 
L 190.149471 39.808495 
L 192.924228 39.210765 
L 195.698985 38.856651 
L 198.473743 38.746699 
L 201.2485 38.881081 
L 204.023258 39.259588 
L 206.798015 39.881635 
L 209.572773 40.746261 
L 212.34753 41.852129 
L 215.122288 43.197529 
L 217.897045 44.780383 
L 220.671803 46.598243 
L 223.44656 48.648299 
L 226.776269 51.410378 
L 230.105978 54.496091 
L 233.435687 57.898567 
L 236.765396 61.610235 
L 240.095105 65.622832 
L 243.979765 70.672586 
L 247.864426 76.104459 
L 251.749086 81.901994 
L 256.188698 88.95292 
L 260.62831 96.430577 
L 265.622874 105.316117 
L 270.617437 114.659761 
L 276.166952 125.521897 
L 282.271419 137.976491 
L 288.930836 152.061778 
L 297.255109 170.213293 
L 310.018993 198.674767 
L 324.447732 230.726615 
L 332.772004 248.659234 
L 339.431422 262.498161 
L 345.535889 274.673287 
L 351.085404 285.238635 
L 356.079967 294.281938 
L 361.074531 302.837209 
L 365.514143 309.997501 
L 369.953755 316.709977 
L 373.838415 322.19512 
L 377.723076 327.300427 
L 381.607736 332.01043 
L 384.937445 335.722098 
L 388.267154 339.124574 
L 391.596863 342.210287 
L 394.926572 344.972366 
L 398.256281 347.404665 
L 401.031038 349.175737 
L 403.805796 350.711284 
L 406.580553 352.008933 
L 409.355311 353.066677 
L 412.130068 353.882882 
L 414.904826 354.456286 
L 417.679583 354.786003 
L 420.454341 354.871522 
L 423.229098 354.712712 
L 426.003855 354.309819 
L 428.778613 353.663464 
L 431.55337 352.774648 
L 434.328128 351.644744 
L 437.102885 350.275498 
L 439.877643 348.669028 
L 442.6524 346.827816 
L 445.427158 344.754709 
L 448.756867 341.965415 
L 452.086576 338.853034 
L 455.416285 335.424492 
L 458.745994 331.687422 
L 462.075703 327.650141 
L 465.960363 322.572572 
L 469.845023 317.114022 
L 473.729684 311.291027 
L 478.169296 304.212594 
L 482.608908 296.709233 
L 487.603471 287.797053 
L 492.598035 278.429311 
L 498.14755 267.543525 
L 504.252016 255.066885 
L 511.466386 239.767615 
L 519.790658 221.567672 
L 530.889688 196.810333 
L 530.889688 196.810333 
" style="fill:none;stroke:#008000;stroke-linecap:square;stroke-width:2;"/>
   </g>
   <g id="patch_3">
    <path d="M 65.313132 370.680665 
L 65.313132 22.94 
" style="fill:none;stroke:#000000;stroke-linecap:square;stroke-linejoin:miter;stroke-width:0.8;"/>
   </g>
   <g id="patch_4">
    <path d="M 553.06 370.680665 
L 553.06 22.94 
" style="fill:none;stroke:#000000;stroke-linecap:square;stroke-linejoin:miter;stroke-width:0.8;"/>
   </g>
   <g id="patch_5">
    <path d="M 65.313132 370.680665 
L 553.06 370.680665 
" style="fill:none;stroke:#000000;stroke-linecap:square;stroke-linejoin:miter;stroke-width:0.8;"/>
   </g>
   <g id="patch_6">
    <path d="M 65.313132 22.94 
L 553.06 22.94 
" style="fill:none;stroke:#000000;stroke-linecap:square;stroke-linejoin:miter;stroke-width:0.8;"/>
   </g>
   <g id="legend_1">
    <g id="patch_7">
     <path d="M 275.703155 361.680665 
L 342.669977 361.680665 
Q 346.269977 361.680665 346.269977 358.080665 
L 346.269977 284.616473 
Q 346.269977 281.016473 342.669977 281.016473 
L 275.703155 281.016473 
Q 272.103155 281.016473 272.103155 284.616473 
L 272.103155 358.080665 
Q 272.103155 361.680665 275.703155 361.680665 
z
" style="fill:none;opacity:0.8;stroke:#cccccc;stroke-linejoin:miter;"/>
    </g>
    <g id="line2d_20">
     <path d="M 279.303155 294.516473 
L 315.303155 294.516473 
" style="fill:none;stroke:#000000;stroke-linecap:square;stroke-width:2;"/>
    </g>
    <g id="line2d_21"/>
    <g id="text_11">
     <!-- $\varepsilon_\mathrm{eq}$ -->
     <defs>
      <path d="M 38.09375 23 
C 38.5 23.40625 38.5 23.609375 38.5 24.625 
C 38.5 34.96875 33.09375 44 21.703125 44 
C 11.09375 44 2.703125 33.890625 2.703125 21.609375 
C 2.703125 8.609375 12.203125 -1 22.796875 -1 
C 34 -1 38.40625 9.484375 38.40625 11.5625 
C 38.40625 12.25 37.796875 12.25 37.59375 12.25 
C 36.90625 12.25 36.796875 12.046875 36.40625 10.875 
C 34.203125 4.140625 28.703125 0.796875 23.5 0.796875 
C 19.203125 0.796875 14.90625 3.171875 12.203125 7.5 
C 9.09375 12.546875 9.09375 18.375 9.09375 23 
z
M 9.203125 24.5 
C 9.90625 39.140625 17.59375 42.40625 21.59375 42.40625 
C 28.40625 42.40625 33 35.890625 33.09375 24.5 
z
" id="CMR17-101"/>
      <path d="M 41.09375 43.78125 
L 39.5 43.78125 
L 36.5 33.9375 
C 34.203125 39.203125 30 43.78125 23.296875 43.78125 
C 13.09375 43.78125 3.296875 34.734375 3.296875 21.609375 
C 3.296875 8.5625 12.5 -0.59375 22.5 -0.59375 
C 30.203125 -0.59375 34.5 5.28125 35.796875 7.46875 
L 35.796875 -12.328125 
C 35.796875 -16.109375 35.40625 -16.609375 29 -16.609375 
L 29 -19.1875 
C 31.40625 -19 35.796875 -19 38.40625 -19 
C 41 -19 45.5 -19 47.90625 -19.1875 
L 47.90625 -16.609375 
C 41.5 -16.609375 41.09375 -16.203125 41.09375 -12.328125 
z
M 36 13.84375 
C 36 9.5625 32.40625 5.578125 32.09375 5.28125 
C 29 1.796875 25.40625 1 23 1 
C 15.5 1 9.703125 10.453125 9.703125 21.484375 
C 9.703125 33.140625 16.296875 42 24 42 
C 32 42 36 32.9375 36 27.765625 
z
" id="CMR17-113"/>
     </defs>
     <g transform="translate(318.903155 300.816473)scale(0.18 -0.18)">
      <use transform="translate(0 14.943915)scale(0.996264)" xlink:href="#CMMI12-34"/>
      <use transform="translate(45.650192 0)scale(0.697382)" xlink:href="#CMR17-101"/>
      <use transform="translate(73.990024 0)scale(0.697382)" xlink:href="#CMR17-113"/>
     </g>
    </g>
    <g id="line2d_22">
     <path d="M 279.303155 319.604537 
L 315.303155 319.604537 
" style="fill:none;stroke:#ff0000;stroke-linecap:square;stroke-width:2;"/>
    </g>
    <g id="line2d_23"/>
    <g id="text_12">
     <!-- $\varepsilon_\mathrm{ss}$ -->
     <defs>
      <path d="M 30.90625 42.140625 
C 30.90625 43.953125 30.796875 44.046875 30.203125 44.046875 
C 29.796875 44.046875 29.703125 43.953125 28.5 42.453125 
C 28.203125 42.046875 27.296875 41.03125 27 40.640625 
C 23.796875 44.046875 19.296875 44.046875 17.59375 44.046875 
C 6.5 44.046875 2.5 38.234375 2.5 32.4375 
C 2.5 23.40625 12.703125 21.328125 15.59375 20.703125 
C 21.90625 19.421875 24.09375 19.015625 26.203125 17.203125 
C 27.5 16.015625 29.703125 13.8125 29.703125 10.21875 
C 29.703125 6 27.296875 0.59375 18.09375 0.59375 
C 9.40625 0.59375 6.296875 7.1875 4.5 15.953125 
C 4.203125 17.34375 4.203125 17.453125 3.40625 17.453125 
C 2.59375 17.453125 2.5 17.34375 2.5 15.359375 
L 2.5 0.984375 
C 2.5 -0.796875 2.59375 -0.90625 3.203125 -0.90625 
C 3.703125 -0.90625 3.796875 -0.796875 4.296875 0 
C 4.90625 0.890625 6.40625 3.296875 7 4.3125 
C 9 1.609375 12.5 -1 18.09375 -1 
C 28 -1 33.296875 4.421875 33.296875 12.25 
C 33.296875 17.375 30.59375 20.078125 29.296875 21.28125 
C 26.296875 24.390625 22.796875 25.09375 18.59375 25.890625 
C 13.09375 27.109375 6.09375 28.515625 6.09375 34.640625 
C 6.09375 37.234375 7.5 42.765625 17.59375 42.765625 
C 28.296875 42.765625 28.90625 32.71875 29.09375 29.5 
C 29.203125 29 29.703125 28.890625 30 28.890625 
C 30.90625 28.890625 30.90625 29.203125 30.90625 30.90625 
z
" id="CMR17-115"/>
     </defs>
     <g transform="translate(318.903155 325.904537)scale(0.18 -0.18)">
      <use transform="translate(0 14.943915)scale(0.996264)" xlink:href="#CMMI12-34"/>
      <use transform="translate(45.650192 0)scale(0.697382)" xlink:href="#CMR17-115"/>
      <use transform="translate(70.711015 0)scale(0.697382)" xlink:href="#CMR17-115"/>
     </g>
    </g>
    <g id="line2d_24">
     <path d="M 279.303155 344.692601 
L 315.303155 344.692601 
" style="fill:none;stroke:#008000;stroke-linecap:square;stroke-width:2;"/>
    </g>
    <g id="line2d_25"/>
    <g id="text_13">
     <!-- $\varepsilon_\mathrm{ps}$ -->
     <defs>
      <path d="M 22 -16.609375 
C 15.59375 -16.609375 15.203125 -16.203125 15.203125 -12.328125 
L 15.203125 6.28125 
C 18.09375 2.09375 22.296875 -0.59375 27.59375 -0.59375 
C 37.59375 -0.59375 47.703125 8.171875 47.703125 21.6875 
C 47.703125 34.234375 39 43.78125 28.703125 43.78125 
C 22.703125 43.78125 17.796875 40.5 15 36.53125 
L 15 43.78125 
L 3.09375 42.6875 
L 3.09375 40.109375 
C 9 40.109375 9.90625 39.5 9.90625 34.734375 
L 9.90625 -12.328125 
C 9.90625 -16.109375 9.5 -16.609375 3.09375 -16.609375 
L 3.09375 -19.1875 
C 5.5 -19 9.90625 -19 12.5 -19 
C 15.09375 -19 19.59375 -19 22 -19.1875 
z
M 15.203125 31.4375 
C 15.203125 32.84375 15.203125 34.921875 19.09375 38.609375 
C 19.59375 39.015625 23 42 28 42 
C 35.296875 42 41.296875 32.9375 41.296875 21.59375 
C 41.296875 10.25 34.90625 1 27 1 
C 23.40625 1 19.5 2.6875 16.5 7.375 
C 15.203125 9.5625 15.203125 10.15625 15.203125 11.75 
z
" id="CMR17-112"/>
     </defs>
     <g transform="translate(318.903155 350.992601)scale(0.18 -0.18)">
      <use transform="translate(0 14.943915)scale(0.996264)" xlink:href="#CMMI12-34"/>
      <use transform="translate(45.650192 0)scale(0.697382)" xlink:href="#CMR17-112"/>
      <use transform="translate(81.276801 0)scale(0.697382)" xlink:href="#CMR17-115"/>
     </g>
    </g>
   </g>
  </g>
 </g>
 <defs>
  <clipPath id="p50659b57aa">
   <rect height="347.740665" width="487.746868" x="65.313132" y="22.94"/>
  </clipPath>
 </defs>
</svg>
