<?xml version="1.0" encoding="utf-8" standalone="no"?>
<!DOCTYPE svg PUBLIC "-//W3C//DTD SVG 1.1//EN"
  "http://www.w3.org/Graphics/SVG/1.1/DTD/svg11.dtd">
<!-- Created with matplotlib (http://matplotlib.org/) -->
<svg height="432pt" version="1.1" viewBox="0 0 576 432" width="576pt" xmlns="http://www.w3.org/2000/svg" xmlns:xlink="http://www.w3.org/1999/xlink">
 <defs>
  <style type="text/css">
*{stroke-linecap:butt;stroke-linejoin:round;}
  </style>
 </defs>
 <g id="figure_1">
  <g id="patch_1">
   <path d="M 0 432 
L 576 432 
L 576 0 
L 0 0 
z
" style="fill:none;"/>
  </g>
  <g id="axes_1">
   <g id="patch_2">
    <path d="M 56.333576 372.340456 
L 553.06 372.340456 
L 553.06 22.94 
L 56.333576 22.94 
z
" style="fill:none;"/>
   </g>
   <g id="matplotlib.axis_1">
    <g id="xtick_1">
     <g id="line2d_1">
      <defs>
       <path d="M 0 0 
L 0 3.5 
" id="m58c4a0077d" style="stroke:#000000;stroke-width:0.8;"/>
      </defs>
      <g>
       <use style="stroke:#000000;stroke-width:0.8;" x="78.91205" xlink:href="#m58c4a0077d" y="372.340456"/>
      </g>
     </g>
     <g id="text_1">
      <!-- $0$ -->
      <defs>
       <path d="M 42 31.640625 
C 42 37.75 41.90625 48.125 37.703125 56.109375 
C 34 63.109375 28.09375 65.59375 22.90625 65.59375 
C 18.09375 65.59375 12 63.40625 8.203125 56.203125 
C 4.203125 48.71875 3.796875 39.4375 3.796875 31.640625 
C 3.796875 25.953125 3.90625 17.28125 7 9.671875 
C 11.296875 -0.609375 19 -2 22.90625 -2 
C 27.5 -2 34.5 -0.109375 38.59375 9.375 
C 41.59375 16.28125 42 24.359375 42 31.640625 
z
M 22.90625 -0.40625 
C 16.5 -0.40625 12.703125 5.078125 11.296875 12.6875 
C 10.203125 18.5625 10.203125 27.15625 10.203125 32.75 
C 10.203125 40.4375 10.203125 46.828125 11.5 52.921875 
C 13.40625 61.390625 19 64 22.90625 64 
C 27 64 32.296875 61.296875 34.203125 53.125 
C 35.5 47.4375 35.59375 40.734375 35.59375 32.75 
C 35.59375 26.25 35.59375 18.265625 34.40625 12.375 
C 32.296875 1.484375 26.40625 -0.40625 22.90625 -0.40625 
z
" id="CMR17-48"/>
      </defs>
      <g transform="translate(75.255398 389.714046)scale(0.14994 -0.14994)">
       <use transform="scale(0.996264)" xlink:href="#CMR17-48"/>
      </g>
     </g>
    </g>
    <g id="text_2">
     <!-- $\varepsilon_\mathrm{eq}$ -->
     <defs>
      <path d="M 13.90625 22.296875 
C 17.09375 21.015625 20.5 21.015625 22.40625 21.015625 
C 25 21.015625 30.203125 21.015625 30.203125 24.21875 
C 30.203125 26.21875 28.296875 27 23.203125 27 
C 20.703125 27 17.703125 26.703125 14.203125 25.203125 
C 11.09375 26.6875 9.90625 28.9375 9.90625 31.09375 
C 9.90625 37.171875 19.703125 40.71875 28.59375 40.71875 
C 30.296875 40.71875 33.90625 40.71875 38.09375 37.671875 
C 38.703125 37.296875 39 36.984375 39.703125 36.984375 
C 40.90625 36.984375 42.203125 38.265625 42.203125 39.46875 
C 42.203125 41.234375 36.40625 45 29.5 45 
C 18.296875 45 7.703125 38.265625 7.703125 30.8125 
C 7.703125 27.09375 10.09375 24.78125 11.796875 23.578125 
C 6 20.328125 2.59375 15.015625 2.59375 10.1875 
C 2.59375 3.421875 8.796875 -2 18.40625 -2 
C 31.59375 -2 36.90625 6.625 36.90625 8 
C 36.90625 8.484375 36.5 8.875 36 8.875 
C 35.5 8.875 35.296875 8.578125 34.90625 8 
C 33.796875 6.171875 31.203125 2.28125 19.296875 2.28125 
C 13.09375 2.28125 4.90625 3.828125 4.90625 10.71875 
C 4.90625 14.03125 7.40625 18.96875 13.90625 22.296875 
z
M 17 23.71875 
C 19.703125 25 22.296875 25 23 25 
C 25.796875 25 26.296875 24.734375 27.90625 24.140625 
C 26.203125 23 26 23 22.40625 23 
C 20.59375 23 19 23 17 23.71875 
z
" id="CMMI12-34"/>
      <path d="M 38.09375 23 
C 38.5 23.40625 38.5 23.609375 38.5 24.625 
C 38.5 34.96875 33.09375 44 21.703125 44 
C 11.09375 44 2.703125 33.890625 2.703125 21.609375 
C 2.703125 8.609375 12.203125 -1 22.796875 -1 
C 34 -1 38.40625 9.484375 38.40625 11.5625 
C 38.40625 12.25 37.796875 12.25 37.59375 12.25 
C 36.90625 12.25 36.796875 12.046875 36.40625 10.875 
C 34.203125 4.140625 28.703125 0.796875 23.5 0.796875 
C 19.203125 0.796875 14.90625 3.171875 12.203125 7.5 
C 9.09375 12.546875 9.09375 18.375 9.09375 23 
z
M 9.203125 24.5 
C 9.90625 39.140625 17.59375 42.40625 21.59375 42.40625 
C 28.40625 42.40625 33 35.890625 33.09375 24.5 
z
" id="CMR17-101"/>
      <path d="M 41.09375 43.78125 
L 39.5 43.78125 
L 36.5 33.9375 
C 34.203125 39.203125 30 43.78125 23.296875 43.78125 
C 13.09375 43.78125 3.296875 34.734375 3.296875 21.609375 
C 3.296875 8.5625 12.5 -0.59375 22.5 -0.59375 
C 30.203125 -0.59375 34.5 5.28125 35.796875 7.46875 
L 35.796875 -12.328125 
C 35.796875 -16.109375 35.40625 -16.609375 29 -16.609375 
L 29 -19.1875 
C 31.40625 -19 35.796875 -19 38.40625 -19 
C 41 -19 45.5 -19 47.90625 -19.1875 
L 47.90625 -16.609375 
C 41.5 -16.609375 41.09375 -16.203125 41.09375 -12.328125 
z
M 36 13.84375 
C 36 9.5625 32.40625 5.578125 32.09375 5.28125 
C 29 1.796875 25.40625 1 23 1 
C 15.5 1 9.703125 10.453125 9.703125 21.484375 
C 9.703125 33.140625 16.296875 42 24 42 
C 32 42 36 32.9375 36 27.765625 
z
" id="CMR17-113"/>
     </defs>
     <g transform="translate(294.613377 409.071936)scale(0.18 -0.18)">
      <use transform="translate(0 14.943915)scale(0.996264)" xlink:href="#CMMI12-34"/>
      <use transform="translate(45.650192 0)scale(0.697382)" xlink:href="#CMR17-101"/>
      <use transform="translate(73.990024 0)scale(0.697382)" xlink:href="#CMR17-113"/>
     </g>
    </g>
   </g>
   <g id="matplotlib.axis_2">
    <g id="ytick_1">
     <g id="line2d_2">
      <defs>
       <path d="M 0 0 
L -3.5 0 
" id="ma372b00088" style="stroke:#000000;stroke-width:0.8;"/>
      </defs>
      <g>
       <use style="stroke:#000000;stroke-width:0.8;" x="56.333576" xlink:href="#ma372b00088" y="197.63906"/>
      </g>
     </g>
     <g id="text_3">
      <!-- $0$ -->
      <g transform="translate(42.020272 202.825855)scale(0.14994 -0.14994)">
       <use transform="scale(0.996264)" xlink:href="#CMR17-48"/>
      </g>
     </g>
    </g>
    <g id="text_4">
     <!-- $\partial V / \partial \varepsilon_\mathrm{eq}$ -->
     <defs>
      <path d="M 45.40625 33.515625 
C 44.796875 39.125 41.296875 45.859375 32.296875 45.859375 
C 18.203125 45.859375 3.796875 31.515625 3.796875 15.5625 
C 3.796875 9.4375 8 -2.09375 21.59375 -2.09375 
C 45.203125 -2.09375 55.296875 32.296875 55.296875 46 
C 55.296875 60.40625 47.203125 71.5 34.40625 71.5 
C 19.90625 71.5 15.59375 58.796875 15.59375 56.09375 
C 15.59375 55.203125 16.203125 53 19 53 
C 22.5 53 24 56.203125 24 57.90625 
C 24 61 20.90625 61 19.59375 61 
C 23.703125 68.40625 31.296875 69.09375 34 69.09375 
C 42.796875 69.09375 48.40625 62.109375 48.40625 50.96875 
C 48.40625 44.578125 46.5 37.1875 45.5 33.515625 
z
M 21.90625 0.59375 
C 12.5 0.59375 10.90625 8.03125 10.90625 12.25 
C 10.90625 16.65625 13.703125 27 15.203125 30.703125 
C 16.5 33.71875 22.203125 43.859375 32.59375 43.859375 
C 41.703125 43.859375 43.796875 35.921875 43.796875 30.515625 
C 43.796875 23.078125 37.296875 0.59375 21.90625 0.59375 
z
" id="CMMI12-64"/>
      <path d="M 61.90625 56.875 
C 65.296875 62.25 68.40625 64.625 73.5 65.03125 
C 74.5 65.125 75.296875 65.125 75.296875 66.90625 
C 75.296875 67.3125 75.09375 67.90625 74.203125 67.90625 
C 72.40625 67.90625 68.09375 67.90625 66.296875 67.90625 
C 63.40625 67.90625 60.40625 67.90625 57.59375 67.90625 
C 56.796875 67.90625 55.796875 67.90625 55.796875 66.03125 
C 55.796875 65.125 56.703125 65.03125 57.09375 65.03125 
C 60.796875 64.734375 61.203125 62.953125 61.203125 61.75 
C 61.203125 60.265625 59.796875 57.96875 59.703125 57.875 
L 28.296875 8.4375 
L 21.296875 62.015625 
C 21.296875 65 26.5 65 27.59375 65 
C 29.09375 65 30 65 30 66.90625 
C 30 67.90625 28.90625 67.90625 28.59375 67.90625 
C 26.90625 67.90625 24.90625 67.90625 23.203125 67.90625 
L 17.59375 67.90625 
C 10.296875 67.90625 7.296875 67.90625 7.203125 67.90625 
C 6.59375 67.90625 5.40625 67.90625 5.40625 66.09375 
C 5.40625 65 6.09375 65 7.703125 65 
C 12.796875 65 13.09375 64.09375 13.40625 61.625 
L 21.40625 0.375 
C 21.703125 -1.703125 21.703125 -2 23.09375 -2 
C 24.296875 -2 24.796875 -1.703125 25.796875 -0.125 
z
" id="CMMI12-86"/>
      <path d="M 42.90625 71.28125 
C 42.90625 71.390625 43.5 72.90625 43.5 73.09375 
C 43.5 74.296875 42.5 75 41.703125 75 
C 41.203125 75 40.296875 75 39.5 72.796875 
L 6 -21.296875 
C 6 -21.40625 5.40625 -22.890625 5.40625 -23.09375 
C 5.40625 -24.296875 6.40625 -25 7.203125 -25 
C 7.796875 -25 8.703125 -24.890625 9.40625 -22.796875 
z
" id="CMMI12-61"/>
     </defs>
     <g transform="translate(34.532208 228.451938)rotate(-90)scale(0.18 -0.18)">
      <use transform="translate(0 14.943915)scale(0.996264)" xlink:href="#CMMI12-64"/>
      <use transform="translate(56.915564 14.943915)scale(0.996264)" xlink:href="#CMMI12-86"/>
      <use transform="translate(124.624014 14.943915)scale(0.996264)" xlink:href="#CMMI12-61"/>
      <use transform="translate(173.398933 14.943915)scale(0.996264)" xlink:href="#CMMI12-64"/>
      <use transform="translate(230.314498 14.943915)scale(0.996264)" xlink:href="#CMMI12-34"/>
      <use transform="translate(275.96469 0)scale(0.697382)" xlink:href="#CMR17-101"/>
      <use transform="translate(304.304521 0)scale(0.697382)" xlink:href="#CMR17-113"/>
     </g>
    </g>
   </g>
   <g id="line2d_3">
    <path clip-path="url(#p21ebcbdd0c)" d="M 78.91205 197.63906 
L 83.884286 171.370692 
L 86.596415 158.166283 
L 88.856523 148.214414 
L 90.664609 141.12009 
L 92.472695 134.918887 
L 93.828759 130.913619 
L 95.184824 127.501797 
L 96.540888 124.713764 
L 97.896953 122.574316 
L 98.800996 121.517983 
L 99.705039 120.762666 
L 100.609082 120.311352 
L 101.513125 120.165827 
L 102.417168 120.326665 
L 103.321211 120.793231 
L 104.225254 121.56368 
L 105.129297 122.634965 
L 106.03334 124.002849 
L 107.389404 126.598651 
L 108.745469 129.826275 
L 110.101533 133.657015 
L 111.457598 138.056801 
L 113.265684 144.740045 
L 115.07377 152.259206 
L 117.333877 162.651547 
L 120.046006 176.237682 
L 124.566221 200.310482 
L 125.922286 207.191058 
L 126.826329 211.084669 
L 127.730372 214.131759 
L 128.634415 216.140488 
L 129.086436 216.713144 
L 129.538458 216.984388 
L 129.990479 216.949934 
L 130.442501 216.610328 
L 130.894522 215.970934 
L 131.346544 215.041858 
L 132.250587 212.377728 
L 133.15463 208.785668 
L 134.510694 202.164949 
L 137.222823 188.034123 
L 138.126866 184.149677 
L 139.030909 181.114508 
L 139.934952 179.119705 
L 140.386974 178.554494 
L 140.838995 178.29086 
L 141.291016 178.332969 
L 141.743038 178.680156 
L 142.195059 179.326934 
L 142.647081 180.263083 
L 143.551124 182.939981 
L 144.455167 186.542318 
L 145.811231 193.172415 
L 151.687511 223.825337 
L 153.947618 234.046923 
L 155.755704 241.095526 
L 157.111769 245.591222 
L 158.467833 249.329171 
L 159.823898 252.250305 
L 160.727941 253.720592 
L 161.631984 254.79672 
L 162.536027 255.471125 
L 163.44007 255.739068 
L 164.344113 255.598666 
L 165.248156 255.050905 
L 166.152199 254.099634 
L 167.056242 252.751541 
L 167.960285 251.016099 
L 168.864328 248.905506 
L 170.220392 245.069353 
L 171.576457 240.4837 
L 173.384543 233.330417 
L 175.192629 225.175495 
L 177.452736 213.924105 
L 181.52093 192.22608 
L 184.68508 175.720155 
L 186.945188 165.000872 
L 188.753274 157.433954 
L 190.109338 152.488747 
L 191.465403 148.257011 
L 192.821467 144.805617 
L 193.72551 142.965679 
L 194.629553 141.510004 
L 195.533596 140.448821 
L 196.437639 139.789591 
L 197.341682 139.536944 
L 198.245725 139.692659 
L 199.149768 140.255639 
L 200.053811 141.221928 
L 200.957854 142.584736 
L 201.861897 144.334482 
L 202.76594 146.458871 
L 204.122005 150.314551 
L 205.478069 154.918061 
L 207.286155 162.092068 
L 209.094241 170.263663 
L 211.354349 181.529497 
L 215.422542 203.240454 
L 221.298822 234.279018 
L 224.914994 252.174834 
L 227.627123 264.618292 
L 230.339252 276.003334 
L 232.599359 284.551993 
L 234.859467 292.14651 
L 236.667553 297.478738 
L 238.475639 302.109261 
L 239.831703 305.101889 
L 241.187768 307.669561 
L 242.543832 309.802124 
L 243.899897 311.491144 
L 245.255961 312.729942 
L 246.160004 313.303191 
L 247.064047 313.673119 
L 247.96809 313.839077 
L 248.872133 313.800772 
L 249.776176 313.558272 
L 250.680219 313.112003 
L 251.584262 312.462749 
L 252.488305 311.611652 
L 253.844369 309.95992 
L 255.200434 307.864021 
L 256.556498 305.332244 
L 257.912563 302.3746 
L 259.720649 297.789067 
L 261.528735 292.499647 
L 263.336821 286.543516 
L 265.596928 278.224987 
L 267.857036 269.021774 
L 270.569165 256.953013 
L 273.733315 241.702407 
L 277.349487 223.133312 
L 284.12981 186.8131 
L 289.102046 160.652474 
L 292.718218 142.780847 
L 295.430347 130.361516 
L 298.142476 119.005316 
L 300.402584 110.483965 
L 302.662691 102.919416 
L 304.470777 97.612855 
L 306.278863 93.009311 
L 307.634928 90.037663 
L 308.990992 87.491519 
L 310.347057 85.380948 
L 311.703121 83.714295 
L 313.059186 82.498152 
L 313.963229 81.940121 
L 314.867272 81.585472 
L 315.771315 81.434829 
L 316.675358 81.488455 
L 317.579401 81.746257 
L 318.483444 82.207782 
L 319.387487 82.872218 
L 320.29153 83.738397 
L 321.647594 85.412507 
L 323.003659 87.530411 
L 324.359723 90.083734 
L 325.715788 93.062378 
L 327.523874 97.674921 
L 329.33196 102.990043 
L 331.140046 108.970389 
L 333.400153 117.316839 
L 335.660261 126.545077 
L 338.37239 138.639663 
L 341.53654 153.91409 
L 345.152712 172.50148 
L 351.933035 208.836892 
L 358.713357 244.674953 
L 362.78155 265.104246 
L 366.397722 282.19734 
L 369.561873 296.118782 
L 372.274002 307.154249 
L 374.986131 317.262607 
L 377.246238 324.916039 
L 379.506346 331.821064 
L 381.766453 337.93708 
L 383.574539 342.237476 
L 385.382625 345.99361 
L 387.190711 349.191344 
L 388.546776 351.215874 
L 389.90284 352.915202 
L 391.258905 354.28573 
L 392.614969 355.324556 
L 393.971034 356.02948 
L 395.327098 356.39901 
L 396.231141 356.458618 
L 397.135184 356.368742 
L 398.491249 355.953873 
L 399.847313 355.203769 
L 401.203378 354.120019 
L 402.559442 352.704918 
L 403.915507 350.961462 
L 405.271571 348.893344 
L 407.079657 345.638489 
L 408.887743 341.82657 
L 410.695829 337.471936 
L 412.503915 332.590976 
L 414.764023 325.777804 
L 417.02413 318.211156 
L 419.284238 309.935527 
L 421.996367 299.13771 
L 425.160517 285.461096 
L 428.324668 270.772801 
L 431.94084 252.964903 
L 436.461055 229.567399 
L 444.14542 188.374077 
L 450.925743 152.456612 
L 455.445958 129.722061 
L 459.06213 112.658424 
L 462.22628 98.767985 
L 464.938409 87.762695 
L 467.650538 77.687572 
L 469.910645 70.063969 
L 472.170753 63.190526 
L 474.43086 57.10766 
L 476.238946 52.834781 
L 478.047032 49.106938 
L 479.855118 45.938165 
L 481.211183 43.935729 
L 482.567247 42.258762 
L 483.923312 40.910816 
L 485.279376 39.894744 
L 486.635441 39.212699 
L 487.991505 38.866125 
L 488.895548 38.821839 
L 489.799591 38.927034 
L 491.155656 39.364847 
L 492.51172 40.137809 
L 493.867785 41.244282 
L 495.223849 42.681924 
L 496.579914 44.44769 
L 497.935978 46.537841 
L 499.744064 49.821562 
L 501.55215 53.661661 
L 503.360236 58.043686 
L 505.168322 62.951141 
L 507.42843 69.796025 
L 509.688537 77.392644 
L 511.948645 85.69633 
L 514.660774 96.525057 
L 517.824924 110.2336 
L 520.989075 124.949024 
L 524.605247 142.781654 
L 529.125462 166.200129 
L 530.481526 173.395251 
L 530.481526 173.395251 
" style="fill:none;stroke:#000000;stroke-linecap:square;stroke-width:2;"/>
   </g>
   <g id="patch_3">
    <path d="M 56.333576 372.340456 
L 56.333576 22.94 
" style="fill:none;stroke:#000000;stroke-linecap:square;stroke-linejoin:miter;stroke-width:0.8;"/>
   </g>
   <g id="patch_4">
    <path d="M 56.333576 372.340456 
L 553.06 372.340456 
" style="fill:none;stroke:#000000;stroke-linecap:square;stroke-linejoin:miter;stroke-width:0.8;"/>
   </g>
  </g>
 </g>
 <defs>
  <clipPath id="p21ebcbdd0c">
   <rect height="349.400456" width="496.726424" x="56.333576" y="22.94"/>
  </clipPath>
 </defs>
</svg>
