<?xml version="1.0" encoding="utf-8" standalone="no"?>
<!DOCTYPE svg PUBLIC "-//W3C//DTD SVG 1.1//EN"
  "http://www.w3.org/Graphics/SVG/1.1/DTD/svg11.dtd">
<!-- Created with matplotlib (http://matplotlib.org/) -->
<svg height="432pt" version="1.1" viewBox="0 0 576 432" width="576pt" xmlns="http://www.w3.org/2000/svg" xmlns:xlink="http://www.w3.org/1999/xlink">
 <defs>
  <style type="text/css">
*{stroke-linecap:butt;stroke-linejoin:round;}
  </style>
 </defs>
 <g id="figure_1">
  <g id="patch_1">
   <path d="M 0 432 
L 576 432 
L 576 0 
L 0 0 
z
" style="fill:none;"/>
  </g>
  <g id="axes_1">
   <g id="patch_2">
    <path d="M 67.30452 370.680665 
L 553.06 370.680665 
L 553.06 22.94 
L 67.30452 22.94 
z
" style="fill:none;"/>
   </g>
   <g id="matplotlib.axis_1">
    <g id="xtick_1">
     <g id="line2d_1">
      <defs>
       <path d="M 0 0 
L 0 3.5 
" id="m9101c2c4b9" style="stroke:#000000;stroke-width:0.8;"/>
      </defs>
      <g>
       <use style="stroke:#000000;stroke-width:0.8;" x="89.384314" xlink:href="#m9101c2c4b9" y="370.680665"/>
      </g>
     </g>
     <g id="line2d_2">
      <defs>
       <path d="M 0 0 
L 0 -3.5 
" id="m0f0c018964" style="stroke:#000000;stroke-width:0.8;"/>
      </defs>
      <g>
       <use style="stroke:#000000;stroke-width:0.8;" x="89.384314" xlink:href="#m0f0c018964" y="22.94"/>
      </g>
     </g>
     <g id="text_1">
      <!-- $-\pi/2$ -->
      <defs>
       <path d="M 65.90625 23 
C 67.59375 23 69.40625 23 69.40625 25 
C 69.40625 27 67.59375 27 65.90625 27 
L 11.796875 27 
C 10.09375 27 8.296875 27 8.296875 25 
C 8.296875 23 10.09375 23 11.796875 23 
z
" id="CMSY10-0"/>
       <path d="M 25.90625 37.625 
L 37.203125 37.625 
C 34.5 26.4375 32.796875 19.15625 32.796875 11.1875 
C 32.796875 9.78125 32.796875 -1 36.90625 -1 
C 39 -1 40.796875 0.890625 40.796875 2.59375 
C 40.796875 3.078125 40.796875 3.28125 40.09375 4.78125 
C 37.40625 11.671875 37.40625 20.25 37.40625 20.953125 
C 37.40625 21.546875 37.40625 28.625 39.5 37.625 
L 50.703125 37.625 
C 52 37.625 55.296875 37.625 55.296875 40.8125 
C 55.296875 43 53.40625 43 51.59375 43 
L 18.703125 43 
C 16.40625 43 13 43 8.40625 38.125 
C 5.796875 35.21875 2.59375 29.9375 2.59375 29.34375 
C 2.59375 28.75 3.09375 28.546875 3.703125 28.546875 
C 4.40625 28.546875 4.5 28.84375 5 29.4375 
C 10.203125 37.625 15.40625 37.625 17.90625 37.625 
L 23.59375 37.625 
C 21.40625 30.140625 18.90625 21.453125 10.703125 4 
C 9.90625 2.40625 9.90625 2.1875 9.90625 1.59375 
C 9.90625 -0.5 11.703125 -1 12.59375 -1 
C 15.5 -1 16.296875 1.59375 17.5 5.78125 
C 19.09375 10.875 19.09375 11.078125 20.09375 15.0625 
z
" id="CMMI12-25"/>
       <path d="M 42.90625 71.28125 
C 42.90625 71.390625 43.5 72.90625 43.5 73.09375 
C 43.5 74.296875 42.5 75 41.703125 75 
C 41.203125 75 40.296875 75 39.5 72.796875 
L 6 -21.296875 
C 6 -21.40625 5.40625 -22.890625 5.40625 -23.09375 
C 5.40625 -24.296875 6.40625 -25 7.203125 -25 
C 7.796875 -25 8.703125 -24.890625 9.40625 -22.796875 
z
" id="CMMI12-61"/>
       <path d="M 41.703125 15.453125 
L 39.90625 15.453125 
C 38.90625 8.375 38.09375 7.171875 37.703125 6.5625 
C 37.203125 5.765625 30 5.765625 28.59375 5.765625 
L 9.40625 5.765625 
C 13 9.671875 20 16.75 28.5 24.953125 
C 34.59375 30.734375 41.703125 37.53125 41.703125 47.421875 
C 41.703125 59.21875 32.296875 66 21.796875 66 
C 10.796875 66 4.09375 56.3125 4.09375 47.34375 
C 4.09375 43.4375 7 42.9375 8.203125 42.9375 
C 9.203125 42.9375 12.203125 43.546875 12.203125 47.03125 
C 12.203125 50.109375 9.59375 51 8.203125 51 
C 7.59375 51 7 50.90625 6.59375 50.703125 
C 8.5 59.21875 14.296875 63.40625 20.40625 63.40625 
C 29.09375 63.40625 34.796875 56.515625 34.796875 47.421875 
C 34.796875 38.734375 29.703125 31.25 24 24.75 
L 4.09375 2.28125 
L 4.09375 0 
L 39.296875 0 
z
" id="CMR17-50"/>
      </defs>
      <g transform="translate(71.845258 388.884151)scale(0.14994 -0.14994)">
       <use transform="scale(0.996264)" xlink:href="#CMSY10-0"/>
       <use transform="translate(77.487468 0)scale(0.996264)" xlink:href="#CMMI12-25"/>
       <use transform="translate(136.398068 0)scale(0.996264)" xlink:href="#CMMI12-61"/>
       <use transform="translate(185.172987 0)scale(0.996264)" xlink:href="#CMR17-50"/>
      </g>
     </g>
    </g>
    <g id="xtick_2">
     <g id="line2d_3">
      <g>
       <use style="stroke:#000000;stroke-width:0.8;" x="199.783287" xlink:href="#m9101c2c4b9" y="370.680665"/>
      </g>
     </g>
     <g id="line2d_4">
      <g>
       <use style="stroke:#000000;stroke-width:0.8;" x="199.783287" xlink:href="#m0f0c018964" y="22.94"/>
      </g>
     </g>
     <g id="text_2">
      <!-- $-\pi/4$ -->
      <defs>
       <path d="M 33.59375 64.40625 
C 33.59375 66.5 33.5 66.5 31.703125 66.5 
L 2 19.59375 
L 2 17 
L 27.796875 17 
L 27.796875 7.140625 
C 27.796875 3.5 27.59375 2.5 20.59375 2.5 
L 18.703125 2.5 
L 18.703125 0 
C 21.90625 0 27.296875 0 30.703125 0 
C 34.09375 0 39.5 0 42.703125 0 
L 42.703125 2.5 
L 40.796875 2.5 
C 33.796875 2.5 33.59375 3.5 33.59375 7.140625 
L 33.59375 17 
L 43.796875 17 
L 43.796875 19.59375 
L 33.59375 19.59375 
z
M 28.09375 57.859375 
L 28.09375 19.59375 
L 4 19.59375 
z
" id="CMR17-52"/>
      </defs>
      <g transform="translate(182.244231 388.884151)scale(0.14994 -0.14994)">
       <use transform="scale(0.996264)" xlink:href="#CMSY10-0"/>
       <use transform="translate(77.487468 0)scale(0.996264)" xlink:href="#CMMI12-25"/>
       <use transform="translate(136.398068 0)scale(0.996264)" xlink:href="#CMMI12-61"/>
       <use transform="translate(185.172987 0)scale(0.996264)" xlink:href="#CMR17-52"/>
      </g>
     </g>
    </g>
    <g id="xtick_3">
     <g id="line2d_5">
      <g>
       <use style="stroke:#000000;stroke-width:0.8;" x="310.18226" xlink:href="#m9101c2c4b9" y="370.680665"/>
      </g>
     </g>
     <g id="line2d_6">
      <g>
       <use style="stroke:#000000;stroke-width:0.8;" x="310.18226" xlink:href="#m0f0c018964" y="22.94"/>
      </g>
     </g>
     <g id="text_3">
      <!-- $0$ -->
      <defs>
       <path d="M 42 31.640625 
C 42 37.75 41.90625 48.125 37.703125 56.109375 
C 34 63.109375 28.09375 65.59375 22.90625 65.59375 
C 18.09375 65.59375 12 63.40625 8.203125 56.203125 
C 4.203125 48.71875 3.796875 39.4375 3.796875 31.640625 
C 3.796875 25.953125 3.90625 17.28125 7 9.671875 
C 11.296875 -0.609375 19 -2 22.90625 -2 
C 27.5 -2 34.5 -0.109375 38.59375 9.375 
C 41.59375 16.28125 42 24.359375 42 31.640625 
z
M 22.90625 -0.40625 
C 16.5 -0.40625 12.703125 5.078125 11.296875 12.6875 
C 10.203125 18.5625 10.203125 27.15625 10.203125 32.75 
C 10.203125 40.4375 10.203125 46.828125 11.5 52.921875 
C 13.40625 61.390625 19 64 22.90625 64 
C 27 64 32.296875 61.296875 34.203125 53.125 
C 35.5 47.4375 35.59375 40.734375 35.59375 32.75 
C 35.59375 26.25 35.59375 18.265625 34.40625 12.375 
C 32.296875 1.484375 26.40625 -0.40625 22.90625 -0.40625 
z
" id="CMR17-48"/>
      </defs>
      <g transform="translate(306.525608 388.054255)scale(0.14994 -0.14994)">
       <use transform="scale(0.996264)" xlink:href="#CMR17-48"/>
      </g>
     </g>
    </g>
    <g id="xtick_4">
     <g id="line2d_7">
      <g>
       <use style="stroke:#000000;stroke-width:0.8;" x="420.581233" xlink:href="#m9101c2c4b9" y="370.680665"/>
      </g>
     </g>
     <g id="line2d_8">
      <g>
       <use style="stroke:#000000;stroke-width:0.8;" x="420.581233" xlink:href="#m0f0c018964" y="22.94"/>
      </g>
     </g>
     <g id="text_4">
      <!-- $\pi/4$ -->
      <g transform="translate(408.851408 388.884151)scale(0.14994 -0.14994)">
       <use transform="scale(0.996264)" xlink:href="#CMMI12-25"/>
       <use transform="translate(58.910601 0)scale(0.996264)" xlink:href="#CMMI12-61"/>
       <use transform="translate(107.68552 0)scale(0.996264)" xlink:href="#CMR17-52"/>
      </g>
     </g>
    </g>
    <g id="xtick_5">
     <g id="line2d_9">
      <g>
       <use style="stroke:#000000;stroke-width:0.8;" x="530.980205" xlink:href="#m9101c2c4b9" y="370.680665"/>
      </g>
     </g>
     <g id="line2d_10">
      <g>
       <use style="stroke:#000000;stroke-width:0.8;" x="530.980205" xlink:href="#m0f0c018964" y="22.94"/>
      </g>
     </g>
     <g id="text_5">
      <!-- $\pi/2$ -->
      <g transform="translate(519.250381 388.884151)scale(0.14994 -0.14994)">
       <use transform="scale(0.996264)" xlink:href="#CMMI12-25"/>
       <use transform="translate(58.910601 0)scale(0.996264)" xlink:href="#CMMI12-61"/>
       <use transform="translate(107.68552 0)scale(0.996264)" xlink:href="#CMR17-50"/>
      </g>
     </g>
    </g>
    <g id="text_6">
     <!-- $\theta$ -->
     <defs>
      <path d="M 44.296875 50 
C 44.296875 60.15625 41.09375 70 32.90625 70 
C 18.90625 70 4 40.859375 4 19 
C 4 14.421875 5 -1 15.5 -1 
C 29.09375 -1 44.296875 27.4375 44.296875 50 
z
M 14 36 
C 15.5 41.859375 17.59375 50.21875 21.59375 57.265625 
C 24.90625 63.234375 28.40625 68 32.796875 68 
C 36.09375 68 38.296875 65.21875 38.296875 55.6875 
C 38.296875 52.09375 38 47.140625 35.09375 36 
z
M 34.40625 33.015625 
C 31.90625 23.28125 29.796875 17 26.203125 10.734375 
C 23.296875 5.671875 19.796875 1 15.59375 1 
C 12.5 1 10 3.390625 10 13.21875 
C 10 19.6875 11.59375 26.453125 13.203125 33.015625 
z
" id="CMMI12-18"/>
     </defs>
     <g transform="translate(306.090883 409.071936)scale(0.18 -0.18)">
      <use transform="scale(0.996264)" xlink:href="#CMMI12-18"/>
     </g>
    </g>
   </g>
   <g id="matplotlib.axis_2">
    <g id="ytick_1">
     <g id="line2d_11">
      <defs>
       <path d="M 0 0 
L -3.5 0 
" id="m4f8b31fa97" style="stroke:#000000;stroke-width:0.8;"/>
      </defs>
      <g>
       <use style="stroke:#000000;stroke-width:0.8;" x="67.30452" xlink:href="#m4f8b31fa97" y="354.874271"/>
      </g>
     </g>
     <g id="line2d_12">
      <defs>
       <path d="M 0 0 
L 3.5 0 
" id="m001f40d320" style="stroke:#000000;stroke-width:0.8;"/>
      </defs>
      <g>
       <use style="stroke:#000000;stroke-width:0.8;" x="553.06" xlink:href="#m001f40d320" y="354.874271"/>
      </g>
     </g>
     <g id="text_7">
      <!-- $-1$ -->
      <defs>
       <path d="M 26.59375 63.40625 
C 26.59375 65.5 26.5 65.5 25.09375 65.5 
C 21.203125 61.1875 15.296875 59.796875 9.703125 59.796875 
C 9.40625 59.796875 8.90625 59.796875 8.796875 59.5 
C 8.703125 59.296875 8.703125 59.09375 8.703125 57 
C 11.796875 57 17 57.59375 21 59.984375 
L 21 7.203125 
C 21 3.6875 20.796875 2.5 12.203125 2.5 
L 9.203125 2.5 
L 9.203125 0 
C 14 0 19 0 23.796875 0 
C 28.59375 0 33.59375 0 38.40625 0 
L 38.40625 2.5 
L 35.40625 2.5 
C 26.796875 2.5 26.59375 3.59375 26.59375 7.15625 
z
" id="CMR17-49"/>
      </defs>
      <g transform="translate(41.372752 360.061066)scale(0.14994 -0.14994)">
       <use transform="scale(0.996264)" xlink:href="#CMSY10-0"/>
       <use transform="translate(77.487468 0)scale(0.996264)" xlink:href="#CMR17-49"/>
      </g>
     </g>
    </g>
    <g id="ytick_2">
     <g id="line2d_13">
      <g>
       <use style="stroke:#000000;stroke-width:0.8;" x="67.30452" xlink:href="#m4f8b31fa97" y="196.810333"/>
      </g>
     </g>
     <g id="line2d_14">
      <g>
       <use style="stroke:#000000;stroke-width:0.8;" x="553.06" xlink:href="#m001f40d320" y="196.810333"/>
      </g>
     </g>
     <g id="text_8">
      <!-- $0$ -->
      <g transform="translate(52.991216 201.997127)scale(0.14994 -0.14994)">
       <use transform="scale(0.996264)" xlink:href="#CMR17-48"/>
      </g>
     </g>
    </g>
    <g id="ytick_3">
     <g id="line2d_15">
      <g>
       <use style="stroke:#000000;stroke-width:0.8;" x="67.30452" xlink:href="#m4f8b31fa97" y="38.746394"/>
      </g>
     </g>
     <g id="line2d_16">
      <g>
       <use style="stroke:#000000;stroke-width:0.8;" x="553.06" xlink:href="#m001f40d320" y="38.746394"/>
      </g>
     </g>
     <g id="text_9">
      <!-- $1$ -->
      <g transform="translate(52.991216 43.933189)scale(0.14994 -0.14994)">
       <use transform="scale(0.996264)" xlink:href="#CMR17-49"/>
      </g>
     </g>
    </g>
    <g id="text_10">
     <!-- $\varepsilon / | \gamma |$ -->
     <defs>
      <path d="M 13.90625 22.296875 
C 17.09375 21.015625 20.5 21.015625 22.40625 21.015625 
C 25 21.015625 30.203125 21.015625 30.203125 24.21875 
C 30.203125 26.21875 28.296875 27 23.203125 27 
C 20.703125 27 17.703125 26.703125 14.203125 25.203125 
C 11.09375 26.6875 9.90625 28.9375 9.90625 31.09375 
C 9.90625 37.171875 19.703125 40.71875 28.59375 40.71875 
C 30.296875 40.71875 33.90625 40.71875 38.09375 37.671875 
C 38.703125 37.296875 39 36.984375 39.703125 36.984375 
C 40.90625 36.984375 42.203125 38.265625 42.203125 39.46875 
C 42.203125 41.234375 36.40625 45 29.5 45 
C 18.296875 45 7.703125 38.265625 7.703125 30.8125 
C 7.703125 27.09375 10.09375 24.78125 11.796875 23.578125 
C 6 20.328125 2.59375 15.015625 2.59375 10.1875 
C 2.59375 3.421875 8.796875 -2 18.40625 -2 
C 31.59375 -2 36.90625 6.625 36.90625 8 
C 36.90625 8.484375 36.5 8.875 36 8.875 
C 35.5 8.875 35.296875 8.578125 34.90625 8 
C 33.796875 6.171875 31.203125 2.28125 19.296875 2.28125 
C 13.09375 2.28125 4.90625 3.828125 4.90625 10.71875 
C 4.90625 14.03125 7.40625 18.96875 13.90625 22.296875 
z
M 17 23.71875 
C 19.703125 25 22.296875 25 23 25 
C 25.796875 25 26.296875 24.734375 27.90625 24.140625 
C 26.203125 23 26 23 22.40625 23 
C 20.59375 23 19 23 17 23.71875 
z
" id="CMMI12-34"/>
      <path d="M 15.90625 71.40625 
C 15.90625 73.203125 15.90625 75 13.90625 75 
C 11.90625 75 11.90625 73.203125 11.90625 71.40625 
L 11.90625 -21.40625 
C 11.90625 -23.203125 11.90625 -25 13.90625 -25 
C 15.90625 -25 15.90625 -23.203125 15.90625 -21.40625 
z
" id="CMSY10-106"/>
      <path d="M 37.796875 11.875 
C 37.59375 16.734375 37.40625 24.390625 33.59375 33.328125 
C 31.59375 38.3125 28.203125 43.5625 20.90625 43.5625 
C 8.59375 43.5625 1.90625 27.96875 1.90625 25.390625 
C 1.90625 24.484375 2.59375 24.484375 2.90625 24.484375 
C 3.796875 24.484375 3.796875 24.6875 4.296875 25.984375 
C 6.40625 32.140625 12.796875 37 19.703125 37 
C 33.59375 37 35.59375 21.609375 35.59375 11.78125 
C 35.59375 5.5 34.90625 3.4375 34.296875 1.4375 
C 32.40625 -4.71875 29.09375 -17.03125 29.09375 -19.8125 
C 29.09375 -20.609375 29.40625 -21.5 30.203125 -21.5 
C 31.703125 -21.5 32.59375 -18.21875 33.703125 -14.25 
C 36.09375 -5.515625 36.703125 -1.140625 37.203125 2.828125 
C 37.5 5.21875 43.203125 21.625 51.09375 37.21875 
C 51.796875 38.796875 53.203125 41.484375 53.203125 41.78125 
C 53.203125 41.875 53.09375 42.578125 52.203125 42.578125 
C 52 42.578125 51.5 42.578125 51.296875 42.171875 
C 51.09375 41.984375 47.59375 35.21875 44.59375 28.46875 
C 43.09375 25.09375 41.09375 20.625 37.796875 11.875 
z
" id="CMMI12-13"/>
     </defs>
     <g transform="translate(32.889564 215.331599)rotate(-90)scale(0.18 -0.18)">
      <use transform="scale(0.996264)" xlink:href="#CMMI12-34"/>
      <use transform="translate(45.650192 0)scale(0.996264)" xlink:href="#CMMI12-61"/>
      <use transform="translate(94.425111 0)scale(0.996264)" xlink:href="#CMSY10-106"/>
      <use transform="translate(122.099196 0)scale(0.996264)" xlink:href="#CMMI12-13"/>
      <use transform="translate(178.117764 0)scale(0.996264)" xlink:href="#CMSY10-106"/>
     </g>
    </g>
   </g>
   <g id="line2d_17">
    <path clip-path="url(#p6900997701)" d="M 89.384314 38.746394 
L 530.980205 38.746394 
L 530.980205 38.746394 
" style="fill:none;stroke:#000000;stroke-linecap:square;stroke-width:2;"/>
   </g>
   <g id="line2d_18">
    <path clip-path="url(#p6900997701)" d="M 89.384314 354.874271 
L 92.147743 354.752104 
L 94.911172 354.385793 
L 97.6746 353.775903 
L 100.438029 352.923378 
L 103.201457 351.829534 
L 105.964886 350.496064 
L 108.728315 348.925028 
L 111.491743 347.118855 
L 114.255172 345.080336 
L 117.571286 342.33188 
L 120.887401 339.25952 
L 124.203515 335.870096 
L 127.519629 332.171151 
L 130.835744 328.170918 
L 134.704544 323.135101 
L 138.573344 317.7166 
L 142.442144 311.931828 
L 146.863629 304.894695 
L 151.285115 297.429935 
L 156.259287 288.557766 
L 161.233458 279.226226 
L 166.760315 268.375977 
L 172.839858 255.932478 
L 179.472087 241.856834 
L 187.762373 223.713636 
L 200.474144 195.256626 
L 214.843973 163.197624 
L 223.134259 145.255084 
L 229.766488 131.405272 
L 235.84603 119.217957 
L 241.372888 108.639767 
L 246.347059 99.583544 
L 251.321231 91.014126 
L 255.742716 83.840288 
L 260.164202 77.113406 
L 264.033002 71.614998 
L 267.901802 66.495852 
L 271.770602 61.771478 
L 275.086717 58.047102 
L 278.402831 54.631586 
L 281.718945 51.532534 
L 285.03506 48.756842 
L 288.351174 46.310689 
L 291.114603 44.527909 
L 293.878031 42.980527 
L 296.64146 41.670932 
L 299.404888 40.601151 
L 302.168317 39.772836 
L 304.931746 39.187268 
L 307.695174 38.845351 
L 310.458603 38.747616 
L 313.222031 38.894212 
L 315.98546 39.284913 
L 318.748889 39.919115 
L 321.512317 40.795837 
L 324.275746 41.913726 
L 327.039174 43.271051 
L 329.802603 44.865717 
L 332.566032 46.695256 
L 335.32946 48.756842 
L 338.645575 51.532534 
L 341.961689 54.631586 
L 345.277803 58.047102 
L 348.593918 61.771478 
L 351.910032 65.796425 
L 355.778832 70.860097 
L 359.647632 76.305318 
L 363.516432 82.115594 
L 367.937918 89.180287 
L 372.359404 96.670811 
L 377.333575 105.569688 
L 382.307747 114.925399 
L 387.834604 125.799381 
L 393.914147 138.265023 
L 401.099061 153.554082 
L 409.389347 171.74613 
L 423.20649 202.713138 
L 435.918261 231.030058 
L 444.208547 248.952686 
L 450.840776 262.780676 
L 456.920319 274.943564 
L 462.447176 285.496032 
L 467.421348 294.526378 
L 472.395519 303.06747 
L 476.817005 310.214187 
L 481.238491 316.912231 
L 485.107291 322.384089 
L 488.976091 327.475536 
L 492.844891 332.171151 
L 496.161005 335.870096 
L 499.477119 339.25952 
L 502.793234 342.33188 
L 506.109348 345.080336 
L 509.425462 347.498771 
L 512.188891 349.258129 
L 514.95232 350.781835 
L 517.715748 352.067533 
L 520.479177 353.113236 
L 523.242605 353.917328 
L 526.006034 354.478565 
L 528.769463 354.796081 
L 530.980205 354.874271 
L 530.980205 354.874271 
" style="fill:none;stroke:#ff0000;stroke-linecap:square;stroke-width:2;"/>
   </g>
   <g id="line2d_19">
    <path clip-path="url(#p6900997701)" d="M 89.384314 196.810333 
L 104.306829 163.501327 
L 112.597115 145.548936 
L 119.229343 131.688293 
L 125.308886 119.488835 
L 130.835744 108.897846 
L 135.809915 99.828737 
L 140.784086 91.245206 
L 145.205572 84.057848 
L 149.627058 77.316587 
L 153.495858 71.804934 
L 157.364658 66.67197 
L 161.233458 61.933243 
L 164.549572 58.196173 
L 167.865687 54.767631 
L 171.181801 51.65525 
L 174.497915 48.865957 
L 177.81403 46.405959 
L 180.577458 44.611479 
L 183.340887 43.052267 
L 186.104316 41.730732 
L 188.867744 40.648917 
L 191.631173 39.808495 
L 194.394601 39.210765 
L 197.15803 38.856651 
L 199.921459 38.746699 
L 202.684887 38.881081 
L 205.448316 39.259588 
L 208.211744 39.881635 
L 210.975173 40.746261 
L 213.738602 41.852129 
L 216.50203 43.197529 
L 219.265459 44.780383 
L 222.028887 46.598243 
L 224.792316 48.648299 
L 228.10843 51.410378 
L 231.424545 54.496091 
L 234.740659 57.898567 
L 238.056773 61.610235 
L 241.372888 65.622832 
L 245.241688 70.672586 
L 249.110488 76.104459 
L 252.979288 81.901994 
L 257.400774 88.95292 
L 261.822259 96.430577 
L 266.796431 105.316117 
L 271.770602 114.659761 
L 277.29746 125.521897 
L 283.377002 137.976491 
L 290.009231 152.061778 
L 298.299517 170.213293 
L 311.011289 198.674767 
L 325.381117 230.726615 
L 333.671403 248.659234 
L 340.303632 262.498161 
L 346.383175 274.673287 
L 351.910032 285.238635 
L 356.884203 294.281938 
L 361.858375 302.837209 
L 366.279861 309.997501 
L 370.701346 316.709977 
L 374.570146 322.19512 
L 378.438946 327.300427 
L 382.307747 332.01043 
L 385.623861 335.722098 
L 388.939975 339.124574 
L 392.25609 342.210287 
L 395.572204 344.972366 
L 398.888318 347.404665 
L 401.651747 349.175737 
L 404.415175 350.711284 
L 407.178604 352.008933 
L 409.942033 353.066677 
L 412.705461 353.882882 
L 415.46889 354.456286 
L 418.232318 354.786003 
L 420.995747 354.871522 
L 423.759176 354.712712 
L 426.522604 354.309819 
L 429.286033 353.663464 
L 432.049461 352.774648 
L 434.81289 351.644744 
L 437.576319 350.275498 
L 440.339747 348.669028 
L 443.103176 346.827816 
L 445.866604 344.754709 
L 449.182719 341.965415 
L 452.498833 338.853034 
L 455.814947 335.424492 
L 459.131062 331.687422 
L 462.447176 327.650141 
L 466.315976 322.572572 
L 470.184776 317.114022 
L 474.053576 311.291027 
L 478.475062 304.212594 
L 482.896548 296.709233 
L 487.870719 287.797053 
L 492.844891 278.429311 
L 498.371748 267.543525 
L 504.451291 255.066885 
L 511.636205 239.767615 
L 519.926491 221.567672 
L 530.980205 196.810333 
L 530.980205 196.810333 
" style="fill:none;stroke:#008000;stroke-linecap:square;stroke-width:2;"/>
   </g>
   <g id="patch_3">
    <path d="M 67.30452 370.680665 
L 67.30452 22.94 
" style="fill:none;stroke:#000000;stroke-linecap:square;stroke-linejoin:miter;stroke-width:0.8;"/>
   </g>
   <g id="patch_4">
    <path d="M 553.06 370.680665 
L 553.06 22.94 
" style="fill:none;stroke:#000000;stroke-linecap:square;stroke-linejoin:miter;stroke-width:0.8;"/>
   </g>
   <g id="patch_5">
    <path d="M 67.30452 370.680665 
L 553.06 370.680665 
" style="fill:none;stroke:#000000;stroke-linecap:square;stroke-linejoin:miter;stroke-width:0.8;"/>
   </g>
   <g id="patch_6">
    <path d="M 67.30452 22.94 
L 553.06 22.94 
" style="fill:none;stroke:#000000;stroke-linecap:square;stroke-linejoin:miter;stroke-width:0.8;"/>
   </g>
   <g id="legend_1">
    <g id="patch_7">
     <path d="M 276.186716 361.680665 
L 344.177803 361.680665 
Q 347.777803 361.680665 347.777803 358.080665 
L 347.777803 274.254733 
Q 347.777803 270.654733 344.177803 270.654733 
L 276.186716 270.654733 
Q 272.586716 270.654733 272.586716 274.254733 
L 272.586716 358.080665 
Q 272.586716 361.680665 276.186716 361.680665 
z
" style="fill:none;opacity:0.8;stroke:#cccccc;stroke-linejoin:miter;"/>
    </g>
    <g id="line2d_20">
     <path d="M 279.786716 288.422251 
L 315.786716 288.422251 
" style="fill:none;stroke:#000000;stroke-linecap:square;stroke-width:2;"/>
    </g>
    <g id="line2d_21"/>
    <g id="text_11">
     <!-- $\varepsilon^\prime_\mathrm{eq}$ -->
     <defs>
      <path d="M 25.296875 47.5 
C 25.796875 48.703125 26.203125 49.59375 26.203125 50.59375 
C 26.203125 53.5 23.59375 55.90625 20.5 55.90625 
C 17.703125 55.90625 15.90625 54 15.203125 51.40625 
L 3.296875 7.703125 
C 3.296875 7.5 2.90625 6.40625 2.90625 6.296875 
C 2.90625 5.203125 5.5 4.5 6.296875 4.5 
C 6.90625 4.5 7 4.796875 7.59375 6.09375 
z
" id="CMSY10-48"/>
      <path d="M 38.09375 23 
C 38.5 23.40625 38.5 23.609375 38.5 24.625 
C 38.5 34.96875 33.09375 44 21.703125 44 
C 11.09375 44 2.703125 33.890625 2.703125 21.609375 
C 2.703125 8.609375 12.203125 -1 22.796875 -1 
C 34 -1 38.40625 9.484375 38.40625 11.5625 
C 38.40625 12.25 37.796875 12.25 37.59375 12.25 
C 36.90625 12.25 36.796875 12.046875 36.40625 10.875 
C 34.203125 4.140625 28.703125 0.796875 23.5 0.796875 
C 19.203125 0.796875 14.90625 3.171875 12.203125 7.5 
C 9.09375 12.546875 9.09375 18.375 9.09375 23 
z
M 9.203125 24.5 
C 9.90625 39.140625 17.59375 42.40625 21.59375 42.40625 
C 28.40625 42.40625 33 35.890625 33.09375 24.5 
z
" id="CMR17-101"/>
      <path d="M 41.09375 43.78125 
L 39.5 43.78125 
L 36.5 33.9375 
C 34.203125 39.203125 30 43.78125 23.296875 43.78125 
C 13.09375 43.78125 3.296875 34.734375 3.296875 21.609375 
C 3.296875 8.5625 12.5 -0.59375 22.5 -0.59375 
C 30.203125 -0.59375 34.5 5.28125 35.796875 7.46875 
L 35.796875 -12.328125 
C 35.796875 -16.109375 35.40625 -16.609375 29 -16.609375 
L 29 -19.1875 
C 31.40625 -19 35.796875 -19 38.40625 -19 
C 41 -19 45.5 -19 47.90625 -19.1875 
L 47.90625 -16.609375 
C 41.5 -16.609375 41.09375 -16.203125 41.09375 -12.328125 
z
M 36 13.84375 
C 36 9.5625 32.40625 5.578125 32.09375 5.28125 
C 29 1.796875 25.40625 1 23 1 
C 15.5 1 9.703125 10.453125 9.703125 21.484375 
C 9.703125 33.140625 16.296875 42 24 42 
C 32 42 36 32.9375 36 27.765625 
z
" id="CMR17-113"/>
     </defs>
     <g transform="translate(319.386716 294.722251)scale(0.18 -0.18)">
      <use transform="translate(0 24.62935)scale(0.996264)" xlink:href="#CMMI12-34"/>
      <use transform="translate(45.650192 60.782989)scale(0.697382)" xlink:href="#CMSY10-48"/>
      <use transform="translate(45.650192 0)scale(0.697382)" xlink:href="#CMR17-101"/>
      <use transform="translate(73.990024 0)scale(0.697382)" xlink:href="#CMR17-113"/>
     </g>
    </g>
    <g id="line2d_22">
     <path d="M 279.786716 315.337019 
L 315.786716 315.337019 
" style="fill:none;stroke:#ff0000;stroke-linecap:square;stroke-width:2;"/>
    </g>
    <g id="line2d_23"/>
    <g id="text_12">
     <!-- $\varepsilon^\prime_\mathrm{xx}$ -->
     <defs>
      <path d="M 26 23.078125 
C 29 26.96875 32.40625 31.34375 35.203125 34.625 
C 38.5 38.40625 42.296875 40 46.703125 40 
L 46.703125 42.59375 
C 45 42.59375 41.5 42.59375 39.703125 42.59375 
C 37 42.59375 33.90625 42.59375 31.59375 42.6875 
L 31.59375 40.09375 
C 33 39.890625 33.796875 38.890625 33.796875 37.5 
C 33.796875 35.703125 32.796875 34.609375 32.296875 33.921875 
L 24.90625 24.578125 
L 16.09375 36.03125 
C 15.203125 37.125 15.203125 37.3125 15.203125 37.8125 
C 15.203125 39.015625 16.203125 40 17.90625 40 
L 17.90625 42.6875 
C 15.5 42.59375 11.203125 42.59375 8.703125 42.59375 
C 6 42.59375 2.796875 42.59375 0.59375 42.6875 
L 0.59375 40 
C 6 40 7.203125 39.59375 9.59375 36.609375 
L 21.09375 21.796875 
C 21.296875 21.59375 21.796875 21 21.796875 20.703125 
C 21.796875 20.296875 13.09375 9.671875 12 8.28125 
C 7.5 2.890625 2.796875 2.5 0.09375 2.5 
L 0.09375 0 
C 1.796875 0 5.296875 0 7.09375 0 
C 9.09375 0 13.5 0 15.296875 -0.09375 
L 15.296875 2.5 
C 14.703125 2.59375 13.09375 2.796875 13.09375 5.078125 
C 13.09375 6.875 13.90625 7.96875 14.796875 9.15625 
L 23.09375 19.3125 
L 31.796875 8 
C 32.59375 6.90625 33.796875 5.40625 33.796875 4.703125 
C 33.796875 3.296875 32.59375 2.5 31 2.5 
L 31 -0.09375 
C 33.40625 0 37.703125 0 40.203125 0 
C 42.90625 0 46.09375 0 48.296875 -0.09375 
L 48.296875 2.5 
C 43.296875 2.5 41.796875 2.6875 39.40625 5.78125 
z
" id="CMR17-120"/>
     </defs>
     <g transform="translate(319.386716 321.637019)scale(0.18 -0.18)">
      <use transform="translate(0 24.62935)scale(0.996264)" xlink:href="#CMMI12-34"/>
      <use transform="translate(45.650192 60.782989)scale(0.697382)" xlink:href="#CMSY10-48"/>
      <use transform="translate(45.650192 0)scale(0.697382)" xlink:href="#CMR17-120"/>
      <use transform="translate(79.45508 0)scale(0.697382)" xlink:href="#CMR17-120"/>
     </g>
    </g>
    <g id="line2d_24">
     <path d="M 279.786716 344.692601 
L 315.786716 344.692601 
" style="fill:none;stroke:#008000;stroke-linecap:square;stroke-width:2;"/>
    </g>
    <g id="line2d_25"/>
    <g id="text_13">
     <!-- $\varepsilon^\prime_\mathrm{xy}$ -->
     <defs>
      <path d="M 39 34.328125 
C 41.5 40.40625 46 40.40625 47.40625 40.40625 
L 47.40625 43 
C 45.5 43 43 43 41.09375 43 
C 39 43 35.703125 43 33.703125 43.09375 
L 33.703125 40.5 
C 37.5 40.203125 37.59375 37.40625 37.59375 36.609375 
C 37.59375 35.625 37.40625 35.125 36.90625 33.921875 
L 26 7.015625 
L 14.09375 36.03125 
C 13.59375 37.21875 13.59375 37.90625 13.59375 38.015625 
C 13.59375 40.203125 15.90625 40.40625 18.296875 40.40625 
L 18.296875 43.09375 
C 15.90625 43 11.59375 43 9.09375 43 
C 6.40625 43 3.203125 43 1 43.09375 
L 1 40.40625 
C 6.40625 40.40625 7 39.90625 8.296875 36.71875 
L 23.203125 0.234375 
C 18.703125 -11.53125 16.09375 -18.40625 9.796875 -18.40625 
C 8.703125 -18.40625 6.203125 -18.109375 4.40625 -16.3125 
C 6.703125 -16.109375 7.703125 -14.71875 7.703125 -13.015625 
C 7.703125 -11.328125 6.5 -9.828125 4.5 -9.828125 
C 2.296875 -9.828125 1.203125 -11.328125 1.203125 -13.125 
C 1.203125 -17.109375 5.296875 -20 9.796875 -20 
C 15.59375 -20 19.203125 -14.40625 21.203125 -9.4375 
z
" id="CMR17-121"/>
     </defs>
     <g transform="translate(319.386716 350.992601)scale(0.18 -0.18)">
      <use transform="translate(0 24.62935)scale(0.996264)" xlink:href="#CMMI12-34"/>
      <use transform="translate(45.650192 60.782989)scale(0.697382)" xlink:href="#CMSY10-48"/>
      <use transform="translate(45.650192 0)scale(0.697382)" xlink:href="#CMR17-120"/>
      <use transform="translate(79.45508 0)scale(0.697382)" xlink:href="#CMR17-121"/>
     </g>
    </g>
   </g>
  </g>
 </g>
 <defs>
  <clipPath id="p6900997701">
   <rect height="347.740665" width="485.75548" x="67.30452" y="22.94"/>
  </clipPath>
 </defs>
</svg>
