<?xml version="1.0" encoding="utf-8" standalone="no"?>
<!DOCTYPE svg PUBLIC "-//W3C//DTD SVG 1.1//EN"
  "http://www.w3.org/Graphics/SVG/1.1/DTD/svg11.dtd">
<!-- Created with matplotlib (http://matplotlib.org/) -->
<svg height="864pt" version="1.1" viewBox="0 0 1008 864" width="1008pt" xmlns="http://www.w3.org/2000/svg" xmlns:xlink="http://www.w3.org/1999/xlink">
 <defs>
  <style type="text/css">
*{stroke-linecap:butt;stroke-linejoin:round;}
  </style>
 </defs>
 <g id="figure_1">
  <g id="patch_1">
   <path d="M 0 864 
L 1008 864 
L 1008 0 
L 0 0 
z
" style="fill:none;"/>
  </g>
  <g id="axes_1">
   <g id="patch_2">
    <path d="M 76.689386 382.060456 
L 487.123348 382.060456 
L 487.123348 22.94 
L 76.689386 22.94 
z
" style="fill:none;"/>
   </g>
   <g id="matplotlib.axis_1">
    <g id="xtick_1">
     <g id="line2d_1">
      <defs>
       <path d="M 0 0 
L 0 3.5 
" id="mb1c1e67a75" style="stroke:#000000;stroke-width:0.8;"/>
      </defs>
      <g>
       <use style="stroke:#000000;stroke-width:0.8;" x="95.345475" xlink:href="#mb1c1e67a75" y="382.060456"/>
      </g>
     </g>
     <g id="text_1">
      <!-- $0$ -->
      <defs>
       <path d="M 42 31.640625 
C 42 37.75 41.90625 48.125 37.703125 56.109375 
C 34 63.109375 28.09375 65.59375 22.90625 65.59375 
C 18.09375 65.59375 12 63.40625 8.203125 56.203125 
C 4.203125 48.71875 3.796875 39.4375 3.796875 31.640625 
C 3.796875 25.953125 3.90625 17.28125 7 9.671875 
C 11.296875 -0.609375 19 -2 22.90625 -2 
C 27.5 -2 34.5 -0.109375 38.59375 9.375 
C 41.59375 16.28125 42 24.359375 42 31.640625 
z
M 22.90625 -0.40625 
C 16.5 -0.40625 12.703125 5.078125 11.296875 12.6875 
C 10.203125 18.5625 10.203125 27.15625 10.203125 32.75 
C 10.203125 40.4375 10.203125 46.828125 11.5 52.921875 
C 13.40625 61.390625 19 64 22.90625 64 
C 27 64 32.296875 61.296875 34.203125 53.125 
C 35.5 47.4375 35.59375 40.734375 35.59375 32.75 
C 35.59375 26.25 35.59375 18.265625 34.40625 12.375 
C 32.296875 1.484375 26.40625 -0.40625 22.90625 -0.40625 
z
" id="CMR17-48"/>
      </defs>
      <g transform="translate(91.688823 399.434046)scale(0.14994 -0.14994)">
       <use transform="scale(0.996264)" xlink:href="#CMR17-48"/>
      </g>
     </g>
    </g>
    <g id="xtick_2">
     <g id="line2d_2">
      <g>
       <use style="stroke:#000000;stroke-width:0.8;" x="169.969832" xlink:href="#mb1c1e67a75" y="382.060456"/>
      </g>
     </g>
     <g id="text_2">
      <!-- $2$ -->
      <defs>
       <path d="M 41.703125 15.453125 
L 39.90625 15.453125 
C 38.90625 8.375 38.09375 7.171875 37.703125 6.5625 
C 37.203125 5.765625 30 5.765625 28.59375 5.765625 
L 9.40625 5.765625 
C 13 9.671875 20 16.75 28.5 24.953125 
C 34.59375 30.734375 41.703125 37.53125 41.703125 47.421875 
C 41.703125 59.21875 32.296875 66 21.796875 66 
C 10.796875 66 4.09375 56.3125 4.09375 47.34375 
C 4.09375 43.4375 7 42.9375 8.203125 42.9375 
C 9.203125 42.9375 12.203125 43.546875 12.203125 47.03125 
C 12.203125 50.109375 9.59375 51 8.203125 51 
C 7.59375 51 7 50.90625 6.59375 50.703125 
C 8.5 59.21875 14.296875 63.40625 20.40625 63.40625 
C 29.09375 63.40625 34.796875 56.515625 34.796875 47.421875 
C 34.796875 38.734375 29.703125 31.25 24 24.75 
L 4.09375 2.28125 
L 4.09375 0 
L 39.296875 0 
z
" id="CMR17-50"/>
      </defs>
      <g transform="translate(166.31318 399.434046)scale(0.14994 -0.14994)">
       <use transform="scale(0.996264)" xlink:href="#CMR17-50"/>
      </g>
     </g>
    </g>
    <g id="xtick_3">
     <g id="line2d_3">
      <g>
       <use style="stroke:#000000;stroke-width:0.8;" x="244.594189" xlink:href="#mb1c1e67a75" y="382.060456"/>
      </g>
     </g>
     <g id="text_3">
      <!-- $4$ -->
      <defs>
       <path d="M 33.59375 64.40625 
C 33.59375 66.5 33.5 66.5 31.703125 66.5 
L 2 19.59375 
L 2 17 
L 27.796875 17 
L 27.796875 7.140625 
C 27.796875 3.5 27.59375 2.5 20.59375 2.5 
L 18.703125 2.5 
L 18.703125 0 
C 21.90625 0 27.296875 0 30.703125 0 
C 34.09375 0 39.5 0 42.703125 0 
L 42.703125 2.5 
L 40.796875 2.5 
C 33.796875 2.5 33.59375 3.5 33.59375 7.140625 
L 33.59375 17 
L 43.796875 17 
L 43.796875 19.59375 
L 33.59375 19.59375 
z
M 28.09375 57.859375 
L 28.09375 19.59375 
L 4 19.59375 
z
" id="CMR17-52"/>
      </defs>
      <g transform="translate(240.937537 399.434046)scale(0.14994 -0.14994)">
       <use transform="scale(0.996264)" xlink:href="#CMR17-52"/>
      </g>
     </g>
    </g>
    <g id="xtick_4">
     <g id="line2d_4">
      <g>
       <use style="stroke:#000000;stroke-width:0.8;" x="319.218545" xlink:href="#mb1c1e67a75" y="382.060456"/>
      </g>
     </g>
     <g id="text_4">
      <!-- $6$ -->
      <defs>
       <path d="M 10.59375 34 
C 10.59375 57.65625 21.796875 63 28.296875 63 
C 30.40625 63 35.5 62.640625 37.5 59 
C 35.90625 59 32.90625 59 32.90625 55.515625 
C 32.90625 52.828125 35.09375 51.921875 36.5 51.921875 
C 37.40625 51.921875 40.09375 52.3125 40.09375 55.625 
C 40.09375 61.78125 35.09375 65.296875 28.203125 65.296875 
C 16.296875 65.296875 3.796875 52.96875 3.796875 31 
C 3.796875 3.953125 15.09375 -2 23.09375 -2 
C 32.796875 -2 42 6.671875 42 20.046875 
C 42 32.515625 33.90625 41.59375 23.703125 41.59375 
C 17.59375 41.59375 13.09375 37.609375 10.59375 30.625 
z
M 23.09375 0.390625 
C 10.796875 0.390625 10.796875 18.75 10.796875 22.4375 
C 10.796875 29.625 14.203125 40 23.5 40 
C 25.203125 40 30.09375 40 33.40625 33.125 
C 35.203125 29.21875 35.203125 25.140625 35.203125 20.140625 
C 35.203125 14.75 35.203125 10.78125 33.09375 6.78125 
C 30.90625 2.671875 27.703125 0.390625 23.09375 0.390625 
z
" id="CMR17-54"/>
      </defs>
      <g transform="translate(315.561893 399.434046)scale(0.14994 -0.14994)">
       <use transform="scale(0.996264)" xlink:href="#CMR17-54"/>
      </g>
     </g>
    </g>
    <g id="xtick_5">
     <g id="line2d_5">
      <g>
       <use style="stroke:#000000;stroke-width:0.8;" x="393.842902" xlink:href="#mb1c1e67a75" y="382.060456"/>
      </g>
     </g>
     <g id="text_5">
      <!-- $8$ -->
      <defs>
       <path d="M 27.203125 35.375 
C 33.5 38.546875 39.90625 43.328125 39.90625 50.984375 
C 39.90625 60.015625 31.09375 65.296875 23 65.296875 
C 13.90625 65.296875 5.90625 58.734375 5.90625 49.6875 
C 5.90625 47.203125 6.5 42.921875 10.40625 39.140625 
C 11.40625 38.15625 15.59375 35.171875 18.296875 33.28125 
C 13.796875 30.984375 3.296875 25.53125 3.296875 14.59375 
C 3.296875 4.359375 13.09375 -2 22.796875 -2 
C 33.5 -2 42.5 5.65625 42.5 15.78125 
C 42.5 24.84375 36.40625 29.015625 32.40625 31.703125 
z
M 14.09375 44.09375 
C 13.296875 44.59375 9.296875 47.671875 9.296875 52.359375 
C 9.296875 58.421875 15.59375 63 22.796875 63 
C 30.703125 63 36.5 57.4375 36.5 50.96875 
C 36.5 41.703125 26.09375 36.421875 25.59375 36.421875 
C 25.5 36.421875 25.40625 36.421875 24.59375 37.03125 
z
M 32.5 23.734375 
C 34 22.640625 38.796875 19.375 38.796875 13.296875 
C 38.796875 5.953125 31.40625 0.390625 23 0.390625 
C 13.90625 0.390625 7 6.84375 7 14.6875 
C 7 22.546875 13.09375 29.09375 20 32.1875 
z
" id="CMR17-56"/>
      </defs>
      <g transform="translate(390.18625 399.434046)scale(0.14994 -0.14994)">
       <use transform="scale(0.996264)" xlink:href="#CMR17-56"/>
      </g>
     </g>
    </g>
    <g id="xtick_6">
     <g id="line2d_6">
      <g>
       <use style="stroke:#000000;stroke-width:0.8;" x="468.467259" xlink:href="#mb1c1e67a75" y="382.060456"/>
      </g>
     </g>
     <g id="text_6">
      <!-- $10$ -->
      <defs>
       <path d="M 26.59375 63.40625 
C 26.59375 65.5 26.5 65.5 25.09375 65.5 
C 21.203125 61.1875 15.296875 59.796875 9.703125 59.796875 
C 9.40625 59.796875 8.90625 59.796875 8.796875 59.5 
C 8.703125 59.296875 8.703125 59.09375 8.703125 57 
C 11.796875 57 17 57.59375 21 59.984375 
L 21 7.203125 
C 21 3.6875 20.796875 2.5 12.203125 2.5 
L 9.203125 2.5 
L 9.203125 0 
C 14 0 19 0 23.796875 0 
C 28.59375 0 33.59375 0 38.40625 0 
L 38.40625 2.5 
L 35.40625 2.5 
C 26.796875 2.5 26.59375 3.59375 26.59375 7.15625 
z
" id="CMR17-49"/>
      </defs>
      <g transform="translate(461.153955 399.434046)scale(0.14994 -0.14994)">
       <use transform="scale(0.996264)" xlink:href="#CMR17-49"/>
       <use transform="translate(45.690477 0)scale(0.996264)" xlink:href="#CMR17-48"/>
      </g>
     </g>
    </g>
    <g id="text_7">
     <!-- $\varepsilon_\mathrm{xy}$ -->
     <defs>
      <path d="M 13.90625 22.296875 
C 17.09375 21.015625 20.5 21.015625 22.40625 21.015625 
C 25 21.015625 30.203125 21.015625 30.203125 24.21875 
C 30.203125 26.21875 28.296875 27 23.203125 27 
C 20.703125 27 17.703125 26.703125 14.203125 25.203125 
C 11.09375 26.6875 9.90625 28.9375 9.90625 31.09375 
C 9.90625 37.171875 19.703125 40.71875 28.59375 40.71875 
C 30.296875 40.71875 33.90625 40.71875 38.09375 37.671875 
C 38.703125 37.296875 39 36.984375 39.703125 36.984375 
C 40.90625 36.984375 42.203125 38.265625 42.203125 39.46875 
C 42.203125 41.234375 36.40625 45 29.5 45 
C 18.296875 45 7.703125 38.265625 7.703125 30.8125 
C 7.703125 27.09375 10.09375 24.78125 11.796875 23.578125 
C 6 20.328125 2.59375 15.015625 2.59375 10.1875 
C 2.59375 3.421875 8.796875 -2 18.40625 -2 
C 31.59375 -2 36.90625 6.625 36.90625 8 
C 36.90625 8.484375 36.5 8.875 36 8.875 
C 35.5 8.875 35.296875 8.578125 34.90625 8 
C 33.796875 6.171875 31.203125 2.28125 19.296875 2.28125 
C 13.09375 2.28125 4.90625 3.828125 4.90625 10.71875 
C 4.90625 14.03125 7.40625 18.96875 13.90625 22.296875 
z
M 17 23.71875 
C 19.703125 25 22.296875 25 23 25 
C 25.796875 25 26.296875 24.734375 27.90625 24.140625 
C 26.203125 23 26 23 22.40625 23 
C 20.59375 23 19 23 17 23.71875 
z
" id="CMMI12-34"/>
      <path d="M 26 23.078125 
C 29 26.96875 32.40625 31.34375 35.203125 34.625 
C 38.5 38.40625 42.296875 40 46.703125 40 
L 46.703125 42.59375 
C 45 42.59375 41.5 42.59375 39.703125 42.59375 
C 37 42.59375 33.90625 42.59375 31.59375 42.6875 
L 31.59375 40.09375 
C 33 39.890625 33.796875 38.890625 33.796875 37.5 
C 33.796875 35.703125 32.796875 34.609375 32.296875 33.921875 
L 24.90625 24.578125 
L 16.09375 36.03125 
C 15.203125 37.125 15.203125 37.3125 15.203125 37.8125 
C 15.203125 39.015625 16.203125 40 17.90625 40 
L 17.90625 42.6875 
C 15.5 42.59375 11.203125 42.59375 8.703125 42.59375 
C 6 42.59375 2.796875 42.59375 0.59375 42.6875 
L 0.59375 40 
C 6 40 7.203125 39.59375 9.59375 36.609375 
L 21.09375 21.796875 
C 21.296875 21.59375 21.796875 21 21.796875 20.703125 
C 21.796875 20.296875 13.09375 9.671875 12 8.28125 
C 7.5 2.890625 2.796875 2.5 0.09375 2.5 
L 0.09375 0 
C 1.796875 0 5.296875 0 7.09375 0 
C 9.09375 0 13.5 0 15.296875 -0.09375 
L 15.296875 2.5 
C 14.703125 2.59375 13.09375 2.796875 13.09375 5.078125 
C 13.09375 6.875 13.90625 7.96875 14.796875 9.15625 
L 23.09375 19.3125 
L 31.796875 8 
C 32.59375 6.90625 33.796875 5.40625 33.796875 4.703125 
C 33.796875 3.296875 32.59375 2.5 31 2.5 
L 31 -0.09375 
C 33.40625 0 37.703125 0 40.203125 0 
C 42.90625 0 46.09375 0 48.296875 -0.09375 
L 48.296875 2.5 
C 43.296875 2.5 41.796875 2.6875 39.40625 5.78125 
z
" id="CMR17-120"/>
      <path d="M 39 34.328125 
C 41.5 40.40625 46 40.40625 47.40625 40.40625 
L 47.40625 43 
C 45.5 43 43 43 41.09375 43 
C 39 43 35.703125 43 33.703125 43.09375 
L 33.703125 40.5 
C 37.5 40.203125 37.59375 37.40625 37.59375 36.609375 
C 37.59375 35.625 37.40625 35.125 36.90625 33.921875 
L 26 7.015625 
L 14.09375 36.03125 
C 13.59375 37.21875 13.59375 37.90625 13.59375 38.015625 
C 13.59375 40.203125 15.90625 40.40625 18.296875 40.40625 
L 18.296875 43.09375 
C 15.90625 43 11.59375 43 9.09375 43 
C 6.40625 43 3.203125 43 1 43.09375 
L 1 40.40625 
C 6.40625 40.40625 7 39.90625 8.296875 36.71875 
L 23.203125 0.234375 
C 18.703125 -11.53125 16.09375 -18.40625 9.796875 -18.40625 
C 8.703125 -18.40625 6.203125 -18.109375 4.40625 -16.3125 
C 6.703125 -16.109375 7.703125 -14.71875 7.703125 -13.015625 
C 7.703125 -11.328125 6.5 -9.828125 4.5 -9.828125 
C 2.296875 -9.828125 1.203125 -11.328125 1.203125 -13.125 
C 1.203125 -17.109375 5.296875 -20 9.796875 -20 
C 15.59375 -20 19.203125 -14.40625 21.203125 -9.4375 
z
" id="CMR17-121"/>
     </defs>
     <g transform="translate(271.310823 418.791936)scale(0.18 -0.18)">
      <use transform="translate(0 14.943915)scale(0.996264)" xlink:href="#CMMI12-34"/>
      <use transform="translate(45.650192 0)scale(0.697382)" xlink:href="#CMR17-120"/>
      <use transform="translate(79.45508 0)scale(0.697382)" xlink:href="#CMR17-121"/>
     </g>
    </g>
   </g>
   <g id="matplotlib.axis_2">
    <g id="ytick_1">
     <g id="line2d_7">
      <defs>
       <path d="M 0 0 
L -3.5 0 
" id="m3481468d54" style="stroke:#000000;stroke-width:0.8;"/>
      </defs>
      <g>
       <use style="stroke:#000000;stroke-width:0.8;" x="76.689386" xlink:href="#m3481468d54" y="361.680068"/>
      </g>
     </g>
     <g id="text_8">
      <!-- $-2.0$ -->
      <defs>
       <path d="M 65.90625 23 
C 67.59375 23 69.40625 23 69.40625 25 
C 69.40625 27 67.59375 27 65.90625 27 
L 11.796875 27 
C 10.09375 27 8.296875 27 8.296875 25 
C 8.296875 23 10.09375 23 11.796875 23 
z
" id="CMSY10-0"/>
       <path d="M 18.40625 4.796875 
C 18.40625 7.6875 16 9.671875 13.59375 9.671875 
C 10.703125 9.671875 8.703125 7.28125 8.703125 4.890625 
C 8.703125 2 11.09375 0 13.5 0 
C 16.40625 0 18.40625 2.390625 18.40625 4.796875 
z
" id="CMMI12-58"/>
      </defs>
      <g transform="translate(39.381364 366.866862)scale(0.14994 -0.14994)">
       <use transform="scale(0.996264)" xlink:href="#CMSY10-0"/>
       <use transform="translate(77.487468 0)scale(0.996264)" xlink:href="#CMR17-50"/>
       <use transform="translate(123.177945 0)scale(0.996264)" xlink:href="#CMMI12-58"/>
       <use transform="translate(150.275122 0)scale(0.996264)" xlink:href="#CMR17-48"/>
      </g>
     </g>
    </g>
    <g id="ytick_2">
     <g id="line2d_8">
      <g>
       <use style="stroke:#000000;stroke-width:0.8;" x="76.689386" xlink:href="#m3481468d54" y="320.867864"/>
      </g>
     </g>
     <g id="text_9">
      <!-- $-1.5$ -->
      <defs>
       <path d="M 11.40625 57.6875 
C 12.40625 57.28125 16.5 56 20.703125 56 
C 30 56 35.09375 61.109375 38 64.0625 
C 38 64.953125 38 65.5 37.40625 65.5 
C 37.296875 65.5 37.09375 65.5 36.296875 65.046875 
C 32.796875 63.40625 28.703125 62.078125 23.703125 62.078125 
C 20.703125 62.078125 16.203125 62.484375 11.296875 64.671875 
C 10.203125 65.171875 10 65.171875 9.90625 65.171875 
C 9.40625 65.171875 9.296875 65.0625 9.296875 63.078125 
L 9.296875 34.421875 
C 9.296875 32.640625 9.296875 32.140625 10.296875 32.140625 
C 10.796875 32.140625 11 32.34375 11.5 33.03125 
C 14.703125 37.515625 19.09375 39.40625 24.09375 39.40625 
C 27.59375 39.40625 35.09375 37.21875 35.09375 20.140625 
C 35.09375 16.953125 35.09375 11.171875 32.09375 6.578125 
C 29.59375 2.484375 25.703125 0.390625 21.40625 0.390625 
C 14.796875 0.390625 8.09375 5 6.296875 12.71875 
C 6.703125 12.609375 7.5 12.421875 7.90625 12.421875 
C 9.203125 12.421875 11.703125 13.125 11.703125 16.21875 
C 11.703125 18.90625 9.796875 20 7.90625 20 
C 5.59375 20 4.09375 18.59375 4.09375 15.796875 
C 4.09375 7.09375 11 -2 21.59375 -2 
C 31.90625 -2 41.703125 6.875 41.703125 19.75 
C 41.703125 31.71875 33.90625 41 24.203125 41 
C 19.09375 41 14.796875 39.109375 11.40625 35.53125 
z
" id="CMR17-53"/>
      </defs>
      <g transform="translate(39.381364 326.054659)scale(0.14994 -0.14994)">
       <use transform="scale(0.996264)" xlink:href="#CMSY10-0"/>
       <use transform="translate(77.487468 0)scale(0.996264)" xlink:href="#CMR17-49"/>
       <use transform="translate(123.177945 0)scale(0.996264)" xlink:href="#CMMI12-58"/>
       <use transform="translate(150.275122 0)scale(0.996264)" xlink:href="#CMR17-53"/>
      </g>
     </g>
    </g>
    <g id="ytick_3">
     <g id="line2d_9">
      <g>
       <use style="stroke:#000000;stroke-width:0.8;" x="76.689386" xlink:href="#m3481468d54" y="280.05566"/>
      </g>
     </g>
     <g id="text_10">
      <!-- $-1.0$ -->
      <g transform="translate(39.381364 285.242455)scale(0.14994 -0.14994)">
       <use transform="scale(0.996264)" xlink:href="#CMSY10-0"/>
       <use transform="translate(77.487468 0)scale(0.996264)" xlink:href="#CMR17-49"/>
       <use transform="translate(123.177945 0)scale(0.996264)" xlink:href="#CMMI12-58"/>
       <use transform="translate(150.275122 0)scale(0.996264)" xlink:href="#CMR17-48"/>
      </g>
     </g>
    </g>
    <g id="ytick_4">
     <g id="line2d_10">
      <g>
       <use style="stroke:#000000;stroke-width:0.8;" x="76.689386" xlink:href="#m3481468d54" y="239.243456"/>
      </g>
     </g>
     <g id="text_11">
      <!-- $-0.5$ -->
      <g transform="translate(39.381364 244.430251)scale(0.14994 -0.14994)">
       <use transform="scale(0.996264)" xlink:href="#CMSY10-0"/>
       <use transform="translate(77.487468 0)scale(0.996264)" xlink:href="#CMR17-48"/>
       <use transform="translate(123.177945 0)scale(0.996264)" xlink:href="#CMMI12-58"/>
       <use transform="translate(150.275122 0)scale(0.996264)" xlink:href="#CMR17-53"/>
      </g>
     </g>
    </g>
    <g id="ytick_5">
     <g id="line2d_11">
      <g>
       <use style="stroke:#000000;stroke-width:0.8;" x="76.689386" xlink:href="#m3481468d54" y="198.431252"/>
      </g>
     </g>
     <g id="text_12">
      <!-- $0.0$ -->
      <g transform="translate(50.999828 203.618047)scale(0.14994 -0.14994)">
       <use transform="scale(0.996264)" xlink:href="#CMR17-48"/>
       <use transform="translate(45.690477 0)scale(0.996264)" xlink:href="#CMMI12-58"/>
       <use transform="translate(72.787654 0)scale(0.996264)" xlink:href="#CMR17-48"/>
      </g>
     </g>
    </g>
    <g id="ytick_6">
     <g id="line2d_12">
      <g>
       <use style="stroke:#000000;stroke-width:0.8;" x="76.689386" xlink:href="#m3481468d54" y="157.619048"/>
      </g>
     </g>
     <g id="text_13">
      <!-- $0.5$ -->
      <g transform="translate(50.999828 162.805843)scale(0.14994 -0.14994)">
       <use transform="scale(0.996264)" xlink:href="#CMR17-48"/>
       <use transform="translate(45.690477 0)scale(0.996264)" xlink:href="#CMMI12-58"/>
       <use transform="translate(72.787654 0)scale(0.996264)" xlink:href="#CMR17-53"/>
      </g>
     </g>
    </g>
    <g id="ytick_7">
     <g id="line2d_13">
      <g>
       <use style="stroke:#000000;stroke-width:0.8;" x="76.689386" xlink:href="#m3481468d54" y="116.806844"/>
      </g>
     </g>
     <g id="text_14">
      <!-- $1.0$ -->
      <g transform="translate(50.999828 121.993639)scale(0.14994 -0.14994)">
       <use transform="scale(0.996264)" xlink:href="#CMR17-49"/>
       <use transform="translate(45.690477 0)scale(0.996264)" xlink:href="#CMMI12-58"/>
       <use transform="translate(72.787654 0)scale(0.996264)" xlink:href="#CMR17-48"/>
      </g>
     </g>
    </g>
    <g id="ytick_8">
     <g id="line2d_14">
      <g>
       <use style="stroke:#000000;stroke-width:0.8;" x="76.689386" xlink:href="#m3481468d54" y="75.994641"/>
      </g>
     </g>
     <g id="text_15">
      <!-- $1.5$ -->
      <g transform="translate(50.999828 81.181436)scale(0.14994 -0.14994)">
       <use transform="scale(0.996264)" xlink:href="#CMR17-49"/>
       <use transform="translate(45.690477 0)scale(0.996264)" xlink:href="#CMMI12-58"/>
       <use transform="translate(72.787654 0)scale(0.996264)" xlink:href="#CMR17-53"/>
      </g>
     </g>
    </g>
    <g id="ytick_9">
     <g id="line2d_15">
      <g>
       <use style="stroke:#000000;stroke-width:0.8;" x="76.689386" xlink:href="#m3481468d54" y="35.182437"/>
      </g>
     </g>
     <g id="text_16">
      <!-- $2.0$ -->
      <g transform="translate(50.999828 40.369232)scale(0.14994 -0.14994)">
       <use transform="scale(0.996264)" xlink:href="#CMR17-50"/>
       <use transform="translate(45.690477 0)scale(0.996264)" xlink:href="#CMMI12-58"/>
       <use transform="translate(72.787654 0)scale(0.996264)" xlink:href="#CMR17-48"/>
      </g>
     </g>
    </g>
    <g id="text_17">
     <!-- $\sigma_\mathrm{xy}$ -->
     <defs>
      <path d="M 50.796875 37.625 
C 52.09375 37.625 55.40625 37.625 55.40625 40.8125 
C 55.40625 43 53.5 43 51.703125 43 
L 29.59375 43 
C 14.59375 43 3.796875 26.34375 3.796875 14.5625 
C 3.796875 6.09375 9.296875 -1 18.296875 -1 
C 30.09375 -1 43 11.671875 43 26.640625 
C 43 30.53125 42.09375 34.3125 39.703125 37.625 
z
M 18.40625 1 
C 13.296875 1 9.59375 4.890625 9.59375 11.78125 
C 9.59375 17.765625 13.203125 37.625 27.90625 37.625 
C 32.203125 37.625 37 35.53125 37 27.828125 
C 37 24.34375 35.40625 15.953125 31.90625 10.1875 
C 28.296875 4.296875 22.90625 1 18.40625 1 
z
" id="CMMI12-27"/>
     </defs>
     <g transform="translate(31.8933 213.977346)rotate(-90)scale(0.18 -0.18)">
      <use transform="translate(0 14.943915)scale(0.996264)" xlink:href="#CMMI12-27"/>
      <use transform="translate(55.445461 0)scale(0.697382)" xlink:href="#CMR17-120"/>
      <use transform="translate(89.250348 0)scale(0.697382)" xlink:href="#CMR17-121"/>
     </g>
    </g>
   </g>
   <g id="line2d_16">
    <path clip-path="url(#pc9d52fe000)" d="M 95.345475 198.431252 
L 132.640862 116.843577 
L 132.659519 218.833273 
L 132.752804 218.629201 
L 151.297884 178.059842 
L 151.316541 259.643436 
L 151.409826 259.439365 
L 207.26895 137.241516 
L 207.287607 320.855619 
L 207.380892 320.651548 
L 319.211083 76.010966 
L 319.22974 365.736799 
L 319.323025 365.532728 
L 468.467259 39.263657 
L 468.467259 39.263657 
" style="fill:none;stroke:#000000;stroke-linecap:square;stroke-width:2;"/>
   </g>
   <g id="patch_3">
    <path d="M 76.689386 382.060456 
L 76.689386 22.94 
" style="fill:none;stroke:#000000;stroke-linecap:square;stroke-linejoin:miter;stroke-width:0.8;"/>
   </g>
   <g id="patch_4">
    <path d="M 76.689386 382.060456 
L 487.123348 382.060456 
" style="fill:none;stroke:#000000;stroke-linecap:square;stroke-linejoin:miter;stroke-width:0.8;"/>
   </g>
  </g>
  <g id="axes_2">
   <g id="patch_5">
    <path d="M 574.626038 382.060456 
L 985.06 382.060456 
L 985.06 22.94 
L 574.626038 22.94 
z
" style="fill:none;"/>
   </g>
   <g id="matplotlib.axis_3">
    <g id="xtick_7">
     <g id="line2d_17">
      <g>
       <use style="stroke:#000000;stroke-width:0.8;" x="593.282127" xlink:href="#mb1c1e67a75" y="382.060456"/>
      </g>
     </g>
     <g id="text_18">
      <!-- $0$ -->
      <g transform="translate(589.625475 399.434046)scale(0.14994 -0.14994)">
       <use transform="scale(0.996264)" xlink:href="#CMR17-48"/>
      </g>
     </g>
    </g>
    <g id="xtick_8">
     <g id="line2d_18">
      <g>
       <use style="stroke:#000000;stroke-width:0.8;" x="667.906484" xlink:href="#mb1c1e67a75" y="382.060456"/>
      </g>
     </g>
     <g id="text_19">
      <!-- $2$ -->
      <g transform="translate(664.249832 399.434046)scale(0.14994 -0.14994)">
       <use transform="scale(0.996264)" xlink:href="#CMR17-50"/>
      </g>
     </g>
    </g>
    <g id="xtick_9">
     <g id="line2d_19">
      <g>
       <use style="stroke:#000000;stroke-width:0.8;" x="742.530841" xlink:href="#mb1c1e67a75" y="382.060456"/>
      </g>
     </g>
     <g id="text_20">
      <!-- $4$ -->
      <g transform="translate(738.874189 399.434046)scale(0.14994 -0.14994)">
       <use transform="scale(0.996264)" xlink:href="#CMR17-52"/>
      </g>
     </g>
    </g>
    <g id="xtick_10">
     <g id="line2d_20">
      <g>
       <use style="stroke:#000000;stroke-width:0.8;" x="817.155197" xlink:href="#mb1c1e67a75" y="382.060456"/>
      </g>
     </g>
     <g id="text_21">
      <!-- $6$ -->
      <g transform="translate(813.498545 399.434046)scale(0.14994 -0.14994)">
       <use transform="scale(0.996264)" xlink:href="#CMR17-54"/>
      </g>
     </g>
    </g>
    <g id="xtick_11">
     <g id="line2d_21">
      <g>
       <use style="stroke:#000000;stroke-width:0.8;" x="891.779554" xlink:href="#mb1c1e67a75" y="382.060456"/>
      </g>
     </g>
     <g id="text_22">
      <!-- $8$ -->
      <g transform="translate(888.122902 399.434046)scale(0.14994 -0.14994)">
       <use transform="scale(0.996264)" xlink:href="#CMR17-56"/>
      </g>
     </g>
    </g>
    <g id="xtick_12">
     <g id="line2d_22">
      <g>
       <use style="stroke:#000000;stroke-width:0.8;" x="966.403911" xlink:href="#mb1c1e67a75" y="382.060456"/>
      </g>
     </g>
     <g id="text_23">
      <!-- $10$ -->
      <g transform="translate(959.090607 399.434046)scale(0.14994 -0.14994)">
       <use transform="scale(0.996264)" xlink:href="#CMR17-49"/>
       <use transform="translate(45.690477 0)scale(0.996264)" xlink:href="#CMR17-48"/>
      </g>
     </g>
    </g>
    <g id="text_24">
     <!-- $\varepsilon_\mathrm{xy}$ -->
     <g transform="translate(769.247475 418.791936)scale(0.18 -0.18)">
      <use transform="translate(0 14.943915)scale(0.996264)" xlink:href="#CMMI12-34"/>
      <use transform="translate(45.650192 0)scale(0.697382)" xlink:href="#CMR17-120"/>
      <use transform="translate(79.45508 0)scale(0.697382)" xlink:href="#CMR17-121"/>
     </g>
    </g>
   </g>
   <g id="matplotlib.axis_4">
    <g id="ytick_10">
     <g id="line2d_23">
      <g>
       <use style="stroke:#000000;stroke-width:0.8;" x="574.626038" xlink:href="#m3481468d54" y="350.005401"/>
      </g>
     </g>
     <g id="text_25">
      <!-- $-4$ -->
      <g transform="translate(548.69427 355.192196)scale(0.14994 -0.14994)">
       <use transform="scale(0.996264)" xlink:href="#CMSY10-0"/>
       <use transform="translate(77.487468 0)scale(0.996264)" xlink:href="#CMR17-52"/>
      </g>
     </g>
    </g>
    <g id="ytick_11">
     <g id="line2d_24">
      <g>
       <use style="stroke:#000000;stroke-width:0.8;" x="574.626038" xlink:href="#m3481468d54" y="272.31948"/>
      </g>
     </g>
     <g id="text_26">
      <!-- $-3$ -->
      <defs>
       <path d="M 22.09375 33.703125 
C 31 33.703125 34.90625 25.96875 34.90625 17.03125 
C 34.90625 5 28.5 0.390625 22.703125 0.390625 
C 17.40625 0.390625 8.796875 3.03125 6.09375 10.828125 
C 6.59375 10.625 7.09375 10.625 7.59375 10.625 
C 10 10.625 11.796875 12.21875 11.796875 14.8125 
C 11.796875 17.703125 9.59375 19 7.59375 19 
C 5.90625 19 3.296875 18.203125 3.296875 14.46875 
C 3.296875 5.234375 12.296875 -2 22.90625 -2 
C 34 -2 42.5 6.71875 42.5 16.953125 
C 42.5 26.671875 34.5 33.703125 25 34.796875 
C 32.59375 36.375 39.90625 43.0625 39.90625 52.015625 
C 39.90625 59.6875 32 65.296875 23 65.296875 
C 13.90625 65.296875 5.90625 59.828125 5.90625 52.015625 
C 5.90625 48.59375 8.5 48 9.796875 48 
C 11.90625 48 13.703125 49.296875 13.703125 51.890625 
C 13.703125 54.46875 11.90625 55.765625 9.796875 55.765625 
C 9.40625 55.765625 8.90625 55.765625 8.5 55.578125 
C 11.40625 61.859375 19.296875 63 22.796875 63 
C 26.296875 63 32.90625 61.328125 32.90625 51.875 
C 32.90625 49.109375 32.5 44.1875 29.09375 39.84375 
C 26.09375 36 22.703125 36 19.40625 35.6875 
C 18.90625 35.6875 16.59375 35.453125 16.203125 35.453125 
C 15.5 35.359375 15.09375 35.265625 15.09375 34.5 
C 15.09375 33.796875 15.203125 33.703125 17.203125 33.703125 
z
" id="CMR17-51"/>
      </defs>
      <g transform="translate(548.69427 277.506274)scale(0.14994 -0.14994)">
       <use transform="scale(0.996264)" xlink:href="#CMSY10-0"/>
       <use transform="translate(77.487468 0)scale(0.996264)" xlink:href="#CMR17-51"/>
      </g>
     </g>
    </g>
    <g id="ytick_12">
     <g id="line2d_25">
      <g>
       <use style="stroke:#000000;stroke-width:0.8;" x="574.626038" xlink:href="#m3481468d54" y="194.633558"/>
      </g>
     </g>
     <g id="text_27">
      <!-- $-2$ -->
      <g transform="translate(548.69427 199.820353)scale(0.14994 -0.14994)">
       <use transform="scale(0.996264)" xlink:href="#CMSY10-0"/>
       <use transform="translate(77.487468 0)scale(0.996264)" xlink:href="#CMR17-50"/>
      </g>
     </g>
    </g>
    <g id="ytick_13">
     <g id="line2d_26">
      <g>
       <use style="stroke:#000000;stroke-width:0.8;" x="574.626038" xlink:href="#m3481468d54" y="116.947637"/>
      </g>
     </g>
     <g id="text_28">
      <!-- $-1$ -->
      <g transform="translate(548.69427 122.134431)scale(0.14994 -0.14994)">
       <use transform="scale(0.996264)" xlink:href="#CMSY10-0"/>
       <use transform="translate(77.487468 0)scale(0.996264)" xlink:href="#CMR17-49"/>
      </g>
     </g>
    </g>
    <g id="ytick_14">
     <g id="line2d_27">
      <g>
       <use style="stroke:#000000;stroke-width:0.8;" x="574.626038" xlink:href="#m3481468d54" y="39.261715"/>
      </g>
     </g>
     <g id="text_29">
      <!-- $0$ -->
      <g transform="translate(560.312734 44.44851)scale(0.14994 -0.14994)">
       <use transform="scale(0.996264)" xlink:href="#CMR17-48"/>
      </g>
     </g>
    </g>
    <g id="text_30">
     <!-- $E$ -->
     <defs>
      <path d="M 69.5 23.265625 
C 69.59375 23.5625 69.90625 24.28125 69.90625 24.671875 
C 69.90625 25.171875 69.5 25.671875 68.90625 25.671875 
C 68.5 25.671875 68.296875 25.578125 68 25.265625 
C 67.796875 25.171875 67.796875 24.96875 66.90625 22.953125 
C 61 8.90625 56.703125 2.890625 40.703125 2.890625 
L 26.09375 2.890625 
C 24.703125 2.890625 24.5 2.890625 23.90625 3 
C 22.796875 3.09375 22.703125 3.296875 22.703125 4.09375 
C 22.703125 4.796875 22.90625 5.390625 23.09375 6.296875 
L 30 34 
L 39.90625 34 
C 47.703125 34 48.296875 32.28125 48.296875 29.28125 
C 48.296875 28.28125 48.296875 27.375 47.59375 24.375 
C 47.40625 23.96875 47.296875 23.5625 47.296875 23.265625 
C 47.296875 22.5625 47.796875 22.265625 48.40625 22.265625 
C 49.296875 22.265625 49.40625 22.953125 49.796875 24.359375 
L 55.5 47.53125 
C 55.5 48.015625 55.09375 48.515625 54.5 48.515625 
C 53.59375 48.515625 53.5 48.125 53.09375 46.71875 
C 51.09375 39.078125 49.09375 36.890625 40.203125 36.890625 
L 30.703125 36.890625 
L 36.90625 61.40625 
C 37.796875 64.90625 38 64.90625 42.09375 64.90625 
L 56.40625 64.90625 
C 68.703125 64.90625 71.203125 61.609375 71.203125 54.03125 
C 71.203125 53.921875 71.203125 51.140625 70.796875 47.84375 
C 70.703125 47.4375 70.59375 46.84375 70.59375 46.640625 
C 70.59375 45.84375 71.09375 45.546875 71.703125 45.546875 
C 72.40625 45.546875 72.796875 45.953125 73 47.734375 
L 75.09375 65.21875 
C 75.09375 65.546875 75.296875 66.609375 75.296875 66.828125 
C 75.296875 68 74.40625 68 72.59375 68 
L 23.796875 68 
C 21.90625 68 20.90625 68 20.90625 66.078125 
C 20.90625 64.90625 21.59375 64.90625 23.296875 64.90625 
C 29.5 64.90625 29.5 64.28125 29.5 63.3125 
C 29.5 62.8125 29.40625 62.40625 29.09375 61.3125 
L 15.59375 7.390625 
C 14.703125 3.890625 14.5 2.890625 7.5 2.890625 
C 5.59375 2.890625 4.59375 2.890625 4.59375 1.09375 
C 4.59375 0 5.203125 0 7.203125 0 
L 57.40625 0 
C 59.59375 0 59.703125 0.09375 60.40625 1.71875 
z
" id="CMMI12-69"/>
     </defs>
     <g transform="translate(541.206206 208.999233)rotate(-90)scale(0.18 -0.18)">
      <use transform="scale(0.996264)" xlink:href="#CMMI12-69"/>
     </g>
    </g>
   </g>
   <g id="line2d_28">
    <path clip-path="url(#p90b44858c1)" d="M 593.282127 116.947637 
L 594.700061 116.835447 
L 596.117994 116.498878 
L 597.554585 115.929053 
L 599.047147 115.093069 
L 600.577023 113.978164 
L 602.181526 112.528245 
L 603.860658 110.70322 
L 605.614419 108.461135 
L 607.461464 105.728668 
L 609.401794 102.448129 
L 611.435409 98.558919 
L 613.56231 93.997522 
L 615.782496 88.697511 
L 618.095966 82.589544 
L 620.521379 75.544669 
L 623.040077 67.533964 
L 625.670717 58.411345 
L 628.394642 48.15135 
L 630.596171 39.263657 
L 630.72677 39.398635 
L 632.424559 40.980134 
L 634.029063 42.179074 
L 635.577596 43.063738 
L 637.070158 43.663145 
L 638.506748 44.005264 
L 639.924682 44.117085 
L 641.342616 44.004526 
L 642.760549 43.667588 
L 644.19714 43.097389 
L 645.689702 42.261017 
L 647.238235 41.130501 
L 648.842739 39.676822 
L 649.253193 39.270455 
L 649.290507 39.3869 
L 651.846519 46.993527 
L 654.290589 53.5851 
L 656.622717 59.253219 
L 658.861559 64.123564 
L 660.98846 68.232253 
L 663.022075 71.688611 
L 664.962406 74.556153 
L 666.790794 76.873754 
L 668.544554 78.746205 
L 670.205029 80.202708 
L 671.790876 81.306478 
L 673.320752 82.105307 
L 674.794656 82.627865 
L 676.231247 82.903878 
L 677.649181 82.950452 
L 679.067114 82.772646 
L 680.485048 82.370461 
L 681.940296 81.724377 
L 683.432857 80.816216 
L 684.98139 79.611219 
L 686.604551 78.060877 
L 688.30234 76.124635 
L 690.074757 73.760071 
L 691.94046 70.8923 
L 693.899447 67.463051 
L 695.951719 63.41114 
L 698.097277 58.672471 
L 700.336119 53.180032 
L 702.686904 46.810923 
L 705.130974 39.535143 
L 705.224259 39.296674 
L 705.242916 39.413177 
L 708.78775 60.843991 
L 712.220642 80.261401 
L 715.541592 97.794066 
L 718.7506 113.566452 
L 721.847666 127.698829 
L 724.832789 140.307272 
L 727.724628 151.573353 
L 730.504524 161.523524 
L 733.172478 170.261972 
L 735.72849 177.888689 
L 738.17256 184.499473 
L 740.523345 190.228967 
L 742.762188 195.112248 
L 744.889088 199.233227 
L 746.922703 202.701335 
L 748.863034 205.580088 
L 750.710079 207.930087 
L 752.463839 209.80902 
L 754.124314 211.27166 
L 755.710161 212.381291 
L 757.240037 213.185774 
L 758.713941 213.713779 
L 760.150532 213.995102 
L 761.568466 214.046915 
L 762.986399 213.87435 
L 764.404333 213.477405 
L 765.859581 212.8367 
L 767.352143 211.934055 
L 768.900675 210.734781 
L 770.523836 209.190438 
L 772.221625 207.260471 
L 773.994042 204.902457 
L 775.859745 202.041582 
L 777.818732 198.619573 
L 779.871004 194.575247 
L 782.016562 189.844507 
L 784.255405 184.360343 
L 786.606189 177.999922 
L 789.050259 170.733174 
L 791.606271 162.420449 
L 794.255568 153.034822 
L 797.016808 142.418965 
L 799.889989 130.469392 
L 802.856456 117.1652 
L 805.934864 102.320587 
L 809.125215 85.820178 
L 812.408851 67.651074 
L 815.804429 47.597015 
L 817.147734 39.308326 
L 817.203706 39.67567 
L 821.345564 74.052615 
L 825.375481 105.662841 
L 829.293456 134.657387 
L 833.099488 161.183092 
L 836.793579 185.382602 
L 840.375727 207.394369 
L 843.845933 227.352645 
L 847.204197 245.387491 
L 850.450519 261.624771 
L 853.584899 276.186152 
L 856.607336 289.189107 
L 859.517832 300.746915 
L 862.316385 310.968656 
L 865.002996 319.959217 
L 867.577665 327.81929 
L 870.059049 334.6945 
L 872.428491 340.618188 
L 874.68599 345.679158 
L 876.850205 349.997009 
L 878.902477 353.608657 
L 880.861465 356.617655 
L 882.727167 359.085187 
L 884.499584 361.069524 
L 886.178716 362.626022 
L 887.78322 363.819349 
L 889.331753 364.698596 
L 890.824315 365.292782 
L 892.260905 365.629876 
L 893.678839 365.736737 
L 895.096773 365.619218 
L 896.514706 365.27732 
L 897.969954 364.69311 
L 899.462516 363.848409 
L 901.011049 362.709252 
L 902.615552 361.246621 
L 904.294684 359.408293 
L 906.048444 357.152314 
L 907.89549 354.405213 
L 909.83582 351.109302 
L 911.869435 347.20398 
L 913.996336 342.625733 
L 916.216522 337.308132 
L 918.548649 331.130003 
L 920.974062 324.060862 
L 923.511417 315.962791 
L 926.142057 306.808376 
L 928.884639 296.442102 
L 931.720507 284.840477 
L 934.668316 271.829535 
L 937.728068 257.298794 
L 940.881105 241.231951 
L 944.146084 223.425397 
L 947.523005 203.756765 
L 951.011868 182.099492 
L 954.612673 158.322819 
L 958.306763 132.426448 
L 962.112796 104.152463 
L 966.03077 73.358217 
L 966.403911 70.336084 
L 966.403911 70.336084 
" style="fill:none;stroke:#000000;stroke-linecap:square;stroke-width:2;"/>
   </g>
   <g id="patch_6">
    <path d="M 574.626038 382.060456 
L 574.626038 22.94 
" style="fill:none;stroke:#000000;stroke-linecap:square;stroke-linejoin:miter;stroke-width:0.8;"/>
   </g>
   <g id="patch_7">
    <path d="M 574.626038 382.060456 
L 985.06 382.060456 
" style="fill:none;stroke:#000000;stroke-linecap:square;stroke-linejoin:miter;stroke-width:0.8;"/>
   </g>
  </g>
  <g id="axes_3">
   <g id="patch_8">
    <path d="M 76.689386 804.340456 
L 487.123348 804.340456 
L 487.123348 445.22 
L 76.689386 445.22 
z
" style="fill:none;"/>
   </g>
   <g id="matplotlib.axis_5">
    <g id="xtick_13">
     <g id="line2d_29">
      <g>
       <use style="stroke:#000000;stroke-width:0.8;" x="95.345475" xlink:href="#mb1c1e67a75" y="804.340456"/>
      </g>
     </g>
     <g id="text_31">
      <!-- $0$ -->
      <g transform="translate(91.688823 821.714046)scale(0.14994 -0.14994)">
       <use transform="scale(0.996264)" xlink:href="#CMR17-48"/>
      </g>
     </g>
    </g>
    <g id="xtick_14">
     <g id="line2d_30">
      <g>
       <use style="stroke:#000000;stroke-width:0.8;" x="169.969832" xlink:href="#mb1c1e67a75" y="804.340456"/>
      </g>
     </g>
     <g id="text_32">
      <!-- $2$ -->
      <g transform="translate(166.31318 821.714046)scale(0.14994 -0.14994)">
       <use transform="scale(0.996264)" xlink:href="#CMR17-50"/>
      </g>
     </g>
    </g>
    <g id="xtick_15">
     <g id="line2d_31">
      <g>
       <use style="stroke:#000000;stroke-width:0.8;" x="244.594189" xlink:href="#mb1c1e67a75" y="804.340456"/>
      </g>
     </g>
     <g id="text_33">
      <!-- $4$ -->
      <g transform="translate(240.937537 821.714046)scale(0.14994 -0.14994)">
       <use transform="scale(0.996264)" xlink:href="#CMR17-52"/>
      </g>
     </g>
    </g>
    <g id="xtick_16">
     <g id="line2d_32">
      <g>
       <use style="stroke:#000000;stroke-width:0.8;" x="319.218545" xlink:href="#mb1c1e67a75" y="804.340456"/>
      </g>
     </g>
     <g id="text_34">
      <!-- $6$ -->
      <g transform="translate(315.561893 821.714046)scale(0.14994 -0.14994)">
       <use transform="scale(0.996264)" xlink:href="#CMR17-54"/>
      </g>
     </g>
    </g>
    <g id="xtick_17">
     <g id="line2d_33">
      <g>
       <use style="stroke:#000000;stroke-width:0.8;" x="393.842902" xlink:href="#mb1c1e67a75" y="804.340456"/>
      </g>
     </g>
     <g id="text_35">
      <!-- $8$ -->
      <g transform="translate(390.18625 821.714046)scale(0.14994 -0.14994)">
       <use transform="scale(0.996264)" xlink:href="#CMR17-56"/>
      </g>
     </g>
    </g>
    <g id="xtick_18">
     <g id="line2d_34">
      <g>
       <use style="stroke:#000000;stroke-width:0.8;" x="468.467259" xlink:href="#mb1c1e67a75" y="804.340456"/>
      </g>
     </g>
     <g id="text_36">
      <!-- $10$ -->
      <g transform="translate(461.153955 821.714046)scale(0.14994 -0.14994)">
       <use transform="scale(0.996264)" xlink:href="#CMR17-49"/>
       <use transform="translate(45.690477 0)scale(0.996264)" xlink:href="#CMR17-48"/>
      </g>
     </g>
    </g>
    <g id="text_37">
     <!-- $\varepsilon_\mathrm{xy}$ -->
     <g transform="translate(271.310823 841.071936)scale(0.18 -0.18)">
      <use transform="translate(0 14.943915)scale(0.996264)" xlink:href="#CMMI12-34"/>
      <use transform="translate(45.650192 0)scale(0.697382)" xlink:href="#CMR17-120"/>
      <use transform="translate(79.45508 0)scale(0.697382)" xlink:href="#CMR17-121"/>
     </g>
    </g>
   </g>
   <g id="matplotlib.axis_6">
    <g id="ytick_15">
     <g id="line2d_35">
      <g>
       <use style="stroke:#000000;stroke-width:0.8;" x="76.689386" xlink:href="#m3481468d54" y="774.874714"/>
      </g>
     </g>
     <g id="text_38">
      <!-- $-0.6$ -->
      <g transform="translate(39.381364 780.061509)scale(0.14994 -0.14994)">
       <use transform="scale(0.996264)" xlink:href="#CMSY10-0"/>
       <use transform="translate(77.487468 0)scale(0.996264)" xlink:href="#CMR17-48"/>
       <use transform="translate(123.177945 0)scale(0.996264)" xlink:href="#CMMI12-58"/>
       <use transform="translate(150.275122 0)scale(0.996264)" xlink:href="#CMR17-54"/>
      </g>
     </g>
    </g>
    <g id="ytick_16">
     <g id="line2d_36">
      <g>
       <use style="stroke:#000000;stroke-width:0.8;" x="76.689386" xlink:href="#m3481468d54" y="724.843219"/>
      </g>
     </g>
     <g id="text_39">
      <!-- $-0.4$ -->
      <g transform="translate(39.381364 730.030014)scale(0.14994 -0.14994)">
       <use transform="scale(0.996264)" xlink:href="#CMSY10-0"/>
       <use transform="translate(77.487468 0)scale(0.996264)" xlink:href="#CMR17-48"/>
       <use transform="translate(123.177945 0)scale(0.996264)" xlink:href="#CMMI12-58"/>
       <use transform="translate(150.275122 0)scale(0.996264)" xlink:href="#CMR17-52"/>
      </g>
     </g>
    </g>
    <g id="ytick_17">
     <g id="line2d_37">
      <g>
       <use style="stroke:#000000;stroke-width:0.8;" x="76.689386" xlink:href="#m3481468d54" y="674.811725"/>
      </g>
     </g>
     <g id="text_40">
      <!-- $-0.2$ -->
      <g transform="translate(39.381364 679.99852)scale(0.14994 -0.14994)">
       <use transform="scale(0.996264)" xlink:href="#CMSY10-0"/>
       <use transform="translate(77.487468 0)scale(0.996264)" xlink:href="#CMR17-48"/>
       <use transform="translate(123.177945 0)scale(0.996264)" xlink:href="#CMMI12-58"/>
       <use transform="translate(150.275122 0)scale(0.996264)" xlink:href="#CMR17-50"/>
      </g>
     </g>
    </g>
    <g id="ytick_18">
     <g id="line2d_38">
      <g>
       <use style="stroke:#000000;stroke-width:0.8;" x="76.689386" xlink:href="#m3481468d54" y="624.78023"/>
      </g>
     </g>
     <g id="text_41">
      <!-- $0.0$ -->
      <g transform="translate(50.999828 629.967025)scale(0.14994 -0.14994)">
       <use transform="scale(0.996264)" xlink:href="#CMR17-48"/>
       <use transform="translate(45.690477 0)scale(0.996264)" xlink:href="#CMMI12-58"/>
       <use transform="translate(72.787654 0)scale(0.996264)" xlink:href="#CMR17-48"/>
      </g>
     </g>
    </g>
    <g id="ytick_19">
     <g id="line2d_39">
      <g>
       <use style="stroke:#000000;stroke-width:0.8;" x="76.689386" xlink:href="#m3481468d54" y="574.748736"/>
      </g>
     </g>
     <g id="text_42">
      <!-- $0.2$ -->
      <g transform="translate(50.999828 579.93553)scale(0.14994 -0.14994)">
       <use transform="scale(0.996264)" xlink:href="#CMR17-48"/>
       <use transform="translate(45.690477 0)scale(0.996264)" xlink:href="#CMMI12-58"/>
       <use transform="translate(72.787654 0)scale(0.996264)" xlink:href="#CMR17-50"/>
      </g>
     </g>
    </g>
    <g id="ytick_20">
     <g id="line2d_40">
      <g>
       <use style="stroke:#000000;stroke-width:0.8;" x="76.689386" xlink:href="#m3481468d54" y="524.717241"/>
      </g>
     </g>
     <g id="text_43">
      <!-- $0.4$ -->
      <g transform="translate(50.999828 529.904036)scale(0.14994 -0.14994)">
       <use transform="scale(0.996264)" xlink:href="#CMR17-48"/>
       <use transform="translate(45.690477 0)scale(0.996264)" xlink:href="#CMMI12-58"/>
       <use transform="translate(72.787654 0)scale(0.996264)" xlink:href="#CMR17-52"/>
      </g>
     </g>
    </g>
    <g id="ytick_21">
     <g id="line2d_41">
      <g>
       <use style="stroke:#000000;stroke-width:0.8;" x="76.689386" xlink:href="#m3481468d54" y="474.685746"/>
      </g>
     </g>
     <g id="text_44">
      <!-- $0.6$ -->
      <g transform="translate(50.999828 479.872541)scale(0.14994 -0.14994)">
       <use transform="scale(0.996264)" xlink:href="#CMR17-48"/>
       <use transform="translate(45.690477 0)scale(0.996264)" xlink:href="#CMMI12-58"/>
       <use transform="translate(72.787654 0)scale(0.996264)" xlink:href="#CMR17-54"/>
      </g>
     </g>
    </g>
    <g id="text_45">
     <!-- $\sigma_\mathrm{xy}$ -->
     <g transform="translate(31.8933 636.257346)rotate(-90)scale(0.18 -0.18)">
      <use transform="translate(0 14.943915)scale(0.996264)" xlink:href="#CMMI12-27"/>
      <use transform="translate(55.445461 0)scale(0.697382)" xlink:href="#CMR17-120"/>
      <use transform="translate(89.250348 0)scale(0.697382)" xlink:href="#CMR17-121"/>
     </g>
    </g>
   </g>
   <g id="line2d_42">
    <path clip-path="url(#p8e3ab246ad)" d="M 95.345475 624.78023 
L 99.916445 594.88537 
L 102.304544 580.74778 
L 104.244875 570.543345 
L 105.90535 562.948245 
L 107.360597 557.279537 
L 108.647932 553.106223 
L 109.804667 550.072631 
L 110.830803 547.973471 
L 111.744997 546.585552 
L 112.547249 545.748853 
L 113.256216 545.309383 
L 113.909212 545.155041 
L 114.543551 545.235529 
L 115.177889 545.542873 
L 115.868199 546.134058 
L 116.633137 547.099273 
L 117.49136 548.56539 
L 118.442868 550.655467 
L 119.506319 553.553411 
L 120.700368 557.486032 
L 122.043674 562.720321 
L 123.554892 569.553096 
L 125.271338 578.390141 
L 127.286297 589.983383 
L 129.842309 606.081178 
L 134.954333 638.688042 
L 135.756585 641.985085 
L 136.372267 643.678119 
L 136.857349 644.444214 
L 137.23049 644.677743 
L 137.547659 644.629501 
L 137.883485 644.331846 
L 138.29394 643.629395 
L 138.797679 642.27775 
L 139.432018 639.867227 
L 140.23427 635.853395 
L 141.353691 628.985561 
L 144.05896 611.982459 
L 144.898526 608.236397 
L 145.551521 606.219494 
L 146.073918 605.246476 
L 146.484372 604.90419 
L 146.801542 604.899348 
L 147.118711 605.12114 
L 147.510509 605.704025 
L 147.995591 606.883582 
L 148.592616 608.985201 
L 149.338897 612.494798 
L 150.346376 618.408703 
L 152.902388 635.374843 
L 155.570342 652.244589 
L 157.417387 662.573875 
L 158.928606 669.838641 
L 160.234598 675.081329 
L 161.372676 678.773221 
L 162.361498 681.268114 
L 163.219721 682.870692 
L 163.966002 683.826653 
L 164.618998 684.323496 
L 165.197366 684.496502 
L 165.738419 684.430511 
L 166.29813 684.130737 
L 166.913812 683.530497 
L 167.604121 682.524058 
L 168.387716 680.961987 
L 169.283253 678.645601 
L 170.290733 675.390815 
L 171.447468 670.859221 
L 172.772117 664.721885 
L 174.320649 656.440283 
L 176.223666 644.984384 
L 179.059533 626.378 
L 183.08945 600.120528 
L 185.048437 588.8487 
L 186.615627 581.054008 
L 187.958932 575.439317 
L 189.115668 571.497827 
L 190.141804 568.750613 
L 191.018684 566.990389 
L 191.783622 565.911398 
L 192.455275 565.32152 
L 193.052299 565.080784 
L 193.593353 565.094173 
L 194.153064 565.339672 
L 194.750088 565.860086 
L 195.421741 566.761648 
L 196.186679 568.189631 
L 197.044902 570.287592 
L 198.033724 573.330028 
L 199.153146 577.536342 
L 200.44048 583.290099 
L 201.933042 591.035087 
L 203.742773 601.671031 
L 206.242814 617.82879 
L 214.041449 669.018996 
L 217.007916 686.795912 
L 219.4893 700.36752 
L 221.653514 711.01758 
L 223.593845 719.489466 
L 225.347605 726.18359 
L 226.933452 731.393016 
L 228.370042 735.384346 
L 229.676034 738.389655 
L 230.870083 740.603668 
L 231.95219 742.161085 
L 232.922356 743.189455 
L 233.817893 743.827178 
L 234.638802 744.147579 
L 235.422397 744.217031 
L 236.187334 744.061985 
L 236.970929 743.675177 
L 237.810495 743.00556 
L 238.724689 741.977932 
L 239.713512 740.519165 
L 240.795619 738.514474 
L 241.989668 735.815925 
L 243.29566 732.293965 
L 244.732251 727.753597 
L 246.29944 722.038357 
L 248.034543 714.835452 
L 249.956217 705.865003 
L 252.101774 694.741002 
L 254.545844 680.84426 
L 257.45634 662.944209 
L 261.374314 637.334295 
L 269.91923 581.105549 
L 272.904354 563.176628 
L 275.385738 549.566431 
L 277.568609 538.789917 
L 279.50894 530.288629 
L 281.2627 523.565701 
L 282.848547 518.328647 
L 284.285137 514.311181 
L 285.591129 511.281346 
L 286.785178 509.044386 
L 287.867285 507.46583 
L 288.856108 506.401583 
L 289.751645 505.752297 
L 290.572554 505.421253 
L 291.356149 505.341624 
L 292.121087 505.486739 
L 292.904681 505.863396 
L 293.744247 506.522185 
L 294.658442 507.538106 
L 295.647264 508.984342 
L 296.729371 510.975524 
L 297.92342 513.659468 
L 299.229412 517.165895 
L 300.666003 521.689804 
L 302.233192 527.387959 
L 303.949638 534.491227 
L 305.852655 543.342514 
L 307.979555 554.328661 
L 310.404968 568.071128 
L 313.27815 585.687107 
L 317.102839 610.628911 
L 327.867941 681.557587 
L 331.487403 703.598963 
L 334.528498 720.793136 
L 337.215109 734.74667 
L 339.640522 746.199176 
L 341.84205 755.554994 
L 343.857009 763.183187 
L 345.722711 769.402668 
L 347.439157 774.375717 
L 349.025004 778.310372 
L 350.480251 781.348467 
L 351.823557 783.656777 
L 353.054921 785.348137 
L 354.192999 786.546316 
L 355.237792 787.335214 
L 356.207957 787.799801 
L 357.140808 788.002464 
L 358.036345 787.971629 
L 358.931882 787.720042 
L 359.864734 787.2236 
L 360.853556 786.437073 
L 361.917006 785.293691 
L 363.055084 783.730983 
L 364.286448 781.649217 
L 365.629753 778.9209 
L 367.066344 775.484284 
L 368.633534 771.137506 
L 370.331323 765.745069 
L 372.159711 759.172409 
L 374.137355 751.211634 
L 376.30157 741.546517 
L 378.671012 729.910582 
L 381.282995 715.935372 
L 384.230804 698.913243 
L 387.682353 677.621852 
L 392.104068 648.857851 
L 405.219954 562.620911 
L 408.671503 541.918742 
L 411.619313 525.53904 
L 414.231296 512.232332 
L 416.600738 501.276822 
L 418.764952 492.289081 
L 420.742596 484.989267 
L 422.570985 479.059456 
L 424.250117 474.336533 
L 425.798649 470.614462 
L 427.23524 467.718612 
L 428.559889 465.532618 
L 429.772595 463.944424 
L 430.892016 462.832405 
L 431.918153 462.113689 
L 432.888318 461.699846 
L 433.802512 461.546795 
L 434.698049 461.619977 
L 435.612243 461.922336 
L 436.563751 462.480849 
L 437.57123 463.342333 
L 438.653338 464.575426 
L 439.810073 466.243369 
L 441.060093 468.447906 
L 442.422056 471.318614 
L 443.895961 474.965839 
L 445.481808 479.502602 
L 447.198254 485.106631 
L 449.063956 491.983975 
L 451.078914 500.28559 
L 453.280443 510.327885 
L 455.687199 522.373139 
L 458.37381 536.994257 
L 461.414905 554.82297 
L 465.01571 577.319244 
L 468.467259 599.862284 
L 468.467259 599.862284 
" style="fill:none;stroke:#000000;stroke-linecap:square;stroke-width:2;"/>
   </g>
   <g id="patch_9">
    <path d="M 76.689386 804.340456 
L 76.689386 445.22 
" style="fill:none;stroke:#000000;stroke-linecap:square;stroke-linejoin:miter;stroke-width:0.8;"/>
   </g>
   <g id="patch_10">
    <path d="M 76.689386 804.340456 
L 487.123348 804.340456 
" style="fill:none;stroke:#000000;stroke-linecap:square;stroke-linejoin:miter;stroke-width:0.8;"/>
   </g>
  </g>
  <g id="axes_4">
   <g id="patch_11">
    <path d="M 574.626038 804.340456 
L 985.06 804.340456 
L 985.06 445.22 
L 574.626038 445.22 
z
" style="fill:none;"/>
   </g>
   <g id="matplotlib.axis_7">
    <g id="xtick_19">
     <g id="line2d_43">
      <g>
       <use style="stroke:#000000;stroke-width:0.8;" x="593.282127" xlink:href="#mb1c1e67a75" y="804.340456"/>
      </g>
     </g>
     <g id="text_46">
      <!-- $0$ -->
      <g transform="translate(589.625475 821.714046)scale(0.14994 -0.14994)">
       <use transform="scale(0.996264)" xlink:href="#CMR17-48"/>
      </g>
     </g>
    </g>
    <g id="xtick_20">
     <g id="line2d_44">
      <g>
       <use style="stroke:#000000;stroke-width:0.8;" x="667.906484" xlink:href="#mb1c1e67a75" y="804.340456"/>
      </g>
     </g>
     <g id="text_47">
      <!-- $2$ -->
      <g transform="translate(664.249832 821.714046)scale(0.14994 -0.14994)">
       <use transform="scale(0.996264)" xlink:href="#CMR17-50"/>
      </g>
     </g>
    </g>
    <g id="xtick_21">
     <g id="line2d_45">
      <g>
       <use style="stroke:#000000;stroke-width:0.8;" x="742.530841" xlink:href="#mb1c1e67a75" y="804.340456"/>
      </g>
     </g>
     <g id="text_48">
      <!-- $4$ -->
      <g transform="translate(738.874189 821.714046)scale(0.14994 -0.14994)">
       <use transform="scale(0.996264)" xlink:href="#CMR17-52"/>
      </g>
     </g>
    </g>
    <g id="xtick_22">
     <g id="line2d_46">
      <g>
       <use style="stroke:#000000;stroke-width:0.8;" x="817.155197" xlink:href="#mb1c1e67a75" y="804.340456"/>
      </g>
     </g>
     <g id="text_49">
      <!-- $6$ -->
      <g transform="translate(813.498545 821.714046)scale(0.14994 -0.14994)">
       <use transform="scale(0.996264)" xlink:href="#CMR17-54"/>
      </g>
     </g>
    </g>
    <g id="xtick_23">
     <g id="line2d_47">
      <g>
       <use style="stroke:#000000;stroke-width:0.8;" x="891.779554" xlink:href="#mb1c1e67a75" y="804.340456"/>
      </g>
     </g>
     <g id="text_50">
      <!-- $8$ -->
      <g transform="translate(888.122902 821.714046)scale(0.14994 -0.14994)">
       <use transform="scale(0.996264)" xlink:href="#CMR17-56"/>
      </g>
     </g>
    </g>
    <g id="xtick_24">
     <g id="line2d_48">
      <g>
       <use style="stroke:#000000;stroke-width:0.8;" x="966.403911" xlink:href="#mb1c1e67a75" y="804.340456"/>
      </g>
     </g>
     <g id="text_51">
      <!-- $10$ -->
      <g transform="translate(959.090607 821.714046)scale(0.14994 -0.14994)">
       <use transform="scale(0.996264)" xlink:href="#CMR17-49"/>
       <use transform="translate(45.690477 0)scale(0.996264)" xlink:href="#CMR17-48"/>
      </g>
     </g>
    </g>
    <g id="text_52">
     <!-- $\varepsilon_\mathrm{xy}$ -->
     <g transform="translate(769.247475 841.071936)scale(0.18 -0.18)">
      <use transform="translate(0 14.943915)scale(0.996264)" xlink:href="#CMMI12-34"/>
      <use transform="translate(45.650192 0)scale(0.697382)" xlink:href="#CMR17-120"/>
      <use transform="translate(79.45508 0)scale(0.697382)" xlink:href="#CMR17-121"/>
     </g>
    </g>
   </g>
   <g id="matplotlib.axis_8">
    <g id="ytick_22">
     <g id="line2d_49">
      <g>
       <use style="stroke:#000000;stroke-width:0.8;" x="574.626038" xlink:href="#m3481468d54" y="796.985737"/>
      </g>
     </g>
     <g id="text_53">
      <!-- $-1.75$ -->
      <defs>
       <path d="M 45.09375 61.578125 
L 45.09375 63.765625 
L 21.59375 63.765625 
C 9.90625 63.765625 9.703125 65.078125 9.296875 67 
L 7.5 67 
L 4.59375 48.34375 
L 6.40625 48.34375 
C 6.703125 50.234375 7.40625 55.3125 8.59375 57.203125 
C 9.203125 58 16.59375 58 18.296875 58 
L 40.296875 58 
L 29.203125 41.578125 
C 21.796875 30.53125 16.703125 15.609375 16.703125 2.578125 
C 16.703125 1.390625 16.703125 -2 20.296875 -2 
C 23.90625 -2 23.90625 1.390625 23.90625 2.671875 
L 23.90625 7.265625 
C 23.90625 23.5625 26.703125 34.3125 31.296875 41.1875 
z
" id="CMR17-55"/>
      </defs>
      <g transform="translate(530.004712 802.172532)scale(0.14994 -0.14994)">
       <use transform="scale(0.996264)" xlink:href="#CMSY10-0"/>
       <use transform="translate(77.487468 0)scale(0.996264)" xlink:href="#CMR17-49"/>
       <use transform="translate(123.177945 0)scale(0.996264)" xlink:href="#CMMI12-58"/>
       <use transform="translate(150.275122 0)scale(0.996264)" xlink:href="#CMR17-55"/>
       <use transform="translate(195.965599 0)scale(0.996264)" xlink:href="#CMR17-53"/>
      </g>
     </g>
    </g>
    <g id="ytick_23">
     <g id="line2d_50">
      <g>
       <use style="stroke:#000000;stroke-width:0.8;" x="574.626038" xlink:href="#m3481468d54" y="749.06544"/>
      </g>
     </g>
     <g id="text_54">
      <!-- $-1.50$ -->
      <g transform="translate(530.004712 754.252235)scale(0.14994 -0.14994)">
       <use transform="scale(0.996264)" xlink:href="#CMSY10-0"/>
       <use transform="translate(77.487468 0)scale(0.996264)" xlink:href="#CMR17-49"/>
       <use transform="translate(123.177945 0)scale(0.996264)" xlink:href="#CMMI12-58"/>
       <use transform="translate(150.275122 0)scale(0.996264)" xlink:href="#CMR17-53"/>
       <use transform="translate(195.965599 0)scale(0.996264)" xlink:href="#CMR17-48"/>
      </g>
     </g>
    </g>
    <g id="ytick_24">
     <g id="line2d_51">
      <g>
       <use style="stroke:#000000;stroke-width:0.8;" x="574.626038" xlink:href="#m3481468d54" y="701.145143"/>
      </g>
     </g>
     <g id="text_55">
      <!-- $-1.25$ -->
      <g transform="translate(530.004712 706.331938)scale(0.14994 -0.14994)">
       <use transform="scale(0.996264)" xlink:href="#CMSY10-0"/>
       <use transform="translate(77.487468 0)scale(0.996264)" xlink:href="#CMR17-49"/>
       <use transform="translate(123.177945 0)scale(0.996264)" xlink:href="#CMMI12-58"/>
       <use transform="translate(150.275122 0)scale(0.996264)" xlink:href="#CMR17-50"/>
       <use transform="translate(195.965599 0)scale(0.996264)" xlink:href="#CMR17-53"/>
      </g>
     </g>
    </g>
    <g id="ytick_25">
     <g id="line2d_52">
      <g>
       <use style="stroke:#000000;stroke-width:0.8;" x="574.626038" xlink:href="#m3481468d54" y="653.224845"/>
      </g>
     </g>
     <g id="text_56">
      <!-- $-1.00$ -->
      <g transform="translate(530.004712 658.41164)scale(0.14994 -0.14994)">
       <use transform="scale(0.996264)" xlink:href="#CMSY10-0"/>
       <use transform="translate(77.487468 0)scale(0.996264)" xlink:href="#CMR17-49"/>
       <use transform="translate(123.177945 0)scale(0.996264)" xlink:href="#CMMI12-58"/>
       <use transform="translate(150.275122 0)scale(0.996264)" xlink:href="#CMR17-48"/>
       <use transform="translate(195.965599 0)scale(0.996264)" xlink:href="#CMR17-48"/>
      </g>
     </g>
    </g>
    <g id="ytick_26">
     <g id="line2d_53">
      <g>
       <use style="stroke:#000000;stroke-width:0.8;" x="574.626038" xlink:href="#m3481468d54" y="605.304548"/>
      </g>
     </g>
     <g id="text_57">
      <!-- $-0.75$ -->
      <g transform="translate(530.004712 610.491343)scale(0.14994 -0.14994)">
       <use transform="scale(0.996264)" xlink:href="#CMSY10-0"/>
       <use transform="translate(77.487468 0)scale(0.996264)" xlink:href="#CMR17-48"/>
       <use transform="translate(123.177945 0)scale(0.996264)" xlink:href="#CMMI12-58"/>
       <use transform="translate(150.275122 0)scale(0.996264)" xlink:href="#CMR17-55"/>
       <use transform="translate(195.965599 0)scale(0.996264)" xlink:href="#CMR17-53"/>
      </g>
     </g>
    </g>
    <g id="ytick_27">
     <g id="line2d_54">
      <g>
       <use style="stroke:#000000;stroke-width:0.8;" x="574.626038" xlink:href="#m3481468d54" y="557.384251"/>
      </g>
     </g>
     <g id="text_58">
      <!-- $-0.50$ -->
      <g transform="translate(530.004712 562.571046)scale(0.14994 -0.14994)">
       <use transform="scale(0.996264)" xlink:href="#CMSY10-0"/>
       <use transform="translate(77.487468 0)scale(0.996264)" xlink:href="#CMR17-48"/>
       <use transform="translate(123.177945 0)scale(0.996264)" xlink:href="#CMMI12-58"/>
       <use transform="translate(150.275122 0)scale(0.996264)" xlink:href="#CMR17-53"/>
       <use transform="translate(195.965599 0)scale(0.996264)" xlink:href="#CMR17-48"/>
      </g>
     </g>
    </g>
    <g id="ytick_28">
     <g id="line2d_55">
      <g>
       <use style="stroke:#000000;stroke-width:0.8;" x="574.626038" xlink:href="#m3481468d54" y="509.463954"/>
      </g>
     </g>
     <g id="text_59">
      <!-- $-0.25$ -->
      <g transform="translate(530.004712 514.650749)scale(0.14994 -0.14994)">
       <use transform="scale(0.996264)" xlink:href="#CMSY10-0"/>
       <use transform="translate(77.487468 0)scale(0.996264)" xlink:href="#CMR17-48"/>
       <use transform="translate(123.177945 0)scale(0.996264)" xlink:href="#CMMI12-58"/>
       <use transform="translate(150.275122 0)scale(0.996264)" xlink:href="#CMR17-50"/>
       <use transform="translate(195.965599 0)scale(0.996264)" xlink:href="#CMR17-53"/>
      </g>
     </g>
    </g>
    <g id="ytick_29">
     <g id="line2d_56">
      <g>
       <use style="stroke:#000000;stroke-width:0.8;" x="574.626038" xlink:href="#m3481468d54" y="461.543657"/>
      </g>
     </g>
     <g id="text_60">
      <!-- $0.00$ -->
      <g transform="translate(541.623176 466.730452)scale(0.14994 -0.14994)">
       <use transform="scale(0.996264)" xlink:href="#CMR17-48"/>
       <use transform="translate(45.690477 0)scale(0.996264)" xlink:href="#CMMI12-58"/>
       <use transform="translate(72.787654 0)scale(0.996264)" xlink:href="#CMR17-48"/>
       <use transform="translate(118.478131 0)scale(0.996264)" xlink:href="#CMR17-48"/>
      </g>
     </g>
    </g>
    <g id="text_61">
     <!-- $E$ -->
     <g transform="translate(522.516648 631.279233)rotate(-90)scale(0.18 -0.18)">
      <use transform="scale(0.996264)" xlink:href="#CMMI12-69"/>
     </g>
    </g>
   </g>
   <g id="line2d_57">
    <path clip-path="url(#p929556147e)" d="M 593.282127 539.229116 
L 594.177664 539.118749 
L 595.091858 538.779061 
L 596.043366 538.184085 
L 597.069502 537.270851 
L 598.188924 535.961069 
L 599.40163 534.186206 
L 600.744936 531.810098 
L 602.237498 528.700516 
L 603.91663 524.671161 
L 605.875617 519.363973 
L 608.263716 512.212901 
L 611.845864 500.688418 
L 616.56609 485.631208 
L 618.972846 478.701681 
L 620.931834 473.704599 
L 622.629623 469.955248 
L 624.140841 467.138041 
L 625.484147 465.083929 
L 626.696853 463.616369 
L 627.797618 462.615567 
L 628.823754 461.974472 
L 629.775262 461.635982 
L 630.689456 461.544903 
L 631.584993 461.677538 
L 632.555158 462.054076 
L 633.693237 462.750124 
L 635.465654 464.140703 
L 637.387327 465.566661 
L 638.506748 466.128279 
L 639.476914 466.371731 
L 640.372451 466.371158 
L 641.286645 466.147207 
L 642.294124 465.664808 
L 643.562801 464.791737 
L 647.312863 462.042438 
L 648.338999 461.657126 
L 649.253193 461.543658 
L 650.14873 461.654673 
L 651.062924 461.994421 
L 652.033089 462.601143 
L 653.077883 463.529814 
L 654.215961 464.851463 
L 655.484638 466.679899 
L 656.921229 469.156674 
L 658.600361 472.514775 
L 660.708605 477.261012 
L 664.589265 486.683622 
L 667.462447 493.360794 
L 669.38412 497.291705 
L 670.969967 500.057489 
L 672.350586 502.039058 
L 673.563293 503.412168 
L 674.664057 504.338311 
L 675.671536 504.90624 
L 676.604387 505.18708 
L 677.518581 505.23062 
L 678.414119 505.050432 
L 679.34697 504.630207 
L 680.335792 503.930844 
L 681.399242 502.896836 
L 682.574634 501.431668 
L 683.899283 499.406056 
L 685.410502 496.66641 
L 687.201576 492.932889 
L 689.552361 487.475195 
L 695.951719 472.338638 
L 697.780107 468.729356 
L 699.309983 466.176803 
L 700.653289 464.35105 
L 701.847338 463.089939 
L 702.929446 462.26122 
L 703.918268 461.776068 
L 704.851119 461.562253 
L 705.746656 461.582037 
L 706.642193 461.822513 
L 707.575044 462.307029 
L 708.563866 463.079854 
L 709.627316 464.206054 
L 710.765395 465.745517 
L 712.015415 467.827237 
L 713.377378 470.549372 
L 714.851283 474.010622 
L 716.474444 478.414409 
L 718.246861 483.889938 
L 720.205848 490.687899 
L 722.407377 499.162844 
L 724.926075 509.781701 
L 727.948512 523.535964 
L 732.22097 544.125702 
L 739.385267 578.663983 
L 742.500989 592.510987 
L 745.057001 602.895645 
L 747.277187 611.023113 
L 749.254831 617.455341 
L 751.045905 622.554862 
L 752.669066 626.53539 
L 754.161628 629.628251 
L 755.523591 631.957062 
L 756.773611 633.667936 
L 757.911689 634.86315 
L 758.956483 635.65188 
L 759.926648 636.11735 
L 760.859499 636.32118 
L 761.755036 636.291509 
L 762.650573 636.041157 
L 763.583424 635.546397 
L 764.572246 634.762793 
L 765.635697 633.625128 
L 766.792432 632.045308 
L 768.042452 629.944576 
L 769.404415 627.202333 
L 770.87832 623.720168 
L 772.501481 619.294531 
L 774.273898 613.796766 
L 776.232885 606.976456 
L 778.434414 598.479509 
L 780.953112 587.839937 
L 783.994206 573.979964 
L 788.322635 553.100352 
L 795.300362 519.461044 
L 798.416084 505.594924 
L 800.972096 495.189394 
L 803.210939 486.975776 
L 805.20724 480.472581 
L 806.998314 475.366696 
L 808.621475 471.380033 
L 810.114037 468.281268 
L 811.476 465.946886 
L 812.72602 464.230771 
L 813.864099 463.030703 
L 814.908892 462.237466 
L 815.879057 461.767781 
L 816.811908 461.559882 
L 817.707445 461.585645 
L 818.602982 461.832165 
L 819.535833 462.32334 
L 820.524655 463.104305 
L 821.588106 464.241743 
L 822.726184 465.798141 
L 823.957548 467.873158 
L 825.282196 470.553197 
L 826.718787 473.975315 
L 828.285977 478.306679 
L 829.965109 483.620105 
L 831.793497 490.168155 
L 833.771141 498.10371 
L 835.916699 507.655924 
L 838.267483 519.162428 
L 840.879467 533.096325 
L 843.808619 549.967957 
L 847.241511 571.098815 
L 851.607254 599.453493 
L 865.152252 688.428227 
L 868.566487 708.81325 
L 871.49564 725.00151 
L 874.088966 738.131618 
L 876.439751 748.92732 
L 878.585308 757.773507 
L 880.562952 765.01474 
L 882.372684 770.831957 
L 884.051816 775.508663 
L 885.600348 779.186905 
L 887.018282 782.00764 
L 888.324274 784.134246 
L 889.53698 785.698621 
L 890.637744 786.773106 
L 891.663881 787.47663 
L 892.615389 787.87082 
L 893.529583 788.014962 
L 894.42512 787.933052 
L 895.339314 787.621792 
L 896.290822 787.05404 
L 897.298301 786.182817 
L 898.380408 784.93933 
L 899.537144 783.260378 
L 900.787164 781.044088 
L 902.149127 778.160782 
L 903.623032 774.500209 
L 905.208879 769.949472 
L 906.925325 764.330839 
L 908.791027 757.438316 
L 910.805985 749.121221 
L 913.007514 739.063218 
L 915.432927 726.904827 
L 918.119538 712.260424 
L 921.160632 694.409853 
L 924.761438 671.894321 
L 929.593606 640.154432 
L 940.09751 570.790609 
L 943.7916 548.127452 
L 946.888666 530.463742 
L 949.612591 516.178944 
L 952.056661 504.512694 
L 954.276846 494.961811 
L 956.310462 487.158278 
L 958.194821 480.782886 
L 959.929924 475.674046 
L 961.515771 471.666153 
L 962.989676 468.523062 
L 964.332981 466.156827 
L 965.583002 464.38839 
L 966.403911 463.45672 
L 966.403911 463.45672 
" style="fill:none;stroke:#000000;stroke-linecap:square;stroke-width:2;"/>
   </g>
   <g id="patch_12">
    <path d="M 574.626038 804.340456 
L 574.626038 445.22 
" style="fill:none;stroke:#000000;stroke-linecap:square;stroke-linejoin:miter;stroke-width:0.8;"/>
   </g>
   <g id="patch_13">
    <path d="M 574.626038 804.340456 
L 985.06 804.340456 
" style="fill:none;stroke:#000000;stroke-linecap:square;stroke-linejoin:miter;stroke-width:0.8;"/>
   </g>
  </g>
 </g>
 <defs>
  <clipPath id="pc9d52fe000">
   <rect height="359.120456" width="410.433962" x="76.689386" y="22.94"/>
  </clipPath>
  <clipPath id="p90b44858c1">
   <rect height="359.120456" width="410.433962" x="574.626038" y="22.94"/>
  </clipPath>
  <clipPath id="p8e3ab246ad">
   <rect height="359.120456" width="410.433962" x="76.689386" y="445.22"/>
  </clipPath>
  <clipPath id="p929556147e">
   <rect height="359.120456" width="410.433962" x="574.626038" y="445.22"/>
  </clipPath>
 </defs>
</svg>
