<?xml version="1.0" encoding="utf-8" standalone="no"?>
<!DOCTYPE svg PUBLIC "-//W3C//DTD SVG 1.1//EN"
  "http://www.w3.org/Graphics/SVG/1.1/DTD/svg11.dtd">
<!-- Created with matplotlib (http://matplotlib.org/) -->
<svg height="432pt" version="1.1" viewBox="0 0 576 432" width="576pt" xmlns="http://www.w3.org/2000/svg" xmlns:xlink="http://www.w3.org/1999/xlink">
 <defs>
  <style type="text/css">
*{stroke-linecap:butt;stroke-linejoin:round;}
  </style>
 </defs>
 <g id="figure_1">
  <g id="patch_1">
   <path d="M 0 432 
L 576 432 
L 576 0 
L 0 0 
z
" style="fill:none;"/>
  </g>
  <g id="axes_1">
   <g id="patch_2">
    <path d="M 74.617824 370.349069 
L 552.903348 370.349069 
L 552.903348 37.8933 
L 74.617824 37.8933 
z
" style="fill:none;"/>
   </g>
   <g id="matplotlib.axis_1">
    <g id="xtick_1">
     <g id="line2d_1">
      <defs>
       <path d="M 0 0 
L 0 3.5 
" id="m95f44d4e9c" style="stroke:#000000;stroke-width:0.8;"/>
      </defs>
      <g>
       <use style="stroke:#000000;stroke-width:0.8;" x="74.617824" xlink:href="#m95f44d4e9c" y="370.349069"/>
      </g>
     </g>
     <g id="line2d_2">
      <defs>
       <path d="M 0 0 
L 0 -3.5 
" id="m30c50bf68d" style="stroke:#000000;stroke-width:0.8;"/>
      </defs>
      <g>
       <use style="stroke:#000000;stroke-width:0.8;" x="74.617824" xlink:href="#m30c50bf68d" y="37.8933"/>
      </g>
     </g>
     <g id="text_1">
      <!-- $-18$ -->
      <defs>
       <path d="M 65.90625 23 
C 67.59375 23 69.40625 23 69.40625 25 
C 69.40625 27 67.59375 27 65.90625 27 
L 11.796875 27 
C 10.09375 27 8.296875 27 8.296875 25 
C 8.296875 23 10.09375 23 11.796875 23 
z
" id="CMSY10-0"/>
       <path d="M 26.59375 63.40625 
C 26.59375 65.5 26.5 65.5 25.09375 65.5 
C 21.203125 61.1875 15.296875 59.796875 9.703125 59.796875 
C 9.40625 59.796875 8.90625 59.796875 8.796875 59.5 
C 8.703125 59.296875 8.703125 59.09375 8.703125 57 
C 11.796875 57 17 57.59375 21 59.984375 
L 21 7.203125 
C 21 3.6875 20.796875 2.5 12.203125 2.5 
L 9.203125 2.5 
L 9.203125 0 
C 14 0 19 0 23.796875 0 
C 28.59375 0 33.59375 0 38.40625 0 
L 38.40625 2.5 
L 35.40625 2.5 
C 26.796875 2.5 26.59375 3.59375 26.59375 7.15625 
z
" id="CMR17-49"/>
       <path d="M 27.203125 35.375 
C 33.5 38.546875 39.90625 43.328125 39.90625 50.984375 
C 39.90625 60.015625 31.09375 65.296875 23 65.296875 
C 13.90625 65.296875 5.90625 58.734375 5.90625 49.6875 
C 5.90625 47.203125 6.5 42.921875 10.40625 39.140625 
C 11.40625 38.15625 15.59375 35.171875 18.296875 33.28125 
C 13.796875 30.984375 3.296875 25.53125 3.296875 14.59375 
C 3.296875 4.359375 13.09375 -2 22.796875 -2 
C 33.5 -2 42.5 5.65625 42.5 15.78125 
C 42.5 24.84375 36.40625 29.015625 32.40625 31.703125 
z
M 14.09375 44.09375 
C 13.296875 44.59375 9.296875 47.671875 9.296875 52.359375 
C 9.296875 58.421875 15.59375 63 22.796875 63 
C 30.703125 63 36.5 57.4375 36.5 50.96875 
C 36.5 41.703125 26.09375 36.421875 25.59375 36.421875 
C 25.5 36.421875 25.40625 36.421875 24.59375 37.03125 
z
M 32.5 23.734375 
C 34 22.640625 38.796875 19.375 38.796875 13.296875 
C 38.796875 5.953125 31.40625 0.390625 23 0.390625 
C 13.90625 0.390625 7 6.84375 7 14.6875 
C 7 22.546875 13.09375 29.09375 20 32.1875 
z
" id="CMR17-56"/>
      </defs>
      <g transform="translate(61.495288 387.722658)scale(0.14994 -0.14994)">
       <use transform="scale(0.996264)" xlink:href="#CMSY10-0"/>
       <use transform="translate(77.487468 0)scale(0.996264)" xlink:href="#CMR17-49"/>
       <use transform="translate(123.177945 0)scale(0.996264)" xlink:href="#CMR17-56"/>
      </g>
     </g>
    </g>
    <g id="xtick_2">
     <g id="line2d_3">
      <g>
       <use style="stroke:#000000;stroke-width:0.8;" x="127.76066" xlink:href="#m95f44d4e9c" y="370.349069"/>
      </g>
     </g>
     <g id="line2d_4">
      <g>
       <use style="stroke:#000000;stroke-width:0.8;" x="127.76066" xlink:href="#m30c50bf68d" y="37.8933"/>
      </g>
     </g>
     <g id="text_2">
      <!-- $-16$ -->
      <defs>
       <path d="M 10.59375 34 
C 10.59375 57.65625 21.796875 63 28.296875 63 
C 30.40625 63 35.5 62.640625 37.5 59 
C 35.90625 59 32.90625 59 32.90625 55.515625 
C 32.90625 52.828125 35.09375 51.921875 36.5 51.921875 
C 37.40625 51.921875 40.09375 52.3125 40.09375 55.625 
C 40.09375 61.78125 35.09375 65.296875 28.203125 65.296875 
C 16.296875 65.296875 3.796875 52.96875 3.796875 31 
C 3.796875 3.953125 15.09375 -2 23.09375 -2 
C 32.796875 -2 42 6.671875 42 20.046875 
C 42 32.515625 33.90625 41.59375 23.703125 41.59375 
C 17.59375 41.59375 13.09375 37.609375 10.59375 30.625 
z
M 23.09375 0.390625 
C 10.796875 0.390625 10.796875 18.75 10.796875 22.4375 
C 10.796875 29.625 14.203125 40 23.5 40 
C 25.203125 40 30.09375 40 33.40625 33.125 
C 35.203125 29.21875 35.203125 25.140625 35.203125 20.140625 
C 35.203125 14.75 35.203125 10.78125 33.09375 6.78125 
C 30.90625 2.671875 27.703125 0.390625 23.09375 0.390625 
z
" id="CMR17-54"/>
      </defs>
      <g transform="translate(114.638124 387.722658)scale(0.14994 -0.14994)">
       <use transform="scale(0.996264)" xlink:href="#CMSY10-0"/>
       <use transform="translate(77.487468 0)scale(0.996264)" xlink:href="#CMR17-49"/>
       <use transform="translate(123.177945 0)scale(0.996264)" xlink:href="#CMR17-54"/>
      </g>
     </g>
    </g>
    <g id="xtick_3">
     <g id="line2d_5">
      <g>
       <use style="stroke:#000000;stroke-width:0.8;" x="180.903496" xlink:href="#m95f44d4e9c" y="370.349069"/>
      </g>
     </g>
     <g id="line2d_6">
      <g>
       <use style="stroke:#000000;stroke-width:0.8;" x="180.903496" xlink:href="#m30c50bf68d" y="37.8933"/>
      </g>
     </g>
     <g id="text_3">
      <!-- $-14$ -->
      <defs>
       <path d="M 33.59375 64.40625 
C 33.59375 66.5 33.5 66.5 31.703125 66.5 
L 2 19.59375 
L 2 17 
L 27.796875 17 
L 27.796875 7.140625 
C 27.796875 3.5 27.59375 2.5 20.59375 2.5 
L 18.703125 2.5 
L 18.703125 0 
C 21.90625 0 27.296875 0 30.703125 0 
C 34.09375 0 39.5 0 42.703125 0 
L 42.703125 2.5 
L 40.796875 2.5 
C 33.796875 2.5 33.59375 3.5 33.59375 7.140625 
L 33.59375 17 
L 43.796875 17 
L 43.796875 19.59375 
L 33.59375 19.59375 
z
M 28.09375 57.859375 
L 28.09375 19.59375 
L 4 19.59375 
z
" id="CMR17-52"/>
      </defs>
      <g transform="translate(167.78096 387.722658)scale(0.14994 -0.14994)">
       <use transform="scale(0.996264)" xlink:href="#CMSY10-0"/>
       <use transform="translate(77.487468 0)scale(0.996264)" xlink:href="#CMR17-49"/>
       <use transform="translate(123.177945 0)scale(0.996264)" xlink:href="#CMR17-52"/>
      </g>
     </g>
    </g>
    <g id="xtick_4">
     <g id="line2d_7">
      <g>
       <use style="stroke:#000000;stroke-width:0.8;" x="234.046332" xlink:href="#m95f44d4e9c" y="370.349069"/>
      </g>
     </g>
     <g id="line2d_8">
      <g>
       <use style="stroke:#000000;stroke-width:0.8;" x="234.046332" xlink:href="#m30c50bf68d" y="37.8933"/>
      </g>
     </g>
     <g id="text_4">
      <!-- $-12$ -->
      <defs>
       <path d="M 41.703125 15.453125 
L 39.90625 15.453125 
C 38.90625 8.375 38.09375 7.171875 37.703125 6.5625 
C 37.203125 5.765625 30 5.765625 28.59375 5.765625 
L 9.40625 5.765625 
C 13 9.671875 20 16.75 28.5 24.953125 
C 34.59375 30.734375 41.703125 37.53125 41.703125 47.421875 
C 41.703125 59.21875 32.296875 66 21.796875 66 
C 10.796875 66 4.09375 56.3125 4.09375 47.34375 
C 4.09375 43.4375 7 42.9375 8.203125 42.9375 
C 9.203125 42.9375 12.203125 43.546875 12.203125 47.03125 
C 12.203125 50.109375 9.59375 51 8.203125 51 
C 7.59375 51 7 50.90625 6.59375 50.703125 
C 8.5 59.21875 14.296875 63.40625 20.40625 63.40625 
C 29.09375 63.40625 34.796875 56.515625 34.796875 47.421875 
C 34.796875 38.734375 29.703125 31.25 24 24.75 
L 4.09375 2.28125 
L 4.09375 0 
L 39.296875 0 
z
" id="CMR17-50"/>
      </defs>
      <g transform="translate(220.923796 387.722658)scale(0.14994 -0.14994)">
       <use transform="scale(0.996264)" xlink:href="#CMSY10-0"/>
       <use transform="translate(77.487468 0)scale(0.996264)" xlink:href="#CMR17-49"/>
       <use transform="translate(123.177945 0)scale(0.996264)" xlink:href="#CMR17-50"/>
      </g>
     </g>
    </g>
    <g id="xtick_5">
     <g id="line2d_9">
      <g>
       <use style="stroke:#000000;stroke-width:0.8;" x="287.189168" xlink:href="#m95f44d4e9c" y="370.349069"/>
      </g>
     </g>
     <g id="line2d_10">
      <g>
       <use style="stroke:#000000;stroke-width:0.8;" x="287.189168" xlink:href="#m30c50bf68d" y="37.8933"/>
      </g>
     </g>
     <g id="text_5">
      <!-- $-10$ -->
      <defs>
       <path d="M 42 31.640625 
C 42 37.75 41.90625 48.125 37.703125 56.109375 
C 34 63.109375 28.09375 65.59375 22.90625 65.59375 
C 18.09375 65.59375 12 63.40625 8.203125 56.203125 
C 4.203125 48.71875 3.796875 39.4375 3.796875 31.640625 
C 3.796875 25.953125 3.90625 17.28125 7 9.671875 
C 11.296875 -0.609375 19 -2 22.90625 -2 
C 27.5 -2 34.5 -0.109375 38.59375 9.375 
C 41.59375 16.28125 42 24.359375 42 31.640625 
z
M 22.90625 -0.40625 
C 16.5 -0.40625 12.703125 5.078125 11.296875 12.6875 
C 10.203125 18.5625 10.203125 27.15625 10.203125 32.75 
C 10.203125 40.4375 10.203125 46.828125 11.5 52.921875 
C 13.40625 61.390625 19 64 22.90625 64 
C 27 64 32.296875 61.296875 34.203125 53.125 
C 35.5 47.4375 35.59375 40.734375 35.59375 32.75 
C 35.59375 26.25 35.59375 18.265625 34.40625 12.375 
C 32.296875 1.484375 26.40625 -0.40625 22.90625 -0.40625 
z
" id="CMR17-48"/>
      </defs>
      <g transform="translate(274.066632 387.722658)scale(0.14994 -0.14994)">
       <use transform="scale(0.996264)" xlink:href="#CMSY10-0"/>
       <use transform="translate(77.487468 0)scale(0.996264)" xlink:href="#CMR17-49"/>
       <use transform="translate(123.177945 0)scale(0.996264)" xlink:href="#CMR17-48"/>
      </g>
     </g>
    </g>
    <g id="xtick_6">
     <g id="line2d_11">
      <g>
       <use style="stroke:#000000;stroke-width:0.8;" x="340.332004" xlink:href="#m95f44d4e9c" y="370.349069"/>
      </g>
     </g>
     <g id="line2d_12">
      <g>
       <use style="stroke:#000000;stroke-width:0.8;" x="340.332004" xlink:href="#m30c50bf68d" y="37.8933"/>
      </g>
     </g>
     <g id="text_6">
      <!-- $-8$ -->
      <g transform="translate(330.86612 387.722658)scale(0.14994 -0.14994)">
       <use transform="scale(0.996264)" xlink:href="#CMSY10-0"/>
       <use transform="translate(77.487468 0)scale(0.996264)" xlink:href="#CMR17-56"/>
      </g>
     </g>
    </g>
    <g id="xtick_7">
     <g id="line2d_13">
      <g>
       <use style="stroke:#000000;stroke-width:0.8;" x="393.47484" xlink:href="#m95f44d4e9c" y="370.349069"/>
      </g>
     </g>
     <g id="line2d_14">
      <g>
       <use style="stroke:#000000;stroke-width:0.8;" x="393.47484" xlink:href="#m30c50bf68d" y="37.8933"/>
      </g>
     </g>
     <g id="text_7">
      <!-- $-6$ -->
      <g transform="translate(384.008956 387.722658)scale(0.14994 -0.14994)">
       <use transform="scale(0.996264)" xlink:href="#CMSY10-0"/>
       <use transform="translate(77.487468 0)scale(0.996264)" xlink:href="#CMR17-54"/>
      </g>
     </g>
    </g>
    <g id="xtick_8">
     <g id="line2d_15">
      <g>
       <use style="stroke:#000000;stroke-width:0.8;" x="446.617676" xlink:href="#m95f44d4e9c" y="370.349069"/>
      </g>
     </g>
     <g id="line2d_16">
      <g>
       <use style="stroke:#000000;stroke-width:0.8;" x="446.617676" xlink:href="#m30c50bf68d" y="37.8933"/>
      </g>
     </g>
     <g id="text_8">
      <!-- $-4$ -->
      <g transform="translate(437.151792 387.722658)scale(0.14994 -0.14994)">
       <use transform="scale(0.996264)" xlink:href="#CMSY10-0"/>
       <use transform="translate(77.487468 0)scale(0.996264)" xlink:href="#CMR17-52"/>
      </g>
     </g>
    </g>
    <g id="xtick_9">
     <g id="line2d_17">
      <g>
       <use style="stroke:#000000;stroke-width:0.8;" x="499.760512" xlink:href="#m95f44d4e9c" y="370.349069"/>
      </g>
     </g>
     <g id="line2d_18">
      <g>
       <use style="stroke:#000000;stroke-width:0.8;" x="499.760512" xlink:href="#m30c50bf68d" y="37.8933"/>
      </g>
     </g>
     <g id="text_9">
      <!-- $-2$ -->
      <g transform="translate(490.294628 387.722658)scale(0.14994 -0.14994)">
       <use transform="scale(0.996264)" xlink:href="#CMSY10-0"/>
       <use transform="translate(77.487468 0)scale(0.996264)" xlink:href="#CMR17-50"/>
      </g>
     </g>
    </g>
    <g id="xtick_10">
     <g id="line2d_19">
      <g>
       <use style="stroke:#000000;stroke-width:0.8;" x="552.903348" xlink:href="#m95f44d4e9c" y="370.349069"/>
      </g>
     </g>
     <g id="line2d_20">
      <g>
       <use style="stroke:#000000;stroke-width:0.8;" x="552.903348" xlink:href="#m30c50bf68d" y="37.8933"/>
      </g>
     </g>
     <g id="text_10">
      <!-- $0$ -->
      <g transform="translate(549.246696 387.722658)scale(0.14994 -0.14994)">
       <use transform="scale(0.996264)" xlink:href="#CMR17-48"/>
      </g>
     </g>
    </g>
    <g id="text_11">
     <!-- $|| \delta \bm{\epsilon} ||$ -->
     <defs>
      <path d="M 15.90625 71.40625 
C 15.90625 73.203125 15.90625 75 13.90625 75 
C 11.90625 75 11.90625 73.203125 11.90625 71.40625 
L 11.90625 -21.40625 
C 11.90625 -23.203125 11.90625 -25 13.90625 -25 
C 15.90625 -25 15.90625 -23.203125 15.90625 -21.40625 
z
" id="CMSY10-106"/>
      <path d="M 26 43.671875 
C 13.203125 40.578125 4 27.3125 4 15.640625 
C 4 4.984375 11.203125 -1 19.203125 -1 
C 31 -1 39 15.15625 39 28.40625 
C 39 37.375 34.796875 42.875 32.296875 46.15625 
C 28.59375 50.84375 22.59375 58.53125 22.59375 63.3125 
C 22.59375 65.015625 23.90625 68 28.296875 68 
C 31.40625 68 33.296875 66.90625 36.296875 65.203125 
C 37.203125 64.59375 39.5 63.3125 40.796875 63.3125 
C 42.90625 63.3125 44.40625 65.390625 44.40625 66.984375 
C 44.40625 68.890625 42.90625 69.1875 39.40625 69.984375 
C 34.703125 70.984375 33.296875 70.984375 31.59375 70.984375 
C 29.90625 70.984375 20.09375 70.984375 20.09375 60.8125 
C 20.09375 55.921875 22.59375 50.25 26 43.671875 
z
M 27.09375 41.703125 
C 30.90625 33.828125 32.40625 30.84375 32.40625 24.375 
C 32.40625 16.609375 28.203125 0.984375 19.296875 0.984375 
C 15.40625 0.984375 9.796875 3.578125 9.796875 12.828125 
C 9.796875 19.296875 13.5 38.109375 27.09375 41.703125 
z
" id="CMMI12-14"/>
      <path d="M 35.90625 21.296875 
C 37.40625 21.296875 39.796875 21.296875 39.796875 23.796875 
C 39.796875 26 37.90625 26 36 26 
L 18.90625 26 
C 20.5 32.28125 24.203125 39.859375 36.09375 39.859375 
L 40.296875 39.859375 
C 41.703125 39.859375 44.40625 39.859375 44.40625 42.453125 
C 44.40625 43.25 43.90625 44.453125 42.40625 44.5625 
L 38.203125 44.5625 
C 32.796875 44.5625 22.203125 44.5625 13.5 36.71875 
C 8.796875 32.515625 5 25.890625 5 17.96875 
C 5 4.3125 16.5 -0.796875 28.203125 -0.796875 
C 29.59375 -0.796875 32.90625 -0.796875 37.59375 0.90625 
C 38 1 43.59375 3.09375 43.59375 4.703125 
C 43.59375 5.796875 43 7.703125 41.703125 7.703125 
C 41.296875 7.703125 41.09375 7.703125 40.09375 7 
C 34.09375 3.40625 31 2.796875 28.5 2.796875 
C 26 2.796875 16.59375 3.296875 16.59375 13.703125 
C 16.59375 16.296875 17.09375 18.796875 17.703125 21.296875 
z
" id="CMMIB10-15"/>
     </defs>
     <g transform="translate(295.239464 408.076812)scale(0.18 -0.18)">
      <use transform="scale(0.996264)" xlink:href="#CMSY10-106"/>
      <use transform="translate(27.674085 0)scale(0.996264)" xlink:href="#CMSY10-106"/>
      <use transform="translate(55.348169 0)scale(0.996264)" xlink:href="#CMMI12-14"/>
      <use transform="translate(102.289556 0)scale(0.996264)" xlink:href="#CMMIB10-15"/>
      <use transform="translate(150.442144 0)scale(0.996264)" xlink:href="#CMSY10-106"/>
      <use transform="translate(178.116229 0)scale(0.996264)" xlink:href="#CMSY10-106"/>
     </g>
    </g>
   </g>
   <g id="matplotlib.axis_2">
    <g id="ytick_1">
     <g id="line2d_21">
      <defs>
       <path d="M 0 0 
L -3.5 0 
" id="md8fa93ca30" style="stroke:#000000;stroke-width:0.8;"/>
      </defs>
      <g>
       <use style="stroke:#000000;stroke-width:0.8;" x="74.617824" xlink:href="#md8fa93ca30" y="370.349069"/>
      </g>
     </g>
     <g id="line2d_22">
      <defs>
       <path d="M 0 0 
L 3.5 0 
" id="m6da8495a40" style="stroke:#000000;stroke-width:0.8;"/>
      </defs>
      <g>
       <use style="stroke:#000000;stroke-width:0.8;" x="552.903348" xlink:href="#m6da8495a40" y="370.349069"/>
      </g>
     </g>
     <g id="text_12">
      <!-- $-18$ -->
      <g transform="translate(41.372752 375.535864)scale(0.14994 -0.14994)">
       <use transform="scale(0.996264)" xlink:href="#CMSY10-0"/>
       <use transform="translate(77.487468 0)scale(0.996264)" xlink:href="#CMR17-49"/>
       <use transform="translate(123.177945 0)scale(0.996264)" xlink:href="#CMR17-56"/>
      </g>
     </g>
    </g>
    <g id="ytick_2">
     <g id="line2d_23">
      <g>
       <use style="stroke:#000000;stroke-width:0.8;" x="74.617824" xlink:href="#md8fa93ca30" y="333.409539"/>
      </g>
     </g>
     <g id="line2d_24">
      <g>
       <use style="stroke:#000000;stroke-width:0.8;" x="552.903348" xlink:href="#m6da8495a40" y="333.409539"/>
      </g>
     </g>
     <g id="text_13">
      <!-- $-16$ -->
      <g transform="translate(41.372752 338.596334)scale(0.14994 -0.14994)">
       <use transform="scale(0.996264)" xlink:href="#CMSY10-0"/>
       <use transform="translate(77.487468 0)scale(0.996264)" xlink:href="#CMR17-49"/>
       <use transform="translate(123.177945 0)scale(0.996264)" xlink:href="#CMR17-54"/>
      </g>
     </g>
    </g>
    <g id="ytick_3">
     <g id="line2d_25">
      <g>
       <use style="stroke:#000000;stroke-width:0.8;" x="74.617824" xlink:href="#md8fa93ca30" y="296.470009"/>
      </g>
     </g>
     <g id="line2d_26">
      <g>
       <use style="stroke:#000000;stroke-width:0.8;" x="552.903348" xlink:href="#m6da8495a40" y="296.470009"/>
      </g>
     </g>
     <g id="text_14">
      <!-- $-14$ -->
      <g transform="translate(41.372752 301.656804)scale(0.14994 -0.14994)">
       <use transform="scale(0.996264)" xlink:href="#CMSY10-0"/>
       <use transform="translate(77.487468 0)scale(0.996264)" xlink:href="#CMR17-49"/>
       <use transform="translate(123.177945 0)scale(0.996264)" xlink:href="#CMR17-52"/>
      </g>
     </g>
    </g>
    <g id="ytick_4">
     <g id="line2d_27">
      <g>
       <use style="stroke:#000000;stroke-width:0.8;" x="74.617824" xlink:href="#md8fa93ca30" y="259.530479"/>
      </g>
     </g>
     <g id="line2d_28">
      <g>
       <use style="stroke:#000000;stroke-width:0.8;" x="552.903348" xlink:href="#m6da8495a40" y="259.530479"/>
      </g>
     </g>
     <g id="text_15">
      <!-- $-12$ -->
      <g transform="translate(41.372752 264.717274)scale(0.14994 -0.14994)">
       <use transform="scale(0.996264)" xlink:href="#CMSY10-0"/>
       <use transform="translate(77.487468 0)scale(0.996264)" xlink:href="#CMR17-49"/>
       <use transform="translate(123.177945 0)scale(0.996264)" xlink:href="#CMR17-50"/>
      </g>
     </g>
    </g>
    <g id="ytick_5">
     <g id="line2d_29">
      <g>
       <use style="stroke:#000000;stroke-width:0.8;" x="74.617824" xlink:href="#md8fa93ca30" y="222.590949"/>
      </g>
     </g>
     <g id="line2d_30">
      <g>
       <use style="stroke:#000000;stroke-width:0.8;" x="552.903348" xlink:href="#m6da8495a40" y="222.590949"/>
      </g>
     </g>
     <g id="text_16">
      <!-- $-10$ -->
      <g transform="translate(41.372752 227.777744)scale(0.14994 -0.14994)">
       <use transform="scale(0.996264)" xlink:href="#CMSY10-0"/>
       <use transform="translate(77.487468 0)scale(0.996264)" xlink:href="#CMR17-49"/>
       <use transform="translate(123.177945 0)scale(0.996264)" xlink:href="#CMR17-48"/>
      </g>
     </g>
    </g>
    <g id="ytick_6">
     <g id="line2d_31">
      <g>
       <use style="stroke:#000000;stroke-width:0.8;" x="74.617824" xlink:href="#md8fa93ca30" y="185.651419"/>
      </g>
     </g>
     <g id="line2d_32">
      <g>
       <use style="stroke:#000000;stroke-width:0.8;" x="552.903348" xlink:href="#m6da8495a40" y="185.651419"/>
      </g>
     </g>
     <g id="text_17">
      <!-- $-8$ -->
      <g transform="translate(48.686056 190.838214)scale(0.14994 -0.14994)">
       <use transform="scale(0.996264)" xlink:href="#CMSY10-0"/>
       <use transform="translate(77.487468 0)scale(0.996264)" xlink:href="#CMR17-56"/>
      </g>
     </g>
    </g>
    <g id="ytick_7">
     <g id="line2d_33">
      <g>
       <use style="stroke:#000000;stroke-width:0.8;" x="74.617824" xlink:href="#md8fa93ca30" y="148.71189"/>
      </g>
     </g>
     <g id="line2d_34">
      <g>
       <use style="stroke:#000000;stroke-width:0.8;" x="552.903348" xlink:href="#m6da8495a40" y="148.71189"/>
      </g>
     </g>
     <g id="text_18">
      <!-- $-6$ -->
      <g transform="translate(48.686056 153.898685)scale(0.14994 -0.14994)">
       <use transform="scale(0.996264)" xlink:href="#CMSY10-0"/>
       <use transform="translate(77.487468 0)scale(0.996264)" xlink:href="#CMR17-54"/>
      </g>
     </g>
    </g>
    <g id="ytick_8">
     <g id="line2d_35">
      <g>
       <use style="stroke:#000000;stroke-width:0.8;" x="74.617824" xlink:href="#md8fa93ca30" y="111.77236"/>
      </g>
     </g>
     <g id="line2d_36">
      <g>
       <use style="stroke:#000000;stroke-width:0.8;" x="552.903348" xlink:href="#m6da8495a40" y="111.77236"/>
      </g>
     </g>
     <g id="text_19">
      <!-- $-4$ -->
      <g transform="translate(48.686056 116.959155)scale(0.14994 -0.14994)">
       <use transform="scale(0.996264)" xlink:href="#CMSY10-0"/>
       <use transform="translate(77.487468 0)scale(0.996264)" xlink:href="#CMR17-52"/>
      </g>
     </g>
    </g>
    <g id="ytick_9">
     <g id="line2d_37">
      <g>
       <use style="stroke:#000000;stroke-width:0.8;" x="74.617824" xlink:href="#md8fa93ca30" y="74.83283"/>
      </g>
     </g>
     <g id="line2d_38">
      <g>
       <use style="stroke:#000000;stroke-width:0.8;" x="552.903348" xlink:href="#m6da8495a40" y="74.83283"/>
      </g>
     </g>
     <g id="text_20">
      <!-- $-2$ -->
      <g transform="translate(48.686056 80.019625)scale(0.14994 -0.14994)">
       <use transform="scale(0.996264)" xlink:href="#CMSY10-0"/>
       <use transform="translate(77.487468 0)scale(0.996264)" xlink:href="#CMR17-50"/>
      </g>
     </g>
    </g>
    <g id="ytick_10">
     <g id="line2d_39">
      <g>
       <use style="stroke:#000000;stroke-width:0.8;" x="74.617824" xlink:href="#md8fa93ca30" y="37.8933"/>
      </g>
     </g>
     <g id="line2d_40">
      <g>
       <use style="stroke:#000000;stroke-width:0.8;" x="552.903348" xlink:href="#m6da8495a40" y="37.8933"/>
      </g>
     </g>
     <g id="text_21">
      <!-- $0$ -->
      <g transform="translate(60.30452 43.080095)scale(0.14994 -0.14994)">
       <use transform="scale(0.996264)" xlink:href="#CMR17-48"/>
      </g>
     </g>
    </g>
    <g id="text_22">
     <!-- $|| \delta \bm{\sigma}  - \bm{K} : \delta \bm{\epsilon} || / || \delta \bm{\epsilon} ||$ -->
     <defs>
      <path d="M 33.90625 44 
C 13.296875 44 4.203125 25.171875 4.203125 14.828125 
C 4.203125 4.078125 12.296875 -1 23 -1 
C 41.296875 -1 51.90625 12.75 51.90625 26.890625 
C 51.90625 29.375 51.5 32.078125 50.5 34.46875 
L 60.09375 34.46875 
C 62 34.46875 63.59375 34.46875 65.09375 35.953125 
C 65.796875 36.640625 67.09375 37.84375 67.09375 40.125 
C 67.09375 44 63.59375 44 61.796875 44 
z
M 23.203125 2.578125 
C 14.5 2.578125 14.5 9.546875 14.5 11.15625 
C 14.5 14.921875 16.703125 24.390625 19 28.09375 
C 21 31.46875 24.296875 34.46875 31.90625 34.46875 
C 40.09375 34.46875 41.09375 31.0625 41.09375 27.5 
C 41.09375 24.5 39.09375 14.53125 35.90625 9.640625 
C 31.796875 3.46875 26 2.578125 23.203125 2.578125 
z
" id="CMMIB10-27"/>
      <path d="M 58.90625 41.6875 
C 65.59375 46.34375 83.90625 59.15625 87.40625 60.9375 
C 89.703125 62.125 91.796875 63.21875 96.90625 63.21875 
C 98.703125 63.21875 100.296875 63.21875 100.296875 66.125 
C 100.296875 67.046875 99.5 68 98.5 68 
C 96 68 93.09375 68 90.5 68 
C 86.40625 68 82.09375 68 78 68 
C 77.203125 68 75.203125 68 75.203125 65.046875 
C 75.203125 63.21875 77 63.21875 77.59375 63.21875 
C 78.40625 63.21875 80.5 63.21875 82.203125 62.625 
L 36.59375 31.421875 
L 44.5 62.828125 
C 46.703125 63.21875 50.203125 63.21875 51.296875 63.21875 
C 52.59375 63.21875 54.59375 63.21875 55 63.515625 
C 56 64.234375 56.09375 66.078125 56.09375 66.171875 
C 56.09375 67.484375 55.09375 68 53.90625 68 
C 51.40625 68 48.796875 67.703125 46.296875 67.703125 
C 43.796875 67.703125 41.296875 67.703125 38.796875 67.703125 
C 36.203125 67.703125 33.59375 67.703125 31.09375 67.703125 
C 28.5 67.703125 25.796875 68 23.203125 68 
C 22.296875 68 20.296875 68 20.296875 65.046875 
C 20.296875 63.21875 21.59375 63.21875 24.5 63.21875 
C 26.59375 63.21875 28.5 63.21875 30.59375 63.21875 
L 16.296875 6.5625 
C 15.90625 4.96875 15.796875 4.875 14 4.671875 
C 12.296875 4.671875 10.296875 4.671875 8.703125 4.671875 
C 6.09375 4.671875 5.90625 4.671875 5.5 4.484375 
C 4.296875 3.78125 4.296875 2.1875 4.296875 1.796875 
C 4.296875 1.59375 4.40625 0 6.5 0 
C 9 0 11.59375 0 14.09375 0 
C 16.59375 0 19.203125 0 21.703125 0 
C 24.296875 0 26.90625 0 29.40625 0 
C 32 0 34.703125 0 37.203125 0 
C 38.203125 0 38.90625 0 39.5 0.703125 
C 39.90625 1.296875 40.09375 2.6875 40.09375 2.890625 
C 40.09375 4.671875 38.703125 4.671875 36 4.671875 
C 33.90625 4.671875 32 4.671875 29.90625 4.671875 
L 35.09375 25.40625 
L 47.5 33.890625 
L 62.40625 5.265625 
C 60.40625 4.671875 57.40625 4.671875 57 4.671875 
C 55.703125 4.671875 55.09375 4.671875 54.5 3.984375 
C 54.09375 3.484375 53.90625 1.984375 53.90625 1.796875 
C 53.90625 1.6875 53.90625 0 56 0 
C 59.296875 0 67.5 0 70.796875 0 
C 72.90625 0 75.09375 0 77.203125 0 
C 79.203125 0 81.296875 0 83.203125 0 
C 83.90625 0 85.90625 0 85.90625 2.890625 
C 85.90625 4.671875 84.203125 4.671875 82.703125 4.671875 
C 78.09375 4.671875 77.90625 5.078125 77.09375 6.671875 
z
" id="CMMIB10-75"/>
      <path d="M 16.59375 38.921875 
C 16.59375 41.40625 14.59375 43 12.5 43 
C 10.5 43 8.40625 41.40625 8.40625 38.921875 
C 8.40625 36.4375 10.40625 34.84375 12.5 34.84375 
C 14.5 34.84375 16.59375 36.4375 16.59375 38.921875 
z
M 16.59375 4.078125 
C 16.59375 6.5625 14.59375 8.15625 12.5 8.15625 
C 10.5 8.15625 8.40625 6.5625 8.40625 4.078125 
C 8.40625 1.59375 10.40625 0 12.5 0 
C 14.5 0 16.59375 1.59375 16.59375 4.078125 
z
" id="CMR17-58"/>
      <path d="M 42.90625 71.28125 
C 42.90625 71.390625 43.5 72.90625 43.5 73.09375 
C 43.5 74.296875 42.5 75 41.703125 75 
C 41.203125 75 40.296875 75 39.5 72.796875 
L 6 -21.296875 
C 6 -21.40625 5.40625 -22.890625 5.40625 -23.09375 
C 5.40625 -24.296875 6.40625 -25 7.203125 -25 
C 7.796875 -25 8.703125 -24.890625 9.40625 -22.796875 
z
" id="CMMI12-61"/>
     </defs>
     <g transform="translate(32.889564 283.772154)rotate(-90)scale(0.18 -0.18)">
      <use transform="scale(0.996264)" xlink:href="#CMSY10-106"/>
      <use transform="translate(27.674085 0)scale(0.996264)" xlink:href="#CMSY10-106"/>
      <use transform="translate(55.348169 0)scale(0.996264)" xlink:href="#CMMI12-14"/>
      <use transform="translate(102.289556 0)scale(0.996264)" xlink:href="#CMMIB10-27"/>
      <use transform="translate(196.450141 0)scale(0.996264)" xlink:href="#CMSY10-0"/>
      <use transform="translate(296.076815 0)scale(0.996264)" xlink:href="#CMMIB10-75"/>
      <use transform="translate(427.458706 0)scale(0.996264)" xlink:href="#CMR17-58"/>
      <use transform="translate(480.003773 0)scale(0.996264)" xlink:href="#CMMI12-14"/>
      <use transform="translate(526.945159 0)scale(0.996264)" xlink:href="#CMMIB10-15"/>
      <use transform="translate(575.097747 0)scale(0.996264)" xlink:href="#CMSY10-106"/>
      <use transform="translate(602.771832 0)scale(0.996264)" xlink:href="#CMSY10-106"/>
      <use transform="translate(630.445917 0)scale(0.996264)" xlink:href="#CMMI12-61"/>
      <use transform="translate(679.220836 0)scale(0.996264)" xlink:href="#CMSY10-106"/>
      <use transform="translate(706.89492 0)scale(0.996264)" xlink:href="#CMSY10-106"/>
      <use transform="translate(734.569005 0)scale(0.996264)" xlink:href="#CMMI12-14"/>
      <use transform="translate(781.510391 0)scale(0.996264)" xlink:href="#CMMIB10-15"/>
      <use transform="translate(829.66298 0)scale(0.996264)" xlink:href="#CMSY10-106"/>
      <use transform="translate(857.337064 0)scale(0.996264)" xlink:href="#CMSY10-106"/>
     </g>
    </g>
   </g>
   <g id="line2d_41">
    <path clip-path="url(#p5dee9f2f21)" d="M 74.617824 370.349069 
L 552.903348 37.8933 
" style="fill:none;stroke:#000000;stroke-dasharray:7.4,3.2;stroke-dashoffset:0;stroke-width:2;"/>
   </g>
   <g id="line2d_42">
    <path clip-path="url(#p5dee9f2f21)" d="M 74.617824 37.8933 
L 552.903348 370.349069 
" style="fill:none;stroke:#000000;stroke-dasharray:7.4,3.2;stroke-dashoffset:0;stroke-width:2;"/>
   </g>
   <g id="line2d_43">
    <path clip-path="url(#p5dee9f2f21)" d="M 73.102539 26.332546 
L 74.731238 23.683616 
L 75.416266 30.293057 
L 77.928378 17.40721 
L 79.507112 25.96537 
L 80.234271 27.169276 
L 86.618595 36.297099 
L 88.435944 20.947466 
L 88.758092 19.855494 
L 89.824466 17.966377 
L 93.72673 53.154442 
L 94.877844 41.463866 
L 97.986164 32.818349 
L 98.285577 26.929859 
L 101.789924 14.317881 
L 105.157519 22.300044 
L 106.109169 35.055847 
L 107.156217 35.472776 
L 114.00245 43.224561 
L 115.992145 47.23813 
L 119.163709 47.094954 
L 122.212583 45.363011 
L 126.375524 43.778342 
L 128.858718 53.889095 
L 130.235436 43.430263 
L 133.60848 53.907398 
L 135.378195 60.153171 
L 136.542824 48.683846 
L 138.889183 57.814858 
L 139.754821 47.361838 
L 143.195103 49.617358 
L 146.191713 56.450114 
L 151.675489 63.031152 
L 151.866144 61.290647 
L 156.151177 70.848779 
L 159.052265 70.939885 
L 161.895913 71.361053 
L 163.341722 87.608934 
L 163.883776 73.489033 
L 165.885256 68.276568 
L 172.510327 70.816662 
L 173.393121 68.548567 
L 175.337569 89.523229 
L 180.684756 79.637272 
L 181.364031 93.041975 
L 182.168523 95.000717 
L 183.2093 81.109263 
L 188.259229 100.454023 
L 189.085294 94.09021 
L 193.606479 97.607199 
L 195.772556 104.336977 
L 199.939736 131.623409 
L 201.595276 110.014625 
L 203.39844 112.203878 
L 203.492701 99.253886 
L 205.854684 133.460705 
L 208.203954 105.415843 
L 212.167233 97.928422 
L 214.469923 102.026665 
L 215.250091 124.143002 
L 215.81125 92.246582 
L 219.158392 114.820958 
L 220.572696 119.940853 
L 222.957742 104.103061 
L 229.170051 122.829227 
L 232.768288 124.881899 
L 234.318931 122.689031 
L 235.394491 140.523775 
L 236.777082 123.960449 
L 237.350425 131.434254 
L 241.707677 113.999223 
L 244.072503 139.82164 
L 247.100338 145.650701 
L 248.451185 128.253195 
L 248.519491 193.311763 
L 249.178093 138.899425 
L 250.548812 135.558149 
L 258.745485 134.636815 
L 262.913593 147.116757 
L 263.117479 131.954131 
L 264.911827 143.320546 
L 264.92826 156.069413 
L 268.261586 151.778833 
L 277.968274 149.416779 
L 278.232738 146.531111 
L 281.072571 160.312644 
L 283.303588 147.345348 
L 283.754043 154.075761 
L 287.198798 160.791907 
L 288.753258 153.806591 
L 291.183149 157.639873 
L 291.525117 165.06527 
L 297.040846 167.825396 
L 298.338454 160.216594 
L 300.537652 174.940375 
L 301.328405 172.175299 
L 306.817783 169.500613 
L 308.966093 193.491629 
L 309.139386 181.855371 
L 312.135339 182.370365 
L 312.831346 185.309902 
L 315.392316 183.228669 
L 321.741587 176.023913 
L 322.043954 175.003602 
L 323.538806 174.062325 
L 327.868515 179.986882 
L 330.242501 170.429385 
L 334.045561 163.153757 
L 338.919879 165.767361 
L 342.136831 160.812818 
L 342.14065 161.791684 
L 342.393193 159.633261 
L 346.802676 155.468014 
L 349.330251 152.280035 
L 353.252952 152.264558 
L 353.766225 155.11644 
L 357.076352 149.946051 
L 361.118278 145.957112 
L 362.926748 145.536539 
L 363.241645 145.972819 
L 366.735942 144.91798 
L 372.801031 140.624399 
L 373.235398 141.018099 
L 375.62124 137.427514 
L 376.106917 138.291549 
L 376.524381 138.227992 
L 379.019274 132.128225 
L 379.546892 139.064074 
L 385.728451 130.729242 
L 389.64994 129.245052 
L 391.447467 125.744174 
L 392.909228 125.450054 
L 399.510541 120.210864 
L 401.167153 117.258032 
L 406.177013 115.706379 
L 406.53553 116.172139 
L 406.547098 116.577759 
L 407.93716 113.978173 
L 410.427145 117.610264 
L 412.281577 111.961418 
L 419.677394 106.722131 
L 419.899568 106.100787 
L 424.258229 103.398366 
L 427.278508 99.551231 
L 430.56882 99.318153 
L 432.156909 96.950077 
L 435.467137 94.439544 
L 436.428236 94.361234 
L 437.230126 93.027709 
L 443.504867 89.447378 
L 445.571489 86.258501 
L 445.597559 89.139713 
L 447.555519 87.678773 
L 448.42779 85.599981 
L 452.56472 80.942892 
L 457.07055 78.368318 
L 457.405709 81.862437 
L 460.011629 77.464036 
L 460.081918 78.284612 
L 460.700483 76.625745 
L 468.095495 71.441604 
L 468.584358 71.748453 
L 469.139095 72.357314 
L 470.966354 70.42815 
L 480.058471 62.423266 
L 480.585818 66.582349 
L 483.545548 63.140107 
L 483.808327 58.950117 
L 484.662951 58.182558 
L 489.205664 57.943807 
L 492.134599 57.210559 
L 493.794011 55.771829 
L 494.864723 50.448916 
L 498.482223 49.055121 
L 501.892618 49.995968 
L 506.773333 46.879898 
L 508.472637 46.492443 
L 510.279882 49.567333 
L 512.42828 40.62227 
L 513.843616 39.763231 
L 515.119047 42.672212 
L 521.409203 32.614462 
L 525.203928 39.352228 
L 525.646693 38.420187 
L 525.716798 38.672687 
L 526.748007 29.444826 
L 529.922084 38.47548 
L 532.914216 37.950652 
L 537.767144 37.898738 
L 538.273385 20.34692 
L 539.465155 38.425309 
L 540.72353 37.894521 
L 549.770984 37.893302 
L 549.770984 37.893302 
" style="fill:none;stroke:#ff0000;stroke-linecap:square;stroke-width:2;"/>
   </g>
   <g id="patch_3">
    <path d="M 74.617824 370.349069 
L 74.617824 37.8933 
" style="fill:none;stroke:#000000;stroke-linecap:square;stroke-linejoin:miter;stroke-width:0.8;"/>
   </g>
   <g id="patch_4">
    <path d="M 552.903348 370.349069 
L 552.903348 37.8933 
" style="fill:none;stroke:#000000;stroke-linecap:square;stroke-linejoin:miter;stroke-width:0.8;"/>
   </g>
   <g id="patch_5">
    <path d="M 74.617824 370.349069 
L 552.903348 370.349069 
" style="fill:none;stroke:#000000;stroke-linecap:square;stroke-linejoin:miter;stroke-width:0.8;"/>
   </g>
   <g id="patch_6">
    <path d="M 74.617824 37.8933 
L 552.903348 37.8933 
" style="fill:none;stroke:#000000;stroke-linecap:square;stroke-linejoin:miter;stroke-width:0.8;"/>
   </g>
   <g id="text_23">
    <!-- Consistency check -->
    <defs>
     <path d="M 62.09375 67.015625 
C 62.09375 68.796875 62 68.90625 61.40625 68.90625 
C 61 68.90625 60.90625 68.796875 60.203125 67.609375 
L 55.796875 59.25 
C 50.90625 65.421875 44.90625 69 37.203125 69 
C 20.09375 69 4.59375 54 4.59375 33.5625 
C 4.59375 12.90625 20.09375 -2 37.296875 -2 
C 52.59375 -2 62.09375 11.40625 62.09375 22.828125 
C 62.09375 23.8125 62.09375 24.21875 61.203125 24.21875 
C 60.40625 24.21875 60.40625 23.921875 60.296875 23.03125 
C 59.5 9.140625 49.5 0.59375 38.703125 0.59375 
C 28.5 0.59375 12.203125 7.734375 12.203125 33.546875 
C 12.203125 59.453125 28.796875 66.40625 38.5 66.40625 
C 49.796875 66.40625 58 56.6875 59.90625 42.890625 
C 60.09375 41.6875 60.09375 41.484375 61 41.484375 
C 62.09375 41.484375 62.09375 41.6875 62.09375 43.484375 
z
" id="CMR17-67"/>
     <path d="M 43.09375 21.1875 
C 43.09375 34 33.796875 44 22.90625 44 
C 12 44 2.703125 34 2.703125 21.1875 
C 2.703125 8.609375 12 -1 22.90625 -1 
C 33.796875 -1 43.09375 8.609375 43.09375 21.1875 
z
M 22.90625 0.796875 
C 18.203125 0.796875 14.203125 3.59375 11.90625 7.5 
C 9.40625 11.984375 9.09375 17.59375 9.09375 22 
C 9.09375 26.203125 9.296875 31.40625 11.90625 35.90625 
C 13.90625 39.203125 17.796875 42.40625 22.90625 42.40625 
C 27.40625 42.40625 31.203125 39.90625 33.59375 36.40625 
C 36.703125 31.703125 36.703125 25.109375 36.703125 22 
C 36.703125 18.09375 36.5 12.109375 33.796875 7.296875 
C 31 2.703125 26.703125 0.796875 22.90625 0.796875 
z
" id="CMR17-111"/>
     <path d="M 41.5 30.203125 
C 41.5 35.296875 40.5 43.59375 28.703125 43.59375 
C 20.796875 43.59375 16.703125 37.5 15.203125 33.5 
L 15.09375 33.5 
L 15.09375 43.59375 
L 3.296875 42.5 
L 3.296875 39.90625 
C 9.203125 39.90625 10.09375 39.296875 10.09375 34.5 
L 10.09375 6.6875 
C 10.09375 2.875 9.703125 2.390625 3.296875 2.390625 
L 3.296875 -0.203125 
C 5.703125 0 10.09375 0 12.703125 0 
C 15.296875 0 19.796875 0 22.203125 -0.203125 
L 22.203125 2.390625 
C 15.796875 2.390625 15.40625 2.78125 15.40625 6.6875 
L 15.40625 25.90625 
C 15.40625 35.109375 21 42 28 42 
C 35.40625 42 36.203125 35.40625 36.203125 30.59375 
L 36.203125 6.6875 
C 36.203125 2.875 35.796875 2.390625 29.40625 2.390625 
L 29.40625 -0.203125 
C 31.796875 0 36.203125 0 38.796875 0 
C 41.40625 0 45.90625 0 48.296875 -0.203125 
L 48.296875 2.390625 
C 41.90625 2.390625 41.5 2.78125 41.5 6.6875 
z
" id="CMR17-110"/>
     <path d="M 30.90625 42.140625 
C 30.90625 43.953125 30.796875 44.046875 30.203125 44.046875 
C 29.796875 44.046875 29.703125 43.953125 28.5 42.453125 
C 28.203125 42.046875 27.296875 41.03125 27 40.640625 
C 23.796875 44.046875 19.296875 44.046875 17.59375 44.046875 
C 6.5 44.046875 2.5 38.234375 2.5 32.4375 
C 2.5 23.40625 12.703125 21.328125 15.59375 20.703125 
C 21.90625 19.421875 24.09375 19.015625 26.203125 17.203125 
C 27.5 16.015625 29.703125 13.8125 29.703125 10.21875 
C 29.703125 6 27.296875 0.59375 18.09375 0.59375 
C 9.40625 0.59375 6.296875 7.1875 4.5 15.953125 
C 4.203125 17.34375 4.203125 17.453125 3.40625 17.453125 
C 2.59375 17.453125 2.5 17.34375 2.5 15.359375 
L 2.5 0.984375 
C 2.5 -0.796875 2.59375 -0.90625 3.203125 -0.90625 
C 3.703125 -0.90625 3.796875 -0.796875 4.296875 0 
C 4.90625 0.890625 6.40625 3.296875 7 4.3125 
C 9 1.609375 12.5 -1 18.09375 -1 
C 28 -1 33.296875 4.421875 33.296875 12.25 
C 33.296875 17.375 30.59375 20.078125 29.296875 21.28125 
C 26.296875 24.390625 22.796875 25.09375 18.59375 25.890625 
C 13.09375 27.109375 6.09375 28.515625 6.09375 34.640625 
C 6.09375 37.234375 7.5 42.765625 17.59375 42.765625 
C 28.296875 42.765625 28.90625 32.71875 29.09375 29.5 
C 29.203125 29 29.703125 28.890625 30 28.890625 
C 30.90625 28.890625 30.90625 29.203125 30.90625 30.90625 
z
" id="CMR17-115"/>
     <path d="M 15.5 61.078125 
C 15.5 63.265625 13.703125 65.15625 11.40625 65.15625 
C 9.203125 65.15625 7.296875 63.375 7.296875 61.078125 
C 7.296875 58.890625 9.09375 57 11.40625 57 
C 13.59375 57 15.5 58.796875 15.5 61.078125 
z
M 3.796875 42.28125 
L 3.796875 39.703125 
C 9.40625 39.703125 10.203125 39.09375 10.203125 34.328125 
L 10.203125 6.671875 
C 10.203125 2.875 9.796875 2.390625 3.40625 2.390625 
L 3.40625 -0.203125 
C 5.796875 0 10.09375 0 12.59375 0 
C 15 0 19.09375 0 21.40625 -0.203125 
L 21.40625 2.390625 
C 15.5 2.390625 15.296875 2.984375 15.296875 6.5625 
L 15.296875 43.375 
z
" id="CMR17-105"/>
     <path d="M 15.09375 40 
L 29.09375 40 
L 29.09375 42.578125 
L 15.09375 42.578125 
L 15.09375 61 
L 13.296875 61 
C 13.09375 50.703125 9.59375 41.6875 1.09375 41.6875 
L 1.09375 40 
L 9.796875 40 
L 9.796875 12.046875 
C 9.796875 10.15625 9.796875 -1 21.40625 -1 
C 27.296875 -1 30.703125 4.78125 30.703125 12.140625 
L 30.703125 17.8125 
L 28.90625 17.8125 
L 28.90625 12.234375 
C 28.90625 5.375 26.203125 0.796875 22 0.796875 
C 19.09375 0.796875 15.09375 2.78125 15.09375 11.84375 
z
" id="CMR17-116"/>
     <path d="M 38.09375 23 
C 38.5 23.40625 38.5 23.609375 38.5 24.625 
C 38.5 34.96875 33.09375 44 21.703125 44 
C 11.09375 44 2.703125 33.890625 2.703125 21.609375 
C 2.703125 8.609375 12.203125 -1 22.796875 -1 
C 34 -1 38.40625 9.484375 38.40625 11.5625 
C 38.40625 12.25 37.796875 12.25 37.59375 12.25 
C 36.90625 12.25 36.796875 12.046875 36.40625 10.875 
C 34.203125 4.140625 28.703125 0.796875 23.5 0.796875 
C 19.203125 0.796875 14.90625 3.171875 12.203125 7.5 
C 9.09375 12.546875 9.09375 18.375 9.09375 23 
z
M 9.203125 24.5 
C 9.90625 39.140625 17.59375 42.40625 21.59375 42.40625 
C 28.40625 42.40625 33 35.890625 33.09375 24.5 
z
" id="CMR17-101"/>
     <path d="M 34.90625 35 
C 33 35 30.203125 35 30.203125 31.515625 
C 30.203125 28.71875 32.5 27.921875 33.796875 27.921875 
C 34.5 27.921875 37.40625 28.234375 37.40625 31.625 
C 37.40625 38.546875 30.59375 43.796875 22.90625 43.796875 
C 12.296875 43.796875 3.296875 34.03125 3.296875 21.296875 
C 3.296875 8.0625 12.703125 -1 22.90625 -1 
C 35.296875 -1 38.40625 10.578125 38.40625 11.6875 
C 38.40625 12.09375 38.296875 12.390625 37.59375 12.390625 
C 36.90625 12.390625 36.796875 12.296875 36.40625 10.984375 
C 33.796875 2.8125 28.09375 0.796875 23.796875 0.796875 
C 17.40625 0.796875 9.703125 6.671875 9.703125 21.390625 
C 9.703125 36.53125 17.09375 42 23 42 
C 26.90625 42 32.703125 40.203125 34.90625 35 
z
" id="CMR17-99"/>
     <path d="M 39 34.328125 
C 41.5 40.40625 46 40.40625 47.40625 40.40625 
L 47.40625 43 
C 45.5 43 43 43 41.09375 43 
C 39 43 35.703125 43 33.703125 43.09375 
L 33.703125 40.5 
C 37.5 40.203125 37.59375 37.40625 37.59375 36.609375 
C 37.59375 35.625 37.40625 35.125 36.90625 33.921875 
L 26 7.015625 
L 14.09375 36.03125 
C 13.59375 37.21875 13.59375 37.90625 13.59375 38.015625 
C 13.59375 40.203125 15.90625 40.40625 18.296875 40.40625 
L 18.296875 43.09375 
C 15.90625 43 11.59375 43 9.09375 43 
C 6.40625 43 3.203125 43 1 43.09375 
L 1 40.40625 
C 6.40625 40.40625 7 39.90625 8.296875 36.71875 
L 23.203125 0.234375 
C 18.703125 -11.53125 16.09375 -18.40625 9.796875 -18.40625 
C 8.703125 -18.40625 6.203125 -18.109375 4.40625 -16.3125 
C 6.703125 -16.109375 7.703125 -14.71875 7.703125 -13.015625 
C 7.703125 -11.328125 6.5 -9.828125 4.5 -9.828125 
C 2.296875 -9.828125 1.203125 -11.328125 1.203125 -13.125 
C 1.203125 -17.109375 5.296875 -20 9.796875 -20 
C 15.59375 -20 19.203125 -14.40625 21.203125 -9.4375 
z
" id="CMR17-121"/>
     <path d="M 41.5 30.203125 
C 41.5 35.296875 40.5 43.59375 28.703125 43.59375 
C 20.5 43.59375 16.5 37 15.296875 33.703125 
L 15.203125 33.703125 
L 15.203125 68.6875 
L 3.296875 67.59375 
L 3.296875 65 
C 9.203125 65 10.09375 64.40625 10.09375 59.640625 
L 10.09375 6.65625 
C 10.09375 2.875 9.703125 2.390625 3.296875 2.390625 
L 3.296875 -0.203125 
C 5.703125 0 10.09375 0 12.703125 0 
C 15.296875 0 19.796875 0 22.203125 -0.203125 
L 22.203125 2.390625 
C 15.796875 2.390625 15.40625 2.78125 15.40625 6.6875 
L 15.40625 25.90625 
C 15.40625 35.109375 21 42 28 42 
C 35.40625 42 36.203125 35.40625 36.203125 30.59375 
L 36.203125 6.6875 
C 36.203125 2.875 35.796875 2.390625 29.40625 2.390625 
L 29.40625 -0.203125 
C 31.796875 0 36.203125 0 38.796875 0 
C 41.40625 0 45.90625 0 48.296875 -0.203125 
L 48.296875 2.390625 
C 41.90625 2.390625 41.5 2.78125 41.5 6.6875 
z
" id="CMR17-104"/>
     <path d="M 26.09375 26.140625 
C 26 26.34375 25.5 26.9375 25.5 27.234375 
C 25.5 27.4375 32.59375 33.921875 33.5 34.71875 
C 39.203125 39.5 42.796875 40 45.40625 40 
L 45.40625 42.703125 
C 44.796875 42.703125 44.59375 42.703125 44.5 42.5 
L 39.59375 42.5 
C 36.796875 42.5 32.5 42.5 29.796875 42.703125 
L 29.796875 40.09375 
C 31.203125 39.984375 32.203125 39.1875 32.203125 37.796875 
C 32.203125 35.796875 30.203125 33.90625 30.09375 33.90625 
L 15 20.140625 
L 15 68.6875 
L 3.09375 67.59375 
L 3.09375 65 
C 9 65 9.90625 64.40625 9.90625 59.640625 
L 9.90625 6.65625 
C 9.90625 2.875 9.5 2.390625 3.09375 2.390625 
L 3.09375 -0.203125 
C 5.5 0 9.90625 0 12.40625 0 
C 14.90625 0 19.296875 0 21.703125 -0.203125 
L 21.703125 2.390625 
C 15.296875 2.390625 14.90625 2.78125 14.90625 6.6875 
L 14.90625 17.65625 
L 21.796875 23.9375 
L 31.90625 8.96875 
C 33.09375 7.171875 34.09375 5.765625 34.09375 4.46875 
C 34.09375 2.6875 32.296875 2.390625 31.09375 2.390625 
L 31.09375 -0.203125 
C 33.5 0 37.796875 0 40.296875 0 
C 42.09375 0 45.796875 0 47.5 0 
L 47.5 2.390625 
C 42.796875 2.390625 41.703125 3.28125 38.703125 7.671875 
z
" id="CMR17-107"/>
    </defs>
    <g transform="translate(248.913286 31.8933)scale(0.18 -0.18)">
     <use transform="scale(0.996264)" xlink:href="#CMR17-67"/>
     <use transform="translate(66.509881 0)scale(0.996264)" xlink:href="#CMR17-111"/>
     <use transform="translate(112.200358 0)scale(0.996264)" xlink:href="#CMR17-110"/>
     <use transform="translate(163.095727 0)scale(0.996264)" xlink:href="#CMR17-115"/>
     <use transform="translate(198.897065 0)scale(0.996264)" xlink:href="#CMR17-105"/>
     <use transform="translate(223.768124 0)scale(0.996264)" xlink:href="#CMR17-115"/>
     <use transform="translate(259.569461 0)scale(0.996264)" xlink:href="#CMR17-116"/>
     <use transform="translate(294.850229 0)scale(0.996264)" xlink:href="#CMR17-101"/>
     <use transform="translate(335.335889 0)scale(0.996264)" xlink:href="#CMR17-110"/>
     <use transform="translate(386.231259 0)scale(0.996264)" xlink:href="#CMR17-99"/>
     <use transform="translate(426.71692 0)scale(0.996264)" xlink:href="#CMR17-121"/>
     <use transform="translate(505.085802 0)scale(0.996264)" xlink:href="#CMR17-99"/>
     <use transform="translate(542.969008 0)scale(0.996264)" xlink:href="#CMR17-104"/>
     <use transform="translate(593.864378 0)scale(0.996264)" xlink:href="#CMR17-101"/>
     <use transform="translate(634.350039 0)scale(0.996264)" xlink:href="#CMR17-99"/>
     <use transform="translate(672.233245 0)scale(0.996264)" xlink:href="#CMR17-107"/>
    </g>
   </g>
  </g>
 </g>
 <defs>
  <clipPath id="p5dee9f2f21">
   <rect height="332.455768" width="478.285524" x="74.617824" y="37.8933"/>
  </clipPath>
 </defs>
</svg>
